<svg width="275" height="98" viewBox="0 0 275 98" fill="none" xmlns="http://www.w3.org/2000/svg">
<path d="M45.3263 23.4706C42.068 25.0488 42.4626 28.2436 42.7808 29.8981C42.8697 30.3606 41.3287 32.2527 40.4899 32.9528C37.7916 35.3966 39.3656 39.3167 40.4899 40.9712C41.2535 41.9895 41.9111 43.4319 42.1445 44.0259C42.4694 44.8531 42.4213 47.2077 42.6536 48.1624C43.57 51.9298 47.3628 52.2777 49.1447 51.9807C50.9266 51.6752 51.3805 52.8079 51.6266 53.2535C53.5103 56.6645 56.5692 54.3353 57.8631 52.7444C58.6777 51.4716 60.9178 51.5777 61.936 51.7898C66.1616 53.3171 68.7877 48.1836 69.5726 45.4259C69.9799 44.5096 70.6333 44.2805 70.909 44.2805C76.1528 43.4659 76.4456 38.5954 75.9365 36.262C75.867 35.9437 77.9903 33.3346 79.182 32.1255C83.5731 27.6708 79.6275 24.5525 78.9911 23.6616C78.482 22.9489 78.6941 22.007 78.8638 21.6252C80.4421 18.0614 79.6274 15.7704 75.0455 14.3704C74.0273 13.9122 73.6618 11.6339 73.3273 10.9338C70.5908 5.20632 66.0088 8.96119 63.6542 12.9066C63.0845 13.8612 62.0887 14.6249 59.8996 13.3521C57.7104 12.0793 54.9994 14.0521 53.9176 15.1976C53.617 15.5159 52.1102 15.7194 50.7356 15.7704C48.5719 15.8505 47.1082 19.2069 46.8537 20.9251C46.5992 22.6432 45.8354 23.224 45.3263 23.4706Z" fill="#F24A41" stroke="#F24A41" stroke-width="0.254554"/>
</svg>
