<svg width="275" height="98" viewBox="0 0 275 98" fill="none" xmlns="http://www.w3.org/2000/svg">
<ellipse cx="50.557" cy="17.8479" rx="0.62145" ry="0.650657" fill="#F98568"/>
<ellipse cx="50.557" cy="17.8479" rx="0.62145" ry="0.650657" fill="#F98568"/>
<ellipse cx="50.557" cy="17.8479" rx="0.62145" ry="0.650657" fill="#F98568"/>
<ellipse cx="53.5394" cy="17.9749" rx="0.62145" ry="0.650657" fill="#F98568"/>
<ellipse cx="53.5394" cy="17.9749" rx="0.62145" ry="0.650657" fill="#F98568"/>
<ellipse cx="53.5394" cy="17.9749" rx="0.62145" ry="0.650657" fill="#F98568"/>
<ellipse cx="56.5257" cy="18.1096" rx="0.62145" ry="0.650657" fill="#F98568"/>
<ellipse cx="56.5257" cy="18.1096" rx="0.62145" ry="0.650657" fill="#F98568"/>
<ellipse cx="56.5257" cy="18.1096" rx="0.62145" ry="0.650657" fill="#F98568"/>
<ellipse cx="56.7738" cy="14.8577" rx="0.62145" ry="0.650657" fill="#F98568"/>
<ellipse cx="56.7738" cy="14.8577" rx="0.62145" ry="0.650657" fill="#F98568"/>
<ellipse cx="56.7738" cy="14.8577" rx="0.62145" ry="0.650657" fill="#F98568"/>
<ellipse cx="59.7504" cy="15.1135" rx="0.62145" ry="0.650657" fill="#F98568"/>
<ellipse cx="59.7504" cy="15.1135" rx="0.62145" ry="0.650657" fill="#F98568"/>
<ellipse cx="59.7504" cy="15.1135" rx="0.62145" ry="0.650657" fill="#F98568"/>
<ellipse cx="62.7328" cy="15.2444" rx="0.62145" ry="0.650657" fill="#F98568"/>
<ellipse cx="62.7328" cy="15.2444" rx="0.62145" ry="0.650657" fill="#F98568"/>
<ellipse cx="62.7328" cy="15.2444" rx="0.62145" ry="0.650657" fill="#F98568"/>
<ellipse cx="65.7172" cy="15.3772" rx="0.62145" ry="0.650657" fill="#F98568"/>
<ellipse cx="65.7172" cy="15.3772" rx="0.62145" ry="0.650657" fill="#F98568"/>
<ellipse cx="65.7172" cy="15.3772" rx="0.62145" ry="0.650657" fill="#F98568"/>
<ellipse cx="65.9672" cy="12.1253" rx="0.62145" ry="0.650657" fill="#F98568"/>
<ellipse cx="65.9672" cy="12.1253" rx="0.62145" ry="0.650657" fill="#F98568"/>
<ellipse cx="65.9672" cy="12.1253" rx="0.62145" ry="0.650657" fill="#F98568"/>
<ellipse cx="68.9437" cy="12.2542" rx="0.62145" ry="0.650657" fill="#F98568"/>
<ellipse cx="68.9437" cy="12.2542" rx="0.62145" ry="0.650657" fill="#F98568"/>
<ellipse cx="68.9437" cy="12.2542" rx="0.62145" ry="0.650657" fill="#F98568"/>
<ellipse cx="72.0511" cy="12.5139" rx="0.62145" ry="0.650657" fill="#F98568"/>
<ellipse cx="72.0511" cy="12.5139" rx="0.62145" ry="0.650657" fill="#F98568"/>
<ellipse cx="72.0511" cy="12.5139" rx="0.62145" ry="0.650657" fill="#F98568"/>
<ellipse cx="68.8226" cy="15.5081" rx="0.62145" ry="0.650657" fill="#F98568"/>
<ellipse cx="68.8226" cy="15.5081" rx="0.62145" ry="0.650657" fill="#F98568"/>
<ellipse cx="68.8226" cy="15.5081" rx="0.62145" ry="0.650657" fill="#F98568"/>
<ellipse cx="71.805" cy="15.635" rx="0.62145" ry="0.650657" fill="#F98568"/>
<ellipse cx="71.805" cy="15.635" rx="0.62145" ry="0.650657" fill="#F98568"/>
<ellipse cx="71.805" cy="15.635" rx="0.62145" ry="0.650657" fill="#F98568"/>
<ellipse cx="74.9105" cy="15.7659" rx="0.62145" ry="0.650657" fill="#F98568"/>
<ellipse cx="74.9105" cy="15.7659" rx="0.62145" ry="0.650657" fill="#F98568"/>
<ellipse cx="74.9105" cy="15.7659" rx="0.62145" ry="0.650657" fill="#F98568"/>
<path d="M77.4076 15.4882C77.3566 15.555 77.3187 15.6315 77.2959 15.7136C77.2732 15.7956 77.2662 15.8816 77.2752 15.9665C77.2842 16.0514 77.3091 16.1336 77.3485 16.2084C77.3879 16.2832 77.441 16.3492 77.5047 16.4026C77.5685 16.4559 77.6416 16.4956 77.72 16.5194C77.7985 16.5431 77.8806 16.5505 77.9617 16.541C78.0428 16.5316 78.1214 16.5055 78.1929 16.4643C78.2644 16.4231 78.3274 16.3675 78.3784 16.3008L78.4525 16.2082C77.9143 15.735 77.7294 15.6044 77.458 15.4392L77.4076 15.4882Z" fill="#F98568"/>
<path d="M77.4076 15.4882C77.3566 15.555 77.3187 15.6315 77.2959 15.7136C77.2732 15.7956 77.2662 15.8816 77.2752 15.9665C77.2842 16.0514 77.3091 16.1336 77.3485 16.2084C77.3879 16.2832 77.441 16.3492 77.5047 16.4026C77.5685 16.4559 77.6416 16.4956 77.72 16.5194C77.7985 16.5431 77.8806 16.5505 77.9617 16.541C78.0428 16.5316 78.1214 16.5055 78.1929 16.4643C78.2644 16.4231 78.3274 16.3675 78.3784 16.3008L78.4525 16.2082C77.9143 15.735 77.7294 15.6044 77.458 15.4392L77.4076 15.4882Z" fill="#F98568"/>
<path d="M77.4076 15.4882C77.3566 15.555 77.3187 15.6315 77.2959 15.7136C77.2732 15.7956 77.2662 15.8816 77.2752 15.9665C77.2842 16.0514 77.3091 16.1336 77.3485 16.2084C77.3879 16.2832 77.441 16.3492 77.5047 16.4026C77.5685 16.4559 77.6416 16.4956 77.72 16.5194C77.7985 16.5431 77.8806 16.5505 77.9617 16.541C78.0428 16.5316 78.1214 16.5055 78.1929 16.4643C78.2644 16.4231 78.3274 16.3675 78.3784 16.3008L78.4525 16.2082C77.9143 15.735 77.7294 15.6044 77.458 15.4392L77.4076 15.4882Z" fill="#F98568"/>
<ellipse cx="77.7679" cy="19.1507" rx="0.62145" ry="0.650657" fill="#F98568"/>
<ellipse cx="77.7679" cy="19.1507" rx="0.62145" ry="0.650657" fill="#F98568"/>
<ellipse cx="77.7679" cy="19.1507" rx="0.62145" ry="0.650657" fill="#F98568"/>
<ellipse cx="74.6625" cy="19.0159" rx="0.62145" ry="0.650657" fill="#F98568"/>
<ellipse cx="74.6625" cy="19.0159" rx="0.62145" ry="0.650657" fill="#F98568"/>
<ellipse cx="74.6625" cy="19.0159" rx="0.62145" ry="0.650657" fill="#F98568"/>
<ellipse cx="71.68" cy="18.887" rx="0.62145" ry="0.650657" fill="#F98568"/>
<ellipse cx="71.68" cy="18.887" rx="0.62145" ry="0.650657" fill="#F98568"/>
<ellipse cx="71.68" cy="18.887" rx="0.62145" ry="0.650657" fill="#F98568"/>
<ellipse cx="68.6976" cy="18.7542" rx="0.62145" ry="0.650657" fill="#F98568"/>
<ellipse cx="68.6976" cy="18.7542" rx="0.62145" ry="0.650657" fill="#F98568"/>
<ellipse cx="68.6976" cy="18.7542" rx="0.62145" ry="0.650657" fill="#F98568"/>
<ellipse cx="65.7172" cy="18.4983" rx="0.62145" ry="0.650657" fill="#F98568"/>
<ellipse cx="65.7172" cy="18.4983" rx="0.62145" ry="0.650657" fill="#F98568"/>
<ellipse cx="65.7172" cy="18.4983" rx="0.62145" ry="0.650657" fill="#F98568"/>
<ellipse cx="62.6078" cy="18.3655" rx="0.62145" ry="0.650657" fill="#F98568"/>
<ellipse cx="62.6078" cy="18.3655" rx="0.62145" ry="0.650657" fill="#F98568"/>
<ellipse cx="62.6078" cy="18.3655" rx="0.62145" ry="0.650657" fill="#F98568"/>
<ellipse cx="59.6273" cy="18.2346" rx="0.62145" ry="0.650657" fill="#F98568"/>
<ellipse cx="59.6273" cy="18.2346" rx="0.62145" ry="0.650657" fill="#F98568"/>
<ellipse cx="59.6273" cy="18.2346" rx="0.62145" ry="0.650657" fill="#F98568"/>
<ellipse cx="50.43" cy="21.0979" rx="0.62145" ry="0.650657" fill="#F98568"/>
<ellipse cx="50.43" cy="21.0979" rx="0.62145" ry="0.650657" fill="#F98568"/>
<ellipse cx="50.43" cy="21.0979" rx="0.62145" ry="0.650657" fill="#F98568"/>
<path d="M47.0248 21.0296C47.1036 21.0517 47.0873 21.0408 47.1682 21.0296C47.2491 21.0184 47.3271 20.9907 47.3978 20.9479C47.4685 20.9052 47.5304 20.8483 47.5801 20.7805C47.6298 20.7127 47.6662 20.6353 47.6873 20.5528C47.7084 20.4702 47.7138 20.3842 47.7032 20.2995C47.6925 20.2148 47.666 20.1331 47.6252 20.0591C47.5844 19.9851 47.5301 19.9203 47.4653 19.8683C47.4005 19.8163 47.4145 19.8211 47.3357 19.799L47.1682 20.3846L47.0248 21.0296Z" fill="#F98568"/>
<path d="M47.0248 21.0296C47.1036 21.0517 47.0873 21.0408 47.1682 21.0296C47.2491 21.0184 47.3271 20.9907 47.3978 20.9479C47.4685 20.9052 47.5304 20.8483 47.5801 20.7805C47.6298 20.7127 47.6662 20.6353 47.6873 20.5528C47.7084 20.4702 47.7138 20.3842 47.7032 20.2995C47.6925 20.2148 47.666 20.1331 47.6252 20.0591C47.5844 19.9851 47.5301 19.9203 47.4653 19.8683C47.4005 19.8163 47.4145 19.8211 47.3357 19.799L47.1682 20.3846L47.0248 21.0296Z" fill="#F98568"/>
<path d="M47.0248 21.0296C47.1036 21.0517 47.0873 21.0408 47.1682 21.0296C47.2491 21.0184 47.3271 20.9907 47.3978 20.9479C47.4685 20.9052 47.5304 20.8483 47.5801 20.7805C47.6298 20.7127 47.6662 20.6353 47.6873 20.5528C47.7084 20.4702 47.7138 20.3842 47.7032 20.2995C47.6925 20.2148 47.666 20.1331 47.6252 20.0591C47.5844 19.9851 47.5301 19.9203 47.4653 19.8683C47.4005 19.8163 47.4145 19.8211 47.3357 19.799L47.1682 20.3846L47.0248 21.0296Z" fill="#F98568"/>
<ellipse cx="53.5394" cy="21.3596" rx="0.62145" ry="0.650657" fill="#F98568"/>
<ellipse cx="53.5394" cy="21.3596" rx="0.62145" ry="0.650657" fill="#F98568"/>
<ellipse cx="53.5394" cy="21.3596" rx="0.62145" ry="0.650657" fill="#F98568"/>
<ellipse cx="56.5257" cy="21.4885" rx="0.62145" ry="0.650657" fill="#F98568"/>
<ellipse cx="56.5257" cy="21.4885" rx="0.62145" ry="0.650657" fill="#F98568"/>
<ellipse cx="56.5257" cy="21.4885" rx="0.62145" ry="0.650657" fill="#F98568"/>
<ellipse cx="77.7679" cy="22.5276" rx="0.62145" ry="0.650657" fill="#F98568"/>
<ellipse cx="77.7679" cy="22.5276" rx="0.62145" ry="0.650657" fill="#F98568"/>
<ellipse cx="77.7679" cy="22.5276" rx="0.62145" ry="0.650657" fill="#F98568"/>
<ellipse cx="74.6625" cy="22.3968" rx="0.62145" ry="0.650657" fill="#F98568"/>
<ellipse cx="74.6625" cy="22.3968" rx="0.62145" ry="0.650657" fill="#F98568"/>
<ellipse cx="74.6625" cy="22.3968" rx="0.62145" ry="0.650657" fill="#F98568"/>
<ellipse cx="71.68" cy="22.2639" rx="0.62145" ry="0.650657" fill="#F98568"/>
<ellipse cx="71.68" cy="22.2639" rx="0.62145" ry="0.650657" fill="#F98568"/>
<ellipse cx="71.68" cy="22.2639" rx="0.62145" ry="0.650657" fill="#F98568"/>
<ellipse cx="68.6976" cy="22.1428" rx="0.62145" ry="0.650657" fill="#F98568"/>
<ellipse cx="68.6976" cy="22.1428" rx="0.62145" ry="0.650657" fill="#F98568"/>
<ellipse cx="68.6976" cy="22.1428" rx="0.62145" ry="0.650657" fill="#F98568"/>
<ellipse cx="65.7172" cy="21.8753" rx="0.62145" ry="0.650657" fill="#F98568"/>
<ellipse cx="65.7172" cy="21.8753" rx="0.62145" ry="0.650657" fill="#F98568"/>
<ellipse cx="65.7172" cy="21.8753" rx="0.62145" ry="0.650657" fill="#F98568"/>
<ellipse cx="62.6078" cy="21.7483" rx="0.62145" ry="0.650657" fill="#F98568"/>
<ellipse cx="62.6078" cy="21.7483" rx="0.62145" ry="0.650657" fill="#F98568"/>
<ellipse cx="62.6078" cy="21.7483" rx="0.62145" ry="0.650657" fill="#F98568"/>
<ellipse cx="59.6273" cy="21.6175" rx="0.62145" ry="0.650657" fill="#F98568"/>
<ellipse cx="59.6273" cy="21.6175" rx="0.62145" ry="0.650657" fill="#F98568"/>
<ellipse cx="59.6273" cy="21.6175" rx="0.62145" ry="0.650657" fill="#F98568"/>
<ellipse cx="50.309" cy="24.3499" rx="0.62145" ry="0.650657" fill="#F98568"/>
<ellipse cx="50.309" cy="24.3499" rx="0.62145" ry="0.650657" fill="#F98568"/>
<ellipse cx="50.309" cy="24.3499" rx="0.62145" ry="0.650657" fill="#F98568"/>
<ellipse cx="53.2914" cy="24.4788" rx="0.62145" ry="0.650657" fill="#F98568"/>
<ellipse cx="53.2914" cy="24.4788" rx="0.62145" ry="0.650657" fill="#F98568"/>
<ellipse cx="53.2914" cy="24.4788" rx="0.62145" ry="0.650657" fill="#F98568"/>
<ellipse cx="56.2718" cy="24.6077" rx="0.62145" ry="0.650657" fill="#F98568"/>
<ellipse cx="56.2718" cy="24.6077" rx="0.62145" ry="0.650657" fill="#F98568"/>
<ellipse cx="56.2718" cy="24.6077" rx="0.62145" ry="0.650657" fill="#F98568"/>
<ellipse cx="77.5199" cy="25.6487" rx="0.62145" ry="0.650657" fill="#F98568"/>
<ellipse cx="77.5199" cy="25.6487" rx="0.62145" ry="0.650657" fill="#F98568"/>
<ellipse cx="77.5199" cy="25.6487" rx="0.62145" ry="0.650657" fill="#F98568"/>
<ellipse cx="74.4144" cy="25.5178" rx="0.62145" ry="0.650657" fill="#F98568"/>
<ellipse cx="74.4144" cy="25.5178" rx="0.62145" ry="0.650657" fill="#F98568"/>
<ellipse cx="74.4144" cy="25.5178" rx="0.62145" ry="0.650657" fill="#F98568"/>
<ellipse cx="71.434" cy="25.3889" rx="0.62145" ry="0.650657" fill="#F98568"/>
<ellipse cx="71.434" cy="25.3889" rx="0.62145" ry="0.650657" fill="#F98568"/>
<ellipse cx="71.434" cy="25.3889" rx="0.62145" ry="0.650657" fill="#F98568"/>
<ellipse cx="68.4496" cy="25.2561" rx="0.62145" ry="0.650657" fill="#F98568"/>
<ellipse cx="68.4496" cy="25.2561" rx="0.62145" ry="0.650657" fill="#F98568"/>
<ellipse cx="68.4496" cy="25.2561" rx="0.62145" ry="0.650657" fill="#F98568"/>
<ellipse cx="65.4613" cy="25.0003" rx="0.62145" ry="0.650657" fill="#F98568"/>
<ellipse cx="65.4613" cy="25.0003" rx="0.62145" ry="0.650657" fill="#F98568"/>
<ellipse cx="65.4613" cy="25.0003" rx="0.62145" ry="0.650657" fill="#F98568"/>
<ellipse cx="62.3597" cy="24.8675" rx="0.62145" ry="0.650657" fill="#F98568"/>
<ellipse cx="62.3597" cy="24.8675" rx="0.62145" ry="0.650657" fill="#F98568"/>
<ellipse cx="62.3597" cy="24.8675" rx="0.62145" ry="0.650657" fill="#F98568"/>
<ellipse cx="59.3773" cy="24.7405" rx="0.62145" ry="0.650657" fill="#F98568"/>
<ellipse cx="59.3773" cy="24.7405" rx="0.62145" ry="0.650657" fill="#F98568"/>
<ellipse cx="59.3773" cy="24.7405" rx="0.62145" ry="0.650657" fill="#F98568"/>
<ellipse cx="50.309" cy="27.4671" rx="0.62145" ry="0.650657" fill="#F98568"/>
<ellipse cx="50.309" cy="27.4671" rx="0.62145" ry="0.650657" fill="#F98568"/>
<ellipse cx="50.309" cy="27.4671" rx="0.62145" ry="0.650657" fill="#F98568"/>
<ellipse cx="53.2914" cy="27.5999" rx="0.62145" ry="0.650657" fill="#F98568"/>
<ellipse cx="53.2914" cy="27.5999" rx="0.62145" ry="0.650657" fill="#F98568"/>
<ellipse cx="53.2914" cy="27.5999" rx="0.62145" ry="0.650657" fill="#F98568"/>
<ellipse cx="56.2718" cy="27.7307" rx="0.62145" ry="0.650657" fill="#F98568"/>
<ellipse cx="56.2718" cy="27.7307" rx="0.62145" ry="0.650657" fill="#F98568"/>
<ellipse cx="56.2718" cy="27.7307" rx="0.62145" ry="0.650657" fill="#F98568"/>
<ellipse cx="77.5199" cy="28.7718" rx="0.62145" ry="0.650657" fill="#F98568"/>
<ellipse cx="77.5199" cy="28.7718" rx="0.62145" ry="0.650657" fill="#F98568"/>
<ellipse cx="77.5199" cy="28.7718" rx="0.62145" ry="0.650657" fill="#F98568"/>
<ellipse cx="74.4144" cy="28.6428" rx="0.62145" ry="0.650657" fill="#F98568"/>
<ellipse cx="74.4144" cy="28.6428" rx="0.62145" ry="0.650657" fill="#F98568"/>
<ellipse cx="74.4144" cy="28.6428" rx="0.62145" ry="0.650657" fill="#F98568"/>
<ellipse cx="71.434" cy="28.51" rx="0.62145" ry="0.650657" fill="#F98568"/>
<ellipse cx="71.434" cy="28.51" rx="0.62145" ry="0.650657" fill="#F98568"/>
<ellipse cx="71.434" cy="28.51" rx="0.62145" ry="0.650657" fill="#F98568"/>
<ellipse cx="68.4496" cy="28.3792" rx="0.62145" ry="0.650657" fill="#F98568"/>
<ellipse cx="68.4496" cy="28.3792" rx="0.62145" ry="0.650657" fill="#F98568"/>
<ellipse cx="68.4496" cy="28.3792" rx="0.62145" ry="0.650657" fill="#F98568"/>
<ellipse cx="65.4613" cy="28.1194" rx="0.62145" ry="0.650657" fill="#F98568"/>
<ellipse cx="65.4613" cy="28.1194" rx="0.62145" ry="0.650657" fill="#F98568"/>
<ellipse cx="65.4613" cy="28.1194" rx="0.62145" ry="0.650657" fill="#F98568"/>
<ellipse cx="62.3597" cy="27.9905" rx="0.62145" ry="0.650657" fill="#F98568"/>
<ellipse cx="62.3597" cy="27.9905" rx="0.62145" ry="0.650657" fill="#F98568"/>
<ellipse cx="62.3597" cy="27.9905" rx="0.62145" ry="0.650657" fill="#F98568"/>
<ellipse cx="59.3773" cy="27.8557" rx="0.62145" ry="0.650657" fill="#F98568"/>
<ellipse cx="59.3773" cy="27.8557" rx="0.62145" ry="0.650657" fill="#F98568"/>
<ellipse cx="59.3773" cy="27.8557" rx="0.62145" ry="0.650657" fill="#F98568"/>
<ellipse cx="49.9359" cy="30.7229" rx="0.62145" ry="0.650657" fill="#F98568"/>
<ellipse cx="49.9359" cy="30.7229" rx="0.62145" ry="0.650657" fill="#F98568"/>
<ellipse cx="49.9359" cy="30.7229" rx="0.62145" ry="0.650657" fill="#F98568"/>
<ellipse cx="52.9203" cy="30.8518" rx="0.62145" ry="0.650657" fill="#F98568"/>
<ellipse cx="52.9203" cy="30.8518" rx="0.62145" ry="0.650657" fill="#F98568"/>
<ellipse cx="52.9203" cy="30.8518" rx="0.62145" ry="0.650657" fill="#F98568"/>
<ellipse cx="55.9007" cy="30.9827" rx="0.62145" ry="0.650657" fill="#F98568"/>
<ellipse cx="55.9007" cy="30.9827" rx="0.62145" ry="0.650657" fill="#F98568"/>
<ellipse cx="55.9007" cy="30.9827" rx="0.62145" ry="0.650657" fill="#F98568"/>
<ellipse cx="77.1468" cy="32.0237" rx="0.62145" ry="0.650657" fill="#F98568"/>
<ellipse cx="77.1468" cy="32.0237" rx="0.62145" ry="0.650657" fill="#F98568"/>
<ellipse cx="77.1468" cy="32.0237" rx="0.62145" ry="0.650657" fill="#F98568"/>
<ellipse cx="74.0394" cy="31.8909" rx="0.62145" ry="0.650657" fill="#F98568"/>
<ellipse cx="74.0394" cy="31.8909" rx="0.62145" ry="0.650657" fill="#F98568"/>
<ellipse cx="74.0394" cy="31.8909" rx="0.62145" ry="0.650657" fill="#F98568"/>
<ellipse cx="71.057" cy="31.76" rx="0.62145" ry="0.650657" fill="#F98568"/>
<ellipse cx="71.057" cy="31.76" rx="0.62145" ry="0.650657" fill="#F98568"/>
<ellipse cx="71.057" cy="31.76" rx="0.62145" ry="0.650657" fill="#F98568"/>
<ellipse cx="68.0765" cy="31.6331" rx="0.62145" ry="0.650657" fill="#F98568"/>
<ellipse cx="68.0765" cy="31.6331" rx="0.62145" ry="0.650657" fill="#F98568"/>
<ellipse cx="68.0765" cy="31.6331" rx="0.62145" ry="0.650657" fill="#F98568"/>
<ellipse cx="65.0922" cy="31.3733" rx="0.62145" ry="0.650657" fill="#F98568"/>
<ellipse cx="65.0922" cy="31.3733" rx="0.62145" ry="0.650657" fill="#F98568"/>
<ellipse cx="65.0922" cy="31.3733" rx="0.62145" ry="0.650657" fill="#F98568"/>
<ellipse cx="61.9886" cy="31.2405" rx="0.62145" ry="0.650657" fill="#F98568"/>
<ellipse cx="61.9886" cy="31.2405" rx="0.62145" ry="0.650657" fill="#F98568"/>
<ellipse cx="61.9886" cy="31.2405" rx="0.62145" ry="0.650657" fill="#F98568"/>
<ellipse cx="59.0043" cy="31.1077" rx="0.62145" ry="0.650657" fill="#F98568"/>
<ellipse cx="59.0043" cy="31.1077" rx="0.62145" ry="0.650657" fill="#F98568"/>
<ellipse cx="59.0043" cy="31.1077" rx="0.62145" ry="0.650657" fill="#F98568"/>
<ellipse cx="46.8285" cy="33.8421" rx="0.62145" ry="0.650657" fill="#F98568"/>
<ellipse cx="46.8285" cy="33.8421" rx="0.62145" ry="0.650657" fill="#F98568"/>
<ellipse cx="46.8285" cy="33.8421" rx="0.62145" ry="0.650657" fill="#F98568"/>
<ellipse cx="43.9711" cy="27.2093" rx="0.62145" ry="0.650657" fill="#F98568"/>
<ellipse cx="43.9711" cy="27.2093" rx="0.62145" ry="0.650657" fill="#F98568"/>
<ellipse cx="43.9711" cy="27.2093" rx="0.62145" ry="0.650657" fill="#F98568"/>
<ellipse cx="47.0765" cy="27.3382" rx="0.62145" ry="0.650657" fill="#F98568"/>
<ellipse cx="47.0765" cy="27.3382" rx="0.62145" ry="0.650657" fill="#F98568"/>
<ellipse cx="47.0765" cy="27.3382" rx="0.62145" ry="0.650657" fill="#F98568"/>
<ellipse cx="46.8285" cy="30.4573" rx="0.62145" ry="0.650657" fill="#F98568"/>
<ellipse cx="46.8285" cy="30.4573" rx="0.62145" ry="0.650657" fill="#F98568"/>
<ellipse cx="46.8285" cy="30.4573" rx="0.62145" ry="0.650657" fill="#F98568"/>
<ellipse cx="47.2035" cy="24.0882" rx="0.62145" ry="0.650657" fill="#F98568"/>
<ellipse cx="47.2035" cy="24.0882" rx="0.62145" ry="0.650657" fill="#F98568"/>
<ellipse cx="47.2035" cy="24.0882" rx="0.62145" ry="0.650657" fill="#F98568"/>
<ellipse cx="40.6156" cy="36.7034" rx="0.62145" ry="0.650657" fill="#F98568"/>
<ellipse cx="40.6156" cy="36.7034" rx="0.62145" ry="0.650657" fill="#F98568"/>
<ellipse cx="40.6156" cy="36.7034" rx="0.62145" ry="0.650657" fill="#F98568"/>
<ellipse cx="41.0922" cy="39.5257" rx="0.62145" ry="0.650657" fill="#F98568"/>
<ellipse cx="41.0922" cy="39.5257" rx="0.62145" ry="0.650657" fill="#F98568"/>
<ellipse cx="41.0922" cy="39.5257" rx="0.62145" ry="0.650657" fill="#F98568"/>
<path d="M42.9918 47.3086C43.0734 47.3097 43.1544 47.2939 43.2302 47.2622C43.3059 47.2305 43.375 47.1835 43.4335 47.1239C43.4919 47.0642 43.5385 46.9931 43.5707 46.9146C43.6029 46.8361 43.62 46.7517 43.621 46.6662C43.6221 46.5808 43.607 46.496 43.5767 46.4166C43.5465 46.3373 43.5016 46.2649 43.4446 46.2038C43.3876 46.1426 43.3197 46.0938 43.2447 46.0601C43.1697 46.0264 43.0891 46.0085 43.0075 46.0074L42.6649 46.0073C42.7271 46.2619 42.7271 46.7824 42.7892 47.3086L42.9918 47.3086Z" fill="#F98568"/>
<path d="M42.9918 47.3086C43.0734 47.3097 43.1544 47.2939 43.2302 47.2622C43.3059 47.2305 43.375 47.1835 43.4335 47.1239C43.4919 47.0642 43.5385 46.9931 43.5707 46.9146C43.6029 46.8361 43.62 46.7517 43.621 46.6662C43.6221 46.5808 43.607 46.496 43.5767 46.4166C43.5465 46.3373 43.5016 46.2649 43.4446 46.2038C43.3876 46.1426 43.3197 46.0938 43.2447 46.0601C43.1697 46.0264 43.0891 46.0085 43.0075 46.0074L42.6649 46.0073C42.7271 46.2619 42.7271 46.7824 42.7892 47.3086L42.9918 47.3086Z" fill="#F98568"/>
<path d="M42.9918 47.3086C43.0734 47.3097 43.1544 47.2939 43.2302 47.2622C43.3059 47.2305 43.375 47.1835 43.4335 47.1239C43.4919 47.0642 43.5385 46.9931 43.5707 46.9146C43.6029 46.8361 43.62 46.7517 43.621 46.6662C43.6221 46.5808 43.607 46.496 43.5767 46.4166C43.5465 46.3373 43.5016 46.2649 43.4446 46.2038C43.3876 46.1426 43.3197 46.0938 43.2447 46.0601C43.1697 46.0264 43.0891 46.0085 43.0075 46.0074L42.6649 46.0073C42.7271 46.2619 42.7271 46.7824 42.7892 47.3086L42.9918 47.3086Z" fill="#F98568"/>
<ellipse cx="80.3793" cy="28.7718" rx="0.62145" ry="0.650657" fill="#F98568"/>
<ellipse cx="80.3793" cy="28.7718" rx="0.62145" ry="0.650657" fill="#F98568"/>
<ellipse cx="80.3793" cy="28.7718" rx="0.62145" ry="0.650657" fill="#F98568"/>
<ellipse cx="49.8109" cy="33.971" rx="0.62145" ry="0.650657" fill="#F98568"/>
<ellipse cx="49.8109" cy="33.971" rx="0.62145" ry="0.650657" fill="#F98568"/>
<ellipse cx="49.8109" cy="33.971" rx="0.62145" ry="0.650657" fill="#F98568"/>
<ellipse cx="52.7933" cy="34.1018" rx="0.62145" ry="0.650657" fill="#F98568"/>
<ellipse cx="52.7933" cy="34.1018" rx="0.62145" ry="0.650657" fill="#F98568"/>
<ellipse cx="52.7933" cy="34.1018" rx="0.62145" ry="0.650657" fill="#F98568"/>
<ellipse cx="74.0394" cy="35.1389" rx="0.62145" ry="0.650657" fill="#F98568"/>
<ellipse cx="74.0394" cy="35.1389" rx="0.62145" ry="0.650657" fill="#F98568"/>
<ellipse cx="74.0394" cy="35.1389" rx="0.62145" ry="0.650657" fill="#F98568"/>
<path d="M77.4584 34.6209C77.3936 34.5689 77.3873 34.5351 77.3085 34.513C77.2296 34.4909 77.1474 34.4852 77.0665 34.4964C76.9855 34.5076 76.9075 34.5353 76.8368 34.578C76.7661 34.6208 76.7042 34.6777 76.6545 34.7454C76.6048 34.8132 76.5684 34.8906 76.5472 34.9731C76.5261 35.0556 76.5207 35.1417 76.5314 35.2264C76.5421 35.3111 76.5685 35.3927 76.6094 35.4667C76.6502 35.5407 76.6478 35.5447 76.7126 35.5967L77.0854 35.0763L77.4584 34.6209Z" fill="#F98568"/>
<path d="M77.4584 34.6209C77.3936 34.5689 77.3873 34.5351 77.3085 34.513C77.2296 34.4909 77.1474 34.4852 77.0665 34.4964C76.9855 34.5076 76.9075 34.5353 76.8368 34.578C76.7661 34.6208 76.7042 34.6777 76.6545 34.7454C76.6048 34.8132 76.5684 34.8906 76.5472 34.9731C76.5261 35.0556 76.5207 35.1417 76.5314 35.2264C76.5421 35.3111 76.5685 35.3927 76.6094 35.4667C76.6502 35.5407 76.6478 35.5447 76.7126 35.5967L77.0854 35.0763L77.4584 34.6209Z" fill="#F98568"/>
<path d="M77.4584 34.6209C77.3936 34.5689 77.3873 34.5351 77.3085 34.513C77.2296 34.4909 77.1474 34.4852 77.0665 34.4964C76.9855 34.5076 76.9075 34.5353 76.8368 34.578C76.7661 34.6208 76.7042 34.6777 76.6545 34.7454C76.6048 34.8132 76.5684 34.8906 76.5472 34.9731C76.5261 35.0556 76.5207 35.1417 76.5314 35.2264C76.5421 35.3111 76.5685 35.3927 76.6094 35.4667C76.6502 35.5407 76.6478 35.5447 76.7126 35.5967L77.0854 35.0763L77.4584 34.6209Z" fill="#F98568"/>
<ellipse cx="70.9359" cy="35.0159" rx="0.62145" ry="0.650657" fill="#F98568"/>
<ellipse cx="70.9359" cy="35.0159" rx="0.62145" ry="0.650657" fill="#F98568"/>
<ellipse cx="70.9359" cy="35.0159" rx="0.62145" ry="0.650657" fill="#F98568"/>
<ellipse cx="67.9515" cy="34.885" rx="0.62145" ry="0.650657" fill="#F98568"/>
<ellipse cx="67.9515" cy="34.885" rx="0.62145" ry="0.650657" fill="#F98568"/>
<ellipse cx="67.9515" cy="34.885" rx="0.62145" ry="0.650657" fill="#F98568"/>
<ellipse cx="64.9691" cy="34.7503" rx="0.62145" ry="0.650657" fill="#F98568"/>
<ellipse cx="64.9691" cy="34.7503" rx="0.62145" ry="0.650657" fill="#F98568"/>
<ellipse cx="64.9691" cy="34.7503" rx="0.62145" ry="0.650657" fill="#F98568"/>
<ellipse cx="61.9886" cy="34.4944" rx="0.62145" ry="0.650657" fill="#F98568"/>
<ellipse cx="61.9886" cy="34.4944" rx="0.62145" ry="0.650657" fill="#F98568"/>
<ellipse cx="61.9886" cy="34.4944" rx="0.62145" ry="0.650657" fill="#F98568"/>
<ellipse cx="58.8793" cy="34.3616" rx="0.62145" ry="0.650657" fill="#F98568"/>
<ellipse cx="58.8793" cy="34.3616" rx="0.62145" ry="0.650657" fill="#F98568"/>
<ellipse cx="58.8793" cy="34.3616" rx="0.62145" ry="0.650657" fill="#F98568"/>
<ellipse cx="55.9007" cy="34.2346" rx="0.62145" ry="0.650657" fill="#F98568"/>
<ellipse cx="55.9007" cy="34.2346" rx="0.62145" ry="0.650657" fill="#F98568"/>
<ellipse cx="55.9007" cy="34.2346" rx="0.62145" ry="0.650657" fill="#F98568"/>
<ellipse cx="46.7054" cy="36.9632" rx="0.62145" ry="0.650657" fill="#F98568"/>
<ellipse cx="46.7054" cy="36.9632" rx="0.62145" ry="0.650657" fill="#F98568"/>
<ellipse cx="46.7054" cy="36.9632" rx="0.62145" ry="0.650657" fill="#F98568"/>
<ellipse cx="49.6879" cy="37.0921" rx="0.62145" ry="0.650657" fill="#F98568"/>
<ellipse cx="49.6879" cy="37.0921" rx="0.62145" ry="0.650657" fill="#F98568"/>
<ellipse cx="49.6879" cy="37.0921" rx="0.62145" ry="0.650657" fill="#F98568"/>
<ellipse cx="52.6722" cy="37.2229" rx="0.62145" ry="0.650657" fill="#F98568"/>
<ellipse cx="52.6722" cy="37.2229" rx="0.62145" ry="0.650657" fill="#F98568"/>
<ellipse cx="52.6722" cy="37.2229" rx="0.62145" ry="0.650657" fill="#F98568"/>
<ellipse cx="73.9164" cy="38.262" rx="0.62145" ry="0.650657" fill="#F98568"/>
<ellipse cx="73.9164" cy="38.262" rx="0.62145" ry="0.650657" fill="#F98568"/>
<ellipse cx="73.9164" cy="38.262" rx="0.62145" ry="0.650657" fill="#F98568"/>
<ellipse cx="70.8109" cy="38.135" rx="0.62145" ry="0.650657" fill="#F98568"/>
<ellipse cx="70.8109" cy="38.135" rx="0.62145" ry="0.650657" fill="#F98568"/>
<ellipse cx="70.8109" cy="38.135" rx="0.62145" ry="0.650657" fill="#F98568"/>
<ellipse cx="67.8285" cy="38.0022" rx="0.62145" ry="0.650657" fill="#F98568"/>
<ellipse cx="67.8285" cy="38.0022" rx="0.62145" ry="0.650657" fill="#F98568"/>
<ellipse cx="67.8285" cy="38.0022" rx="0.62145" ry="0.650657" fill="#F98568"/>
<ellipse cx="64.848" cy="37.8733" rx="0.62145" ry="0.650657" fill="#F98568"/>
<ellipse cx="64.848" cy="37.8733" rx="0.62145" ry="0.650657" fill="#F98568"/>
<ellipse cx="64.848" cy="37.8733" rx="0.62145" ry="0.650657" fill="#F98568"/>
<ellipse cx="61.8636" cy="37.6135" rx="0.62145" ry="0.650657" fill="#F98568"/>
<ellipse cx="61.8636" cy="37.6135" rx="0.62145" ry="0.650657" fill="#F98568"/>
<ellipse cx="61.8636" cy="37.6135" rx="0.62145" ry="0.650657" fill="#F98568"/>
<ellipse cx="58.7543" cy="37.4846" rx="0.62145" ry="0.650657" fill="#F98568"/>
<ellipse cx="58.7543" cy="37.4846" rx="0.62145" ry="0.650657" fill="#F98568"/>
<ellipse cx="58.7543" cy="37.4846" rx="0.62145" ry="0.650657" fill="#F98568"/>
<ellipse cx="55.7777" cy="37.3557" rx="0.62145" ry="0.650657" fill="#F98568"/>
<ellipse cx="55.7777" cy="37.3557" rx="0.62145" ry="0.650657" fill="#F98568"/>
<ellipse cx="55.7777" cy="37.3557" rx="0.62145" ry="0.650657" fill="#F98568"/>
<ellipse cx="46.4535" cy="40.0843" rx="0.62145" ry="0.650657" fill="#F98568"/>
<ellipse cx="46.4535" cy="40.0843" rx="0.62145" ry="0.650657" fill="#F98568"/>
<ellipse cx="46.4535" cy="40.0843" rx="0.62145" ry="0.650657" fill="#F98568"/>
<ellipse cx="49.4418" cy="40.2151" rx="0.62145" ry="0.650657" fill="#F98568"/>
<ellipse cx="49.4418" cy="40.2151" rx="0.62145" ry="0.650657" fill="#F98568"/>
<ellipse cx="49.4418" cy="40.2151" rx="0.62145" ry="0.650657" fill="#F98568"/>
<ellipse cx="52.4242" cy="40.344" rx="0.62145" ry="0.650657" fill="#F98568"/>
<ellipse cx="52.4242" cy="40.344" rx="0.62145" ry="0.650657" fill="#F98568"/>
<ellipse cx="52.4242" cy="40.344" rx="0.62145" ry="0.650657" fill="#F98568"/>
<ellipse cx="73.6683" cy="41.387" rx="0.62145" ry="0.650657" fill="#F98568"/>
<ellipse cx="73.6683" cy="41.387" rx="0.62145" ry="0.650657" fill="#F98568"/>
<ellipse cx="73.6683" cy="41.387" rx="0.62145" ry="0.650657" fill="#F98568"/>
<ellipse cx="70.5629" cy="41.2542" rx="0.62145" ry="0.650657" fill="#F98568"/>
<ellipse cx="70.5629" cy="41.2542" rx="0.62145" ry="0.650657" fill="#F98568"/>
<ellipse cx="70.5629" cy="41.2542" rx="0.62145" ry="0.650657" fill="#F98568"/>
<ellipse cx="67.5804" cy="41.1253" rx="0.62145" ry="0.650657" fill="#F98568"/>
<ellipse cx="67.5804" cy="41.1253" rx="0.62145" ry="0.650657" fill="#F98568"/>
<ellipse cx="67.5804" cy="41.1253" rx="0.62145" ry="0.650657" fill="#F98568"/>
<ellipse cx="64.598" cy="40.9925" rx="0.62145" ry="0.650657" fill="#F98568"/>
<ellipse cx="64.598" cy="40.9925" rx="0.62145" ry="0.650657" fill="#F98568"/>
<ellipse cx="64.598" cy="40.9925" rx="0.62145" ry="0.650657" fill="#F98568"/>
<ellipse cx="61.6136" cy="40.7327" rx="0.62145" ry="0.650657" fill="#F98568"/>
<ellipse cx="61.6136" cy="40.7327" rx="0.62145" ry="0.650657" fill="#F98568"/>
<ellipse cx="61.6136" cy="40.7327" rx="0.62145" ry="0.650657" fill="#F98568"/>
<ellipse cx="58.5062" cy="40.6057" rx="0.62145" ry="0.650657" fill="#F98568"/>
<ellipse cx="58.5062" cy="40.6057" rx="0.62145" ry="0.650657" fill="#F98568"/>
<ellipse cx="58.5062" cy="40.6057" rx="0.62145" ry="0.650657" fill="#F98568"/>
<ellipse cx="55.5297" cy="40.4729" rx="0.62145" ry="0.650657" fill="#F98568"/>
<ellipse cx="55.5297" cy="40.4729" rx="0.62145" ry="0.650657" fill="#F98568"/>
<ellipse cx="55.5297" cy="40.4729" rx="0.62145" ry="0.650657" fill="#F98568"/>
<ellipse cx="43.475" cy="43.2112" rx="0.62145" ry="0.650657" fill="#F98568"/>
<ellipse cx="43.475" cy="43.2112" rx="0.62145" ry="0.650657" fill="#F98568"/>
<ellipse cx="43.475" cy="43.2112" rx="0.62145" ry="0.650657" fill="#F98568"/>
<ellipse cx="46.4535" cy="43.3323" rx="0.62145" ry="0.650657" fill="#F98568"/>
<ellipse cx="46.4535" cy="43.3323" rx="0.62145" ry="0.650657" fill="#F98568"/>
<ellipse cx="46.4535" cy="43.3323" rx="0.62145" ry="0.650657" fill="#F98568"/>
<ellipse cx="49.4418" cy="43.4651" rx="0.62145" ry="0.650657" fill="#F98568"/>
<ellipse cx="49.4418" cy="43.4651" rx="0.62145" ry="0.650657" fill="#F98568"/>
<ellipse cx="49.4418" cy="43.4651" rx="0.62145" ry="0.650657" fill="#F98568"/>
<ellipse cx="70.475" cy="43.8792" rx="0.62145" ry="0.650657" fill="#F98568"/>
<ellipse cx="70.475" cy="43.8792" rx="0.62145" ry="0.650657" fill="#F98568"/>
<ellipse cx="70.475" cy="43.8792" rx="0.62145" ry="0.650657" fill="#F98568"/>
<ellipse cx="67.5804" cy="44.3753" rx="0.62145" ry="0.650657" fill="#F98568"/>
<ellipse cx="67.5804" cy="44.3753" rx="0.62145" ry="0.650657" fill="#F98568"/>
<ellipse cx="67.5804" cy="44.3753" rx="0.62145" ry="0.650657" fill="#F98568"/>
<ellipse cx="64.598" cy="44.2483" rx="0.62145" ry="0.650657" fill="#F98568"/>
<ellipse cx="64.598" cy="44.2483" rx="0.62145" ry="0.650657" fill="#F98568"/>
<ellipse cx="64.598" cy="44.2483" rx="0.62145" ry="0.650657" fill="#F98568"/>
<ellipse cx="61.6136" cy="44.1155" rx="0.62145" ry="0.650657" fill="#F98568"/>
<ellipse cx="61.6136" cy="44.1155" rx="0.62145" ry="0.650657" fill="#F98568"/>
<ellipse cx="61.6136" cy="44.1155" rx="0.62145" ry="0.650657" fill="#F98568"/>
<ellipse cx="58.6351" cy="43.8557" rx="0.62145" ry="0.650657" fill="#F98568"/>
<ellipse cx="58.6351" cy="43.8557" rx="0.62145" ry="0.650657" fill="#F98568"/>
<ellipse cx="58.6351" cy="43.8557" rx="0.62145" ry="0.650657" fill="#F98568"/>
<ellipse cx="55.5297" cy="43.7268" rx="0.62145" ry="0.650657" fill="#F98568"/>
<ellipse cx="55.5297" cy="43.7268" rx="0.62145" ry="0.650657" fill="#F98568"/>
<ellipse cx="55.5297" cy="43.7268" rx="0.62145" ry="0.650657" fill="#F98568"/>
<ellipse cx="52.5472" cy="43.596" rx="0.62145" ry="0.650657" fill="#F98568"/>
<ellipse cx="52.5472" cy="43.596" rx="0.62145" ry="0.650657" fill="#F98568"/>
<ellipse cx="52.5472" cy="43.596" rx="0.62145" ry="0.650657" fill="#F98568"/>
<ellipse cx="46.3343" cy="46.5862" rx="0.62145" ry="0.650657" fill="#F98568"/>
<ellipse cx="46.3343" cy="46.5862" rx="0.62145" ry="0.650657" fill="#F98568"/>
<ellipse cx="46.3343" cy="46.5862" rx="0.62145" ry="0.650657" fill="#F98568"/>
<ellipse cx="49.3129" cy="46.719" rx="0.62145" ry="0.650657" fill="#F98568"/>
<ellipse cx="49.3129" cy="46.719" rx="0.62145" ry="0.650657" fill="#F98568"/>
<ellipse cx="49.3129" cy="46.719" rx="0.62145" ry="0.650657" fill="#F98568"/>
<ellipse cx="67.4574" cy="47.6253" rx="0.62145" ry="0.650657" fill="#F98568"/>
<ellipse cx="67.4574" cy="47.6253" rx="0.62145" ry="0.650657" fill="#F98568"/>
<ellipse cx="67.4574" cy="47.6253" rx="0.62145" ry="0.650657" fill="#F98568"/>
<ellipse cx="64.473" cy="47.4983" rx="0.62145" ry="0.650657" fill="#F98568"/>
<ellipse cx="64.473" cy="47.4983" rx="0.62145" ry="0.650657" fill="#F98568"/>
<ellipse cx="64.473" cy="47.4983" rx="0.62145" ry="0.650657" fill="#F98568"/>
<ellipse cx="61.4925" cy="47.3655" rx="0.62145" ry="0.650657" fill="#F98568"/>
<ellipse cx="61.4925" cy="47.3655" rx="0.62145" ry="0.650657" fill="#F98568"/>
<ellipse cx="61.4925" cy="47.3655" rx="0.62145" ry="0.650657" fill="#F98568"/>
<ellipse cx="58.5062" cy="47.1057" rx="0.62145" ry="0.650657" fill="#F98568"/>
<ellipse cx="58.5062" cy="47.1057" rx="0.62145" ry="0.650657" fill="#F98568"/>
<ellipse cx="58.5062" cy="47.1057" rx="0.62145" ry="0.650657" fill="#F98568"/>
<ellipse cx="55.4027" cy="46.9768" rx="0.62145" ry="0.650657" fill="#F98568"/>
<ellipse cx="55.4027" cy="46.9768" rx="0.62145" ry="0.650657" fill="#F98568"/>
<ellipse cx="55.4027" cy="46.9768" rx="0.62145" ry="0.650657" fill="#F98568"/>
<ellipse cx="64.225" cy="50.6175" rx="0.62145" ry="0.650657" fill="#F98568"/>
<ellipse cx="64.225" cy="50.6175" rx="0.62145" ry="0.650657" fill="#F98568"/>
<ellipse cx="64.225" cy="50.6175" rx="0.62145" ry="0.650657" fill="#F98568"/>
<path d="M67.851 49.0764C67.7873 49.0229 67.7142 48.983 67.6359 48.9591C67.5575 48.9352 67.4754 48.9277 67.3943 48.9369C67.3131 48.9462 67.2345 48.9722 67.1629 49.0132C67.0913 49.0543 67.0282 49.1097 66.9771 49.1763C66.926 49.243 66.8879 49.3195 66.865 49.4015C66.8422 49.4835 66.835 49.5694 66.8438 49.6543C66.8527 49.7392 66.8775 49.8215 66.9167 49.8964C66.9559 49.9713 67.0089 50.0374 67.0725 50.0909L67.275 50.2345C67.4615 50.0393 67.7328 49.6683 68.021 49.2587L67.851 49.0764Z" fill="#F98568"/>
<path d="M67.851 49.0764C67.7873 49.0229 67.7142 48.983 67.6359 48.9591C67.5575 48.9352 67.4754 48.9277 67.3943 48.9369C67.3131 48.9462 67.2345 48.9722 67.1629 49.0132C67.0913 49.0543 67.0282 49.1097 66.9771 49.1763C66.926 49.243 66.8879 49.3195 66.865 49.4015C66.8422 49.4835 66.835 49.5694 66.8438 49.6543C66.8527 49.7392 66.8775 49.8215 66.9167 49.8964C66.9559 49.9713 67.0089 50.0374 67.0725 50.0909L67.275 50.2345C67.4615 50.0393 67.7328 49.6683 68.021 49.2587L67.851 49.0764Z" fill="#F98568"/>
<path d="M67.851 49.0764C67.7873 49.0229 67.7142 48.983 67.6359 48.9591C67.5575 48.9352 67.4754 48.9277 67.3943 48.9369C67.3131 48.9462 67.2345 48.9722 67.1629 49.0132C67.0913 49.0543 67.0282 49.1097 66.9771 49.1763C66.926 49.243 66.8879 49.3195 66.865 49.4015C66.8422 49.4835 66.835 49.5694 66.8438 49.6543C66.8527 49.7392 66.8775 49.8215 66.9167 49.8964C66.9559 49.9713 67.0089 50.0374 67.0725 50.0909L67.275 50.2345C67.4615 50.0393 67.7328 49.6683 68.021 49.2587L67.851 49.0764Z" fill="#F98568"/>
<ellipse cx="61.2425" cy="50.4885" rx="0.62145" ry="0.650657" fill="#F98568"/>
<ellipse cx="61.2425" cy="50.4885" rx="0.62145" ry="0.650657" fill="#F98568"/>
<ellipse cx="61.2425" cy="50.4885" rx="0.62145" ry="0.650657" fill="#F98568"/>
<ellipse cx="58.2601" cy="50.3577" rx="0.62145" ry="0.650657" fill="#F98568"/>
<ellipse cx="58.2601" cy="50.3577" rx="0.62145" ry="0.650657" fill="#F98568"/>
<ellipse cx="58.2601" cy="50.3577" rx="0.62145" ry="0.650657" fill="#F98568"/>
<ellipse cx="55.2797" cy="50.096" rx="0.62145" ry="0.650657" fill="#F98568"/>
<ellipse cx="55.2797" cy="50.096" rx="0.62145" ry="0.650657" fill="#F98568"/>
<ellipse cx="55.2797" cy="50.096" rx="0.62145" ry="0.650657" fill="#F98568"/>
<ellipse cx="52.1722" cy="49.9671" rx="0.62145" ry="0.650657" fill="#F98568"/>
<ellipse cx="52.1722" cy="49.9671" rx="0.62145" ry="0.650657" fill="#F98568"/>
<ellipse cx="52.1722" cy="49.9671" rx="0.62145" ry="0.650657" fill="#F98568"/>
<ellipse cx="55.2465" cy="52.3499" rx="0.62145" ry="0.650657" fill="#F98568"/>
<ellipse cx="55.2465" cy="52.3499" rx="0.62145" ry="0.650657" fill="#F98568"/>
<ellipse cx="55.2465" cy="52.3499" rx="0.62145" ry="0.650657" fill="#F98568"/>
<ellipse cx="51.9808" cy="52.3499" rx="0.62145" ry="0.650657" fill="#F98568"/>
<ellipse cx="51.9808" cy="52.3499" rx="0.62145" ry="0.650657" fill="#F98568"/>
<ellipse cx="51.9808" cy="52.3499" rx="0.62145" ry="0.650657" fill="#F98568"/>
<ellipse cx="49.0668" cy="49.7053" rx="0.62145" ry="0.650657" fill="#F98568"/>
<ellipse cx="49.0668" cy="49.7053" rx="0.62145" ry="0.650657" fill="#F98568"/>
<ellipse cx="49.0668" cy="49.7053" rx="0.62145" ry="0.650657" fill="#F98568"/>
<ellipse cx="45.9593" cy="49.5784" rx="0.62145" ry="0.650657" fill="#F98568"/>
<ellipse cx="45.9593" cy="49.5784" rx="0.62145" ry="0.650657" fill="#F98568"/>
<ellipse cx="45.9593" cy="49.5784" rx="0.62145" ry="0.650657" fill="#F98568"/>
<ellipse cx="43.85" cy="30.4573" rx="0.62145" ry="0.650657" fill="#F98568"/>
<ellipse cx="43.85" cy="30.4573" rx="0.62145" ry="0.650657" fill="#F98568"/>
<ellipse cx="43.85" cy="30.4573" rx="0.62145" ry="0.650657" fill="#F98568"/>
<ellipse cx="43.85" cy="33.7112" rx="0.62145" ry="0.650657" fill="#F98568"/>
<ellipse cx="43.85" cy="33.7112" rx="0.62145" ry="0.650657" fill="#F98568"/>
<ellipse cx="43.85" cy="33.7112" rx="0.62145" ry="0.650657" fill="#F98568"/>
<ellipse cx="43.7211" cy="36.9632" rx="0.62145" ry="0.650657" fill="#F98568"/>
<ellipse cx="43.7211" cy="36.9632" rx="0.62145" ry="0.650657" fill="#F98568"/>
<ellipse cx="43.7211" cy="36.9632" rx="0.62145" ry="0.650657" fill="#F98568"/>
<ellipse cx="43.348" cy="39.9553" rx="0.62145" ry="0.650657" fill="#F98568"/>
<ellipse cx="43.348" cy="39.9553" rx="0.62145" ry="0.650657" fill="#F98568"/>
<ellipse cx="43.348" cy="39.9553" rx="0.62145" ry="0.650657" fill="#F98568"/>
<ellipse cx="52.4242" cy="46.846" rx="0.62145" ry="0.650657" fill="#F98568"/>
<ellipse cx="52.4242" cy="46.846" rx="0.62145" ry="0.650657" fill="#F98568"/>
<ellipse cx="52.4242" cy="46.846" rx="0.62145" ry="0.650657" fill="#F98568"/>
<ellipse cx="69.0726" cy="9.13308" rx="0.62145" ry="0.650657" fill="#F98568"/>
<ellipse cx="69.0726" cy="9.13308" rx="0.62145" ry="0.650657" fill="#F98568"/>
<ellipse cx="69.0726" cy="9.13308" rx="0.62145" ry="0.650657" fill="#F98568"/>
</svg>
