<svg width="275" height="98" viewBox="0 0 275 98" fill="none" xmlns="http://www.w3.org/2000/svg">
<path d="M87.2838 82.0086H91.8465H91.9636V79.6687H87.2838C86.5817 78.0308 85.8214 77.5628 86.7573 76.0419L87.9858 74.9889L86.7573 73C82.37 75.5739 84.4174 79.2007 84.8854 80.0782C85.2597 80.7801 85.0414 81.6576 84.8854 82.0086L84.1249 83.705L86.1723 84.8165C86.4999 84.6293 87.0498 82.8665 87.2838 82.0086Z" fill="#653905" stroke="black" stroke-width="0.233989"/>
<path d="M91.9629 79.7264C91.9628 79.1414 92.8014 79.4924 93.1328 79.7264C92.5713 80.6623 92.8988 81.6373 93.1328 82.0078C93.1328 82.2418 91.9628 82.5244 91.9629 82.1833V79.7264Z" fill="#A9A9A9" stroke="black" stroke-width="0.233989"/>
<path d="M170.292 79.7266H93.1344C92.7132 79.9606 92.6665 81.7155 93.1344 81.9495H170.292C170.012 81.6219 170 80.019 170.292 79.7266Z" fill="url(#paint0_linear_3190_7838)" stroke="black" stroke-width="0.233989"/>
<path d="M171.753 78.8477C170.864 78.8477 170.369 79.4911 170.232 79.7836V81.8895C170.369 82.182 170.864 82.8255 171.753 82.8255H173.508V78.8477H171.753Z" fill="black"/>
<path d="M171.753 78.8477C170.864 78.8477 170.369 79.4911 170.232 79.7836V81.8895C170.369 82.182 170.864 82.8255 171.753 82.8255H173.508V78.8477M171.753 78.8477C172.643 78.8477 173.294 78.8477 173.508 78.8477M171.753 78.8477H173.508" stroke="black" stroke-width="0.233989"/>
<defs>
<linearGradient id="paint0_linear_3190_7838" x1="131.509" y1="79.7266" x2="131.509" y2="85.2838" gradientUnits="userSpaceOnUse">
<stop stop-color="#EDB97C"/>
<stop offset="0.48" stop-color="#B99061"/>
</linearGradient>
</defs>
</svg>
