<svg width="60" height="60" viewBox="0 0 60 60" fill="none" xmlns="http://www.w3.org/2000/svg">
<g clip-path="url(#clip0_3202_7974)">
<circle cx="30" cy="30" r="30" fill="url(#paint0_radial_3202_7974)"/>
<path d="M16.0401 4.83789L9.67773 22.4426L27.8384 29.1756C34.3243 31.4611 35.1273 44.6801 37.6599 52.2779C42.2927 34.2408 35.2509 24.8517 37.4129 14.4741C36.3751 14.4247 22.732 8.02939 16.0401 4.83789Z" fill="#F24A41"/>
<path d="M19.1906 16.6969C18.3257 17.3146 21.2907 23.9735 21.6614 24.0476C22.5879 24.2329 26.7883 19.2913 26.5413 18.4265C26.3472 17.747 19.87 16.2644 19.1906 16.6969Z" fill="white"/>
<path d="M21.9083 22.5656C21.7227 22.5656 20.4257 18.2416 20.5493 18.1181C20.7963 17.9327 24.1937 18.8594 24.4409 19.1064C24.6262 19.2917 22.0937 22.5656 21.9083 22.5656Z" fill="#F24A41"/>
<path d="M30.1636 15.4445C29.3561 16.1356 32.8925 22.5094 33.2683 22.5508C34.2075 22.6543 37.9592 17.364 37.6374 16.5241C37.3846 15.8642 30.8025 14.9543 30.1636 15.4445Z" fill="white"/>
<path d="M33.3843 21.0538C33.1994 21.07 31.5289 16.8762 31.6412 16.7423C31.8711 16.536 35.3365 17.1617 35.6044 17.3862C35.8052 17.5546 33.569 21.0375 33.3843 21.0538Z" fill="#F24A41"/>
<path d="M34.611 26.3141C33.8035 27.0051 37.3399 33.3789 37.7157 33.4203C38.6549 33.5239 40.0686 30.6577 39.5127 27.9398C39.2132 26.4759 35.25 25.8238 34.611 26.3141Z" fill="white"/>
<path d="M37.8329 31.9227C37.648 31.9389 35.9775 27.7451 36.0899 27.6112C36.3197 27.4049 39.4208 27.6111 39.5751 28.4347C39.7604 29.4231 38.0176 31.9065 37.8329 31.9227Z" fill="#F24A41"/>
<path d="M39.1432 42.8891C38.3525 42.049 37.3724 39.4505 36.9812 38.2563C36.3882 36.8233 38.1754 36.8355 39.1432 37.0208C39.5756 37.5973 40.2056 38.6269 39.2667 38.1327C38.3278 37.6386 38.8755 38.7504 39.2667 39.3682C39.555 40.8918 39.9339 43.7292 39.1432 42.8891Z" fill="white"/>
<path d="M19.3141 13.2391C17.9552 13.1157 15.9531 5.72008 16.1638 5.57952C16.349 5.45607 18.1407 5.82653 18.3876 5.95017L22.7116 7.9886C20.8213 7.49093 17.8935 6.87631 17.708 7.06202C17.4611 7.3092 19.0671 12.2509 19.4375 12.3125C19.6848 12.3537 21.0438 9.10055 23.1438 8.1739L24.3174 8.72984C24.3794 9.16233 19.9937 13.2391 19.3141 13.2391Z" fill="white"/>
<path d="M13.1989 22.751C12.26 22.7016 12.6635 23.3481 13.0135 23.6775L11.3458 23.0598C10.8516 21.9232 12.0665 21.7215 12.7048 21.7627C16.164 21.8862 17.5847 22.3804 18.8201 22.5657C19.8085 22.714 19.4378 23.4923 19.129 23.8629L17.6463 25.4071L16.3491 24.913C16.4933 24.7071 16.9299 24.1594 17.2759 23.8629C17.6218 23.5664 17.42 23.3687 17.2759 23.307C16.3081 23.1422 14.1378 22.8005 13.1989 22.751Z" fill="white"/>
<path d="M39.3898 51.104C38.3366 53.6139 37.9279 52.8542 37.6602 52.0923C42.2314 32.9434 35.1277 25.9015 37.3514 14.4121L50.3233 20.2803L48.4701 24.0484L38.3397 20.5892C39.7605 26.025 42.2931 44.1857 39.3898 51.104Z" fill="black"/>
</g>
<defs>
<radialGradient id="paint0_radial_3202_7974" cx="0" cy="0" r="1" gradientUnits="userSpaceOnUse" gradientTransform="translate(30 30) rotate(90) scale(30)">
<stop offset="0.67" stop-color="#FFDB1D"/>
<stop offset="1" stop-color="#AB9628" stop-opacity="0.8"/>
</radialGradient>
<clipPath id="clip0_3202_7974">
<rect width="60" height="60" fill="white"/>
</clipPath>
</defs>
</svg>
