<svg width="60" height="60" viewBox="0 0 60 60" fill="none" xmlns="http://www.w3.org/2000/svg">
<g clip-path="url(#clip0_3202_7955)">
<circle cx="30" cy="30" r="30" fill="url(#paint0_radial_3202_7955)"/>
<path d="M16.0401 52.8262L9.67773 35.2215L27.8384 28.4885C34.3243 26.2029 35.1273 12.984 37.6599 5.38615C42.2927 23.4232 35.2509 32.8124 37.4129 43.1899C36.3751 43.2393 22.732 49.6347 16.0401 52.8262Z" fill="#F24A41"/>
<path d="M19.1906 40.9652C18.3257 40.3475 21.2907 33.6886 21.6614 33.6145C22.5879 33.4292 26.7883 38.3709 26.5413 39.2356C26.3472 39.9151 19.87 41.3977 19.1906 40.9652Z" fill="white"/>
<path d="M21.9083 35.0965C21.7227 35.0965 20.4257 39.4205 20.5493 39.544C20.7963 39.7294 24.1937 38.8027 24.4409 38.5557C24.6262 38.3704 22.0937 35.0965 21.9083 35.0965Z" fill="#F24A41"/>
<path d="M30.1636 42.2215C29.3561 41.5305 32.8925 35.1566 33.2683 35.1152C34.2075 35.0117 37.9592 40.3021 37.6374 41.1419C37.3846 41.8018 30.8025 42.7117 30.1636 42.2215Z" fill="white"/>
<path d="M33.3843 36.6123C33.1994 36.596 31.5289 40.7899 31.6412 40.9237C31.8711 41.13 35.3365 40.5043 35.6044 40.2798C35.8052 40.1114 33.569 36.6285 33.3843 36.6123Z" fill="#F24A41"/>
<path d="M34.611 31.35C33.8035 30.6589 37.3399 24.2851 37.7157 24.2437C38.6549 24.1402 40.0686 27.0064 39.5127 29.7243C39.2132 31.1881 35.25 31.8402 34.611 31.35Z" fill="white"/>
<path d="M37.8329 25.7414C37.648 25.7251 35.9775 29.919 36.0899 30.0529C36.3197 30.2592 39.4208 30.0529 39.5751 29.2293C39.7604 28.241 38.0176 25.7576 37.8329 25.7414Z" fill="#F24A41"/>
<path d="M39.1432 14.775C38.3525 15.6151 37.3724 18.2135 36.9812 19.4078C36.3882 20.8408 38.1754 20.8285 39.1432 20.6433C39.5756 20.0667 40.2056 19.0372 39.2667 19.5313C38.3278 20.0255 38.8755 18.9136 39.2667 18.2959C39.555 16.7722 39.9339 13.9349 39.1432 14.775Z" fill="white"/>
<path d="M19.3141 44.425C17.9552 44.5484 15.9531 51.944 16.1638 52.0845C16.349 52.208 18.1407 51.8375 18.3876 51.7139L22.7116 49.6755C20.8213 50.1731 17.8935 50.7878 17.708 50.602C17.4611 50.3549 19.0671 45.4132 19.4375 45.3515C19.6848 45.3103 21.0438 48.5635 23.1438 49.4902L24.3174 48.9342C24.3794 48.5017 19.9937 44.425 19.3141 44.425Z" fill="white"/>
<path d="M13.1989 34.913C12.26 34.9624 12.6635 34.316 13.0135 33.9865L11.3458 34.6042C10.8516 35.7408 12.0665 35.9426 12.7048 35.9014C16.164 35.7778 17.5847 35.2837 18.8201 35.0984C19.8085 34.9501 19.4378 34.1718 19.129 33.8012L17.6463 32.2569L16.3491 32.7511C16.4933 32.957 16.9299 33.5047 17.2759 33.8012C17.6218 34.0977 17.42 34.2953 17.2759 34.3571C16.3081 34.5218 14.1378 34.8636 13.1989 34.913Z" fill="white"/>
<path d="M39.3898 6.56006C38.3366 4.05014 37.9279 4.80989 37.6602 5.57173C42.2314 24.7207 35.1277 31.7626 37.3514 43.252L50.3233 37.3837L48.4701 33.6157L38.3397 37.0749C39.7605 31.639 42.2931 13.4784 39.3898 6.56006Z" fill="black"/>
</g>
<defs>
<radialGradient id="paint0_radial_3202_7955" cx="0" cy="0" r="1" gradientUnits="userSpaceOnUse" gradientTransform="translate(30 30) rotate(90) scale(30)">
<stop offset="0.67" stop-color="#FFDB1D"/>
<stop offset="1" stop-color="#AB9628" stop-opacity="0.8"/>
</radialGradient>
<clipPath id="clip0_3202_7955">
<rect width="60" height="60" fill="white"/>
</clipPath>
</defs>
</svg>
