<svg width="61" height="61" viewBox="0 0 61 61" fill="none" xmlns="http://www.w3.org/2000/svg">
<g clip-path="url(#clip0_3201_7895)">
<circle cx="30.5449" cy="30.5469" r="30" fill="url(#paint0_radial_3201_7895)"/>
<path d="M33.0799 16.5241C27.9149 7.51864 11.5212 15.1731 16.4618 25.7549C17.5847 27.7813 19.7555 27.8564 21.1778 27.1059C22.6001 26.3554 30.3851 22.1078 32.1817 21.0271C33.9782 19.9464 33.682 17.5739 33.0799 16.5241Z" fill="url(#paint1_linear_3201_7895)"/>
<path d="M21.5986 12.4256L23.8974 12.1957C27.2536 10.7246 27.4796 23.6512 27.173 30.2983C26.675 30.9497 25.5179 32.0799 24.8743 31.3902C24.2306 30.7006 23.5717 30.988 23.3226 31.2178C22.587 30.1604 21.6752 30.7006 21.3112 31.1029C20.2998 29.9995 19.5872 30.7198 19.3573 31.2178C16.4838 29.4363 15.9666 30.3558 13.3231 30.5282L12.8058 29.6662L11.0818 30.1259L9.41519 28.8042L8.49569 29.2639H7.57619C7.43826 27.9306 6.8674 26.946 6.59921 26.6203C6.13946 25.379 6.48428 24.4557 6.71415 24.1492C6.16245 24.0113 6.21607 23.632 6.31185 23.4596C6.58768 22.8159 6.42678 22.3102 6.31185 22.1378C5.76015 20.6666 6.27355 19.9156 6.59921 19.7241C5.67971 18.2069 6.29271 17.3296 6.71415 17.0805C6.2544 16.7932 6.75249 14.1879 6.88659 14.2646C6.74866 13.1152 8.62981 13.096 9.58762 13.2301C11.6105 11.7589 12.1162 12.3872 12.1162 12.8853L13.3231 13.0002C14.0127 11.1153 14.9514 11.8317 15.3345 12.4256H18.3229C18.5987 11.782 19.0891 12.1574 19.2998 12.4256L20.9664 12.1957C21.0584 11.3222 21.4262 11.985 21.5986 12.4256Z" fill="white" stroke="black" stroke-width="0.45975" stroke-linejoin="round"/>
<path d="M49.702 19.5513C47.3113 6.35643 30.7756 8.86212 22.8066 11.908C25.0594 12.0459 25.0862 13.7278 24.818 14.5515C26.1513 15.7468 26.1781 19.8386 26.0249 21.7351C26.3007 22.0569 26.2548 23.6316 26.1973 24.3786C26.5651 25.1602 26.3505 27.0414 26.1973 27.8842L26.772 28.344V30.1255L25.2778 31.3898L27.9788 50.6993C29.3006 59.2622 43.0996 57.4232 42.9207 52.6533C42.4035 38.8608 43.5529 42.8261 52.8053 36.1597C52.8053 35.7919 52.3456 34.4357 52.1157 33.8035C53.0352 29.5278 51.7709 27.4245 50.9089 26.8498C51.2307 23.8155 50.2384 20.7198 49.702 19.5513Z" fill="#17282F" stroke="black" stroke-width="0.344813" stroke-linejoin="round"/>
<path opacity="0.6" d="M48.1509 23.3427C45.3349 9.89509 31.7723 12.5961 25.0484 14.2626C24.9335 14.2911 25.5977 15.4936 25.7381 15.4696C39.1283 13.1708 43.7258 15.8144 46.3119 23.86C46.6501 24.9123 45.9862 25.2967 45.6223 25.3542C39.7605 26.3886 27.8874 28.492 27.2897 28.6299C26.715 28.7625 27.4047 30.5264 27.6345 30.4689L51.0818 26.6185L50.9094 24.3772C48.6107 24.837 48.3233 23.9175 48.1509 23.3427Z" fill="#356893" stroke="black" stroke-width="0.229875"/>
<path d="M28.3204 52.7111L25.3485 31.965C25.1345 30.4709 26.6703 30.9881 26.9002 32.2523L30.1594 51.964C31.1364 56.1017 40.1015 55.0673 40.3888 51.3893C39.7567 38.2289 43.7795 41.3897 51.4803 34.0337C52.1657 33.3791 52.4764 35.3172 52.5148 36.3325C42.7451 43.631 42.2853 38.8036 42.9175 52.7111C42.6876 57.3086 29.1824 58.4005 28.3204 52.7111Z" fill="#356891" stroke="black" stroke-width="0.229875"/>
</g>
<defs>
<radialGradient id="paint0_radial_3201_7895" cx="0" cy="0" r="1" gradientUnits="userSpaceOnUse" gradientTransform="translate(30.5449 30.5469) rotate(90) scale(30)">
<stop offset="0.67" stop-color="#FFDB1D"/>
<stop offset="1" stop-color="#AB9628" stop-opacity="0.8"/>
</radialGradient>
<linearGradient id="paint1_linear_3201_7895" x1="24.5449" y1="12.543" x2="24.5449" y2="27.543" gradientUnits="userSpaceOnUse">
<stop stop-color="white"/>
<stop offset="1" stop-color="#C5C5C5"/>
</linearGradient>
<clipPath id="clip0_3201_7895">
<rect width="60" height="60" fill="white" transform="translate(0.542969 0.542969)"/>
</clipPath>
</defs>
</svg>
