<svg width="192" height="76" viewBox="0 0 192 76" fill="none" xmlns="http://www.w3.org/2000/svg">
<path d="M25.0715 17.5091C23.5212 17.5004 22.0287 18.0967 20.9113 19.1712C19.7938 20.2457 19.1395 21.7137 19.0876 23.2631C19.0356 24.8125 19.59 26.3211 20.633 27.4681C21.6759 28.6151 23.1251 29.3101 24.6725 29.4052C26.2198 29.5004 27.7433 28.9882 28.9189 27.9777C30.0945 26.9671 30.8296 25.5379 30.9679 23.9938C31.1062 22.4497 30.6368 20.9126 29.6594 19.7092C28.682 18.5058 27.2738 17.7311 25.7342 17.5499L25.6308 18.4283C26.9417 18.5826 28.1407 19.2422 28.9728 20.2668C29.805 21.2914 30.2047 22.6002 30.087 23.9149C29.9692 25.2296 29.3433 26.4465 28.3424 27.3069C27.3414 28.1674 26.0442 28.6034 24.7268 28.5224C23.4093 28.4414 22.1754 27.8497 21.2874 26.8731C20.3994 25.8965 19.9273 24.612 19.9715 23.2928C20.0158 21.9736 20.5729 20.7236 21.5243 19.8087C22.4758 18.8938 23.7465 18.3861 25.0665 18.3936L25.0715 17.5091Z" fill="black"/>
<path d="M26.3399 17.6531C24.8271 17.3141 23.2418 17.5785 21.921 18.3901C20.6001 19.2017 19.648 20.4966 19.2669 21.9993C18.8858 23.502 19.1059 25.0941 19.8804 26.437C20.6548 27.78 21.9226 28.7679 23.4141 29.1907C24.9056 29.6135 26.5032 29.4379 27.8672 28.7012C29.2313 27.9645 30.2541 26.7248 30.7184 25.2457C31.1827 23.7666 31.0517 22.1647 30.3533 20.7806C29.6549 19.3966 28.4443 18.3395 26.9787 17.8342L26.6903 18.6704C27.9382 19.1006 28.969 20.0007 29.5637 21.1791C30.1583 22.3575 30.2698 23.7214 29.8745 24.9808C29.4792 26.2402 28.6083 27.2957 27.4469 27.923C26.2855 28.5503 24.9252 28.6998 23.6553 28.3398C22.3854 27.9798 21.306 27.1386 20.6466 25.9952C19.9872 24.8517 19.7998 23.4961 20.1242 22.2167C20.4487 20.9372 21.2594 19.8348 22.384 19.1437C23.5086 18.4527 24.8584 18.2275 26.1465 18.5162L26.3399 17.6531Z" fill="black"/>
<path d="M27.0044 26.3374C23.2371 29.6235 20.6209 24.3169 22.1769 22.1207C22.5787 21.7191 22.9858 21.7861 23.9397 22.3512C23.7885 21.3987 23.7263 21.0269 24.1686 20.8089C27.0375 20.384 29.663 24.0182 27.0044 26.3374Z" fill="black"/>
<path d="M19.4971 28.508C22.5691 31.1713 23.8908 31.3993 27.643 30.7589C22.3138 37.344 21.0057 34.6906 19.4971 28.508Z" fill="black"/>
<path d="M19.1028 14.2802C21.3415 8.04531 25.8672 0.460722 26.5194 0.238756C31.618 -1.49662 41.5948 13.1642 45.38 24.0142C46.3935 26.9194 46.1122 30.5865 46.9093 36.1532L48.7448 46.4596C48.9163 47.5257 47.973 57.4023 47.973 57.4023L47.973 57.4024L41.6931 48.2543C43.9176 47.8257 45.6679 46.4423 46.1519 44.5515C45.3043 43.8541 45.4988 43.5315 46.3972 43.0144L46.2872 41.5345C45.3546 41.052 45.4254 40.7336 46.2361 40.114C45.7055 34.422 45.2751 31.9212 44.1732 28.1495C44.5691 31.4062 44.7968 33.0052 44.4344 34.305C43.3341 28.2737 42.5253 26.1979 40.9341 25.4093L37.9227 24.268L35.9213 22.4224L33.5518 22.8824C33.9657 25.4008 34.1235 26.4338 33.8213 27.5586C33.478 28.8362 33.0431 29.1519 32.21 29.9757C31.2579 30.9171 29.8351 31.3965 29.1786 32.3847C26.6721 36.1576 24.41 38.5609 22.7545 38.3249C20.3887 37.9877 19.3648 36.0388 17.9543 29.777L18.7056 26.5267C19.0283 30.6311 19.4154 32.3296 20.3488 34.7018C21.6927 37.7272 23.8802 37.6803 26.0884 34.7341C27.2808 33.1432 27.7617 31.8075 29.3651 30.7881C32.8979 28.5421 33.5638 26.9162 32.2473 23.3485C29.4849 17.7397 27.6723 16.1628 23.6443 16.9094C21.3928 17.4292 21.3297 18.1389 22.2927 15.2449L20.9321 16.8941L21.7107 13.5256C22.5185 12.6036 23.0776 12.4682 24.2019 12.4745C27.7521 12.4945 29.2001 18.0649 31.8585 18.8492C32.5801 19.1153 32.871 19.3422 33.0951 19.9212C33.6371 21.8047 33.9009 22.2208 34.3253 22.1176C34.7463 21.9916 34.9865 21.8686 35.3342 21.5907C34.6477 20.6302 34.4586 20.2906 34.692 20.0486C34.811 19.9309 35.1065 19.9917 35.7521 20.9421C36.1387 20.491 36.3486 20.1628 36.7075 19.409C36.7983 18.5625 36.7928 18.0586 36.7205 17.1013C36.3791 15.9701 36.1811 15.4682 35.7867 14.7883L35.4892 15.0825L35.1319 15.4947C34.4171 16.3191 34.13 14.779 34.6625 14.782L35.3134 14.7857L35.6106 14.5507L34.6722 13.066L34.4355 13.0647L34.0189 13.4766L33.8989 13.7718C33.7188 14.2441 32.9569 12.938 33.3119 12.94L33.6669 12.942L34.142 12.6489C34.0653 11.9785 34.4073 11.7628 34.6197 11.8823C36.2123 12.7789 37.2594 15.9801 37.9657 16.635C38.3735 17.1523 38.3743 17.6432 37.9584 17.9367C37.7921 18.0542 37.8696 19.1789 37.9507 19.2977C38.2801 19.78 38.5682 19.9933 39.1877 20.3106L39.1797 21.7307C39.2128 22.0177 39.3542 22.2642 39.4725 22.2649L39.9459 22.2676C40.2461 21.5 41.1293 22.2742 41.1273 22.6292C41.1111 23.5386 41.2199 23.7385 41.6552 23.4606L43.0793 22.7586L41.849 20.5623L41.5512 20.9156C41.4917 20.9745 41.02 20.6759 41.0808 20.3804L41.2627 19.6122C40.2089 17.5944 39.7372 17.2959 39.5664 16.1114C38.8717 15.1805 38.585 14.8126 38.4528 14.2116L37.8046 13.7346C37.2433 13.7573 37.1139 13.6456 37.3345 13.1402C37.3944 13.0222 37.8086 13.0245 37.9242 13.4986L38.5721 14.0348L38.6918 13.7988L37.4609 11.7208C37.1372 11.7633 36.9865 11.8956 36.809 11.8946C36.5723 11.8933 36.3373 11.5961 36.3971 11.4781C36.5168 11.2421 36.6746 11.0934 36.9922 10.8897L35.8756 9.52245L35.2812 9.99249L35.2227 9.87381L35.7579 9.40344C34 6.56877 32.1136 5.0633 30.4632 3.92971C29.3816 2.82526 28.6598 2.67339 27.0928 3.49652C24.7066 6.91511 24.2931 6.79443 21.7107 13.5256L20.9321 16.8941C18.9515 20.1374 18.342 22.3599 18.7056 26.5267L17.9543 29.777C17.2634 29.3051 16.3773 29.4723 15.9343 30.5349C14.9746 32.8372 17.3616 39.7739 23.5144 39.986C24.1061 39.9894 32.9921 38.205 35.1269 37.3886C35.7792 37.1392 36.1514 36.945 36.8475 36.5699L37.0902 35.5062L38.4531 35.1588L38.4601 33.9162C40.5996 32.2715 40.754 25.8817 37.9227 24.268L40.9341 25.4093C42.7106 33.6361 39.6089 40.0767 33.7456 40.9905C27.351 41.6928 21.8968 43.5273 16.6599 38.2906C18.0102 41.646 19.2142 43.2867 24.0199 44.7819C28.4059 45.2916 30.7584 45.414 35.1986 45.6733L35.4951 45.5566L36.031 44.9679L36.2082 45.0281L35.7318 45.558C36.7847 45.7515 37.6694 45.5715 40.4741 44.0462C40.2468 42.3881 40.3661 42.2112 41.4282 42.7497C42.0529 42.0541 42.3805 41.2809 42.9271 39.267C43.0234 38.9125 43.891 39.3334 43.5707 40.5724C42.9307 42.4904 42.5083 43.3075 41.5399 43.9338L41.6931 48.2543L47.973 57.4024C34.887 63.2896 26.6394 64.0409 10.0856 60.3843C10.0905 59.4967 8.70798 43.6059 19.1028 14.2802Z" fill="black"/>
<path d="M34.6645 24.7821C35.0348 24.6918 35.2423 24.6411 35.6126 24.5507C35.6027 24.6548 35.5828 24.7083 35.5524 24.7279C35.2473 24.9248 35.041 24.8909 34.6645 24.7821Z" fill="black"/>
<path d="M35.1267 16.7423C35.2703 16.6002 35.3647 16.5069 35.7194 16.5681C35.7671 16.6039 35.393 17.1102 35.4199 17.2172C35.4473 17.3264 35.9551 16.7469 36.0132 16.9247C36.0714 17.1026 35.9798 17.4188 35.8915 17.5158C35.3557 18.1045 34.5911 17.2718 35.1267 16.7423Z" fill="black"/>
<path d="M37.7335 26.3971C37.852 26.3682 37.9696 26.5044 37.9688 26.6351C37.9681 26.7658 37.6844 26.811 37.5537 26.8103C37.4229 26.8095 37.2597 26.466 37.2605 26.3352C37.2612 26.2045 37.4965 26.4549 37.7335 26.3971Z" fill="black"/>
<circle cx="39.3764" cy="29.0137" r="0.473355" transform="rotate(-89.6773 39.3764 29.0137)" fill="black"/>
<path d="M35.9974 18.6379C36.2242 18.7679 36.3049 19.0607 36.1749 19.2875C36.0449 19.5143 35.7534 19.5892 35.5266 19.4592C35.2998 19.3292 35.1011 18.9765 35.2311 18.7497C35.3611 18.5229 35.7706 18.5079 35.9974 18.6379Z" fill="black"/>
<path d="M17.1083 30.6369C17.3577 30.5587 17.7496 30.7097 17.8279 30.9592C17.9062 31.2086 17.6412 31.4619 17.3918 31.5402C17.1424 31.6185 16.7485 31.5249 16.6702 31.2755C16.5919 31.0261 16.8589 30.7152 17.1083 30.6369Z" fill="black"/>
<path d="M17.4567 33.3223C17.7171 33.2992 18.0831 33.4183 18.1063 33.6787C18.1294 33.9391 17.8164 34.1299 17.556 34.1531C17.2956 34.1762 16.9309 34.0006 16.9077 33.7402C16.8846 33.4798 17.1963 33.3455 17.4567 33.3223Z" fill="black"/>
<path d="M23.1447 42.8239C23.4051 42.8007 23.7023 42.8011 23.7254 43.0615C23.7486 43.3219 23.4356 43.5127 23.1752 43.5359C22.9148 43.559 22.55 43.3834 22.5269 43.123C22.5037 42.8626 22.8843 42.847 23.1447 42.8239Z" fill="black"/>
<path d="M18.3138 35.5653C18.5447 35.4427 19.0377 35.4056 19.1603 35.6365C19.2829 35.8674 18.9594 36.1693 18.7285 36.292C18.4976 36.4146 17.9781 36.3926 17.8555 36.1617C17.7328 35.9308 18.0829 35.688 18.3138 35.5653Z" fill="black"/>
<path d="M39.0156 19.125L39.0176 18.77L39.2543 18.7713L39.7273 18.8332L39.2523 19.1263L39.0156 19.125Z" fill="black"/>
<path d="M34.27 11.3488L34.151 11.4665L33.6803 10.9904L33.7993 10.8728L34.27 11.3488Z" fill="black"/>
<path d="M25.8731 52.0112C18.5907 52.7394 15.4349 48.4903 16.1762 40.1811L18.1703 43.3285C17.9665 44.8626 18.399 44.7499 19.1127 44.1031L22.4149 46.1335C25.7832 48.0726 28.8654 48.5159 37.0209 47.8727L40.6376 46.5913C40.611 51.3249 37.3351 55.1066 35.2101 54.194C31.7361 52.7021 27.8268 51.8158 25.8731 52.0112Z" fill="white"/>
<path d="M19.861 46.0059C20.1214 45.9828 20.4874 46.1019 20.5106 46.3623C20.5337 46.6227 20.2207 46.8135 19.9603 46.8367C19.6999 46.8598 19.3352 46.6842 19.312 46.4238C19.2889 46.1634 19.6006 46.0291 19.861 46.0059Z" fill="black"/>
<path d="M22.171 47.3159C22.4314 47.2927 22.8448 47.6488 22.868 47.9092C22.8912 48.1696 22.5782 48.3604 22.3178 48.3835C22.0574 48.4067 21.6926 48.2311 21.6694 47.9707C21.6463 47.7103 21.9106 47.339 22.171 47.3159Z" fill="black"/>
<path d="M25.27 50.1064C25.0347 50.2203 24.5219 50.0339 24.4079 49.7986C24.294 49.5633 24.5191 49.2739 24.7544 49.16C24.9897 49.0461 25.393 49.081 25.507 49.3163C25.6209 49.5516 25.5053 49.9925 25.27 50.1064Z" fill="black"/>
<path d="M27.8751 50.6703C27.6398 50.7842 27.1763 50.7105 27.0624 50.4752C26.9484 50.2399 26.8899 49.9386 27.1252 49.8247C27.3605 49.7107 28.1335 49.9507 28.2474 50.186C28.3613 50.4213 28.1104 50.5563 27.8751 50.6703Z" fill="black"/>
<path d="M30.8412 51.5172C30.6059 51.6312 30.1423 51.5575 30.0284 51.3222C29.9145 51.0869 29.8559 50.7856 30.0912 50.6717C30.3265 50.5577 30.9141 50.5621 31.028 50.7974C31.1419 51.0327 31.0765 51.4033 30.8412 51.5172Z" fill="black"/>
<path d="M33.0199 51.4795C33.2454 51.3472 33.7134 51.3836 33.8457 51.6091C33.978 51.8345 33.9083 52.2176 33.6828 52.3499C33.4573 52.4823 33.0235 52.4374 32.8912 52.212C32.7589 51.9865 32.7945 51.6119 33.0199 51.4795Z" fill="black"/>
<path d="M35.8716 52.0074C36.0971 51.8751 36.6846 52.024 36.817 52.2494C36.9493 52.4749 36.7595 52.8081 36.534 52.9404C36.3086 53.0728 35.6441 53.0592 35.5118 52.8337C35.3794 52.6083 35.6462 52.1398 35.8716 52.0074Z" fill="black"/>
<path d="M91.0715 17.5091C89.5212 17.5004 88.0287 18.0967 86.9113 19.1712C85.7938 20.2457 85.1395 21.7137 85.0876 23.2631C85.0356 24.8125 85.59 26.3211 86.633 27.4681C87.6759 28.6151 89.1251 29.3101 90.6725 29.4052C92.2198 29.5004 93.7433 28.9882 94.9189 27.9777C96.0945 26.9671 96.8296 25.5379 96.9679 23.9938C97.1062 22.4497 96.6368 20.9126 95.6594 19.7092C94.682 18.5058 93.2738 17.7311 91.7342 17.5499L91.6308 18.4283C92.9417 18.5826 94.1407 19.2422 94.9728 20.2668C95.805 21.2914 96.2047 22.6002 96.087 23.9149C95.9692 25.2296 95.3433 26.4465 94.3424 27.3069C93.3414 28.1674 92.0442 28.6034 90.7268 28.5224C89.4093 28.4414 88.1754 27.8497 87.2874 26.8731C86.3994 25.8965 85.9273 24.612 85.9715 23.2928C86.0158 21.9736 86.5729 20.7236 87.5243 19.8087C88.4758 18.8938 89.7465 18.3861 91.0665 18.3936L91.0715 17.5091Z" fill="black"/>
<path d="M92.3399 17.6531C90.8271 17.3141 89.2418 17.5785 87.921 18.3901C86.6001 19.2017 85.648 20.4966 85.2669 21.9993C84.8858 23.502 85.1059 25.0941 85.8804 26.437C86.6548 27.78 87.9226 28.7679 89.4141 29.1907C90.9056 29.6135 92.5032 29.4379 93.8672 28.7012C95.2313 27.9645 96.2541 26.7248 96.7184 25.2457C97.1827 23.7666 97.0517 22.1647 96.3533 20.7806C95.6549 19.3966 94.4443 18.3395 92.9787 17.8342L92.6903 18.6704C93.9382 19.1006 94.969 20.0007 95.5637 21.1791C96.1583 22.3575 96.2698 23.7214 95.8745 24.9808C95.4792 26.2402 94.6083 27.2957 93.4469 27.923C92.2855 28.5503 90.9252 28.6998 89.6553 28.3398C88.3854 27.9798 87.306 27.1386 86.6466 25.9952C85.9872 24.8517 85.7998 23.4961 86.1242 22.2167C86.4487 20.9372 87.2594 19.8348 88.384 19.1437C89.5086 18.4527 90.8584 18.2275 92.1465 18.5162L92.3399 17.6531Z" fill="black"/>
<path d="M93.0044 26.3374C89.2371 29.6235 86.6209 24.3169 88.1769 22.1207C88.5787 21.7191 88.9858 21.7861 89.9397 22.3512C89.7885 21.3987 89.7263 21.0269 90.1686 20.8089C93.0375 20.384 95.663 24.0182 93.0044 26.3374Z" fill="black"/>
<path d="M85.4971 28.508C88.5691 31.1713 89.8908 31.3993 93.643 30.7589C88.3138 37.344 87.0057 34.6906 85.4971 28.508Z" fill="black"/>
<path d="M85.1028 14.2802C87.3415 8.04531 91.8672 0.460722 92.5194 0.238755C97.618 -1.49662 107.595 13.1642 111.38 24.0142C112.393 26.9194 112.112 30.5865 112.909 36.1532L114.745 46.4596C114.916 47.5257 113.973 57.4023 113.973 57.4023L113.973 57.4024L107.693 48.2543C109.918 47.8257 111.668 46.4423 112.152 44.5515C111.304 43.8541 111.499 43.5315 112.397 43.0144L112.287 41.5345C111.355 41.052 111.425 40.7336 112.236 40.114C111.706 34.422 111.275 31.9212 110.173 28.1495C110.569 31.4062 110.797 33.0052 110.434 34.305C109.334 28.2737 108.525 26.1979 106.934 25.4093L103.923 24.268L101.921 22.4224L99.5518 22.8824C99.9657 25.4008 100.123 26.4338 99.8213 27.5586C99.478 28.8362 99.0431 29.1519 98.21 29.9757C97.2579 30.9171 95.8351 31.3965 95.1786 32.3847C92.6721 36.1576 90.41 38.5609 88.7545 38.3249C86.3887 37.9877 85.3648 36.0388 83.9543 29.777L84.7056 26.5267C85.0283 30.6311 85.4154 32.3296 86.3488 34.7018C87.6927 37.7272 89.8802 37.6803 92.0884 34.7341C93.2808 33.1432 93.7617 31.8075 95.3651 30.7881C98.8979 28.5421 99.5638 26.9162 98.2473 23.3485C95.4849 17.7397 93.6723 16.1628 89.6443 16.9094C87.3928 17.4292 87.3297 18.1389 88.2927 15.2449L86.9321 16.8941L87.7107 13.5256C88.5185 12.6036 89.0776 12.4682 90.2019 12.4745C93.7521 12.4945 95.2001 18.0649 97.8585 18.8492C98.5801 19.1153 98.871 19.3422 99.0951 19.9212C99.6371 21.8047 99.9009 22.2208 100.325 22.1176C100.746 21.9916 100.987 21.8686 101.334 21.5907C100.648 20.6302 100.459 20.2906 100.692 20.0486C100.811 19.9309 101.107 19.9917 101.752 20.9421C102.139 20.4911 102.349 20.1628 102.707 19.409C102.798 18.5625 102.793 18.0586 102.72 17.1013C102.379 15.9701 102.181 15.4682 101.787 14.7883L101.489 15.0825L101.132 15.4947C100.417 16.3191 100.13 14.779 100.662 14.782L101.313 14.7857L101.611 14.5507L100.672 13.0661L100.435 13.0647L100.019 13.4766L99.8989 13.7718C99.7188 14.2441 98.9569 12.938 99.3119 12.94L99.6669 12.942L100.142 12.6489C100.065 11.9785 100.407 11.7628 100.62 11.8823C102.212 12.7789 103.259 15.9801 103.966 16.635C104.374 17.1523 104.374 17.6432 103.958 17.9367C103.792 18.0542 103.87 19.1789 103.951 19.2977C104.28 19.78 104.568 19.9933 105.188 20.3106L105.18 21.7307C105.213 22.0177 105.354 22.2642 105.473 22.2649L105.946 22.2676C106.246 21.5 107.129 22.2742 107.127 22.6293C107.111 23.5386 107.22 23.7385 107.655 23.4606L109.079 22.7586L107.849 20.5623L107.551 20.9156C107.492 20.9745 107.02 20.6759 107.081 20.3804L107.263 19.6122C106.209 17.5944 105.737 17.2959 105.566 16.1114C104.872 15.1805 104.585 14.8126 104.453 14.2116L103.805 13.7346C103.243 13.7573 103.114 13.6456 103.335 13.1402C103.394 13.0222 103.809 13.0245 103.924 13.4986L104.572 14.0348L104.692 13.7988L103.461 11.7208C103.137 11.7633 102.986 11.8956 102.809 11.8946C102.572 11.8933 102.337 11.5961 102.397 11.4781C102.517 11.2421 102.675 11.0934 102.992 10.8897L101.876 9.52245L101.281 9.99249L101.223 9.87381L101.758 9.40344C100 6.56877 98.1136 5.06329 96.4632 3.92971C95.3816 2.82526 94.6598 2.67339 93.0928 3.49652C90.7066 6.91511 90.2931 6.79443 87.7107 13.5256L86.9321 16.8941C84.9515 20.1374 84.342 22.3599 84.7056 26.5267L83.9543 29.777C83.2634 29.3051 82.3773 29.4723 81.9343 30.5349C80.9746 32.8372 83.3616 39.7739 89.5144 39.986C90.1061 39.9894 98.9921 38.205 101.127 37.3886C101.779 37.1392 102.151 36.945 102.848 36.5699L103.09 35.5062L104.453 35.1588L104.46 33.9162C106.6 32.2715 106.754 25.8817 103.923 24.268L106.934 25.4093C108.711 33.6361 105.609 40.0767 99.7456 40.9905C93.351 41.6928 87.8968 43.5273 82.6599 38.2906C84.0102 41.646 85.2142 43.2867 90.0199 44.7819C94.4059 45.2916 96.7584 45.414 101.199 45.6733L101.495 45.5566L102.031 44.9679L102.208 45.0281L101.732 45.558C102.785 45.7515 103.669 45.5715 106.474 44.0462C106.247 42.3881 106.366 42.2112 107.428 42.7497C108.053 42.0541 108.381 41.2809 108.927 39.267C109.023 38.9125 109.891 39.3334 109.571 40.5724C108.931 42.4904 108.508 43.3075 107.54 43.9338L107.693 48.2543L113.973 57.4024C100.887 63.2896 92.6394 64.0409 76.0856 60.3843C76.0905 59.4967 74.708 43.6059 85.1028 14.2802Z" fill="black"/>
<path d="M100.665 24.7821C101.035 24.6918 101.242 24.6411 101.613 24.5507C101.603 24.6548 101.583 24.7083 101.552 24.7279C101.247 24.9248 101.041 24.8909 100.665 24.7821Z" fill="black"/>
<path d="M101.127 16.7423C101.27 16.6002 101.365 16.5069 101.719 16.5681C101.767 16.6039 101.393 17.1102 101.42 17.2172C101.447 17.3264 101.955 16.7469 102.013 16.9247C102.071 17.1026 101.98 17.4188 101.892 17.5158C101.356 18.1045 100.591 17.2718 101.127 16.7423Z" fill="black"/>
<path d="M103.733 26.3971C103.852 26.3682 103.97 26.5044 103.969 26.6351C103.968 26.7658 103.684 26.811 103.554 26.8103C103.423 26.8095 103.26 26.466 103.26 26.3352C103.261 26.2045 103.496 26.4549 103.733 26.3971Z" fill="black"/>
<circle cx="105.376" cy="29.0137" r="0.473355" transform="rotate(-89.6773 105.376 29.0137)" fill="black"/>
<path d="M101.997 18.6379C102.224 18.7679 102.305 19.0607 102.175 19.2875C102.045 19.5143 101.753 19.5892 101.527 19.4592C101.3 19.3292 101.101 18.9765 101.231 18.7497C101.361 18.5229 101.771 18.5079 101.997 18.6379Z" fill="black"/>
<path d="M83.1083 30.6369C83.3577 30.5587 83.7496 30.7097 83.8279 30.9592C83.9062 31.2086 83.6412 31.4619 83.3918 31.5402C83.1424 31.6185 82.7485 31.5249 82.6702 31.2755C82.5919 31.0261 82.8589 30.7152 83.1083 30.6369Z" fill="black"/>
<path d="M83.4567 33.3223C83.7171 33.2992 84.0831 33.4183 84.1063 33.6787C84.1294 33.9391 83.8164 34.1299 83.556 34.1531C83.2956 34.1762 82.9309 34.0006 82.9077 33.7402C82.8846 33.4798 83.1963 33.3455 83.4567 33.3223Z" fill="black"/>
<path d="M89.1447 42.8239C89.4051 42.8007 89.7023 42.8011 89.7254 43.0615C89.7486 43.3219 89.4356 43.5127 89.1752 43.5359C88.9148 43.559 88.55 43.3834 88.5269 43.123C88.5037 42.8626 88.8843 42.847 89.1447 42.8239Z" fill="black"/>
<path d="M84.3138 35.5653C84.5447 35.4427 85.0377 35.4056 85.1603 35.6365C85.2829 35.8674 84.9594 36.1693 84.7285 36.292C84.4976 36.4146 83.9781 36.3926 83.8555 36.1617C83.7328 35.9308 84.0829 35.688 84.3138 35.5653Z" fill="black"/>
<path d="M105.016 19.125L105.018 18.77L105.254 18.7713L105.727 18.8332L105.252 19.1263L105.016 19.125Z" fill="black"/>
<path d="M100.27 11.3488L100.151 11.4665L99.6803 10.9904L99.7993 10.8728L100.27 11.3488Z" fill="black"/>
<path d="M91.8731 52.0112C84.5907 52.7394 81.4349 48.4903 82.1762 40.1811L84.1703 43.3285C83.9665 44.8626 84.399 44.75 85.1127 44.1031L88.4149 46.1335C91.7832 48.0726 94.8654 48.5159 103.021 47.8727L106.638 46.5913C106.611 51.3249 103.335 55.1066 101.21 54.194C97.7361 52.7021 93.8268 51.8158 91.8731 52.0112Z" fill="white"/>
<path d="M85.861 46.0059C86.1214 45.9828 86.4874 46.1019 86.5106 46.3623C86.5337 46.6227 86.2207 46.8135 85.9603 46.8367C85.6999 46.8598 85.3352 46.6842 85.312 46.4238C85.2889 46.1634 85.6006 46.0291 85.861 46.0059Z" fill="black"/>
<path d="M88.171 47.3159C88.4314 47.2927 88.8448 47.6488 88.868 47.9092C88.8912 48.1696 88.5782 48.3604 88.3178 48.3835C88.0574 48.4067 87.6926 48.2311 87.6694 47.9707C87.6463 47.7103 87.9106 47.339 88.171 47.3159Z" fill="black"/>
<path d="M91.27 50.1064C91.0347 50.2203 90.5219 50.0339 90.4079 49.7986C90.294 49.5633 90.5191 49.2739 90.7544 49.16C90.9897 49.0461 91.393 49.081 91.507 49.3163C91.6209 49.5516 91.5053 49.9925 91.27 50.1064Z" fill="black"/>
<path d="M93.8751 50.6703C93.6398 50.7842 93.1763 50.7105 93.0624 50.4752C92.9484 50.2399 92.8899 49.9386 93.1252 49.8247C93.3605 49.7107 94.1335 49.9507 94.2474 50.186C94.3613 50.4213 94.1104 50.5563 93.8751 50.6703Z" fill="black"/>
<path d="M96.8412 51.5172C96.6059 51.6312 96.1423 51.5575 96.0284 51.3222C95.9145 51.0869 95.8559 50.7856 96.0912 50.6717C96.3265 50.5577 96.9141 50.5621 97.028 50.7974C97.1419 51.0327 97.0765 51.4033 96.8412 51.5172Z" fill="black"/>
<path d="M99.0199 51.4795C99.2454 51.3472 99.7134 51.3836 99.8457 51.6091C99.978 51.8345 99.9083 52.2176 99.6828 52.3499C99.4573 52.4823 99.0235 52.4374 98.8912 52.212C98.7589 51.9865 98.7945 51.6119 99.0199 51.4795Z" fill="black"/>
<path d="M101.872 52.0074C102.097 51.8751 102.685 52.024 102.817 52.2494C102.949 52.4749 102.759 52.8081 102.534 52.9404C102.309 53.0728 101.644 53.0592 101.512 52.8337C101.379 52.6083 101.646 52.1398 101.872 52.0074Z" fill="black"/>
<path d="M157.071 17.5091C155.521 17.5004 154.029 18.0967 152.911 19.1712C151.794 20.2457 151.14 21.7137 151.088 23.2631C151.036 24.8125 151.59 26.3211 152.633 27.4681C153.676 28.6151 155.125 29.3101 156.672 29.4052C158.22 29.5004 159.743 28.9882 160.919 27.9777C162.095 26.9671 162.83 25.5379 162.968 23.9938C163.106 22.4497 162.637 20.9126 161.659 19.7092C160.682 18.5058 159.274 17.7311 157.734 17.5499L157.631 18.4283C158.942 18.5826 160.141 19.2422 160.973 20.2668C161.805 21.2914 162.205 22.6002 162.087 23.9149C161.969 25.2296 161.343 26.4465 160.342 27.3069C159.341 28.1674 158.044 28.6034 156.727 28.5224C155.409 28.4414 154.175 27.8497 153.287 26.8731C152.399 25.8965 151.927 24.612 151.972 23.2928C152.016 21.9736 152.573 20.7236 153.524 19.8087C154.476 18.8938 155.747 18.3861 157.066 18.3936L157.071 17.5091Z" fill="black"/>
<path d="M158.34 17.6531C156.827 17.3141 155.242 17.5785 153.921 18.3901C152.6 19.2017 151.648 20.4966 151.267 21.9993C150.886 23.502 151.106 25.0941 151.88 26.437C152.655 27.78 153.923 28.7679 155.414 29.1907C156.906 29.6135 158.503 29.4379 159.867 28.7012C161.231 27.9645 162.254 26.7248 162.718 25.2457C163.183 23.7666 163.052 22.1647 162.353 20.7806C161.655 19.3966 160.444 18.3395 158.979 17.8342L158.69 18.6704C159.938 19.1006 160.969 20.0007 161.564 21.1791C162.158 22.3575 162.27 23.7214 161.875 24.9808C161.479 26.2402 160.608 27.2957 159.447 27.923C158.286 28.5503 156.925 28.6998 155.655 28.3398C154.385 27.9798 153.306 27.1386 152.647 25.9952C151.987 24.8517 151.8 23.4961 152.124 22.2167C152.449 20.9372 153.259 19.8348 154.384 19.1437C155.509 18.4527 156.858 18.2275 158.146 18.5162L158.34 17.6531Z" fill="black"/>
<path d="M159.004 26.3374C155.237 29.6235 152.621 24.3169 154.177 22.1207C154.579 21.7191 154.986 21.7861 155.94 22.3512C155.789 21.3987 155.726 21.0269 156.169 20.8089C159.037 20.384 161.663 24.0182 159.004 26.3374Z" fill="black"/>
<path d="M151.497 28.508C154.569 31.1713 155.891 31.3993 159.643 30.7589C154.314 37.344 153.006 34.6906 151.497 28.508Z" fill="black"/>
<path d="M151.103 14.2802C153.342 8.04531 157.867 0.460722 158.519 0.238755C163.618 -1.49662 173.595 13.1642 177.38 24.0142C178.393 26.9194 178.112 30.5865 178.909 36.1532L180.745 46.4596C180.916 47.5257 179.973 57.4023 179.973 57.4023L179.973 57.4024L173.693 48.2543C175.918 47.8257 177.668 46.4423 178.152 44.5515C177.304 43.8541 177.499 43.5315 178.397 43.0144L178.287 41.5345C177.355 41.052 177.425 40.7336 178.236 40.114C177.706 34.422 177.275 31.9212 176.173 28.1495C176.569 31.4062 176.797 33.0052 176.434 34.305C175.334 28.2737 174.525 26.1979 172.934 25.4093L169.923 24.268L167.921 22.4224L165.552 22.8824C165.966 25.4008 166.123 26.4338 165.821 27.5586C165.478 28.8362 165.043 29.1519 164.21 29.9757C163.258 30.9171 161.835 31.3965 161.179 32.3847C158.672 36.1576 156.41 38.5609 154.754 38.3249C152.389 37.9877 151.365 36.0388 149.954 29.777L150.706 26.5267C151.028 30.6311 151.415 32.3296 152.349 34.7018C153.693 37.7272 155.88 37.6803 158.088 34.7341C159.281 33.1432 159.762 31.8075 161.365 30.7881C164.898 28.5421 165.564 26.9162 164.247 23.3485C161.485 17.7397 159.672 16.1628 155.644 16.9094C153.393 17.4292 153.33 18.1389 154.293 15.2449L152.932 16.8941L153.711 13.5256C154.519 12.6036 155.078 12.4682 156.202 12.4745C159.752 12.4945 161.2 18.0649 163.858 18.8492C164.58 19.1153 164.871 19.3422 165.095 19.9212C165.637 21.8047 165.901 22.2208 166.325 22.1176C166.746 21.9916 166.987 21.8686 167.334 21.5907C166.648 20.6302 166.459 20.2906 166.692 20.0486C166.811 19.9309 167.107 19.9917 167.752 20.9421C168.139 20.4911 168.349 20.1628 168.707 19.409C168.798 18.5625 168.793 18.0586 168.72 17.1013C168.379 15.9701 168.181 15.4682 167.787 14.7883L167.489 15.0825L167.132 15.4947C166.417 16.3191 166.13 14.779 166.662 14.782L167.313 14.7857L167.611 14.5507L166.672 13.0661L166.435 13.0647L166.019 13.4766L165.899 13.7718C165.719 14.2441 164.957 12.938 165.312 12.94L165.667 12.942L166.142 12.6489C166.065 11.9785 166.407 11.7628 166.62 11.8823C168.212 12.7789 169.259 15.9801 169.966 16.635C170.374 17.1523 170.374 17.6432 169.958 17.9367C169.792 18.0542 169.87 19.1789 169.951 19.2977C170.28 19.78 170.568 19.9933 171.188 20.3106L171.18 21.7307C171.213 22.0177 171.354 22.2642 171.473 22.2649L171.946 22.2676C172.246 21.5 173.129 22.2742 173.127 22.6293C173.111 23.5386 173.22 23.7385 173.655 23.4606L175.079 22.7586L173.849 20.5623L173.551 20.9156C173.492 20.9745 173.02 20.6759 173.081 20.3804L173.263 19.6122C172.209 17.5944 171.737 17.2959 171.566 16.1114C170.872 15.1805 170.585 14.8126 170.453 14.2116L169.805 13.7346C169.243 13.7573 169.114 13.6456 169.335 13.1402C169.394 13.0222 169.809 13.0245 169.924 13.4986L170.572 14.0348L170.692 13.7988L169.461 11.7208C169.137 11.7633 168.986 11.8956 168.809 11.8946C168.572 11.8933 168.337 11.5961 168.397 11.4781C168.517 11.2421 168.675 11.0934 168.992 10.8897L167.876 9.52245L167.281 9.99249L167.223 9.87381L167.758 9.40344C166 6.56877 164.114 5.06329 162.463 3.92971C161.382 2.82526 160.66 2.67339 159.093 3.49652C156.707 6.91511 156.293 6.79443 153.711 13.5256L152.932 16.8941C150.952 20.1374 150.342 22.3599 150.706 26.5267L149.954 29.777C149.263 29.3051 148.377 29.4723 147.934 30.5349C146.975 32.8372 149.362 39.7739 155.514 39.986C156.106 39.9894 164.992 38.205 167.127 37.3886C167.779 37.1392 168.151 36.945 168.848 36.5699L169.09 35.5062L170.453 35.1588L170.46 33.9162C172.6 32.2715 172.754 25.8817 169.923 24.268L172.934 25.4093C174.711 33.6361 171.609 40.0767 165.746 40.9905C159.351 41.6928 153.897 43.5273 148.66 38.2906C150.01 41.646 151.214 43.2867 156.02 44.7819C160.406 45.2916 162.758 45.414 167.199 45.6733L167.495 45.5566L168.031 44.9679L168.208 45.0281L167.732 45.558C168.785 45.7515 169.669 45.5715 172.474 44.0462C172.247 42.3881 172.366 42.2112 173.428 42.7497C174.053 42.0541 174.381 41.2809 174.927 39.267C175.023 38.9125 175.891 39.3334 175.571 40.5724C174.931 42.4904 174.508 43.3075 173.54 43.9338L173.693 48.2543L179.973 57.4024C166.887 63.2896 158.639 64.0409 142.086 60.3843C142.091 59.4967 140.708 43.6059 151.103 14.2802Z" fill="black"/>
<path d="M166.665 24.7821C167.035 24.6918 167.242 24.6411 167.613 24.5507C167.603 24.6548 167.583 24.7083 167.552 24.7279C167.247 24.9248 167.041 24.8909 166.665 24.7821Z" fill="black"/>
<path d="M167.127 16.7423C167.27 16.6002 167.365 16.5069 167.719 16.5681C167.767 16.6039 167.393 17.1102 167.42 17.2172C167.447 17.3264 167.955 16.7469 168.013 16.9247C168.071 17.1026 167.98 17.4188 167.892 17.5158C167.356 18.1045 166.591 17.2718 167.127 16.7423Z" fill="black"/>
<path d="M169.733 26.3971C169.852 26.3682 169.97 26.5044 169.969 26.6351C169.968 26.7658 169.684 26.811 169.554 26.8103C169.423 26.8095 169.26 26.466 169.26 26.3352C169.261 26.2045 169.496 26.4549 169.733 26.3971Z" fill="black"/>
<circle cx="171.376" cy="29.0137" r="0.473355" transform="rotate(-89.6773 171.376 29.0137)" fill="black"/>
<path d="M167.997 18.6379C168.224 18.7679 168.305 19.0607 168.175 19.2875C168.045 19.5143 167.753 19.5892 167.527 19.4592C167.3 19.3292 167.101 18.9765 167.231 18.7497C167.361 18.5229 167.771 18.5079 167.997 18.6379Z" fill="black"/>
<path d="M149.108 30.6369C149.358 30.5587 149.75 30.7097 149.828 30.9592C149.906 31.2086 149.641 31.4619 149.392 31.5402C149.142 31.6185 148.748 31.5249 148.67 31.2755C148.592 31.0261 148.859 30.7152 149.108 30.6369Z" fill="black"/>
<path d="M149.457 33.3223C149.717 33.2992 150.083 33.4183 150.106 33.6787C150.129 33.9391 149.816 34.1299 149.556 34.1531C149.296 34.1762 148.931 34.0006 148.908 33.7402C148.885 33.4798 149.196 33.3455 149.457 33.3223Z" fill="black"/>
<path d="M155.145 42.8239C155.405 42.8007 155.702 42.8011 155.725 43.0615C155.749 43.3219 155.436 43.5127 155.175 43.5359C154.915 43.559 154.55 43.3834 154.527 43.123C154.504 42.8626 154.884 42.847 155.145 42.8239Z" fill="black"/>
<path d="M150.314 35.5653C150.545 35.4427 151.038 35.4056 151.16 35.6365C151.283 35.8674 150.959 36.1693 150.729 36.292C150.498 36.4146 149.978 36.3926 149.855 36.1617C149.733 35.9308 150.083 35.688 150.314 35.5653Z" fill="black"/>
<path d="M171.016 19.125L171.018 18.77L171.254 18.7713L171.727 18.8332L171.252 19.1263L171.016 19.125Z" fill="black"/>
<path d="M166.27 11.3488L166.151 11.4665L165.68 10.9904L165.799 10.8728L166.27 11.3488Z" fill="black"/>
<path d="M157.873 52.0112C150.591 52.7394 147.435 48.4903 148.176 40.1811L150.17 43.3285C149.967 44.8626 150.399 44.75 151.113 44.1031L154.415 46.1335C157.783 48.0726 160.865 48.5159 169.021 47.8727L172.638 46.5913C172.611 51.3249 169.335 55.1066 167.21 54.194C163.736 52.7021 159.827 51.8158 157.873 52.0112Z" fill="white"/>
<path d="M151.861 46.0059C152.121 45.9828 152.487 46.1019 152.511 46.3623C152.534 46.6227 152.221 46.8135 151.96 46.8367C151.7 46.8598 151.335 46.6842 151.312 46.4238C151.289 46.1634 151.601 46.0291 151.861 46.0059Z" fill="black"/>
<path d="M154.171 47.3159C154.431 47.2927 154.845 47.6488 154.868 47.9092C154.891 48.1696 154.578 48.3604 154.318 48.3835C154.057 48.4067 153.693 48.2311 153.669 47.9707C153.646 47.7103 153.911 47.339 154.171 47.3159Z" fill="black"/>
<path d="M157.27 50.1064C157.035 50.2203 156.522 50.0339 156.408 49.7986C156.294 49.5633 156.519 49.2739 156.754 49.16C156.99 49.0461 157.393 49.081 157.507 49.3163C157.621 49.5516 157.505 49.9925 157.27 50.1064Z" fill="black"/>
<path d="M159.875 50.6703C159.64 50.7842 159.176 50.7105 159.062 50.4752C158.948 50.2399 158.89 49.9386 159.125 49.8247C159.36 49.7107 160.133 49.9507 160.247 50.186C160.361 50.4213 160.11 50.5563 159.875 50.6703Z" fill="black"/>
<path d="M162.841 51.5172C162.606 51.6312 162.142 51.5575 162.028 51.3222C161.914 51.0869 161.856 50.7856 162.091 50.6717C162.327 50.5577 162.914 50.5621 163.028 50.7974C163.142 51.0327 163.077 51.4033 162.841 51.5172Z" fill="black"/>
<path d="M165.02 51.4795C165.245 51.3472 165.713 51.3836 165.846 51.6091C165.978 51.8345 165.908 52.2176 165.683 52.3499C165.457 52.4823 165.024 52.4374 164.891 52.212C164.759 51.9865 164.794 51.6119 165.02 51.4795Z" fill="black"/>
<path d="M167.872 52.0074C168.097 51.8751 168.685 52.024 168.817 52.2494C168.949 52.4749 168.759 52.8081 168.534 52.9404C168.309 53.0728 167.644 53.0592 167.512 52.8337C167.379 52.6083 167.646 52.1398 167.872 52.0074Z" fill="black"/>
</svg>
