<svg width="192" height="76" viewBox="0 0 192 76" fill="none" xmlns="http://www.w3.org/2000/svg">
<path d="M19.8219 30.6904C23.13 33.5583 24.5532 33.8038 28.5936 33.1143C22.8551 40.2052 21.4465 37.348 19.8219 30.6904Z" fill="black"/>
<path d="M19.3978 15.3711C21.8083 8.65761 26.6815 0.490718 27.3837 0.25171C32.8738 -1.6169 43.6166 14.1695 47.6923 25.8525C48.7836 28.9807 48.4807 32.9293 49.339 38.9235L51.3154 50.0212C51.5001 51.1691 50.6922 59.2517 50.6922 59.2517L43.7223 51.9537C46.1176 51.4921 48.0023 50.0025 48.5235 47.9666C47.6108 47.2156 47.8202 46.8682 48.7877 46.3115L48.6692 44.7179C47.665 44.1984 47.7412 43.8555 48.6141 43.1884C48.0428 37.0593 47.5794 34.3666 46.3929 30.3053C46.8192 33.8121 47.0643 35.5338 46.6741 36.9333C45.4894 30.439 44.6185 28.2038 42.9051 27.3547L39.6626 26.1258L37.5074 24.1385L34.956 24.6339C35.4017 27.3456 35.5716 28.4579 35.2462 29.6691C34.8766 31.0447 34.4082 31.3847 33.5112 32.2716C32.4861 33.2853 30.954 33.8016 30.2471 34.8656C27.5481 38.9282 25.1124 41.516 23.3297 41.262C20.7823 40.8989 19.6798 38.8003 18.161 32.0578L18.97 28.5579C19.3175 32.9774 19.7343 34.8063 20.7394 37.3606C22.1865 40.6183 24.5419 40.5679 26.9196 37.3955C28.2036 35.6824 28.7214 34.2441 30.4479 33.1464C34.2519 30.728 34.9689 28.9773 33.5514 25.1357C30.5769 19.0963 28.6251 17.3983 24.2879 18.2022C21.8636 18.762 21.7956 19.5262 22.8326 16.4099L21.3675 18.1857L22.2058 14.5586C23.0757 13.5659 23.6777 13.4201 24.8883 13.4269C28.7111 13.4484 30.2702 19.4465 33.1327 20.2909C33.9098 20.5775 34.223 20.8218 34.4642 21.4453C35.0479 23.4734 35.332 23.9214 35.7889 23.8102C36.2423 23.6746 36.5009 23.5422 36.8753 23.2429C36.136 22.2087 35.9325 21.843 36.1838 21.5824C36.3119 21.4557 36.6301 21.5212 37.3252 22.5446C37.7415 22.0589 37.9675 21.7054 38.354 20.8938C38.4518 19.9822 38.4458 19.4396 38.368 18.4089C38.0004 17.1908 37.7872 16.6504 37.3626 15.9183L37.0422 16.2351L36.6574 16.679C35.8878 17.5666 35.5786 15.9083 36.152 15.9115L36.8528 15.9155L37.1729 15.6624L36.1624 14.0638L35.9075 14.0624L35.459 14.5059L35.3298 14.8237C35.1358 15.3323 34.3154 13.926 34.6977 13.9281L35.08 13.9303L35.5915 13.6146C35.5089 12.8928 35.8772 12.6605 36.1059 12.7892C37.8208 13.7546 38.9482 17.2016 39.7088 17.9067C40.1479 18.4638 40.1487 18.9924 39.701 19.3084C39.5218 19.4349 39.6054 20.6459 39.6927 20.7739C40.0473 21.2933 40.3576 21.5229 41.0246 21.8645L41.016 23.3937C41.0516 23.7027 41.2039 23.9682 41.3313 23.9689L41.841 23.9718C42.1643 23.1453 43.1153 23.9789 43.1131 24.3612C43.0957 25.3404 43.2128 25.5556 43.6815 25.2564L45.215 24.5005L43.8903 22.1355L43.5696 22.516C43.5055 22.5794 42.9976 22.2579 43.0631 21.9397L43.2589 21.1125C42.1242 18.9398 41.6163 18.6184 41.4324 17.343C40.6843 16.3406 40.3756 15.9445 40.2333 15.2973L39.5353 14.7837C38.931 14.8081 38.7916 14.6879 39.0292 14.1437C39.0936 14.0166 39.5396 14.0191 39.6642 14.5295L40.3618 15.1069L40.4906 14.8528L39.1652 12.6153C38.8167 12.661 38.6544 12.8035 38.4633 12.8025C38.2084 12.801 37.9554 12.481 38.0198 12.3539C38.1487 12.0998 38.3186 11.9398 38.6605 11.7204L37.4582 10.2482L36.8182 10.7543L36.7552 10.6265L37.3315 10.12C35.4387 7.06771 33.4074 5.44665 31.6303 4.22604C30.4657 3.03679 29.6884 2.87325 28.0011 3.75958C25.4317 7.44063 24.9864 7.31069 22.2058 14.5586L21.3675 18.1857C19.2348 21.6781 18.5785 24.0712 18.97 28.5579L18.161 32.0578C17.4171 31.5496 16.4629 31.7296 15.986 32.8738C14.9525 35.3529 17.5228 42.8221 24.148 43.0506C24.7851 43.0541 34.3533 41.1328 36.652 40.2538C37.3544 39.9852 37.7552 39.776 38.5048 39.3722L38.7661 38.2268L40.2337 37.8527L40.2412 36.5147C42.5449 34.7437 42.7111 27.8633 39.6626 26.1258L42.9051 27.3547C44.818 36.2131 41.4782 43.1482 35.1647 44.1321C28.2792 44.8883 22.4062 46.8637 16.7672 41.225C18.2212 44.838 19.5176 46.6046 24.6923 48.2147C29.4151 48.7634 31.9482 48.8953 36.7292 49.1745L37.0485 49.0488L37.6255 48.4149L37.8163 48.4797L37.3034 49.0503C38.4371 49.2586 39.3897 49.0649 42.4098 47.4224C42.165 45.637 42.2935 45.4466 43.4371 46.0265C44.1098 45.2774 44.4626 44.4449 45.0512 42.2763C45.1547 41.8946 46.089 42.3478 45.7441 43.682C45.0549 45.7472 44.6002 46.627 43.5574 47.3015L43.7223 51.9537L50.6922 59.2517C36.6014 65.5908 18.4524 63.2655 10.1695 59.2515C10.1748 58.2958 8.20484 46.9483 19.3978 15.3711Z" fill="black"/>
<path d="M36.1568 26.6818C36.5554 26.5845 36.779 26.53 37.1776 26.4327C37.167 26.5447 37.1456 26.6024 37.1128 26.6235C36.7843 26.8355 36.5621 26.7989 36.1568 26.6818Z" fill="black"/>
<path d="M36.6487 18.0191C36.8034 17.8662 36.905 17.7657 37.287 17.8315C37.3383 17.8701 36.9355 18.4153 36.9645 18.5306C36.994 18.6481 37.5407 18.0241 37.6034 18.2156C37.666 18.4071 37.5674 18.7476 37.4723 18.8521C36.8953 19.486 36.072 18.5893 36.6487 18.0191Z" fill="black"/>
<path d="M39.4595 28.4202C39.5871 28.389 39.7137 28.5357 39.7129 28.6764C39.7121 28.8172 39.4066 28.8659 39.2658 28.8651C39.1251 28.8643 38.9493 28.4943 38.9501 28.3536C38.9509 28.2128 39.2043 28.4824 39.4595 28.4202Z" fill="black"/>
<circle cx="41.2274" cy="31.2314" r="0.509719" transform="rotate(-89.6773 41.2274 31.2314)" fill="black"/>
<path d="M37.5898 20.0629C37.834 20.2029 37.921 20.5182 37.781 20.7624C37.641 21.0067 37.327 21.0873 37.0828 20.9473C36.8386 20.8073 36.6246 20.4275 36.7646 20.1833C36.9046 19.939 37.3456 19.9229 37.5898 20.0629Z" fill="black"/>
<path d="M17.2464 32.9871C17.515 32.9028 17.937 33.0655 18.0213 33.3341C18.1056 33.6027 17.8203 33.8755 17.5517 33.9598C17.2831 34.0441 16.859 33.9434 16.7747 33.6748C16.6903 33.4062 16.9778 33.0714 17.2464 32.9871Z" fill="black"/>
<path d="M17.6265 35.8755C17.9069 35.8505 18.3011 35.9788 18.326 36.2592C18.351 36.5396 18.0139 36.7451 17.7335 36.77C17.4531 36.795 17.0603 36.6059 17.0354 36.3255C17.0104 36.0451 17.3461 35.9004 17.6265 35.8755Z" fill="black"/>
<path d="M23.7476 46.1049C24.028 46.0799 24.348 46.0804 24.3729 46.3608C24.3978 46.6412 24.0608 46.8466 23.7804 46.8716C23.5 46.8965 23.1072 46.7074 23.0823 46.427C23.0573 46.1466 23.4672 46.1298 23.7476 46.1049Z" fill="black"/>
<path d="M18.5469 38.3003C18.7955 38.1683 19.3264 38.1284 19.4584 38.377C19.5905 38.6256 19.2421 38.9508 18.9935 39.0828C18.7449 39.2149 18.1854 39.1911 18.0534 38.9425C17.9213 38.6939 18.2983 38.4324 18.5469 38.3003Z" fill="black"/>
<path d="M40.8398 20.5898L40.842 20.2076L41.0969 20.209L41.6062 20.2756L41.0947 20.5913L40.8398 20.5898Z" fill="black"/>
<path d="M35.7255 12.2137L35.5974 12.3404L35.0906 11.8278L35.2187 11.7011L35.7255 12.2137Z" fill="black"/>
<path d="M26.6874 56.0018C18.8459 56.786 15.4478 52.2107 16.2461 43.2636L18.3932 46.6526C18.1738 48.3044 18.6395 48.1831 19.408 47.4866L22.9638 49.673C26.5907 51.7609 29.9095 52.2382 38.6911 51.5456L42.5855 50.1658C42.5568 55.2629 39.0295 59.3349 36.7412 58.3522C33.0005 56.7458 28.7912 55.7915 26.6874 56.0018Z" fill="white"/>
<path d="M20.2144 49.5278C20.4948 49.5029 20.889 49.6312 20.9139 49.9116C20.9389 50.192 20.6018 50.3974 20.3214 50.4224C20.041 50.4473 19.6482 50.2582 19.6233 49.9778C19.5983 49.6974 19.934 49.5527 20.2144 49.5278Z" fill="black"/>
<path d="M22.7024 50.9445C22.9828 50.9196 23.4281 51.303 23.453 51.5834C23.4779 51.8638 23.1409 52.0693 22.8605 52.0942C22.5801 52.1192 22.1873 51.9301 22.1623 51.6497C22.1374 51.3693 22.422 50.9695 22.7024 50.9445Z" fill="black"/>
<path d="M26.035 53.9456C25.7817 54.0683 25.2295 53.8675 25.1068 53.6141C24.9841 53.3607 25.2265 53.0492 25.4799 52.9265C25.7332 52.8038 26.1675 52.8415 26.2902 53.0948C26.4129 53.3482 26.2884 53.8229 26.035 53.9456Z" fill="black"/>
<path d="M28.8465 54.5645C28.5931 54.6872 28.0939 54.6079 27.9712 54.3545C27.8486 54.1011 27.7855 53.7767 28.0389 53.654C28.2923 53.5313 29.1246 53.7897 29.2473 54.0431C29.37 54.2965 29.0998 54.4419 28.8465 54.5645Z" fill="black"/>
<path d="M32.0357 55.4719C31.7823 55.5945 31.2832 55.5152 31.1605 55.2618C31.0378 55.0085 30.9748 54.684 31.2281 54.5613C31.4815 54.4387 32.1142 54.4434 32.2369 54.6968C32.3595 54.9501 32.2891 55.3492 32.0357 55.4719Z" fill="black"/>
<path d="M34.3827 55.4279C34.6254 55.2854 35.1293 55.3246 35.2719 55.5674C35.4144 55.8101 35.3392 56.2227 35.0964 56.3652C34.8537 56.5077 34.3865 56.4594 34.244 56.2166C34.1015 55.9738 34.1399 55.5704 34.3827 55.4279Z" fill="black"/>
<path d="M37.4537 56.0012C37.6965 55.8587 38.3292 56.019 38.4717 56.2618C38.6142 56.5046 38.4097 56.8634 38.167 57.0059C37.9242 57.1484 37.2087 57.1338 37.0662 56.891C36.9237 56.6482 37.2109 56.1437 37.4537 56.0012Z" fill="black"/>
<path d="M20.7148 28.0586L30.9109 22.1442M20.7148 28.0586L30.9109 22.1442" stroke="black" stroke-width="1.01944"/>
<path d="M28.7695 30.1953L22.8551 19.9993M28.7695 30.1953L22.8551 19.9993" stroke="black" stroke-width="1.01944"/>
<path d="M27.1815 63.5852V63.0117H34.445V63.5852C31.0681 64.7957 30.1124 64.7957 27.1815 63.5852Z" fill="black"/>
<path d="M34.445 64.1586C31.7435 65.5858 28.9655 64.9869 27.1815 64.1586C24.9514 64.1591 21.4478 67.4719 23.6139 69.3195C24.2511 69.8629 26.2263 65.4329 27.182 69.3195C28.5197 69.8717 31.845 70.6448 34.445 69.3195C35.4007 65.4329 37.3759 69.8629 38.013 69.3195C40.1793 67.4718 36.675 64.1586 34.445 64.1586Z" fill="black"/>
<path d="M27.1815 64.1586C28.9655 64.9869 31.7435 65.5858 34.445 64.1586C36.675 64.1586 40.1793 67.4718 38.013 69.3195C37.3759 69.8629 35.4007 65.4329 34.445 69.3195C31.845 70.6448 28.5197 69.8717 27.182 69.3195C26.2263 65.4329 24.2511 69.8629 23.6139 69.3195C21.4476 67.4718 24.952 64.1586 27.182 64.1586M27.1815 63.0117V63.5852C30.1124 64.7957 31.0681 64.7957 34.445 63.5852V63.0117H27.1815Z" stroke="black" stroke-width="0.12743"/>
<path d="M27.1815 63.5852V63.0117H34.445V63.5852C31.0681 64.7957 30.1124 64.7957 27.1815 63.5852Z" fill="black"/>
<path d="M34.445 64.1586C31.7435 65.5858 28.9655 64.9869 27.1815 64.1586C24.9514 64.1591 21.4478 67.4719 23.6139 69.3195C24.2511 69.8629 26.2263 65.4329 27.182 69.3195C28.5197 69.8717 31.845 70.6448 34.445 69.3195C35.4007 65.4329 37.3759 69.8629 38.013 69.3195C40.1793 67.4718 36.675 64.1586 34.445 64.1586Z" fill="black"/>
<path d="M27.1815 64.1586C28.9655 64.9869 31.7435 65.5858 34.445 64.1586C36.675 64.1586 40.1793 67.4718 38.013 69.3195C37.3759 69.8629 35.4007 65.4329 34.445 69.3195C31.845 70.6448 28.5197 69.8717 27.182 69.3195C26.2263 65.4329 24.2511 69.8629 23.6139 69.3195C21.4476 67.4718 24.952 64.1586 27.182 64.1586M27.1815 63.0117V63.5852C30.1124 64.7957 31.0681 64.7957 34.445 63.5852V63.0117H27.1815Z" stroke="black" stroke-width="0.12743"/>
<path d="M34.445 69.8281C31.7435 71.2553 28.9655 70.6564 27.1815 69.8281C24.9514 69.8286 21.4478 73.1414 23.6139 74.989C24.2511 75.5325 26.2263 71.1024 27.182 74.989C28.5197 75.5412 31.845 76.3143 34.445 74.989C35.4007 71.1024 37.3759 75.5325 38.013 74.989C40.1793 73.1413 36.675 69.8281 34.445 69.8281Z" fill="black"/>
<path d="M27.1815 69.8281C28.9655 70.6564 31.7435 71.2553 34.445 69.8281C36.675 69.8281 40.1793 73.1413 38.013 74.989C37.3759 75.5325 35.4007 71.1024 34.445 74.989C31.845 76.3143 28.5197 75.5412 27.182 74.989C26.2263 71.1024 24.2511 75.5325 23.6139 74.989C21.4476 73.1413 24.952 69.8281 27.182 69.8281" stroke="black" stroke-width="0.12743"/>
<path d="M47.7673 17.4655L47.551 17.4217L47.7107 17.5741L48.2863 18.1236L48.3476 18.182L48.3868 18.1069L48.5911 17.7156L48.6303 17.6405L48.5472 17.6237L47.7673 17.4655Z" fill="white" stroke="black" stroke-width="0.12743" stroke-miterlimit="16"/>
<path d="M48.2771 16.946L48.0608 16.9021L48.2204 17.0545L48.7961 17.604L48.8573 17.6625L48.8965 17.5874L49.1008 17.1961L49.14 17.121L49.057 17.1042L48.2771 16.946Z" fill="white" stroke="black" stroke-width="0.12743" stroke-miterlimit="16"/>
<path d="M48.404 16.0632L48.1877 16.0193L48.3474 16.1717L48.923 16.7212L48.9843 16.7797L49.0235 16.7046L49.2278 16.3133L49.267 16.2382L49.184 16.2214L48.404 16.0632Z" fill="white" stroke="black" stroke-width="0.12743" stroke-miterlimit="16"/>
<path d="M47.6701 14.9758L47.1408 14.8024L47.6172 15.0909L49.2666 16.0895L49.3246 16.1247L49.356 16.0645L49.5603 15.6732L49.5951 15.6066L49.5237 15.5832L47.6701 14.9758Z" fill="white" stroke="black" stroke-width="0.12743" stroke-miterlimit="16"/>
<path d="M46.6505 17.9016L46.1213 17.7282L46.5977 18.0167L48.247 19.0153L48.3051 19.0505L48.3365 18.9903L48.5408 18.599L48.5756 18.5323L48.5042 18.5089L46.6505 17.9016Z" fill="white" stroke="black" stroke-width="0.12743" stroke-miterlimit="16"/>
<path d="M48.6056 14.8664L48.0764 14.693L48.5528 14.9815L50.2021 15.9802L50.2602 16.0153L50.2916 15.9551L50.4959 15.5638L50.5307 15.4972L50.4592 15.4738L48.6056 14.8664Z" fill="white" stroke="black" stroke-width="0.12743" stroke-miterlimit="16"/>
<path d="M49.2423 14.6164L48.7131 14.443L49.1895 14.7315L50.8388 15.7302L50.8969 15.7653L50.9283 15.7051L51.1326 15.3138L51.1674 15.2472L51.0959 15.2238L49.2423 14.6164Z" fill="white" stroke="black" stroke-width="0.12743" stroke-miterlimit="16"/>
<path d="M49.6232 12.9602L49.0939 12.7868L49.5703 13.0752L51.2197 14.0739L51.2778 14.1091L51.3092 14.0489L51.5135 13.6576L51.5482 13.5909L51.4768 13.5675L49.6232 12.9602Z" fill="white" stroke="black" stroke-width="0.12743" stroke-miterlimit="16"/>
<path d="M49.8771 11.3L49.3478 11.1266L49.8242 11.4151L51.4736 12.4137L51.5317 12.4489L51.5631 12.3887L51.7674 11.9974L51.8021 11.9308L51.7307 11.9074L49.8771 11.3Z" fill="white" stroke="black" stroke-width="0.12743" stroke-miterlimit="16"/>
<path d="M49.8771 12.0696L49.3478 11.8962L49.8242 12.1846L51.4736 13.1833L51.5317 13.2184L51.5631 13.1583L51.7674 12.7669L51.8021 12.7003L51.7307 12.6769L49.8771 12.0696Z" fill="white" stroke="black" stroke-width="0.12743" stroke-miterlimit="16"/>
<path d="M50.1329 9.90161L49.6037 9.7282L50.0801 10.0167L51.7295 11.0153L51.7875 11.0505L51.8189 10.9903L52.0232 10.599L52.058 10.5323L51.9866 10.5089L50.1329 9.90161Z" fill="white" stroke="black" stroke-width="0.12743" stroke-miterlimit="16"/>
<path d="M45.7762 18.057L46.1922 17.9419L45.8271 18.1723L44.5636 18.9695L44.5051 19.0064L44.4731 18.9451L44.2688 18.5538L44.2323 18.4839L44.3083 18.4629L45.7762 18.057Z" fill="white" stroke="black" stroke-width="0.12743" stroke-miterlimit="16"/>
<path d="M45.0105 16.3461L45.4266 16.231L45.0615 16.4614L43.798 17.2586L43.7395 17.2955L43.7075 17.2342L43.5032 16.8429L43.4667 16.773L43.5427 16.752L45.0105 16.3461Z" fill="white" stroke="black" stroke-width="0.12743" stroke-miterlimit="16"/>
<path d="M45.3914 17.1117L45.8075 16.9966L45.4424 17.227L44.1788 18.0242L44.1203 18.0611L44.0883 17.9998L43.8841 17.6085L43.8476 17.5386L43.9236 17.5176L45.3914 17.1117Z" fill="white" stroke="black" stroke-width="0.12743" stroke-miterlimit="16"/>
<path d="M43.8621 15.3226L44.2782 15.2075L43.9131 15.4379L42.6495 16.2352L42.591 16.2721L42.559 16.2108L42.3548 15.8194L42.3183 15.7496L42.3943 15.7286L43.8621 15.3226Z" fill="white" stroke="black" stroke-width="0.12743" stroke-miterlimit="16"/>
<path d="M43.4793 13.5414L43.8954 13.4263L43.5303 13.6567L42.2667 14.4539L42.2082 14.4908L42.1762 14.4295L41.972 14.0382L41.9355 13.9683L42.0114 13.9473L43.4793 13.5414Z" fill="white" stroke="black" stroke-width="0.12743" stroke-miterlimit="16"/>
<path d="M41.95 12.0062L42.3661 11.8911L42.001 12.1215L40.7374 12.9188L40.6789 12.9557L40.6469 12.8944L40.4427 12.503L40.4062 12.4332L40.4822 12.4121L41.95 12.0062Z" fill="white" stroke="black" stroke-width="0.12743" stroke-miterlimit="16"/>
<path d="M41.1863 10.6117L41.6024 10.4966L41.2373 10.727L39.9737 11.5242L39.9153 11.5611L39.8833 11.4998L39.679 11.1085L39.6425 11.0386L39.7185 11.0176L41.1863 10.6117Z" fill="white" stroke="black" stroke-width="0.12743" stroke-miterlimit="16"/>
<path d="M39.9109 9.33434L40.327 9.21927L39.9619 9.44963L38.6984 10.2469L38.6399 10.2838L38.6079 10.2225L38.4036 9.83117L38.3671 9.76129L38.4431 9.74027L39.9109 9.33434Z" fill="white" stroke="black" stroke-width="0.12743" stroke-miterlimit="16"/>
<path d="M39.9109 8.44371L40.327 8.32864L39.9619 8.55901L38.6984 9.35626L38.6399 9.39316L38.6079 9.33186L38.4036 8.94054L38.3671 8.87066L38.4431 8.84965L39.9109 8.44371Z" fill="white" stroke="black" stroke-width="0.12743" stroke-miterlimit="16"/>
<path d="M40.4226 10.1L40.8387 9.98489L40.4736 10.2153L39.2101 11.0125L39.1516 11.0494L39.1196 10.9881L38.9153 10.5968L38.8788 10.5269L38.9548 10.5059L40.4226 10.1Z" fill="white" stroke="black" stroke-width="0.12743" stroke-miterlimit="16"/>
<path d="M41.95 11.3695L42.3661 11.2544L42.001 11.4848L40.7374 12.282L40.6789 12.3189L40.6469 12.2576L40.4427 11.8663L40.4062 11.7964L40.4822 11.7754L41.95 11.3695Z" fill="white" stroke="black" stroke-width="0.12743" stroke-miterlimit="16"/>
<path d="M38.1297 6.40465L38.5458 6.28958L38.1807 6.51994L36.9171 7.3172L36.8586 7.3541L36.8266 7.2928L36.6223 6.90148L36.5859 6.8316L36.6618 6.81059L38.1297 6.40465Z" fill="white" stroke="black" stroke-width="0.12743" stroke-miterlimit="16"/>
<path d="M36.5984 4.24449L37.0145 4.12942L36.6494 4.35979L35.3859 5.15704L35.3274 5.19394L35.2954 5.13264L35.0911 4.74132L35.0546 4.67144L35.1306 4.65043L36.5984 4.24449Z" fill="white" stroke="black" stroke-width="0.12743" stroke-miterlimit="16"/>
<path d="M52.733 20.58L48.1455 33.3867C47.6358 25.9958 41.774 13.7625 44.8323 18.7323C47.279 22.7081 50.0994 14.5271 51.2038 9.93964C51.4162 9.11134 52.0194 7.65864 52.733 8.47419C53.4466 9.28974 53.6675 11.9998 53.6887 13.2528L52.733 20.58Z" fill="black" stroke="black" stroke-width="0.12743"/>
<path d="M49.6751 23.895L47.7637 27.7816C48.5792 29.0559 48.2734 31.0311 48.0185 31.8594L51.2043 23.7039C53.1157 18.1607 53.3069 13.0635 52.7971 11.4706C52.3894 10.1963 52.2025 10.5574 52.16 10.8972C51.9689 12.0228 51.6248 14.5926 51.7777 15.8669C51.9306 17.1412 51.1193 20.9004 50.6946 22.6207L49.6751 23.895Z" fill="white"/>
<path d="M50.2499 21.856C49.5363 22.2638 48.4659 24.1922 48.0199 25.1055L46.3633 22.4932C49.5235 23.8184 50.3986 19.4773 50.441 17.1411C50.6747 18.5428 50.9635 21.4482 50.2499 21.856Z" fill="white" stroke="black" stroke-width="0.12743"/>
<path d="M42.6027 15.2915L43.7496 17.4578L43.6222 18.0313L33.9375 4.01397L34.5746 3.56797L36.4224 5.79799L38.2064 8.34659L41.0099 12.042L42.6027 15.2915Z" fill="black"/>
<path d="M83.8219 30.6904C87.13 33.5583 88.5532 33.8038 92.5936 33.1143C86.8551 40.2052 85.4465 37.348 83.8219 30.6904Z" fill="black"/>
<path d="M83.3978 15.3711C85.8083 8.65761 90.6815 0.490718 91.3837 0.25171C96.8738 -1.6169 107.617 14.1695 111.692 25.8525C112.784 28.9807 112.481 32.9293 113.339 38.9235L115.315 50.0212C115.5 51.1691 114.692 59.2517 114.692 59.2517L107.722 51.9537C110.118 51.4921 112.002 50.0025 112.523 47.9666C111.611 47.2156 111.82 46.8682 112.788 46.3115L112.669 44.7179C111.665 44.1984 111.741 43.8555 112.614 43.1884C112.043 37.0593 111.579 34.3666 110.393 30.3053C110.819 33.8121 111.064 35.5338 110.674 36.9333C109.489 30.439 108.619 28.2038 106.905 27.3547L103.663 26.1258L101.507 24.1385L98.956 24.6339C99.4017 27.3456 99.5716 28.4579 99.2462 29.6691C98.8766 31.0447 98.4082 31.3847 97.5112 32.2716C96.4861 33.2853 94.954 33.8016 94.2471 34.8656C91.5481 38.9282 89.1124 41.516 87.3297 41.262C84.7823 40.8989 83.6798 38.8003 82.161 32.0578L82.97 28.5579C83.3175 32.9774 83.7343 34.8063 84.7394 37.3606C86.1865 40.6183 88.5419 40.5679 90.9196 37.3955C92.2036 35.6824 92.7214 34.2441 94.4479 33.1464C98.2519 30.728 98.9689 28.9773 97.5514 25.1357C94.5769 19.0963 92.6251 17.3983 88.2879 18.2022C85.8636 18.762 85.7956 19.5262 86.8326 16.4099L85.3675 18.1857L86.2058 14.5586C87.0757 13.5659 87.6777 13.4201 88.8883 13.4269C92.7111 13.4484 94.2702 19.4465 97.1327 20.2909C97.9098 20.5775 98.223 20.8218 98.4642 21.4453C99.0479 23.4734 99.332 23.9214 99.7889 23.8102C100.242 23.6746 100.501 23.5422 100.875 23.2429C100.136 22.2087 99.9325 21.843 100.184 21.5824C100.312 21.4557 100.63 21.5212 101.325 22.5446C101.742 22.0589 101.968 21.7054 102.354 20.8938C102.452 19.9822 102.446 19.4396 102.368 18.4089C102 17.1908 101.787 16.6504 101.363 15.9183L101.042 16.2351L100.657 16.679C99.8878 17.5666 99.5786 15.9083 100.152 15.9115L100.853 15.9155L101.173 15.6624L100.162 14.0638L99.9075 14.0624L99.459 14.5059L99.3298 14.8237C99.1358 15.3323 98.3154 13.926 98.6977 13.9281L99.08 13.9303L99.5915 13.6146C99.5089 12.8928 99.8772 12.6605 100.106 12.7892C101.821 13.7546 102.948 17.2016 103.709 17.9067C104.148 18.4638 104.149 18.9924 103.701 19.3084C103.522 19.4349 103.605 20.6459 103.693 20.7739C104.047 21.2933 104.358 21.5229 105.025 21.8645L105.016 23.3937C105.052 23.7027 105.204 23.9682 105.331 23.9689L105.841 23.9718C106.164 23.1453 107.115 23.9789 107.113 24.3612C107.096 25.3404 107.213 25.5556 107.682 25.2564L109.215 24.5005L107.89 22.1355L107.57 22.516C107.505 22.5794 106.998 22.2579 107.063 21.9397L107.259 21.1125C106.124 18.9398 105.616 18.6184 105.432 17.343C104.684 16.3406 104.376 15.9445 104.233 15.2973L103.535 14.7837C102.931 14.8081 102.792 14.6879 103.029 14.1437C103.094 14.0166 103.54 14.0191 103.664 14.5295L104.362 15.1069L104.491 14.8528L103.165 12.6153C102.817 12.661 102.654 12.8035 102.463 12.8025C102.208 12.801 101.955 12.481 102.02 12.3539C102.149 12.0998 102.319 11.9398 102.661 11.7204L101.458 10.2482L100.818 10.7543L100.755 10.6265L101.332 10.12C99.4387 7.06771 97.4074 5.44665 95.6303 4.22604C94.4657 3.03679 93.6884 2.87325 92.0011 3.75958C89.4317 7.44063 88.9864 7.31069 86.2058 14.5586L85.3675 18.1857C83.2348 21.6781 82.5785 24.0712 82.97 28.5579L82.161 32.0578C81.4171 31.5496 80.4629 31.7296 79.986 32.8738C78.9525 35.3529 81.5228 42.8221 88.148 43.0506C88.7851 43.0541 98.3533 41.1328 100.652 40.2538C101.354 39.9852 101.755 39.776 102.505 39.3722L102.766 38.2268L104.234 37.8527L104.241 36.5147C106.545 34.7437 106.711 27.8633 103.663 26.1258L106.905 27.3547C108.818 36.2131 105.478 43.1482 99.1647 44.1321C92.2792 44.8883 86.4062 46.8637 80.7672 41.225C82.2212 44.838 83.5176 46.6046 88.6923 48.2147C93.4151 48.7634 95.9482 48.8953 100.729 49.1745L101.049 49.0488L101.626 48.4149L101.816 48.4797L101.303 49.0503C102.437 49.2586 103.39 49.0649 106.41 47.4224C106.165 45.637 106.294 45.4466 107.437 46.0265C108.11 45.2774 108.463 44.4449 109.051 42.2763C109.155 41.8946 110.089 42.3478 109.744 43.682C109.055 45.7472 108.6 46.627 107.557 47.3015L107.722 51.9537L114.692 59.2517C100.601 65.5908 82.4524 63.2655 74.1695 59.2515C74.1748 58.2958 72.2048 46.9483 83.3978 15.3711Z" fill="black"/>
<path d="M100.157 26.6818C100.555 26.5845 100.779 26.53 101.178 26.4327C101.167 26.5447 101.146 26.6024 101.113 26.6235C100.784 26.8355 100.562 26.7989 100.157 26.6818Z" fill="black"/>
<path d="M100.649 18.0191C100.803 17.8662 100.905 17.7657 101.287 17.8315C101.338 17.8701 100.935 18.4153 100.964 18.5306C100.994 18.6481 101.541 18.0241 101.603 18.2156C101.666 18.4071 101.567 18.7476 101.472 18.8521C100.895 19.486 100.072 18.5893 100.649 18.0191Z" fill="black"/>
<path d="M103.459 28.4202C103.587 28.389 103.714 28.5357 103.713 28.6764C103.712 28.8172 103.407 28.8659 103.266 28.8651C103.125 28.8643 102.949 28.4943 102.95 28.3536C102.951 28.2128 103.204 28.4824 103.459 28.4202Z" fill="black"/>
<circle cx="105.227" cy="31.2314" r="0.509719" transform="rotate(-89.6773 105.227 31.2314)" fill="black"/>
<path d="M101.59 20.0629C101.834 20.2029 101.921 20.5182 101.781 20.7624C101.641 21.0067 101.327 21.0873 101.083 20.9473C100.839 20.8073 100.625 20.4275 100.765 20.1833C100.905 19.939 101.346 19.9229 101.59 20.0629Z" fill="black"/>
<path d="M81.2464 32.9871C81.515 32.9028 81.937 33.0655 82.0213 33.3341C82.1056 33.6027 81.8203 33.8755 81.5517 33.9598C81.2831 34.0441 80.859 33.9434 80.7747 33.6748C80.6903 33.4062 80.9778 33.0714 81.2464 32.9871Z" fill="black"/>
<path d="M81.6265 35.8755C81.9069 35.8505 82.3011 35.9788 82.326 36.2592C82.351 36.5396 82.0139 36.7451 81.7335 36.77C81.4531 36.795 81.0603 36.6059 81.0354 36.3255C81.0104 36.0451 81.3461 35.9004 81.6265 35.8755Z" fill="black"/>
<path d="M87.7476 46.1049C88.028 46.0799 88.348 46.0804 88.3729 46.3608C88.3978 46.6412 88.0608 46.8466 87.7804 46.8716C87.5 46.8965 87.1072 46.7074 87.0823 46.427C87.0573 46.1466 87.4672 46.1298 87.7476 46.1049Z" fill="black"/>
<path d="M82.5469 38.3003C82.7955 38.1683 83.3264 38.1284 83.4584 38.377C83.5905 38.6256 83.2421 38.9508 82.9935 39.0828C82.7449 39.2149 82.1854 39.1911 82.0534 38.9425C81.9213 38.6939 82.2983 38.4324 82.5469 38.3003Z" fill="black"/>
<path d="M104.84 20.5898L104.842 20.2076L105.097 20.209L105.606 20.2756L105.095 20.5913L104.84 20.5898Z" fill="black"/>
<path d="M99.7255 12.2137L99.5974 12.3404L99.0906 11.8278L99.2187 11.7011L99.7255 12.2137Z" fill="black"/>
<path d="M90.6874 56.0018C82.8459 56.786 79.4478 52.2107 80.2461 43.2636L82.3932 46.6526C82.1738 48.3044 82.6395 48.1831 83.408 47.4866L86.9638 49.673C90.5907 51.7609 93.9095 52.2382 102.691 51.5456L106.585 50.1658C106.557 55.2629 103.029 59.3349 100.741 58.3522C97.0005 56.7458 92.7912 55.7915 90.6874 56.0018Z" fill="white"/>
<path d="M84.2144 49.5278C84.4948 49.5029 84.889 49.6312 84.9139 49.9116C84.9389 50.192 84.6018 50.3974 84.3214 50.4224C84.041 50.4473 83.6482 50.2582 83.6233 49.9778C83.5983 49.6974 83.934 49.5527 84.2144 49.5278Z" fill="black"/>
<path d="M86.7024 50.9445C86.9828 50.9196 87.4281 51.303 87.453 51.5834C87.4779 51.8638 87.1409 52.0693 86.8605 52.0942C86.5801 52.1192 86.1873 51.9301 86.1623 51.6497C86.1374 51.3693 86.422 50.9695 86.7024 50.9445Z" fill="black"/>
<path d="M90.035 53.9456C89.7817 54.0683 89.2295 53.8675 89.1068 53.6141C88.9841 53.3607 89.2265 53.0492 89.4799 52.9265C89.7332 52.8038 90.1675 52.8415 90.2902 53.0948C90.4129 53.3482 90.2884 53.8229 90.035 53.9456Z" fill="black"/>
<path d="M92.8465 54.5645C92.5931 54.6872 92.0939 54.6079 91.9712 54.3545C91.8486 54.1011 91.7855 53.7767 92.0389 53.654C92.2923 53.5313 93.1246 53.7897 93.2473 54.0431C93.37 54.2965 93.0998 54.4419 92.8465 54.5645Z" fill="black"/>
<path d="M96.0357 55.4719C95.7823 55.5945 95.2832 55.5152 95.1605 55.2618C95.0378 55.0085 94.9748 54.684 95.2281 54.5613C95.4815 54.4387 96.1142 54.4434 96.2369 54.6968C96.3595 54.9501 96.2891 55.3492 96.0357 55.4719Z" fill="black"/>
<path d="M98.3827 55.4279C98.6254 55.2854 99.1293 55.3246 99.2719 55.5674C99.4144 55.8101 99.3392 56.2227 99.0964 56.3652C98.8537 56.5077 98.3865 56.4594 98.244 56.2166C98.1015 55.9738 98.1399 55.5704 98.3827 55.4279Z" fill="black"/>
<path d="M101.454 56.0012C101.696 55.8587 102.329 56.019 102.472 56.2618C102.614 56.5046 102.41 56.8634 102.167 57.0059C101.924 57.1484 101.209 57.1338 101.066 56.891C100.924 56.6482 101.211 56.1437 101.454 56.0012Z" fill="black"/>
<path d="M84.7148 28.0586L94.9109 22.1442M84.7148 28.0586L94.9109 22.1442" stroke="black" stroke-width="1.01944"/>
<path d="M92.7695 30.1953L86.8551 19.9993M92.7695 30.1953L86.8551 19.9993" stroke="black" stroke-width="1.01944"/>
<path d="M91.1815 63.5852V63.0117H98.445V63.5852C95.0681 64.7957 94.1124 64.7957 91.1815 63.5852Z" fill="black"/>
<path d="M98.445 64.1586C95.7435 65.5858 92.9655 64.9869 91.1815 64.1586C88.9514 64.1591 85.4478 67.4719 87.6139 69.3195C88.2511 69.8629 90.2263 65.4329 91.182 69.3195C92.5197 69.8717 95.845 70.6448 98.445 69.3195C99.4007 65.4329 101.376 69.8629 102.013 69.3195C104.179 67.4718 100.675 64.1586 98.445 64.1586Z" fill="black"/>
<path d="M91.1815 64.1586C92.9655 64.9869 95.7435 65.5858 98.445 64.1586C100.675 64.1586 104.179 67.4718 102.013 69.3195C101.376 69.8629 99.4007 65.4329 98.445 69.3195C95.845 70.6448 92.5197 69.8717 91.182 69.3195C90.2263 65.4329 88.2511 69.8629 87.6139 69.3195C85.4476 67.4718 88.952 64.1586 91.182 64.1586M91.1815 63.0117V63.5852C94.1124 64.7957 95.0681 64.7957 98.445 63.5852V63.0117H91.1815Z" stroke="black" stroke-width="0.12743"/>
<path d="M91.1815 63.5852V63.0117H98.445V63.5852C95.0681 64.7957 94.1124 64.7957 91.1815 63.5852Z" fill="black"/>
<path d="M98.445 64.1586C95.7435 65.5858 92.9655 64.9869 91.1815 64.1586C88.9514 64.1591 85.4478 67.4719 87.6139 69.3195C88.2511 69.8629 90.2263 65.4329 91.182 69.3195C92.5197 69.8717 95.845 70.6448 98.445 69.3195C99.4007 65.4329 101.376 69.8629 102.013 69.3195C104.179 67.4718 100.675 64.1586 98.445 64.1586Z" fill="black"/>
<path d="M91.1815 64.1586C92.9655 64.9869 95.7435 65.5858 98.445 64.1586C100.675 64.1586 104.179 67.4718 102.013 69.3195C101.376 69.8629 99.4007 65.4329 98.445 69.3195C95.845 70.6448 92.5197 69.8717 91.182 69.3195C90.2263 65.4329 88.2511 69.8629 87.6139 69.3195C85.4476 67.4718 88.952 64.1586 91.182 64.1586M91.1815 63.0117V63.5852C94.1124 64.7957 95.0681 64.7957 98.445 63.5852V63.0117H91.1815Z" stroke="black" stroke-width="0.12743"/>
<path d="M98.445 69.8281C95.7435 71.2553 92.9655 70.6564 91.1815 69.8281C88.9514 69.8286 85.4478 73.1414 87.6139 74.989C88.2511 75.5325 90.2263 71.1024 91.182 74.989C92.5197 75.5412 95.845 76.3143 98.445 74.989C99.4007 71.1024 101.376 75.5325 102.013 74.989C104.179 73.1413 100.675 69.8281 98.445 69.8281Z" fill="black"/>
<path d="M91.1815 69.8281C92.9655 70.6564 95.7435 71.2553 98.445 69.8281C100.675 69.8281 104.179 73.1413 102.013 74.989C101.376 75.5325 99.4007 71.1024 98.445 74.989C95.845 76.3143 92.5197 75.5412 91.182 74.989C90.2263 71.1024 88.2511 75.5325 87.6139 74.989C85.4476 73.1413 88.952 69.8281 91.182 69.8281" stroke="black" stroke-width="0.12743"/>
<path d="M111.767 17.4655L111.551 17.4217L111.711 17.5741L112.286 18.1236L112.348 18.182L112.387 18.1069L112.591 17.7156L112.63 17.6405L112.547 17.6237L111.767 17.4655Z" fill="white" stroke="black" stroke-width="0.12743" stroke-miterlimit="16"/>
<path d="M112.277 16.946L112.061 16.9021L112.22 17.0545L112.796 17.604L112.857 17.6625L112.897 17.5874L113.101 17.1961L113.14 17.121L113.057 17.1042L112.277 16.946Z" fill="white" stroke="black" stroke-width="0.12743" stroke-miterlimit="16"/>
<path d="M112.404 16.0632L112.188 16.0193L112.347 16.1717L112.923 16.7212L112.984 16.7797L113.024 16.7046L113.228 16.3133L113.267 16.2382L113.184 16.2214L112.404 16.0632Z" fill="white" stroke="black" stroke-width="0.12743" stroke-miterlimit="16"/>
<path d="M111.67 14.9758L111.141 14.8024L111.617 15.0909L113.267 16.0895L113.325 16.1247L113.356 16.0645L113.56 15.6732L113.595 15.6066L113.524 15.5832L111.67 14.9758Z" fill="white" stroke="black" stroke-width="0.12743" stroke-miterlimit="16"/>
<path d="M110.651 17.9016L110.121 17.7282L110.598 18.0167L112.247 19.0153L112.305 19.0505L112.337 18.9903L112.541 18.599L112.576 18.5323L112.504 18.5089L110.651 17.9016Z" fill="white" stroke="black" stroke-width="0.12743" stroke-miterlimit="16"/>
<path d="M112.606 14.8664L112.076 14.693L112.553 14.9815L114.202 15.9802L114.26 16.0153L114.292 15.9551L114.496 15.5638L114.531 15.4972L114.459 15.4738L112.606 14.8664Z" fill="white" stroke="black" stroke-width="0.12743" stroke-miterlimit="16"/>
<path d="M113.242 14.6164L112.713 14.443L113.189 14.7315L114.839 15.7302L114.897 15.7653L114.928 15.7051L115.133 15.3138L115.167 15.2472L115.096 15.2238L113.242 14.6164Z" fill="white" stroke="black" stroke-width="0.12743" stroke-miterlimit="16"/>
<path d="M113.623 12.9602L113.094 12.7868L113.57 13.0752L115.22 14.0739L115.278 14.1091L115.309 14.0489L115.513 13.6576L115.548 13.5909L115.477 13.5675L113.623 12.9602Z" fill="white" stroke="black" stroke-width="0.12743" stroke-miterlimit="16"/>
<path d="M113.877 11.3L113.348 11.1266L113.824 11.4151L115.474 12.4137L115.532 12.4489L115.563 12.3887L115.767 11.9974L115.802 11.9308L115.731 11.9074L113.877 11.3Z" fill="white" stroke="black" stroke-width="0.12743" stroke-miterlimit="16"/>
<path d="M113.877 12.0696L113.348 11.8962L113.824 12.1846L115.474 13.1833L115.532 13.2184L115.563 13.1583L115.767 12.7669L115.802 12.7003L115.731 12.6769L113.877 12.0696Z" fill="white" stroke="black" stroke-width="0.12743" stroke-miterlimit="16"/>
<path d="M114.133 9.90161L113.604 9.7282L114.08 10.0167L115.729 11.0153L115.788 11.0505L115.819 10.9903L116.023 10.599L116.058 10.5323L115.987 10.5089L114.133 9.90161Z" fill="white" stroke="black" stroke-width="0.12743" stroke-miterlimit="16"/>
<path d="M109.776 18.057L110.192 17.9419L109.827 18.1723L108.564 18.9695L108.505 19.0064L108.473 18.9451L108.269 18.5538L108.232 18.4839L108.308 18.4629L109.776 18.057Z" fill="white" stroke="black" stroke-width="0.12743" stroke-miterlimit="16"/>
<path d="M109.011 16.3461L109.427 16.231L109.062 16.4614L107.798 17.2586L107.739 17.2955L107.707 17.2342L107.503 16.8429L107.467 16.773L107.543 16.752L109.011 16.3461Z" fill="white" stroke="black" stroke-width="0.12743" stroke-miterlimit="16"/>
<path d="M109.391 17.1117L109.807 16.9966L109.442 17.227L108.179 18.0242L108.12 18.0611L108.088 17.9998L107.884 17.6085L107.848 17.5386L107.924 17.5176L109.391 17.1117Z" fill="white" stroke="black" stroke-width="0.12743" stroke-miterlimit="16"/>
<path d="M107.862 15.3226L108.278 15.2075L107.913 15.4379L106.65 16.2352L106.591 16.2721L106.559 16.2108L106.355 15.8194L106.318 15.7496L106.394 15.7286L107.862 15.3226Z" fill="white" stroke="black" stroke-width="0.12743" stroke-miterlimit="16"/>
<path d="M107.479 13.5414L107.895 13.4263L107.53 13.6567L106.267 14.4539L106.208 14.4908L106.176 14.4295L105.972 14.0382L105.935 13.9683L106.011 13.9473L107.479 13.5414Z" fill="white" stroke="black" stroke-width="0.12743" stroke-miterlimit="16"/>
<path d="M105.95 12.0062L106.366 11.8911L106.001 12.1215L104.737 12.9188L104.679 12.9557L104.647 12.8944L104.443 12.503L104.406 12.4332L104.482 12.4121L105.95 12.0062Z" fill="white" stroke="black" stroke-width="0.12743" stroke-miterlimit="16"/>
<path d="M105.186 10.6117L105.602 10.4966L105.237 10.727L103.974 11.5242L103.915 11.5611L103.883 11.4998L103.679 11.1085L103.643 11.0386L103.718 11.0176L105.186 10.6117Z" fill="white" stroke="black" stroke-width="0.12743" stroke-miterlimit="16"/>
<path d="M103.911 9.33434L104.327 9.21927L103.962 9.44963L102.698 10.2469L102.64 10.2838L102.608 10.2225L102.404 9.83117L102.367 9.76129L102.443 9.74027L103.911 9.33434Z" fill="white" stroke="black" stroke-width="0.12743" stroke-miterlimit="16"/>
<path d="M103.911 8.44371L104.327 8.32864L103.962 8.55901L102.698 9.35626L102.64 9.39316L102.608 9.33186L102.404 8.94054L102.367 8.87066L102.443 8.84965L103.911 8.44371Z" fill="white" stroke="black" stroke-width="0.12743" stroke-miterlimit="16"/>
<path d="M104.423 10.1L104.839 9.98489L104.474 10.2153L103.21 11.0125L103.152 11.0494L103.12 10.9881L102.915 10.5968L102.879 10.5269L102.955 10.5059L104.423 10.1Z" fill="white" stroke="black" stroke-width="0.12743" stroke-miterlimit="16"/>
<path d="M105.95 11.3695L106.366 11.2544L106.001 11.4848L104.737 12.282L104.679 12.3189L104.647 12.2576L104.443 11.8663L104.406 11.7964L104.482 11.7754L105.95 11.3695Z" fill="white" stroke="black" stroke-width="0.12743" stroke-miterlimit="16"/>
<path d="M102.13 6.40465L102.546 6.28958L102.181 6.51994L100.917 7.3172L100.859 7.3541L100.827 7.2928L100.622 6.90148L100.586 6.8316L100.662 6.81059L102.13 6.40465Z" fill="white" stroke="black" stroke-width="0.12743" stroke-miterlimit="16"/>
<path d="M100.598 4.24449L101.015 4.12942L100.649 4.35979L99.3859 5.15704L99.3274 5.19394L99.2954 5.13264L99.0911 4.74132L99.0546 4.67144L99.1306 4.65043L100.598 4.24449Z" fill="white" stroke="black" stroke-width="0.12743" stroke-miterlimit="16"/>
<path d="M116.733 20.58L112.146 33.3867C111.636 25.9958 105.774 13.7625 108.832 18.7323C111.279 22.7081 114.099 14.5271 115.204 9.93964C115.416 9.11134 116.019 7.65864 116.733 8.47419C117.447 9.28974 117.667 11.9998 117.689 13.2528L116.733 20.58Z" fill="black" stroke="black" stroke-width="0.12743"/>
<path d="M113.675 23.895L111.764 27.7816C112.579 29.0559 112.273 31.0311 112.019 31.8594L115.204 23.7039C117.116 18.1607 117.307 13.0635 116.797 11.4706C116.389 10.1963 116.202 10.5574 116.16 10.8972C115.969 12.0228 115.625 14.5926 115.778 15.8669C115.931 17.1412 115.119 20.9004 114.695 22.6207L113.675 23.895Z" fill="white"/>
<path d="M114.25 21.856C113.536 22.2638 112.466 24.1922 112.02 25.1055L110.363 22.4932C113.524 23.8184 114.399 19.4773 114.441 17.1411C114.675 18.5428 114.963 21.4482 114.25 21.856Z" fill="white" stroke="black" stroke-width="0.12743"/>
<path d="M106.603 15.2915L107.75 17.4578L107.622 18.0313L97.9375 4.01397L98.5746 3.56797L100.422 5.79799L102.206 8.34659L105.01 12.042L106.603 15.2915Z" fill="black"/>
<path d="M147.822 30.6904C151.13 33.5583 152.553 33.8038 156.594 33.1143C150.855 40.2052 149.447 37.348 147.822 30.6904Z" fill="black"/>
<path d="M147.398 15.3711C149.808 8.65761 154.681 0.490718 155.384 0.25171C160.874 -1.6169 171.617 14.1695 175.692 25.8525C176.784 28.9807 176.481 32.9293 177.339 38.9235L179.315 50.0212C179.5 51.1691 178.692 59.2517 178.692 59.2517L171.722 51.9537C174.118 51.4921 176.002 50.0025 176.523 47.9666C175.611 47.2156 175.82 46.8682 176.788 46.3115L176.669 44.7179C175.665 44.1984 175.741 43.8555 176.614 43.1884C176.043 37.0593 175.579 34.3666 174.393 30.3053C174.819 33.8121 175.064 35.5338 174.674 36.9333C173.489 30.439 172.619 28.2038 170.905 27.3547L167.663 26.1258L165.507 24.1385L162.956 24.6339C163.402 27.3456 163.572 28.4579 163.246 29.6691C162.877 31.0447 162.408 31.3847 161.511 32.2716C160.486 33.2853 158.954 33.8016 158.247 34.8656C155.548 38.9282 153.112 41.516 151.33 41.262C148.782 40.8989 147.68 38.8003 146.161 32.0578L146.97 28.5579C147.318 32.9774 147.734 34.8063 148.739 37.3606C150.186 40.6183 152.542 40.5679 154.92 37.3955C156.204 35.6824 156.721 34.2441 158.448 33.1464C162.252 30.728 162.969 28.9773 161.551 25.1357C158.577 19.0963 156.625 17.3983 152.288 18.2022C149.864 18.762 149.796 19.5262 150.833 16.4099L149.367 18.1857L150.206 14.5586C151.076 13.5659 151.678 13.4201 152.888 13.4269C156.711 13.4484 158.27 19.4465 161.133 20.2909C161.91 20.5775 162.223 20.8218 162.464 21.4453C163.048 23.4734 163.332 23.9214 163.789 23.8102C164.242 23.6746 164.501 23.5422 164.875 23.2429C164.136 22.2087 163.932 21.843 164.184 21.5824C164.312 21.4557 164.63 21.5212 165.325 22.5446C165.742 22.0589 165.968 21.7054 166.354 20.8938C166.452 19.9822 166.446 19.4396 166.368 18.4089C166 17.1908 165.787 16.6504 165.363 15.9183L165.042 16.2351L164.657 16.679C163.888 17.5666 163.579 15.9083 164.152 15.9115L164.853 15.9155L165.173 15.6624L164.162 14.0638L163.908 14.0624L163.459 14.5059L163.33 14.8237C163.136 15.3323 162.315 13.926 162.698 13.9281L163.08 13.9303L163.591 13.6146C163.509 12.8928 163.877 12.6605 164.106 12.7892C165.821 13.7546 166.948 17.2016 167.709 17.9067C168.148 18.4638 168.149 18.9924 167.701 19.3084C167.522 19.4349 167.605 20.6459 167.693 20.7739C168.047 21.2933 168.358 21.5229 169.025 21.8645L169.016 23.3937C169.052 23.7027 169.204 23.9682 169.331 23.9689L169.841 23.9718C170.164 23.1453 171.115 23.9789 171.113 24.3612C171.096 25.3404 171.213 25.5556 171.682 25.2564L173.215 24.5005L171.89 22.1355L171.57 22.516C171.505 22.5794 170.998 22.2579 171.063 21.9397L171.259 21.1125C170.124 18.9398 169.616 18.6184 169.432 17.343C168.684 16.3406 168.376 15.9445 168.233 15.2973L167.535 14.7837C166.931 14.8081 166.792 14.6879 167.029 14.1437C167.094 14.0166 167.54 14.0191 167.664 14.5295L168.362 15.1069L168.491 14.8528L167.165 12.6153C166.817 12.661 166.654 12.8035 166.463 12.8025C166.208 12.801 165.955 12.481 166.02 12.3539C166.149 12.0998 166.319 11.9398 166.661 11.7204L165.458 10.2482L164.818 10.7543L164.755 10.6265L165.332 10.12C163.439 7.06771 161.407 5.44665 159.63 4.22604C158.466 3.03679 157.688 2.87325 156.001 3.75958C153.432 7.44063 152.986 7.31069 150.206 14.5586L149.367 18.1857C147.235 21.6781 146.579 24.0712 146.97 28.5579L146.161 32.0578C145.417 31.5496 144.463 31.7296 143.986 32.8738C142.953 35.3529 145.523 42.8221 152.148 43.0506C152.785 43.0541 162.353 41.1328 164.652 40.2538C165.354 39.9852 165.755 39.776 166.505 39.3722L166.766 38.2268L168.234 37.8527L168.241 36.5147C170.545 34.7437 170.711 27.8633 167.663 26.1258L170.905 27.3547C172.818 36.2131 169.478 43.1482 163.165 44.1321C156.279 44.8883 150.406 46.8637 144.767 41.225C146.221 44.838 147.518 46.6046 152.692 48.2147C157.415 48.7634 159.948 48.8953 164.729 49.1745L165.049 49.0488L165.626 48.4149L165.816 48.4797L165.303 49.0503C166.437 49.2586 167.39 49.0649 170.41 47.4224C170.165 45.637 170.294 45.4466 171.437 46.0265C172.11 45.2774 172.463 44.4449 173.051 42.2763C173.155 41.8946 174.089 42.3478 173.744 43.682C173.055 45.7472 172.6 46.627 171.557 47.3015L171.722 51.9537L178.692 59.2517C164.601 65.5908 146.452 63.2655 138.169 59.2515C138.175 58.2958 136.205 46.9483 147.398 15.3711Z" fill="black"/>
<path d="M164.157 26.6818C164.555 26.5845 164.779 26.53 165.178 26.4327C165.167 26.5447 165.146 26.6024 165.113 26.6235C164.784 26.8355 164.562 26.7989 164.157 26.6818Z" fill="black"/>
<path d="M164.649 18.0191C164.803 17.8662 164.905 17.7657 165.287 17.8315C165.338 17.8701 164.935 18.4153 164.964 18.5306C164.994 18.6481 165.541 18.0241 165.603 18.2156C165.666 18.4071 165.567 18.7476 165.472 18.8521C164.895 19.486 164.072 18.5893 164.649 18.0191Z" fill="black"/>
<path d="M167.459 28.4202C167.587 28.389 167.714 28.5357 167.713 28.6764C167.712 28.8172 167.407 28.8659 167.266 28.8651C167.125 28.8643 166.949 28.4943 166.95 28.3536C166.951 28.2128 167.204 28.4824 167.459 28.4202Z" fill="black"/>
<circle cx="169.227" cy="31.2314" r="0.509719" transform="rotate(-89.6773 169.227 31.2314)" fill="black"/>
<path d="M165.59 20.0629C165.834 20.2029 165.921 20.5182 165.781 20.7624C165.641 21.0067 165.327 21.0873 165.083 20.9473C164.839 20.8073 164.625 20.4275 164.765 20.1833C164.905 19.939 165.346 19.9229 165.59 20.0629Z" fill="black"/>
<path d="M145.246 32.9871C145.515 32.9028 145.937 33.0655 146.021 33.3341C146.106 33.6027 145.82 33.8755 145.552 33.9598C145.283 34.0441 144.859 33.9434 144.775 33.6748C144.69 33.4062 144.978 33.0714 145.246 32.9871Z" fill="black"/>
<path d="M145.627 35.8755C145.907 35.8505 146.301 35.9788 146.326 36.2592C146.351 36.5396 146.014 36.7451 145.734 36.77C145.453 36.795 145.06 36.6059 145.035 36.3255C145.01 36.0451 145.346 35.9004 145.627 35.8755Z" fill="black"/>
<path d="M151.748 46.1049C152.028 46.0799 152.348 46.0804 152.373 46.3608C152.398 46.6412 152.061 46.8466 151.78 46.8716C151.5 46.8965 151.107 46.7074 151.082 46.427C151.057 46.1466 151.467 46.1298 151.748 46.1049Z" fill="black"/>
<path d="M146.547 38.3003C146.796 38.1683 147.326 38.1284 147.458 38.377C147.59 38.6256 147.242 38.9508 146.993 39.0828C146.745 39.2149 146.185 39.1911 146.053 38.9425C145.921 38.6939 146.298 38.4324 146.547 38.3003Z" fill="black"/>
<path d="M168.84 20.5898L168.842 20.2076L169.097 20.209L169.606 20.2756L169.095 20.5913L168.84 20.5898Z" fill="black"/>
<path d="M163.726 12.2137L163.597 12.3404L163.091 11.8278L163.219 11.7011L163.726 12.2137Z" fill="black"/>
<path d="M154.687 56.0018C146.846 56.786 143.448 52.2107 144.246 43.2636L146.393 46.6526C146.174 48.3044 146.639 48.1831 147.408 47.4866L150.964 49.673C154.591 51.7609 157.909 52.2382 166.691 51.5456L170.585 50.1658C170.557 55.2629 167.029 59.3349 164.741 58.3522C161.001 56.7458 156.791 55.7915 154.687 56.0018Z" fill="white"/>
<path d="M148.214 49.5278C148.495 49.5029 148.889 49.6312 148.914 49.9116C148.939 50.192 148.602 50.3974 148.321 50.4224C148.041 50.4473 147.648 50.2582 147.623 49.9778C147.598 49.6974 147.934 49.5527 148.214 49.5278Z" fill="black"/>
<path d="M150.702 50.9445C150.983 50.9196 151.428 51.303 151.453 51.5834C151.478 51.8638 151.141 52.0693 150.86 52.0942C150.58 52.1192 150.187 51.9301 150.162 51.6497C150.137 51.3693 150.422 50.9695 150.702 50.9445Z" fill="black"/>
<path d="M154.035 53.9456C153.782 54.0683 153.229 53.8675 153.107 53.6141C152.984 53.3607 153.226 53.0492 153.48 52.9265C153.733 52.8038 154.168 52.8415 154.29 53.0948C154.413 53.3482 154.288 53.8229 154.035 53.9456Z" fill="black"/>
<path d="M156.846 54.5645C156.593 54.6872 156.094 54.6079 155.971 54.3545C155.849 54.1011 155.786 53.7767 156.039 53.654C156.292 53.5313 157.125 53.7897 157.247 54.0431C157.37 54.2965 157.1 54.4419 156.846 54.5645Z" fill="black"/>
<path d="M160.036 55.4719C159.782 55.5945 159.283 55.5152 159.16 55.2618C159.038 55.0085 158.975 54.684 159.228 54.5613C159.482 54.4387 160.114 54.4434 160.237 54.6968C160.36 54.9501 160.289 55.3492 160.036 55.4719Z" fill="black"/>
<path d="M162.383 55.4279C162.625 55.2854 163.129 55.3246 163.272 55.5674C163.414 55.8101 163.339 56.2227 163.096 56.3652C162.854 56.5077 162.387 56.4594 162.244 56.2166C162.102 55.9738 162.14 55.5704 162.383 55.4279Z" fill="black"/>
<path d="M165.454 56.0012C165.696 55.8587 166.329 56.019 166.472 56.2618C166.614 56.5046 166.41 56.8634 166.167 57.0059C165.924 57.1484 165.209 57.1338 165.066 56.891C164.924 56.6482 165.211 56.1437 165.454 56.0012Z" fill="black"/>
<path d="M148.715 28.0586L158.911 22.1442M148.715 28.0586L158.911 22.1442" stroke="black" stroke-width="1.01944"/>
<path d="M156.77 30.1953L150.855 19.9993M156.77 30.1953L150.855 19.9993" stroke="black" stroke-width="1.01944"/>
<path d="M155.181 63.5852V63.0117H162.445V63.5852C159.068 64.7957 158.112 64.7957 155.181 63.5852Z" fill="black"/>
<path d="M162.445 64.1586C159.743 65.5858 156.965 64.9869 155.181 64.1586C152.951 64.1591 149.448 67.4719 151.614 69.3195C152.251 69.8629 154.226 65.4329 155.182 69.3195C156.52 69.8717 159.845 70.6448 162.445 69.3195C163.401 65.4329 165.376 69.8629 166.013 69.3195C168.179 67.4718 164.675 64.1586 162.445 64.1586Z" fill="black"/>
<path d="M155.181 64.1586C156.965 64.9869 159.743 65.5858 162.445 64.1586C164.675 64.1586 168.179 67.4718 166.013 69.3195C165.376 69.8629 163.401 65.4329 162.445 69.3195C159.845 70.6448 156.52 69.8717 155.182 69.3195C154.226 65.4329 152.251 69.8629 151.614 69.3195C149.448 67.4718 152.952 64.1586 155.182 64.1586M155.181 63.0117V63.5852C158.112 64.7957 159.068 64.7957 162.445 63.5852V63.0117H155.181Z" stroke="black" stroke-width="0.12743"/>
<path d="M155.181 63.5852V63.0117H162.445V63.5852C159.068 64.7957 158.112 64.7957 155.181 63.5852Z" fill="black"/>
<path d="M162.445 64.1586C159.743 65.5858 156.965 64.9869 155.181 64.1586C152.951 64.1591 149.448 67.4719 151.614 69.3195C152.251 69.8629 154.226 65.4329 155.182 69.3195C156.52 69.8717 159.845 70.6448 162.445 69.3195C163.401 65.4329 165.376 69.8629 166.013 69.3195C168.179 67.4718 164.675 64.1586 162.445 64.1586Z" fill="black"/>
<path d="M155.181 64.1586C156.965 64.9869 159.743 65.5858 162.445 64.1586C164.675 64.1586 168.179 67.4718 166.013 69.3195C165.376 69.8629 163.401 65.4329 162.445 69.3195C159.845 70.6448 156.52 69.8717 155.182 69.3195C154.226 65.4329 152.251 69.8629 151.614 69.3195C149.448 67.4718 152.952 64.1586 155.182 64.1586M155.181 63.0117V63.5852C158.112 64.7957 159.068 64.7957 162.445 63.5852V63.0117H155.181Z" stroke="black" stroke-width="0.12743"/>
<path d="M162.445 69.8281C159.743 71.2553 156.965 70.6564 155.181 69.8281C152.951 69.8286 149.448 73.1414 151.614 74.989C152.251 75.5325 154.226 71.1024 155.182 74.989C156.52 75.5412 159.845 76.3143 162.445 74.989C163.401 71.1024 165.376 75.5325 166.013 74.989C168.179 73.1413 164.675 69.8281 162.445 69.8281Z" fill="black"/>
<path d="M155.181 69.8281C156.965 70.6564 159.743 71.2553 162.445 69.8281C164.675 69.8281 168.179 73.1413 166.013 74.989C165.376 75.5325 163.401 71.1024 162.445 74.989C159.845 76.3143 156.52 75.5412 155.182 74.989C154.226 71.1024 152.251 75.5325 151.614 74.989C149.448 73.1413 152.952 69.8281 155.182 69.8281" stroke="black" stroke-width="0.12743"/>
<path d="M175.767 17.4655L175.551 17.4217L175.711 17.5741L176.286 18.1236L176.348 18.182L176.387 18.1069L176.591 17.7156L176.63 17.6405L176.547 17.6237L175.767 17.4655Z" fill="white" stroke="black" stroke-width="0.12743" stroke-miterlimit="16"/>
<path d="M176.277 16.946L176.061 16.9021L176.22 17.0545L176.796 17.604L176.857 17.6625L176.897 17.5874L177.101 17.1961L177.14 17.121L177.057 17.1042L176.277 16.946Z" fill="white" stroke="black" stroke-width="0.12743" stroke-miterlimit="16"/>
<path d="M176.404 16.0632L176.188 16.0193L176.347 16.1717L176.923 16.7212L176.984 16.7797L177.024 16.7046L177.228 16.3133L177.267 16.2382L177.184 16.2214L176.404 16.0632Z" fill="white" stroke="black" stroke-width="0.12743" stroke-miterlimit="16"/>
<path d="M175.67 14.9758L175.141 14.8024L175.617 15.0909L177.267 16.0895L177.325 16.1247L177.356 16.0645L177.56 15.6732L177.595 15.6066L177.524 15.5832L175.67 14.9758Z" fill="white" stroke="black" stroke-width="0.12743" stroke-miterlimit="16"/>
<path d="M174.651 17.9016L174.121 17.7282L174.598 18.0167L176.247 19.0153L176.305 19.0505L176.337 18.9903L176.541 18.599L176.576 18.5323L176.504 18.5089L174.651 17.9016Z" fill="white" stroke="black" stroke-width="0.12743" stroke-miterlimit="16"/>
<path d="M176.606 14.8664L176.076 14.693L176.553 14.9815L178.202 15.9802L178.26 16.0153L178.292 15.9551L178.496 15.5638L178.531 15.4972L178.459 15.4738L176.606 14.8664Z" fill="white" stroke="black" stroke-width="0.12743" stroke-miterlimit="16"/>
<path d="M177.242 14.6164L176.713 14.443L177.189 14.7315L178.839 15.7302L178.897 15.7653L178.928 15.7051L179.133 15.3138L179.167 15.2472L179.096 15.2238L177.242 14.6164Z" fill="white" stroke="black" stroke-width="0.12743" stroke-miterlimit="16"/>
<path d="M177.623 12.9602L177.094 12.7868L177.57 13.0752L179.22 14.0739L179.278 14.1091L179.309 14.0489L179.513 13.6576L179.548 13.5909L179.477 13.5675L177.623 12.9602Z" fill="white" stroke="black" stroke-width="0.12743" stroke-miterlimit="16"/>
<path d="M177.877 11.3L177.348 11.1266L177.824 11.4151L179.474 12.4137L179.532 12.4489L179.563 12.3887L179.767 11.9974L179.802 11.9308L179.731 11.9074L177.877 11.3Z" fill="white" stroke="black" stroke-width="0.12743" stroke-miterlimit="16"/>
<path d="M177.877 12.0696L177.348 11.8962L177.824 12.1846L179.474 13.1833L179.532 13.2184L179.563 13.1583L179.767 12.7669L179.802 12.7003L179.731 12.6769L177.877 12.0696Z" fill="white" stroke="black" stroke-width="0.12743" stroke-miterlimit="16"/>
<path d="M178.133 9.90161L177.604 9.7282L178.08 10.0167L179.729 11.0153L179.788 11.0505L179.819 10.9903L180.023 10.599L180.058 10.5323L179.987 10.5089L178.133 9.90161Z" fill="white" stroke="black" stroke-width="0.12743" stroke-miterlimit="16"/>
<path d="M173.776 18.057L174.192 17.9419L173.827 18.1723L172.564 18.9695L172.505 19.0064L172.473 18.9451L172.269 18.5538L172.232 18.4839L172.308 18.4629L173.776 18.057Z" fill="white" stroke="black" stroke-width="0.12743" stroke-miterlimit="16"/>
<path d="M173.011 16.3461L173.427 16.231L173.062 16.4614L171.798 17.2586L171.739 17.2955L171.707 17.2342L171.503 16.8429L171.467 16.773L171.543 16.752L173.011 16.3461Z" fill="white" stroke="black" stroke-width="0.12743" stroke-miterlimit="16"/>
<path d="M173.391 17.1117L173.807 16.9966L173.442 17.227L172.179 18.0242L172.12 18.0611L172.088 17.9998L171.884 17.6085L171.848 17.5386L171.924 17.5176L173.391 17.1117Z" fill="white" stroke="black" stroke-width="0.12743" stroke-miterlimit="16"/>
<path d="M171.862 15.3226L172.278 15.2075L171.913 15.4379L170.65 16.2352L170.591 16.2721L170.559 16.2108L170.355 15.8194L170.318 15.7496L170.394 15.7286L171.862 15.3226Z" fill="white" stroke="black" stroke-width="0.12743" stroke-miterlimit="16"/>
<path d="M171.479 13.5414L171.895 13.4263L171.53 13.6567L170.267 14.4539L170.208 14.4908L170.176 14.4295L169.972 14.0382L169.935 13.9683L170.011 13.9473L171.479 13.5414Z" fill="white" stroke="black" stroke-width="0.12743" stroke-miterlimit="16"/>
<path d="M169.95 12.0062L170.366 11.8911L170.001 12.1215L168.737 12.9188L168.679 12.9557L168.647 12.8944L168.443 12.503L168.406 12.4332L168.482 12.4121L169.95 12.0062Z" fill="white" stroke="black" stroke-width="0.12743" stroke-miterlimit="16"/>
<path d="M169.186 10.6117L169.602 10.4966L169.237 10.727L167.974 11.5242L167.915 11.5611L167.883 11.4998L167.679 11.1085L167.643 11.0386L167.718 11.0176L169.186 10.6117Z" fill="white" stroke="black" stroke-width="0.12743" stroke-miterlimit="16"/>
<path d="M167.911 9.33434L168.327 9.21927L167.962 9.44963L166.698 10.2469L166.64 10.2838L166.608 10.2225L166.404 9.83117L166.367 9.76129L166.443 9.74027L167.911 9.33434Z" fill="white" stroke="black" stroke-width="0.12743" stroke-miterlimit="16"/>
<path d="M167.911 8.44371L168.327 8.32864L167.962 8.55901L166.698 9.35626L166.64 9.39316L166.608 9.33186L166.404 8.94054L166.367 8.87066L166.443 8.84965L167.911 8.44371Z" fill="white" stroke="black" stroke-width="0.12743" stroke-miterlimit="16"/>
<path d="M168.423 10.1L168.839 9.98489L168.474 10.2153L167.21 11.0125L167.152 11.0494L167.12 10.9881L166.915 10.5968L166.879 10.5269L166.955 10.5059L168.423 10.1Z" fill="white" stroke="black" stroke-width="0.12743" stroke-miterlimit="16"/>
<path d="M169.95 11.3695L170.366 11.2544L170.001 11.4848L168.737 12.282L168.679 12.3189L168.647 12.2576L168.443 11.8663L168.406 11.7964L168.482 11.7754L169.95 11.3695Z" fill="white" stroke="black" stroke-width="0.12743" stroke-miterlimit="16"/>
<path d="M166.13 6.40465L166.546 6.28958L166.181 6.51994L164.917 7.3172L164.859 7.3541L164.827 7.2928L164.622 6.90148L164.586 6.8316L164.662 6.81059L166.13 6.40465Z" fill="white" stroke="black" stroke-width="0.12743" stroke-miterlimit="16"/>
<path d="M164.598 4.24449L165.015 4.12942L164.649 4.35979L163.386 5.15704L163.327 5.19394L163.295 5.13264L163.091 4.74132L163.055 4.67144L163.131 4.65043L164.598 4.24449Z" fill="white" stroke="black" stroke-width="0.12743" stroke-miterlimit="16"/>
<path d="M180.733 20.58L176.146 33.3867C175.636 25.9958 169.774 13.7625 172.832 18.7323C175.279 22.7081 178.099 14.5271 179.204 9.93964C179.416 9.11134 180.019 7.65864 180.733 8.47419C181.447 9.28974 181.667 11.9998 181.689 13.2528L180.733 20.58Z" fill="black" stroke="black" stroke-width="0.12743"/>
<path d="M177.675 23.895L175.764 27.7816C176.579 29.0559 176.273 31.0311 176.019 31.8594L179.204 23.7039C181.116 18.1607 181.307 13.0635 180.797 11.4706C180.389 10.1963 180.202 10.5574 180.16 10.8972C179.969 12.0228 179.625 14.5926 179.778 15.8669C179.931 17.1412 179.119 20.9004 178.695 22.6207L177.675 23.895Z" fill="white"/>
<path d="M178.25 21.856C177.536 22.2638 176.466 24.1922 176.02 25.1055L174.363 22.4932C177.524 23.8184 178.399 19.4773 178.441 17.1411C178.675 18.5428 178.963 21.4482 178.25 21.856Z" fill="white" stroke="black" stroke-width="0.12743"/>
<path d="M170.603 15.2915L171.75 17.4578L171.622 18.0313L161.938 4.01397L162.575 3.56797L164.422 5.79799L166.206 8.34659L169.01 12.042L170.603 15.2915Z" fill="black"/>
</svg>
