<svg width="60" height="60" viewBox="0 0 60 60" fill="none" xmlns="http://www.w3.org/2000/svg">
<g clip-path="url(#clip0_5324_2)">
<circle cx="30" cy="30" r="30" fill="url(#paint0_radial_5324_2)"/>
<path d="M22.048 17.7224C19.5853 18.9862 17.2827 23.0971 15.8895 26.239C14.9561 28.3442 14.4309 30.0143 14.5395 30.1014C21.3716 35.5806 31.5182 34.7689 40.1091 26.5839C40.1699 26.5259 39.5896 25.7017 38.6788 24.5534C36.3994 21.6794 32.0503 16.7754 30.5036 16.7754C28.7719 16.7754 26.8057 18.7145 26.039 19.6841C24.632 18.8183 22.8389 17.3165 22.048 17.7224Z" fill="#17272E"/>
<path d="M55.8701 34.6328C62.6887 24.8919 50.7968 22.7728 46.8057 23.6067C45.6559 23.847 42.6433 24.1866 38.6788 24.5534C39.5896 25.7017 40.1699 26.5259 40.1091 26.5839C31.5182 34.7689 21.3716 35.5806 14.5395 30.1014C14.4309 30.0143 14.9561 28.3442 15.8895 26.239C13.369 26.3834 10.9994 26.5019 8.92464 26.5831C8.15539 26.6131 7.46246 26.7019 6.84099 26.8408C6.13094 26.9995 5.51417 27.2235 4.98347 27.5C4.54085 27.7306 4.15809 27.9977 3.83099 28.2938C3.42996 28.6569 3.1126 29.0635 2.87117 29.5C2.61062 29.971 2.4385 30.4768 2.34508 31C2.24394 31.5665 2.23505 32.1533 2.30609 32.7386C2.39996 33.5121 2.6334 34.2828 2.97792 35C3.27867 35.6261 3.66409 36.2114 4.11521 36.7222C4.57457 37.2424 5.10206 37.6852 5.67769 38.0151C6.43378 38.4485 7.20876 38.8526 8 39.2285C10.0709 40.2123 12.2533 41.0027 14.5 41.6193C18.3886 42.6864 22.4699 43.2326 26.5 43.3588C31.387 43.5118 36.1987 43.0472 40.5 42.1447C47.809 40.611 53.644 37.813 55.8701 34.6328Z" fill="#17272E"/>
<path d="M38.6788 24.5534C42.6433 24.1866 45.6559 23.847 46.8057 23.6067C50.7968 22.7728 62.6887 24.8919 55.8701 34.6328C53.644 37.813 47.809 40.611 40.5 42.1447C36.1987 43.0472 31.387 43.5118 26.5 43.3588C22.4699 43.2326 18.3886 42.6864 14.5 41.6193C12.2533 41.0027 10.0709 40.2123 8 39.2285C7.20876 38.8526 6.43378 38.4485 5.67769 38.0151C5.10206 37.6852 4.57457 37.2424 4.11521 36.7222C3.66409 36.2114 3.27867 35.6261 2.97792 35C2.6334 34.2828 2.39996 33.5121 2.30609 32.7386C2.23505 32.1533 2.24394 31.5665 2.34508 31C2.4385 30.4768 2.61062 29.971 2.87117 29.5C3.1126 29.0635 3.42996 28.6569 3.83099 28.2938C4.15809 27.9977 4.54085 27.7306 4.98347 27.5C5.51417 27.2235 6.13094 26.9995 6.84099 26.8408C7.46246 26.7019 8.15539 26.6131 8.92464 26.5831C10.9994 26.5019 13.369 26.3834 15.8895 26.239M38.6788 24.5534C39.5896 25.7017 40.1699 26.5259 40.1091 26.5839C31.5182 34.7689 21.3716 35.5806 14.5395 30.1014C14.4309 30.0143 14.9561 28.3442 15.8895 26.239M38.6788 24.5534C36.3994 21.6794 32.0503 16.7754 30.5036 16.7754C28.7719 16.7754 26.8057 18.7145 26.039 19.6841C24.632 18.8183 22.8389 17.3165 22.048 17.7224C19.5853 18.9862 17.2827 23.0971 15.8895 26.239" stroke="black" stroke-width="0.676448"/>
</g>
<defs>
<radialGradient id="paint0_radial_5324_2" cx="0" cy="0" r="1" gradientUnits="userSpaceOnUse" gradientTransform="translate(30 30) rotate(90) scale(30)">
<stop offset="0.67" stop-color="#FFDB1D"/>
<stop offset="1" stop-color="#AB9628" stop-opacity="0.8"/>
</radialGradient>
<clipPath id="clip0_5324_2">
<rect width="60" height="60" fill="white"/>
</clipPath>
</defs>
</svg>
