<svg width="60" height="60" viewBox="0 0 60 60" fill="none" xmlns="http://www.w3.org/2000/svg">
<g clip-path="url(#clip0_3202_8057)">
<circle cx="30" cy="30" r="30" fill="url(#paint0_radial_3202_8057)"/>
<path d="M47.5497 34.2577L51.2315 27.5635C51.747 26.6263 51.4826 25.8061 51.2315 25.5551L48.7212 23.2122C47.6334 22.1245 48.8049 20.8001 49.6416 21.2876C56.2522 25.1368 57.0053 26.8104 58.0931 28.2329C58.9634 29.3709 57.6747 29.9065 57.1727 29.6554C56.7264 29.4323 55.6497 28.8521 54.9134 28.3166C54.177 27.7811 53.9092 28.4002 53.6582 28.735L49.3906 35.1782C48.4701 36.4333 47.0478 35.0944 47.5497 34.2577Z" fill="#316F96" stroke="black" stroke-width="0.334713"/>
<path d="M9.97756 27.4784C9.24119 25.0015 12.0695 22.8203 13.5757 22.0393C16.2536 20.7842 14.9607 23.6293 13.5757 24.8843C11.4334 26.8257 12.5158 28.0362 13.3248 28.3988C13.5759 28.5113 14.6637 27.7295 15.6678 27.2273C17.3414 26.4743 17.0067 28.3152 16.5883 28.6499C16.3727 28.8222 15.3331 29.7656 14.7474 30.1561C13.1575 31.3277 14.4963 33.5591 15.4168 34.1727C15.6678 34.3401 17.0736 33.3191 18.0108 33.2522C19.1823 33.1685 19.8517 34.5073 18.8476 35.3441C17.8435 36.1809 16.5883 36.934 14.7474 36.2646C12.9064 35.5951 10.898 30.5745 9.97756 27.4784Z" fill="#316F96"/>
<path d="M13.5757 22.0393L13.5046 21.8876L13.4987 21.8907L13.5757 22.0393ZM9.97756 27.4784L10.138 27.4307L9.97756 27.4784ZM14.7474 36.2646L14.6902 36.4218L14.7474 36.2646ZM18.8476 35.3441L18.7405 35.2155L18.8476 35.3441ZM18.0108 33.2522L18.0227 33.4191L18.0108 33.2522ZM15.4168 34.1727L15.324 34.312H15.324L15.4168 34.1727ZM14.7474 30.1561L14.6544 30.0167L14.6481 30.0213L14.7474 30.1561ZM16.5883 28.6499L16.4838 28.5192L16.5883 28.6499ZM15.6678 27.2273L15.5991 27.0746L15.593 27.0776L15.6678 27.2273ZM13.3248 28.3988L13.3933 28.2461L13.3248 28.3988ZM13.5757 24.8843L13.4633 24.7603L13.4633 24.7603L13.5757 24.8843ZM13.4987 21.8907C12.7316 22.2885 11.6287 23.0415 10.8077 24.015C9.98803 24.9869 9.42573 26.2095 9.81714 27.526L10.138 27.4307C9.79302 26.2704 10.2767 25.1638 11.0636 24.2308C11.8493 23.2991 12.9137 22.5711 13.6528 22.1878L13.4987 21.8907ZM9.81714 27.526C10.2793 29.0805 11.0146 31.1189 11.8671 32.8552C12.2932 33.7231 12.7509 34.5205 13.2212 35.1453C13.6877 35.7651 14.1828 36.2373 14.6902 36.4218L14.8046 36.1073C14.3915 35.9571 13.9452 35.5507 13.4886 34.9441C13.0358 34.3425 12.5887 33.5657 12.1675 32.7077C11.3254 30.9923 10.5963 28.9723 10.138 27.4307L9.81714 27.526ZM14.6902 36.4218C15.6443 36.7688 16.4559 36.7493 17.1612 36.5289C17.8618 36.31 18.4467 35.896 18.9547 35.4727L18.7405 35.2155C18.2443 35.629 17.6996 36.01 17.0614 36.2094C16.4278 36.4074 15.6914 36.4298 14.8046 36.1073L14.6902 36.4218ZM18.9547 35.4727C19.5114 35.0088 19.618 34.386 19.3983 33.8857C19.1812 33.3912 18.6543 33.0384 17.9989 33.0852L18.0227 33.4191C18.5388 33.3822 18.9324 33.657 19.0918 34.0202C19.2487 34.3776 19.188 34.8426 18.7405 35.2155L18.9547 35.4727ZM17.9989 33.0852C17.7404 33.1037 17.4589 33.1867 17.1855 33.2915C16.9107 33.3968 16.6336 33.5283 16.3834 33.6497C16.1296 33.773 15.9085 33.8832 15.7337 33.9537C15.6461 33.9889 15.5791 34.0105 15.5311 34.0195C15.4736 34.0302 15.4826 34.0155 15.5096 34.0335L15.324 34.312C15.4137 34.3718 15.5216 34.3618 15.5927 34.3485C15.6733 34.3334 15.7646 34.3021 15.8588 34.2641C16.0474 34.1881 16.2835 34.0703 16.5296 33.9509C16.7794 33.8296 17.0451 33.7037 17.3053 33.604C17.5669 33.5038 17.8126 33.4341 18.0227 33.4191L17.9989 33.0852ZM15.5096 34.0335C15.0836 33.7495 14.5405 33.0707 14.3 32.3224C14.1807 31.9512 14.1396 31.5742 14.2153 31.2273C14.2902 30.8842 14.4814 30.56 14.8466 30.2908L14.6481 30.0213C14.2184 30.3379 13.9808 30.732 13.8883 31.156C13.7966 31.5761 13.8496 32.015 13.9814 32.4248C14.2429 33.2386 14.8295 33.9823 15.324 34.312L15.5096 34.0335ZM14.8402 30.2953C15.1423 30.0939 15.5556 29.7543 15.9151 29.4487C16.2816 29.137 16.5871 28.8651 16.6928 28.7806L16.4838 28.5192C16.3739 28.607 16.0519 28.893 15.6982 29.1937C15.3376 29.5004 14.9382 29.8277 14.6545 30.0168L14.8402 30.2953ZM16.6928 28.7806C16.8365 28.6657 16.9486 28.4493 17.0163 28.2298C17.0857 28.0046 17.1199 27.7387 17.0773 27.5012C17.0341 27.2606 16.9055 27.0266 16.6338 26.9276C16.3751 26.8334 16.032 26.88 15.5992 27.0747L15.7365 27.3799C16.1405 27.1982 16.3831 27.1925 16.5192 27.2421C16.6424 27.287 16.7178 27.393 16.7478 27.5603C16.7784 27.7307 16.7551 27.9407 16.6964 28.1312C16.6359 28.3275 16.5493 28.4667 16.4838 28.5192L16.6928 28.7806ZM15.593 27.0776C15.0856 27.3314 14.5529 27.658 14.1311 27.8981C13.9169 28.0201 13.7333 28.1187 13.5899 28.1799C13.518 28.2107 13.4625 28.2292 13.4223 28.2375C13.3767 28.247 13.3755 28.2381 13.3933 28.2461L13.2564 28.5515C13.337 28.5876 13.4247 28.5789 13.4905 28.5652C13.5618 28.5504 13.6403 28.5224 13.7214 28.4878C13.8839 28.4184 14.0821 28.3112 14.2967 28.189C14.7326 27.9408 15.2459 27.6254 15.7427 27.377L15.593 27.0776ZM13.3933 28.2461C13.0173 28.0776 12.5991 27.7203 12.5084 27.2046C12.4189 26.6964 12.6356 25.9621 13.6881 25.0083L13.4633 24.7603C12.3735 25.7479 12.0603 26.5895 12.1787 27.2626C12.2959 27.9281 12.8234 28.3575 13.2564 28.5515L13.3933 28.2461ZM13.6881 25.0083C14.0468 24.6833 14.3964 24.2585 14.6771 23.8247C14.9566 23.3928 15.1756 22.94 15.2625 22.5576C15.3058 22.367 15.3195 22.1803 15.2804 22.0179C15.2397 21.8487 15.1409 21.7061 14.9714 21.6264C14.8102 21.5506 14.6067 21.5421 14.3713 21.5851C14.1338 21.6285 13.8467 21.7274 13.5047 21.8877L13.6467 22.1908C13.9742 22.0374 14.2325 21.9507 14.4314 21.9143C14.6325 21.8776 14.7565 21.8952 14.829 21.9293C14.8932 21.9595 14.9344 22.0104 14.955 22.0961C14.9772 22.1887 14.9736 22.3184 14.9361 22.4834C14.8614 22.8123 14.6648 23.2276 14.3961 23.6429C14.1285 24.0563 13.7972 24.4578 13.4633 24.7603L13.6881 25.0083Z" fill="black"/>
<path d="M7.71883 32.0834C8.72297 26.728 2.78182 29.7404 1.694 33.1712C1.28763 34.0415 2.53079 34.4129 2.86549 34.0079C3.39546 33.3664 4.23672 32.4934 4.45538 32.3344C5.37585 31.6649 6.12895 32.8364 5.5432 33.5895L4.03699 35.5141C3.36756 36.4513 4.7901 37.1877 5.29216 36.7693C6.1418 36.0504 6.7147 34.4918 7.4678 34.9284C12.0868 37.6061 8.2209 40.3396 5.71055 41.3716C3.78596 42.2084 5.37586 43.7465 6.37998 43.4636C15.5846 40.8695 11.9027 32.6691 8.38826 32.9201C7.35167 32.9941 7.62985 32.558 7.71883 32.0834Z" fill="#316F96" stroke="black" stroke-width="0.334713"/>
<path d="M21.6924 31.7475L18.0943 20.6183C17.5084 18.6937 19.684 18.4427 20.9393 19.6142C22.2782 20.8637 21.9434 23.2123 22.2782 23.9655C23.0966 25.8064 26.7967 23.7144 26.3784 21.9572L25.7927 19.1958C25.3742 16.6854 27.7005 16.7693 28.303 18.4427C28.9055 20.1163 30.1718 26.7268 30.7297 29.8229C31.1368 32.0823 29.307 32.0823 28.8051 30.7434L27.7173 27.3963C27.1314 25.4718 22.9475 27.229 23.4497 28.8188L24.2028 31.0781C24.9558 33.4212 22.2782 33.6722 21.6924 31.7475Z" fill="#316F96" stroke="black" stroke-width="0.334713"/>
<path d="M32.9889 29.321C32.7881 25.4383 34.2999 20.0048 35.0808 17.7734C35.6419 15.9659 37.0998 17.0203 37.7587 17.7734C38.271 18.3591 38.3444 19.3632 38.1771 20.0327L35.8341 26.8106C35.583 27.6473 36.0851 28.4005 36.4198 28.4005C38.7628 28.2666 39.4322 27.48 39.8506 27.1453C40.52 26.6099 42.1898 21.8736 43.6161 19.7817C44.6203 18.3089 45.4292 19.6143 45.7081 20.4511C46.3775 23.3966 43.4767 29.7115 41.9426 32.5007C41.1058 33.8395 40.1017 32.9191 40.1017 32.166V30.1578C40.1017 29.4214 39.5159 29.6556 39.1812 29.823L36.4198 31.0782C33.7421 32.484 33.0168 30.4925 32.9889 29.321Z" fill="#316F96" stroke="black" stroke-width="0.334713"/>
</g>
<defs>
<radialGradient id="paint0_radial_3202_8057" cx="0" cy="0" r="1" gradientUnits="userSpaceOnUse" gradientTransform="translate(30 30) rotate(90) scale(30)">
<stop offset="0.67" stop-color="#FFDB1D"/>
<stop offset="1" stop-color="#AB9628" stop-opacity="0.8"/>
</radialGradient>
<clipPath id="clip0_3202_8057">
<rect width="60" height="60" fill="white"/>
</clipPath>
</defs>
</svg>
