<svg width="60" height="60" viewBox="0 0 60 60" fill="none" xmlns="http://www.w3.org/2000/svg">
<g clip-path="url(#clip0_3202_8019)">
<circle cx="30" cy="30" r="30" fill="url(#paint0_radial_3202_8019)"/>
<path d="M48.125 28.1839C48.9707 27.7611 49.5627 27.1691 49.9856 26.873C52.2691 28.2685 54.7217 28.4799 56.7937 30.8902C54.5102 33.3006 54.2988 34.1463 51.0428 35.9646C50.5104 34.5561 48.9767 29.6423 48.125 28.1839Z" fill="#80CED1"/>
<path d="M44.8493 29.1593C45.7939 29.2013 47.2317 28.4897 47.7451 28.4368C49.0613 30.7669 49.7326 33.469 49.7326 36.6827C46.565 37.6777 46.7385 38.1159 43.0091 38.1205C43.2293 36.6309 44.884 30.8478 44.8493 29.1593Z" fill="#F2F2EF"/>
<path d="M36.0736 26.4913C36.9616 26.9565 38.8222 28.4366 39.4142 28.5633C39.8793 31.2697 38.2302 34.6104 36.3696 36.3864C35.0587 36.1327 35.101 35.7944 33.3249 34.6104C33.5451 33.1208 36.1083 28.1798 36.0736 26.4913Z" fill="#F7F6F6"/>
<path d="M40.4713 29.0288C41.4863 29.3248 43.3831 29.3777 43.8966 29.3248C45.2127 31.6549 43.3892 34.822 41.9091 38.0357C40.0908 38.0357 39.9217 37.6975 37.3845 36.9786C37.6047 35.489 40.506 30.7173 40.4713 29.0288Z" fill="#267BA7"/>
<path d="M2.33008 30.6353C17.0034 11.3951 31.4653 22.7701 34.7636 25.5609C35.3283 27.6249 35.3557 32.1576 32.3533 33.9759C22.3738 27.5061 12.2251 31.1427 8.92674 37.6125C3.59867 35.9634 3.18182 32.0937 2.33008 30.6353Z" fill="#80CED1"/>
<path d="M8.9216 37.5641C7.65269 37.0259 6.37682 36.4534 5.23993 35.4335C4.10134 34.4121 3.1069 32.9468 2.38819 30.6294L1.78815 31.6177C2.73347 34.3274 4.0703 35.8691 5.29479 36.8487C5.9107 37.3415 6.49951 37.693 6.99998 37.9805C7.06011 38.0151 7.11915 38.0488 7.17694 38.0818C7.55481 38.2975 7.87946 38.4829 8.10881 38.6724L8.9216 37.5641Z" fill="#F4F5EF" stroke="black" stroke-width="0.169145"/>
<path d="M52.058 23.9121C56.0685 24.9517 57.7128 25.6505 59.3735 27.1259L57.2169 30.3819L50.3242 26.5339C51.1516 25.6281 51.5074 25.0353 52.058 23.9121Z" fill="#366586"/>
<path d="M59.416 27.1255C59.4836 27.1931 57.9782 29.3244 57.2171 30.3815L56.3291 29.6204C57.2698 28.6367 57.765 27.9692 58.528 26.3643L57.8514 25.9268C56.9687 27.4812 56.4446 28.1287 55.4834 29.0706L54.4685 28.5209C55.4129 27.3807 55.7981 26.637 56.456 25.312L55.1028 24.8116C54.3753 26.2548 53.8962 26.8415 52.9885 27.7175L51.5508 27.0409C52.4101 26.1576 52.7854 25.5299 53.3268 24.25C53.8742 24.4041 54.4902 24.5993 55.1028 24.8116C55.5662 24.9721 56.0276 25.1424 56.456 25.312C56.9937 25.5249 57.4793 25.7367 57.8514 25.9268C58.1788 26.0941 58.4183 26.2446 58.528 26.3643C58.8381 26.5757 59.3483 27.0578 59.416 27.1255Z" fill="#23405A"/>
<path d="M58.528 26.3643C58.8381 26.5757 59.3483 27.0578 59.416 27.1255C59.4836 27.1931 57.9782 29.3244 57.2171 30.3815L56.3291 29.6204C57.2698 28.6367 57.765 27.9692 58.528 26.3643ZM58.528 26.3643C58.0629 25.8569 55.2651 24.7956 53.3268 24.25C52.7854 25.5299 52.4101 26.1577 51.5508 27.0409L52.9885 27.7175C53.8962 26.8415 54.3753 26.2548 55.1028 24.8116L56.456 25.312C55.7981 26.637 55.4129 27.3807 54.4685 28.5209L55.4834 29.0706C56.4446 28.1287 56.9687 27.4812 57.8514 25.9268L58.528 26.3643Z" stroke="black" stroke-width="0.169145"/>
<path d="M49.8928 26.9589L50.2649 26.5868C50.7875 26.7369 52.2568 27.3522 53.7327 28.0953C54.4925 28.4778 55.2509 28.8927 55.8793 29.293C56.4769 29.6736 56.9477 30.0356 57.194 30.3394L56.7908 30.8434C56.4601 30.4839 55.9427 30.089 55.3387 29.694C54.6902 29.2698 53.9357 28.8416 53.1915 28.4523C52.4472 28.0629 51.7121 27.7119 51.1019 27.4423C50.5916 27.2167 50.1649 27.0464 49.8928 26.9589Z" fill="#E1DFD2" stroke="black" stroke-width="0.169145"/>
<path d="M48.1057 28.1639C49.6025 29.9322 51.2747 33.0271 51.006 35.996L49.6568 36.7081C49.8999 32.2122 48.2323 29.3486 47.6144 28.426L48.1057 28.1639Z" fill="#E1DFD2" stroke="black" stroke-width="0.169145"/>
<path d="M43.8533 29.3615L44.9857 29.2865C45.2189 29.8219 45.2575 30.5641 45.1678 31.4054C45.0754 32.2717 44.8483 33.2308 44.5716 34.1532C44.0354 35.9407 43.3161 37.5792 43.0433 38.1175L41.8412 38.0447C43.3157 35.5415 43.8245 33.7673 43.9603 32.4098C44.0292 31.7208 44.0018 31.1415 43.9575 30.6324C43.9444 30.4828 43.9301 30.3401 43.9162 30.203C43.8858 29.901 43.8581 29.6257 43.8533 29.3615Z" fill="url(#paint1_linear_3202_8019)" stroke="black" stroke-width="0.169145"/>
<path d="M39.449 28.6379L40.4754 29.0044C40.5639 30.6999 39.9838 32.4487 39.2806 33.9019C38.5952 35.3185 37.7968 36.4462 37.4021 36.9574L36.2414 36.4133C38.4814 34.7763 39.2307 31.6401 39.449 28.6379Z" fill="url(#paint2_linear_3202_8019)" stroke="black" stroke-width="0.169145"/>
<path d="M34.7768 25.5694L35.995 26.4554C36.3853 29.2316 35.9024 31.0422 35.2329 32.2773C34.8963 32.8984 34.5111 33.3765 34.1618 33.7606C34.0159 33.921 33.8766 34.0646 33.7491 34.1961C33.7237 34.2223 33.6988 34.248 33.6744 34.2732C33.5512 34.4006 33.4401 34.5176 33.3493 34.6264L32.3349 33.9742C33.4522 33.1756 34.1522 32.2254 34.5271 30.8976C34.902 29.5695 34.9507 27.8677 34.7768 25.5694Z" fill="#F4F5EF" stroke="black" stroke-width="0.169145"/>
<path d="M59.4159 27.1677C58.3672 25.7469 54.0456 24.3768 52.0158 23.8694C51.1842 26.1247 47.7956 30.3308 40.8945 29.1129C38.9071 28.7622 34.763 25.4853 32.7756 23.9962C28.11 20.5005 16.5377 15.835 6.89638 25.6454C5.25558 27.315 3.76144 28.5362 2.34375 30.6307C3.43182 34.2619 6.2569 36.8515 8.9684 37.528C10.0688 35.1176 19.244 23.9962 35.1013 35.8788C40.8945 39.1771 51.2547 40.6571 59.4159 27.1677Z" stroke="black" stroke-width="0.253718"/>
</g>
<defs>
<radialGradient id="paint0_radial_3202_8019" cx="0" cy="0" r="1" gradientUnits="userSpaceOnUse" gradientTransform="translate(30 30) rotate(90) scale(30)">
<stop offset="0.67" stop-color="#FFDB1D"/>
<stop offset="1" stop-color="#AB9628" stop-opacity="0.8"/>
</radialGradient>
<linearGradient id="paint1_linear_3202_8019" x1="47.1274" y1="31.3093" x2="43.3911" y2="35.6142" gradientUnits="userSpaceOnUse">
<stop stop-color="#D4D2CE"/>
<stop offset="1" stop-color="#B09685"/>
</linearGradient>
<linearGradient id="paint2_linear_3202_8019" x1="42.6684" y1="30.9709" x2="38.9321" y2="35.2759" gradientUnits="userSpaceOnUse">
<stop stop-color="#D4D2CE"/>
<stop offset="1" stop-color="#B09685"/>
</linearGradient>
<clipPath id="clip0_3202_8019">
<rect width="60" height="60" fill="white"/>
</clipPath>
</defs>
</svg>
