<svg width="1250" height="765" viewBox="0 0 1250 765" fill="none" xmlns="http://www.w3.org/2000/svg">
<g clip-path="url(#clip0_5178_19036)">
<rect width="1250" height="765" fill="white"/>
<rect x="0.234375" y="761.699" width="1250" height="68" fill="#353A53"/>
<circle cx="69.3589" cy="776.359" r="75.3589" fill="#353A53"/>
<circle cx="220.076" cy="776.359" r="75.3589" fill="#353A53"/>
<circle cx="370.794" cy="776.359" r="75.3589" fill="#353A53"/>
<circle cx="521.511" cy="776.359" r="75.3589" fill="#353A53"/>
<circle cx="672.23" cy="776.359" r="75.3589" fill="#353A53"/>
<circle cx="822.947" cy="776.359" r="75.3589" fill="#353A53"/>
<circle cx="973.666" cy="776.359" r="75.3589" fill="#353A53"/>
<circle cx="1124.38" cy="776.359" r="75.3589" fill="#353A53"/>
<path d="M1275.1 701C1255.11 701 1235.95 708.94 1221.81 723.072C1207.68 737.205 1199.74 756.372 1199.74 776.359C1199.74 796.345 1207.68 815.513 1221.81 829.646C1235.95 843.778 1255.11 851.718 1275.1 851.718L1275.1 776.359V701Z" fill="#353A53"/>
<circle cx="1200.1" cy="-15.6401" r="75.3589" transform="rotate(-180 1200.1 -15.6401)" fill="#353A53"/>
<circle cx="1049.38" cy="-15.6401" r="75.3589" transform="rotate(-180 1049.38 -15.6401)" fill="#353A53"/>
<circle cx="898.665" cy="-15.6401" r="75.3589" transform="rotate(-180 898.665 -15.6401)" fill="#353A53"/>
<circle cx="747.948" cy="-15.6401" r="75.3589" transform="rotate(-180 747.948 -15.6401)" fill="#353A53"/>
<circle cx="597.229" cy="-15.6401" r="75.3589" transform="rotate(-180 597.229 -15.6401)" fill="#353A53"/>
<circle cx="446.512" cy="-15.6401" r="75.3589" transform="rotate(-180 446.512 -15.6401)" fill="#353A53"/>
<circle cx="295.793" cy="-15.6401" r="75.3589" transform="rotate(-180 295.793 -15.6401)" fill="#353A53"/>
<circle cx="145.075" cy="-15.6401" r="75.3589" transform="rotate(-180 145.075 -15.6401)" fill="#353A53"/>
<path d="M-5.6421 59.7187C14.3443 59.7188 33.5121 51.7792 47.6447 37.6466C61.7772 23.5141 69.7168 4.34628 69.7168 -15.6401C69.7168 -35.6266 61.7772 -54.7944 47.6447 -68.9269C33.5122 -83.0595 14.3443 -90.999 -5.64208 -90.999L-5.6421 -15.6401L-5.6421 59.7187Z" fill="#353A53"/>
<path d="M413.2 364.87V374.11V383.38C413.2 384.02 413.07 384.62 412.81 385.18C412.57 385.74 412.24 386.23 411.82 386.65C411.4 387.07 410.9 387.4 410.32 387.64C409.76 387.88 409.17 388 408.55 388H403.93C403.29 388 402.69 387.88 402.13 387.64C401.57 387.4 401.08 387.07 400.66 386.65C400.24 386.23 399.91 385.74 399.67 385.18C399.43 384.62 399.31 384.02 399.31 383.38V381.07H403.93V383.38H408.55V378.76H403.93C403.29 378.76 402.69 378.64 402.13 378.4C401.57 378.14 401.08 377.8 400.66 377.38C400.24 376.96 399.91 376.47 399.67 375.91C399.43 375.35 399.31 374.75 399.31 374.11V364.87H403.93V374.11H408.55V364.87H413.2ZM417.826 364.87H431.716V388H427.066V369.49H422.446V388H417.826V364.87ZM445.581 388H440.961C440.321 388 439.721 387.88 439.161 387.64C438.601 387.4 438.111 387.07 437.691 386.65C437.271 386.23 436.941 385.74 436.701 385.18C436.461 384.62 436.341 384.02 436.341 383.38V369.49C436.341 368.85 436.461 368.25 436.701 367.69C436.941 367.13 437.271 366.64 437.691 366.22C438.111 365.8 438.601 365.47 439.161 365.23C439.721 364.99 440.321 364.87 440.961 364.87H445.581C446.201 364.87 446.791 364.99 447.351 365.23C447.931 365.47 448.431 365.8 448.851 366.22C449.271 366.64 449.601 367.13 449.841 367.69C450.101 368.25 450.231 368.85 450.231 369.49V371.8H445.581V369.49H440.961V383.38H445.581V381.07H450.231V383.38C450.231 384.02 450.101 384.62 449.841 385.18C449.601 385.74 449.271 386.23 448.851 386.65C448.431 387.07 447.931 387.4 447.351 387.64C446.791 387.88 446.201 388 445.581 388ZM454.857 364.87H459.477V381.07H454.857V364.87ZM454.857 383.38H459.477V388H454.857V383.38ZM488.472 376.45V364.87H493.122V388H488.472V381.07H483.852C483.212 381.07 482.612 380.95 482.052 380.71C481.492 380.47 481.002 380.14 480.582 379.72C480.162 379.3 479.832 378.81 479.592 378.25C479.352 377.69 479.232 377.09 479.232 376.45V364.87H483.852V376.45H488.472ZM511.638 364.87V374.11V383.38C511.638 384.02 511.508 384.62 511.248 385.18C511.008 385.74 510.678 386.23 510.258 386.65C509.838 387.07 509.338 387.4 508.758 387.64C508.198 387.88 507.608 388 506.988 388H502.368C501.728 388 501.128 387.88 500.568 387.64C500.008 387.4 499.518 387.07 499.098 386.65C498.678 386.23 498.348 385.74 498.108 385.18C497.868 384.62 497.748 384.02 497.748 383.38V381.07H502.368V383.38H506.988V378.76H502.368C501.728 378.76 501.128 378.64 500.568 378.4C500.008 378.14 499.518 377.8 499.098 377.38C498.678 376.96 498.348 376.47 498.108 375.91C497.868 375.35 497.748 374.75 497.748 374.11V364.87H502.368V374.11H506.988V364.87H511.638ZM516.263 369.49V364.87H530.153V369.49H525.503V388H520.883V369.49H516.263ZM544.019 388H537.089H534.779V364.87H539.399V371.8H544.019C544.639 371.8 545.229 371.93 545.789 372.19C546.369 372.43 546.869 372.76 547.289 373.18C547.709 373.6 548.039 374.1 548.279 374.68C548.539 375.24 548.669 375.83 548.669 376.45V383.38C548.669 384.02 548.539 384.62 548.279 385.18C548.039 385.74 547.709 386.23 547.289 386.65C546.869 387.07 546.369 387.4 545.789 387.64C545.229 387.88 544.639 388 544.019 388ZM544.019 383.38V376.45H539.399V383.38H544.019ZM551.884 381.79V378.13H559.744V381.79H551.884ZM572.202 376.45V364.87H576.852V388H572.202V381.07H567.582C566.942 381.07 566.342 380.95 565.782 380.71C565.222 380.47 564.732 380.14 564.312 379.72C563.892 379.3 563.562 378.81 563.322 378.25C563.082 377.69 562.962 377.09 562.962 376.45V364.87H567.582V376.45H572.202ZM595.368 364.87V374.11V383.38C595.368 384.02 595.238 384.62 594.978 385.18C594.738 385.74 594.408 386.23 593.988 386.65C593.568 387.07 593.068 387.4 592.488 387.64C591.928 387.88 591.338 388 590.718 388H586.098C585.458 388 584.858 387.88 584.298 387.64C583.738 387.4 583.248 387.07 582.828 386.65C582.408 386.23 582.078 385.74 581.838 385.18C581.598 384.62 581.478 384.02 581.478 383.38V381.07H586.098V383.38H590.718V378.76H586.098C585.458 378.76 584.858 378.64 584.298 378.4C583.738 378.14 583.248 377.8 582.828 377.38C582.408 376.96 582.078 376.47 581.838 375.91C581.598 375.35 581.478 374.75 581.478 374.11V364.87H586.098V374.11H590.718V364.87H595.368ZM599.994 369.49V364.87H613.884V369.49H609.234V388H604.614V369.49H599.994ZM627.749 388H620.819H618.509V364.87H623.129V371.8H627.749C628.369 371.8 628.959 371.93 629.519 372.19C630.099 372.43 630.599 372.76 631.019 373.18C631.439 373.6 631.769 374.1 632.009 374.68C632.269 375.24 632.399 375.83 632.399 376.45V383.38C632.399 384.02 632.269 384.62 632.009 385.18C631.769 385.74 631.439 386.23 631.019 386.65C630.599 387.07 630.099 387.4 629.519 387.64C628.959 387.88 628.369 388 627.749 388ZM627.749 383.38V376.45H623.129V383.38H627.749ZM656.791 374.11H661.411V364.87H666.061V388H661.411V378.76H656.791V388H652.171V364.87H656.791V374.11ZM670.717 364.87H682.267V369.49H675.337V374.11H681.127V378.76H675.337V383.38H682.267V388H670.717V364.87ZM686.888 364.87H700.778V388H696.128V369.49H691.508V388H686.888V364.87ZM714.644 381.07H710.024V388H705.404V364.87H714.644C715.264 364.87 715.854 364.99 716.414 365.23C716.994 365.47 717.494 365.8 717.914 366.22C718.334 366.64 718.664 367.13 718.904 367.69C719.164 368.25 719.294 368.85 719.294 369.49V376.45C719.294 377.09 719.164 377.69 718.904 378.25C718.664 378.81 718.334 379.3 717.914 379.72C717.494 380.14 716.994 380.47 716.414 380.71C715.854 380.95 715.264 381.07 714.644 381.07ZM714.644 369.49H710.024V376.45H714.644V369.49ZM723.919 385.36L729.799 364.87H734.209L740.119 385.36V388H735.469V386.02L734.719 383.38H729.289L728.539 386.02V388H723.919V385.36ZM733.399 378.76L732.019 373.96L730.639 378.76H733.399ZM753.989 388H744.749V364.87H752.849C753.489 364.87 754.089 364.99 754.649 365.23C755.209 365.47 755.699 365.8 756.119 366.22C756.539 366.64 756.869 367.13 757.109 367.69C757.349 368.25 757.469 368.85 757.469 369.49V374.11C757.469 374.67 757.399 375.13 757.259 375.49C757.679 375.91 758.009 376.4 758.249 376.96C758.509 377.52 758.639 378.12 758.639 378.76V383.38C758.639 384.02 758.509 384.62 758.249 385.18C758.009 385.74 757.679 386.23 757.259 386.65C756.839 387.07 756.339 387.4 755.759 387.64C755.199 387.88 754.609 388 753.989 388ZM753.989 383.38V378.76H749.369V383.38H753.989ZM752.849 369.49H749.369V374.11H752.849V369.49ZM767.885 377.26L772.505 366.7V364.87H777.155V388H772.505V378.25L768.245 388H763.265V364.87H767.885V377.26ZM787.571 364.87H796.841V388H792.191V369.49H787.571V383.38C787.571 384.02 787.451 384.62 787.211 385.18C786.971 385.74 786.641 386.23 786.221 386.65C785.801 387.07 785.311 387.4 784.751 387.64C784.191 387.88 783.591 388 782.951 388H780.641V383.38H782.951V369.49C782.951 368.85 783.071 368.25 783.311 367.69C783.551 367.13 783.881 366.64 784.301 366.22C784.721 365.8 785.211 365.47 785.771 365.23C786.331 364.99 786.931 364.87 787.571 364.87ZM809.536 388H802.606H800.296V364.87H804.916V371.8H809.536C810.156 371.8 810.746 371.93 811.306 372.19C811.886 372.43 812.386 372.76 812.806 373.18C813.226 373.6 813.556 374.1 813.796 374.68C814.056 375.24 814.186 375.83 814.186 376.45V383.38C814.186 384.02 814.056 384.62 813.796 385.18C813.556 385.74 813.226 386.23 812.806 386.65C812.386 387.07 811.886 387.4 811.306 387.64C810.746 387.88 810.156 388 809.536 388ZM809.536 383.38V376.45H804.916V383.38H809.536ZM823.432 374.11H828.052V364.87H832.702V388H828.052V378.76H823.432V388H818.812V364.87H823.432V374.11ZM846.568 388H841.948C841.308 388 840.708 387.88 840.148 387.64C839.588 387.4 839.098 387.07 838.678 386.65C838.258 386.23 837.928 385.74 837.688 385.18C837.448 384.62 837.328 384.02 837.328 383.38V369.49C837.328 368.85 837.448 368.25 837.688 367.69C837.928 367.13 838.258 366.64 838.678 366.22C839.098 365.8 839.588 365.47 840.148 365.23C840.708 364.99 841.308 364.87 841.948 364.87H846.568C847.188 364.87 847.778 364.99 848.338 365.23C848.918 365.47 849.418 365.8 849.838 366.22C850.258 366.64 850.588 367.13 850.828 367.69C851.088 368.25 851.218 368.85 851.218 369.49V383.38C851.218 384.02 851.088 384.62 850.828 385.18C850.588 385.74 850.258 386.23 849.838 386.65C849.418 387.07 848.918 387.4 848.338 387.64C847.778 387.88 847.188 388 846.568 388ZM846.568 369.49H841.948V383.38H846.568V369.49Z" fill="#353A53"/>
<path d="M480.31 420.87H494.2V444H489.55V425.49H484.93V444H480.31V420.87ZM508.066 444H503.446C502.806 444 502.206 443.88 501.646 443.64C501.086 443.4 500.596 443.07 500.176 442.65C499.756 442.23 499.426 441.74 499.186 441.18C498.946 440.62 498.826 440.02 498.826 439.38V425.49C498.826 424.85 498.946 424.25 499.186 423.69C499.426 423.13 499.756 422.64 500.176 422.22C500.596 421.8 501.086 421.47 501.646 421.23C502.206 420.99 502.806 420.87 503.446 420.87H508.066C508.686 420.87 509.276 420.99 509.836 421.23C510.416 421.47 510.916 421.8 511.336 422.22C511.756 422.64 512.086 423.13 512.326 423.69C512.586 424.25 512.716 424.85 512.716 425.49V439.38C512.716 440.02 512.586 440.62 512.326 441.18C512.086 441.74 511.756 442.23 511.336 442.65C510.916 443.07 510.416 443.4 509.836 443.64C509.276 443.88 508.686 444 508.066 444ZM508.066 425.49H503.446V439.38H508.066V425.49ZM517.341 420.87H531.231V444H526.581V425.49H521.961V444H517.341V420.87ZM545.097 437.07H540.477V444H535.857V420.87H545.097C545.717 420.87 546.307 420.99 546.867 421.23C547.447 421.47 547.947 421.8 548.367 422.22C548.787 422.64 549.117 423.13 549.357 423.69C549.617 424.25 549.747 424.85 549.747 425.49V432.45C549.747 433.09 549.617 433.69 549.357 434.25C549.117 434.81 548.787 435.3 548.367 435.72C547.947 436.14 547.447 436.47 546.867 436.71C546.307 436.95 545.717 437.07 545.097 437.07ZM545.097 425.49H540.477V432.45H545.097V425.49ZM563.613 444H558.993C558.353 444 557.753 443.88 557.193 443.64C556.633 443.4 556.143 443.07 555.723 442.65C555.303 442.23 554.973 441.74 554.733 441.18C554.493 440.62 554.373 440.02 554.373 439.38V425.49C554.373 424.85 554.493 424.25 554.733 423.69C554.973 423.13 555.303 422.64 555.723 422.22C556.143 421.8 556.633 421.47 557.193 421.23C557.753 420.99 558.353 420.87 558.993 420.87H563.613C564.233 420.87 564.823 420.99 565.383 421.23C565.963 421.47 566.463 421.8 566.883 422.22C567.303 422.64 567.633 423.13 567.873 423.69C568.133 424.25 568.263 424.85 568.263 425.49V439.38C568.263 440.02 568.133 440.62 567.873 441.18C567.633 441.74 567.303 442.23 566.883 442.65C566.463 443.07 565.963 443.4 565.383 443.64C564.823 443.88 564.233 444 563.613 444ZM563.613 425.49H558.993V439.38H563.613V425.49ZM582.128 444H572.888V420.87H585.608V425.49H577.508V427.8H582.128C582.748 427.8 583.338 427.93 583.898 428.19C584.478 428.43 584.978 428.76 585.398 429.18C585.818 429.6 586.148 430.1 586.388 430.68C586.648 431.24 586.778 431.83 586.778 432.45V439.38C586.778 440.02 586.648 440.62 586.388 441.18C586.148 441.74 585.818 442.23 585.398 442.65C584.978 443.07 584.478 443.4 583.898 443.64C583.338 443.88 582.748 444 582.128 444ZM582.128 439.38V432.45H577.508V439.38H582.128ZM605.294 420.87V430.11V439.38C605.294 440.02 605.164 440.62 604.904 441.18C604.664 441.74 604.334 442.23 603.914 442.65C603.494 443.07 602.994 443.4 602.414 443.64C601.854 443.88 601.264 444 600.644 444H596.024C595.384 444 594.784 443.88 594.224 443.64C593.664 443.4 593.174 443.07 592.754 442.65C592.334 442.23 592.004 441.74 591.764 441.18C591.524 440.62 591.404 440.02 591.404 439.38V437.07H596.024V439.38H600.644V434.76H596.024C595.384 434.76 594.784 434.64 594.224 434.4C593.664 434.14 593.174 433.8 592.754 433.38C592.334 432.96 592.004 432.47 591.764 431.91C591.524 431.35 591.404 430.75 591.404 430.11V420.87H596.024V430.11H600.644V420.87H605.294ZM623.809 444H619.159V434.25L614.899 444H609.919V420.87H614.539V433.26L619.159 422.7V420.87H623.809V444ZM616.849 419.7C617.489 419.7 618.089 419.58 618.649 419.34C619.209 419.1 619.699 418.77 620.119 418.35C620.539 417.93 620.869 417.44 621.109 416.88C621.349 416.32 621.469 415.72 621.469 415.08H619.159C619.159 415.72 618.929 416.27 618.469 416.73C618.029 417.17 617.489 417.39 616.849 417.39C616.209 417.39 615.659 417.17 615.199 416.73C614.759 416.27 614.539 415.72 614.539 415.08H612.229C612.229 415.72 612.349 416.32 612.589 416.88C612.829 417.44 613.159 417.93 613.579 418.35C613.999 418.77 614.489 419.1 615.049 419.34C615.609 419.58 616.209 419.7 616.849 419.7ZM643.611 420.87H655.161V425.49H648.231V430.11H654.021V434.76H648.231V439.38H655.161V444H643.611V420.87ZM672.533 420.87H677.153V439.38H679.463V446.25H674.843V444H658.643V420.87H663.263V439.38H665.573V420.87H670.193V439.38H672.533V420.87ZM687.577 417.39C687.577 416.75 687.347 416.21 686.887 415.77C686.447 415.31 685.907 415.08 685.267 415.08C684.627 415.08 684.077 415.31 683.617 415.77C683.177 416.21 682.957 416.75 682.957 417.39C682.957 418.03 683.177 418.58 683.617 419.04C684.077 419.48 684.627 419.7 685.267 419.7C685.907 419.7 686.447 419.48 686.887 419.04C687.347 418.58 687.577 418.03 687.577 417.39ZM694.507 417.39C694.507 416.75 694.277 416.21 693.817 415.77C693.377 415.31 692.837 415.08 692.197 415.08C691.557 415.08 691.007 415.31 690.547 415.77C690.107 416.21 689.887 416.75 689.887 417.39C689.887 418.03 690.107 418.58 690.547 419.04C691.007 419.48 691.557 419.7 692.197 419.7C692.837 419.7 693.377 419.48 693.817 419.04C694.277 418.58 694.507 418.03 694.507 417.39ZM687.577 430.11H693.367V434.76H687.577V439.38H694.507V444H682.957V420.87H694.507V425.49H687.577V430.11ZM723.515 437.07H718.895V444H714.275V420.87H723.515C724.135 420.87 724.725 420.99 725.285 421.23C725.865 421.47 726.365 421.8 726.785 422.22C727.205 422.64 727.535 423.13 727.775 423.69C728.035 424.25 728.165 424.85 728.165 425.49V432.45C728.165 433.09 728.035 433.69 727.775 434.25C727.535 434.81 727.205 435.3 726.785 435.72C726.365 436.14 725.865 436.47 725.285 436.71C724.725 436.95 724.135 437.07 723.515 437.07ZM723.515 425.49H718.895V432.45H723.515V425.49ZM732.79 441.36L738.67 420.87H743.08L748.99 441.36V444H744.34V442.02L743.59 439.38H738.16L737.41 442.02V444H732.79V441.36ZM742.27 434.76L740.89 429.96L739.51 434.76H742.27ZM767.511 425.49V430.11C767.511 430.55 767.451 430.97 767.331 431.37C767.231 431.75 767.081 432.11 766.881 432.45C767.081 432.79 767.231 433.16 767.331 433.56C767.451 433.94 767.511 434.34 767.511 434.76V439.38C767.511 440.02 767.381 440.62 767.121 441.18C766.881 441.74 766.551 442.23 766.131 442.65C765.711 443.07 765.211 443.4 764.631 443.64C764.071 443.88 763.481 444 762.861 444H753.621V439.38H762.861V434.76H755.001V430.11H762.861V425.49H753.621V420.87H762.861C763.481 420.87 764.071 420.99 764.631 421.23C765.211 421.47 765.711 421.8 766.131 422.22C766.551 422.64 766.881 423.13 767.121 423.69C767.381 424.25 767.511 424.85 767.511 425.49Z" fill="#353A53"/>
<g filter="url(#filter0_dd_5178_19036)">
<rect x="246" y="517" width="757" height="95" rx="20" fill="#EBF3FA"/>
<rect x="246" y="517" width="757" height="95" rx="20" fill="url(#paint0_linear_5178_19036)" fill-opacity="0.2"/>
</g>
<path d="M469.154 549.16H487.674V580H481.474V555.32H475.314V580H469.154V549.16ZM493.882 549.16H509.282V555.32H500.042V561.48H507.762V567.68H500.042V573.84H509.282V580H493.882V549.16ZM527.763 570.76H521.603V580H515.443V549.16H527.763C528.59 549.16 529.377 549.32 530.123 549.64C530.897 549.96 531.563 550.4 532.123 550.96C532.683 551.52 533.123 552.173 533.443 552.92C533.79 553.667 533.963 554.467 533.963 555.32V564.6C533.963 565.453 533.79 566.253 533.443 567C533.123 567.747 532.683 568.4 532.123 568.96C531.563 569.52 530.897 569.96 530.123 570.28C529.377 570.6 528.59 570.76 527.763 570.76ZM527.763 555.32H521.603V564.6H527.763V555.32ZM540.171 549.16H555.571V555.32H546.331V561.48H554.051V567.68H546.331V573.84H555.571V580H540.171V549.16ZM580.252 555.32V561.48C580.252 562.067 580.172 562.627 580.012 563.16C579.879 563.667 579.679 564.147 579.412 564.6C579.679 565.053 579.879 565.547 580.012 566.08C580.172 566.587 580.252 567.12 580.252 567.68V573.84C580.252 574.693 580.079 575.493 579.732 576.24C579.412 576.987 578.972 577.64 578.412 578.2C577.852 578.76 577.186 579.2 576.412 579.52C575.666 579.84 574.879 580 574.052 580H561.732V573.84H574.052V567.68H563.572V561.48H574.052V555.32H561.732V549.16H574.052C574.879 549.16 575.666 549.32 576.412 549.64C577.186 549.96 577.852 550.4 578.412 550.96C578.972 551.52 579.412 552.173 579.732 552.92C580.079 553.667 580.252 554.467 580.252 555.32ZM586.42 576.48L594.26 549.16H600.14L608.02 576.48V580H601.82V577.36L600.82 573.84H593.58L592.58 577.36V580H586.42V576.48ZM599.06 567.68L597.22 561.28L595.38 567.68H599.06ZM614.193 549.16H632.713V580H626.513V555.32H620.353V580H614.193V549.16ZM657.401 549.16V561.48V573.84C657.401 574.693 657.227 575.493 656.881 576.24C656.561 576.987 656.121 577.64 655.561 578.2C655.001 578.76 654.334 579.2 653.561 579.52C652.814 579.84 652.027 580 651.201 580H645.041C644.187 580 643.387 579.84 642.641 579.52C641.894 579.2 641.241 578.76 640.681 578.2C640.121 577.64 639.681 576.987 639.361 576.24C639.041 575.493 638.881 574.693 638.881 573.84V570.76H645.041V573.84H651.201V567.68H645.041C644.187 567.68 643.387 567.52 642.641 567.2C641.894 566.853 641.241 566.4 640.681 565.84C640.121 565.28 639.681 564.627 639.361 563.88C639.041 563.133 638.881 562.333 638.881 561.48V549.16H645.041V561.48H651.201V549.16H657.401ZM675.888 580H669.728C668.875 580 668.075 579.84 667.328 579.52C666.582 579.2 665.928 578.76 665.368 578.2C664.808 577.64 664.368 576.987 664.048 576.24C663.728 575.493 663.568 574.693 663.568 573.84V555.32C663.568 554.467 663.728 553.667 664.048 552.92C664.368 552.173 664.808 551.52 665.368 550.96C665.928 550.4 666.582 549.96 667.328 549.64C668.075 549.32 668.875 549.16 669.728 549.16H675.888C676.715 549.16 677.502 549.32 678.248 549.64C679.022 549.96 679.688 550.4 680.248 550.96C680.808 551.52 681.248 552.173 681.568 552.92C681.915 553.667 682.088 554.467 682.088 555.32V558.4H675.888V555.32H669.728V573.84H675.888V570.76H682.088V573.84C682.088 574.693 681.915 575.493 681.568 576.24C681.248 576.987 680.808 577.64 680.248 578.2C679.688 578.76 679.022 579.2 678.248 579.52C677.502 579.84 676.715 580 675.888 580ZM688.256 555.32V549.16H706.776V555.32H700.576V580H694.416V555.32H688.256ZM719.103 565.68L725.263 551.6V549.16H731.463V580H725.263V567L719.583 580H712.943V549.16H719.103V565.68ZM737.631 555.32V549.16H756.151V555.32H749.951V580H743.791V555.32H737.631ZM774.638 580H765.398H762.318V549.16H768.478V558.4H774.638C775.465 558.4 776.252 558.573 776.998 558.92C777.772 559.24 778.438 559.68 778.998 560.24C779.558 560.8 779.998 561.467 780.318 562.24C780.665 562.987 780.838 563.773 780.838 564.6V573.84C780.838 574.693 780.665 575.493 780.318 576.24C779.998 576.987 779.558 577.64 778.998 578.2C778.438 578.76 777.772 579.2 776.998 579.52C776.252 579.84 775.465 580 774.638 580ZM774.638 573.84V564.6H768.478V573.84H774.638Z" fill="#353A53"/>
</g>
<defs>
<filter id="filter0_dd_5178_19036" x="193.1" y="464.1" width="852.8" height="190.8" filterUnits="userSpaceOnUse" color-interpolation-filters="sRGB">
<feFlood flood-opacity="0" result="BackgroundImageFix"/>
<feColorMatrix in="SourceAlpha" type="matrix" values="0 0 0 0 0 0 0 0 0 0 0 0 0 0 0 0 0 0 127 0" result="hardAlpha"/>
<feOffset dx="5" dy="5"/>
<feGaussianBlur stdDeviation="17.35"/>
<feComposite in2="hardAlpha" operator="out"/>
<feColorMatrix type="matrix" values="0 0 0 0 0.54874 0 0 0 0 0.652025 0 0 0 0 0.742399 0 0 0 0.78 0"/>
<feBlend mode="normal" in2="BackgroundImageFix" result="effect1_dropShadow_5178_19036"/>
<feColorMatrix in="SourceAlpha" type="matrix" values="0 0 0 0 0 0 0 0 0 0 0 0 0 0 0 0 0 0 127 0" result="hardAlpha"/>
<feOffset dx="-5" dy="-5"/>
<feGaussianBlur stdDeviation="23.95"/>
<feComposite in2="hardAlpha" operator="out"/>
<feColorMatrix type="matrix" values="0 0 0 0 1 0 0 0 0 1 0 0 0 0 1 0 0 0 1 0"/>
<feBlend mode="normal" in2="effect1_dropShadow_5178_19036" result="effect2_dropShadow_5178_19036"/>
<feBlend mode="normal" in="SourceGraphic" in2="effect2_dropShadow_5178_19036" result="shape"/>
</filter>
<linearGradient id="paint0_linear_5178_19036" x1="246" y1="517" x2="498" y2="612" gradientUnits="userSpaceOnUse">
<stop stop-color="white"/>
<stop offset="1" stop-color="#EBF3FA"/>
</linearGradient>
<clipPath id="clip0_5178_19036">
<rect width="1250" height="765" fill="white"/>
</clipPath>
</defs>
</svg>
