<svg width="1250" height="765" viewBox="0 0 1250 765" fill="none" xmlns="http://www.w3.org/2000/svg">
<g clip-path="url(#clip0_5122_3591)">
<rect width="1250" height="765" fill="#EBF3FA"/>
<rect x="0.234375" y="761.699" width="1250" height="68" fill="#353A53"/>
<circle cx="69.3589" cy="776.359" r="75.3589" fill="#353A53"/>
<circle cx="220.076" cy="776.359" r="75.3589" fill="#353A53"/>
<circle cx="370.794" cy="776.359" r="75.3589" fill="#353A53"/>
<circle cx="521.511" cy="776.359" r="75.3589" fill="#353A53"/>
<circle cx="672.23" cy="776.359" r="75.3589" fill="#353A53"/>
<circle cx="822.947" cy="776.359" r="75.3589" fill="#353A53"/>
<circle cx="973.666" cy="776.359" r="75.3589" fill="#353A53"/>
<circle cx="1124.38" cy="776.359" r="75.3589" fill="#353A53"/>
<path d="M1275.1 701C1255.11 701 1235.95 708.94 1221.81 723.072C1207.68 737.205 1199.74 756.372 1199.74 776.359C1199.74 796.345 1207.68 815.513 1221.81 829.646C1235.95 843.778 1255.11 851.718 1275.1 851.718L1275.1 776.359V701Z" fill="#353A53"/>
<circle cx="1200.1" cy="-15.6401" r="75.3589" transform="rotate(-180 1200.1 -15.6401)" fill="#353A53"/>
<circle cx="1049.38" cy="-15.6401" r="75.3589" transform="rotate(-180 1049.38 -15.6401)" fill="#353A53"/>
<circle cx="898.665" cy="-15.6401" r="75.3589" transform="rotate(-180 898.665 -15.6401)" fill="#353A53"/>
<circle cx="747.948" cy="-15.6401" r="75.3589" transform="rotate(-180 747.948 -15.6401)" fill="#353A53"/>
<circle cx="597.229" cy="-15.6401" r="75.3589" transform="rotate(-180 597.229 -15.6401)" fill="#353A53"/>
<circle cx="446.512" cy="-15.6401" r="75.3589" transform="rotate(-180 446.512 -15.6401)" fill="#353A53"/>
<circle cx="295.793" cy="-15.6401" r="75.3589" transform="rotate(-180 295.793 -15.6401)" fill="#353A53"/>
<circle cx="145.075" cy="-15.6401" r="75.3589" transform="rotate(-180 145.075 -15.6401)" fill="#353A53"/>
<path d="M-5.6421 59.7187C14.3443 59.7188 33.5121 51.7792 47.6447 37.6466C61.7772 23.5141 69.7168 4.34628 69.7168 -15.6401C69.7168 -35.6266 61.7772 -54.7944 47.6447 -68.9269C33.5122 -83.0595 14.3443 -90.999 -5.64208 -90.999L-5.6421 -15.6401L-5.6421 59.7187Z" fill="#353A53"/>
<path d="M416.2 364.87V374.11V383.38C416.2 384.02 416.07 384.62 415.81 385.18C415.57 385.74 415.24 386.23 414.82 386.65C414.4 387.07 413.9 387.4 413.32 387.64C412.76 387.88 412.17 388 411.55 388H406.93C406.29 388 405.69 387.88 405.13 387.64C404.57 387.4 404.08 387.07 403.66 386.65C403.24 386.23 402.91 385.74 402.67 385.18C402.43 384.62 402.31 384.02 402.31 383.38V381.07H406.93V383.38H411.55V378.76H406.93C406.29 378.76 405.69 378.64 405.13 378.4C404.57 378.14 404.08 377.8 403.66 377.38C403.24 376.96 402.91 376.47 402.67 375.91C402.43 375.35 402.31 374.75 402.31 374.11V364.87H406.93V374.11H411.55V364.87H416.2ZM420.826 364.87H434.716V388H430.066V369.49H425.446V388H420.826V364.87ZM448.581 388H443.961C443.321 388 442.721 387.88 442.161 387.64C441.601 387.4 441.111 387.07 440.691 386.65C440.271 386.23 439.941 385.74 439.701 385.18C439.461 384.62 439.341 384.02 439.341 383.38V369.49C439.341 368.85 439.461 368.25 439.701 367.69C439.941 367.13 440.271 366.64 440.691 366.22C441.111 365.8 441.601 365.47 442.161 365.23C442.721 364.99 443.321 364.87 443.961 364.87H448.581C449.201 364.87 449.791 364.99 450.351 365.23C450.931 365.47 451.431 365.8 451.851 366.22C452.271 366.64 452.601 367.13 452.841 367.69C453.101 368.25 453.231 368.85 453.231 369.49V371.8H448.581V369.49H443.961V383.38H448.581V381.07H453.231V383.38C453.231 384.02 453.101 384.62 452.841 385.18C452.601 385.74 452.271 386.23 451.851 386.65C451.431 387.07 450.931 387.4 450.351 387.64C449.791 387.88 449.201 388 448.581 388ZM457.857 364.87H462.477V381.07H457.857V364.87ZM457.857 383.38H462.477V388H457.857V383.38ZM482.232 369.49V364.87H496.122V369.49H491.472V388H486.852V369.49H482.232ZM510.018 388H503.088H500.778V364.87H505.398V371.8H510.018C510.638 371.8 511.228 371.93 511.788 372.19C512.368 372.43 512.868 372.76 513.288 373.18C513.708 373.6 514.038 374.1 514.277 374.68C514.538 375.24 514.668 375.83 514.668 376.45V383.38C514.668 384.02 514.538 384.62 514.277 385.18C514.038 385.74 513.708 386.23 513.288 386.65C512.868 387.07 512.368 387.4 511.788 387.64C511.228 387.88 510.638 388 510.018 388ZM510.018 383.38V376.45H505.398V383.38H510.018ZM515.808 364.87H520.428V388H515.808V364.87ZM540.181 364.87H554.071V388H549.421V369.49H544.801V388H540.181V364.87ZM567.937 388H563.317C562.677 388 562.077 387.88 561.517 387.64C560.957 387.4 560.467 387.07 560.047 386.65C559.627 386.23 559.297 385.74 559.057 385.18C558.817 384.62 558.697 384.02 558.697 383.38V369.49C558.697 368.85 558.817 368.25 559.057 367.69C559.297 367.13 559.627 366.64 560.047 366.22C560.467 365.8 560.957 365.47 561.517 365.23C562.077 364.99 562.677 364.87 563.317 364.87H567.937C568.557 364.87 569.147 364.99 569.707 365.23C570.287 365.47 570.787 365.8 571.207 366.22C571.627 366.64 571.957 367.13 572.197 367.69C572.457 368.25 572.587 368.85 572.587 369.49V383.38C572.587 384.02 572.457 384.62 572.197 385.18C571.957 385.74 571.627 386.23 571.207 386.65C570.787 387.07 570.287 387.4 569.707 387.64C569.147 387.88 568.557 388 567.937 388ZM567.937 369.49H563.317V383.38H567.937V369.49ZM577.212 369.49V364.87H591.102V369.49H586.452V388H581.832V369.49H577.212ZM595.758 364.87H607.308V369.49H600.378V374.11H606.168V378.76H600.378V383.38H607.308V388H595.758V364.87ZM621.169 381.07H616.549V388H611.929V364.87H621.169C621.789 364.87 622.379 364.99 622.939 365.23C623.519 365.47 624.019 365.8 624.439 366.22C624.859 366.64 625.189 367.13 625.429 367.69C625.689 368.25 625.819 368.85 625.819 369.49V376.45C625.819 377.09 625.689 377.69 625.429 378.25C625.189 378.81 624.859 379.3 624.439 379.72C624.019 380.14 623.519 380.47 622.939 380.71C622.379 380.95 621.789 381.07 621.169 381.07ZM621.169 369.49H616.549V376.45H621.169V369.49ZM635.065 364.87H644.335V388H639.685V381.07H638.065L635.065 387.37V388H630.445V386.32L633.145 380.65C632.345 380.27 631.695 379.72 631.195 379C630.695 378.26 630.445 377.41 630.445 376.45V369.49C630.445 368.85 630.565 368.25 630.805 367.69C631.045 367.13 631.375 366.64 631.795 366.22C632.215 365.8 632.705 365.47 633.265 365.23C633.825 364.99 634.425 364.87 635.065 364.87ZM635.065 376.45H639.685V369.49H635.065V376.45ZM654.75 364.87H664.02V388H659.37V369.49H654.75V383.38C654.75 384.02 654.63 384.62 654.39 385.18C654.15 385.74 653.82 386.23 653.4 386.65C652.98 387.07 652.49 387.4 651.93 387.64C651.37 387.88 650.77 388 650.13 388H647.82V383.38H650.13V369.49C650.13 368.85 650.25 368.25 650.49 367.69C650.73 367.13 651.06 366.64 651.48 366.22C651.9 365.8 652.39 365.47 652.95 365.23C653.51 364.99 654.11 364.87 654.75 364.87ZM691.863 388H682.623V364.87H690.723C691.363 364.87 691.963 364.99 692.523 365.23C693.083 365.47 693.573 365.8 693.993 366.22C694.413 366.64 694.743 367.13 694.983 367.69C695.223 368.25 695.343 368.85 695.343 369.49V374.11C695.343 374.67 695.273 375.13 695.133 375.49C695.553 375.91 695.883 376.4 696.123 376.96C696.383 377.52 696.513 378.12 696.513 378.76V383.38C696.513 384.02 696.383 384.62 696.123 385.18C695.883 385.74 695.553 386.23 695.133 386.65C694.713 387.07 694.213 387.4 693.633 387.64C693.073 387.88 692.483 388 691.863 388ZM691.863 383.38V378.76H687.243V383.38H691.863ZM690.723 369.49H687.243V374.11H690.723V369.49ZM710.378 388H705.758C705.118 388 704.518 387.88 703.958 387.64C703.398 387.4 702.908 387.07 702.488 386.65C702.068 386.23 701.738 385.74 701.498 385.18C701.258 384.62 701.138 384.02 701.138 383.38V369.49C701.138 368.85 701.258 368.25 701.498 367.69C701.738 367.13 702.068 366.64 702.488 366.22C702.908 365.8 703.398 365.47 703.958 365.23C704.518 364.99 705.118 364.87 705.758 364.87H710.378C710.998 364.87 711.588 364.99 712.148 365.23C712.728 365.47 713.228 365.8 713.648 366.22C714.068 366.64 714.398 367.13 714.638 367.69C714.898 368.25 715.028 368.85 715.028 369.49V371.8H710.378V369.49H705.758V383.38H710.378V381.07H715.028V383.38C715.028 384.02 714.898 384.62 714.638 385.18C714.398 385.74 714.068 386.23 713.648 386.65C713.228 387.07 712.728 387.4 712.148 387.64C711.588 387.88 710.998 388 710.378 388ZM719.684 364.87H731.234V369.49H724.304V374.11H730.094V378.76H724.304V383.38H731.234V388H719.684V364.87ZM774.131 364.87V369.49H773.201L769.571 376.45L773.201 383.38H774.131V388H771.821C771.381 388 770.981 387.89 770.621 387.67C770.261 387.45 769.981 387.15 769.781 386.77L765.551 378.76H764.891V388H760.241V378.76H759.581L755.351 386.77C755.151 387.15 754.871 387.45 754.511 387.67C754.151 387.89 753.751 388 753.311 388H751.001V383.38H751.901L755.561 376.45L751.901 369.49H751.001V364.87H753.311C753.751 364.87 754.151 364.98 754.511 365.2C754.871 365.42 755.151 365.72 755.351 366.1L759.581 374.11H760.241V364.87H764.891V374.11H765.551L769.781 366.1C769.981 365.72 770.261 365.42 770.621 365.2C770.981 364.98 771.381 364.87 771.821 364.87H774.131ZM783.366 377.26L787.986 366.7V364.87H792.636V388H787.986V378.25L783.726 388H778.746V364.87H783.366V377.26ZM811.151 369.49V374.11C811.151 374.55 811.091 374.97 810.971 375.37C810.871 375.75 810.721 376.11 810.521 376.45C810.721 376.79 810.871 377.16 810.971 377.56C811.091 377.94 811.151 378.34 811.151 378.76V383.38C811.151 384.02 811.021 384.62 810.761 385.18C810.521 385.74 810.191 386.23 809.771 386.65C809.351 387.07 808.851 387.4 808.271 387.64C807.711 387.88 807.121 388 806.501 388H797.261V383.38H806.501V378.76H798.641V374.11H806.501V369.49H797.261V364.87H806.501C807.121 364.87 807.711 364.99 808.271 365.23C808.851 365.47 809.351 365.8 809.771 366.22C810.191 366.64 810.521 367.13 810.761 367.69C811.021 368.25 811.151 368.85 811.151 369.49ZM820.397 374.11H825.017V364.87H829.667V388H825.017V378.76H820.397V388H815.777V364.87H820.397V374.11ZM838.912 377.26L843.532 366.7V364.87H848.182V388H843.532V378.25L839.272 388H834.292V364.87H838.912V377.26Z" fill="#353A53"/>
<path d="M480.31 420.87H494.2V444H489.55V425.49H484.93V444H480.31V420.87ZM508.066 444H503.446C502.806 444 502.206 443.88 501.646 443.64C501.086 443.4 500.596 443.07 500.176 442.65C499.756 442.23 499.426 441.74 499.186 441.18C498.946 440.62 498.826 440.02 498.826 439.38V425.49C498.826 424.85 498.946 424.25 499.186 423.69C499.426 423.13 499.756 422.64 500.176 422.22C500.596 421.8 501.086 421.47 501.646 421.23C502.206 420.99 502.806 420.87 503.446 420.87H508.066C508.686 420.87 509.276 420.99 509.836 421.23C510.416 421.47 510.916 421.8 511.336 422.22C511.756 422.64 512.086 423.13 512.326 423.69C512.586 424.25 512.716 424.85 512.716 425.49V439.38C512.716 440.02 512.586 440.62 512.326 441.18C512.086 441.74 511.756 442.23 511.336 442.65C510.916 443.07 510.416 443.4 509.836 443.64C509.276 443.88 508.686 444 508.066 444ZM508.066 425.49H503.446V439.38H508.066V425.49ZM517.341 420.87H531.231V444H526.581V425.49H521.961V444H517.341V420.87ZM545.097 437.07H540.477V444H535.857V420.87H545.097C545.717 420.87 546.307 420.99 546.867 421.23C547.447 421.47 547.947 421.8 548.367 422.22C548.787 422.64 549.117 423.13 549.357 423.69C549.617 424.25 549.747 424.85 549.747 425.49V432.45C549.747 433.09 549.617 433.69 549.357 434.25C549.117 434.81 548.787 435.3 548.367 435.72C547.947 436.14 547.447 436.47 546.867 436.71C546.307 436.95 545.717 437.07 545.097 437.07ZM545.097 425.49H540.477V432.45H545.097V425.49ZM563.613 444H558.993C558.353 444 557.753 443.88 557.193 443.64C556.633 443.4 556.143 443.07 555.723 442.65C555.303 442.23 554.973 441.74 554.733 441.18C554.493 440.62 554.373 440.02 554.373 439.38V425.49C554.373 424.85 554.493 424.25 554.733 423.69C554.973 423.13 555.303 422.64 555.723 422.22C556.143 421.8 556.633 421.47 557.193 421.23C557.753 420.99 558.353 420.87 558.993 420.87H563.613C564.233 420.87 564.823 420.99 565.383 421.23C565.963 421.47 566.463 421.8 566.883 422.22C567.303 422.64 567.633 423.13 567.873 423.69C568.133 424.25 568.263 424.85 568.263 425.49V439.38C568.263 440.02 568.133 440.62 567.873 441.18C567.633 441.74 567.303 442.23 566.883 442.65C566.463 443.07 565.963 443.4 565.383 443.64C564.823 443.88 564.233 444 563.613 444ZM563.613 425.49H558.993V439.38H563.613V425.49ZM582.128 444H572.888V420.87H585.608V425.49H577.508V427.8H582.128C582.748 427.8 583.338 427.93 583.898 428.19C584.478 428.43 584.978 428.76 585.398 429.18C585.818 429.6 586.148 430.1 586.388 430.68C586.648 431.24 586.778 431.83 586.778 432.45V439.38C586.778 440.02 586.648 440.62 586.388 441.18C586.148 441.74 585.818 442.23 585.398 442.65C584.978 443.07 584.478 443.4 583.898 443.64C583.338 443.88 582.748 444 582.128 444ZM582.128 439.38V432.45H577.508V439.38H582.128ZM605.294 420.87V430.11V439.38C605.294 440.02 605.164 440.62 604.904 441.18C604.664 441.74 604.334 442.23 603.914 442.65C603.494 443.07 602.994 443.4 602.414 443.64C601.854 443.88 601.264 444 600.644 444H596.024C595.384 444 594.784 443.88 594.224 443.64C593.664 443.4 593.174 443.07 592.754 442.65C592.334 442.23 592.004 441.74 591.764 441.18C591.524 440.62 591.404 440.02 591.404 439.38V437.07H596.024V439.38H600.644V434.76H596.024C595.384 434.76 594.784 434.64 594.224 434.4C593.664 434.14 593.174 433.8 592.754 433.38C592.334 432.96 592.004 432.47 591.764 431.91C591.524 431.35 591.404 430.75 591.404 430.11V420.87H596.024V430.11H600.644V420.87H605.294ZM623.809 444H619.159V434.25L614.899 444H609.919V420.87H614.539V433.26L619.159 422.7V420.87H623.809V444ZM616.849 419.7C617.489 419.7 618.089 419.58 618.649 419.34C619.209 419.1 619.699 418.77 620.119 418.35C620.539 417.93 620.869 417.44 621.109 416.88C621.349 416.32 621.469 415.72 621.469 415.08H619.159C619.159 415.72 618.929 416.27 618.469 416.73C618.029 417.17 617.489 417.39 616.849 417.39C616.209 417.39 615.659 417.17 615.199 416.73C614.759 416.27 614.539 415.72 614.539 415.08H612.229C612.229 415.72 612.349 416.32 612.589 416.88C612.829 417.44 613.159 417.93 613.579 418.35C613.999 418.77 614.489 419.1 615.049 419.34C615.609 419.58 616.209 419.7 616.849 419.7ZM643.611 420.87H655.161V425.49H648.231V430.11H654.021V434.76H648.231V439.38H655.161V444H643.611V420.87ZM672.533 420.87H677.153V439.38H679.463V446.25H674.843V444H658.643V420.87H663.263V439.38H665.573V420.87H670.193V439.38H672.533V420.87ZM687.577 417.39C687.577 416.75 687.347 416.21 686.887 415.77C686.447 415.31 685.907 415.08 685.267 415.08C684.627 415.08 684.077 415.31 683.617 415.77C683.177 416.21 682.957 416.75 682.957 417.39C682.957 418.03 683.177 418.58 683.617 419.04C684.077 419.48 684.627 419.7 685.267 419.7C685.907 419.7 686.447 419.48 686.887 419.04C687.347 418.58 687.577 418.03 687.577 417.39ZM694.507 417.39C694.507 416.75 694.277 416.21 693.817 415.77C693.377 415.31 692.837 415.08 692.197 415.08C691.557 415.08 691.007 415.31 690.547 415.77C690.107 416.21 689.887 416.75 689.887 417.39C689.887 418.03 690.107 418.58 690.547 419.04C691.007 419.48 691.557 419.7 692.197 419.7C692.837 419.7 693.377 419.48 693.817 419.04C694.277 418.58 694.507 418.03 694.507 417.39ZM687.577 430.11H693.367V434.76H687.577V439.38H694.507V444H682.957V420.87H694.507V425.49H687.577V430.11ZM723.515 437.07H718.895V444H714.275V420.87H723.515C724.135 420.87 724.725 420.99 725.285 421.23C725.865 421.47 726.365 421.8 726.785 422.22C727.205 422.64 727.535 423.13 727.775 423.69C728.035 424.25 728.165 424.85 728.165 425.49V432.45C728.165 433.09 728.035 433.69 727.775 434.25C727.535 434.81 727.205 435.3 726.785 435.72C726.365 436.14 725.865 436.47 725.285 436.71C724.725 436.95 724.135 437.07 723.515 437.07ZM723.515 425.49H718.895V432.45H723.515V425.49ZM732.79 441.36L738.67 420.87H743.08L748.99 441.36V444H744.34V442.02L743.59 439.38H738.16L737.41 442.02V444H732.79V441.36ZM742.27 434.76L740.89 429.96L739.51 434.76H742.27ZM767.511 425.49V430.11C767.511 430.55 767.451 430.97 767.331 431.37C767.231 431.75 767.081 432.11 766.881 432.45C767.081 432.79 767.231 433.16 767.331 433.56C767.451 433.94 767.511 434.34 767.511 434.76V439.38C767.511 440.02 767.381 440.62 767.121 441.18C766.881 441.74 766.551 442.23 766.131 442.65C765.711 443.07 765.211 443.4 764.631 443.64C764.071 443.88 763.481 444 762.861 444H753.621V439.38H762.861V434.76H755.001V430.11H762.861V425.49H753.621V420.87H762.861C763.481 420.87 764.071 420.99 764.631 421.23C765.211 421.47 765.711 421.8 766.131 422.22C766.551 422.64 766.881 423.13 767.121 423.69C767.381 424.25 767.511 424.85 767.511 425.49Z" fill="#353A53"/>
<g filter="url(#filter0_dd_5122_3591)">
<rect x="246" y="517" width="757" height="95" rx="20" fill="#EBF3FA"/>
<rect x="246" y="517" width="757" height="95" rx="20" fill="url(#paint0_linear_5122_3591)" fill-opacity="0.2"/>
</g>
<path d="M469.154 549.16H487.674V580H481.474V555.32H475.314V580H469.154V549.16ZM493.882 549.16H509.282V555.32H500.042V561.48H507.762V567.68H500.042V573.84H509.282V580H493.882V549.16ZM527.763 570.76H521.603V580H515.443V549.16H527.763C528.59 549.16 529.377 549.32 530.123 549.64C530.897 549.96 531.563 550.4 532.123 550.96C532.683 551.52 533.123 552.173 533.443 552.92C533.79 553.667 533.963 554.467 533.963 555.32V564.6C533.963 565.453 533.79 566.253 533.443 567C533.123 567.747 532.683 568.4 532.123 568.96C531.563 569.52 530.897 569.96 530.123 570.28C529.377 570.6 528.59 570.76 527.763 570.76ZM527.763 555.32H521.603V564.6H527.763V555.32ZM540.171 549.16H555.571V555.32H546.331V561.48H554.051V567.68H546.331V573.84H555.571V580H540.171V549.16ZM580.252 555.32V561.48C580.252 562.067 580.172 562.627 580.012 563.16C579.879 563.667 579.679 564.147 579.412 564.6C579.679 565.053 579.879 565.547 580.012 566.08C580.172 566.587 580.252 567.12 580.252 567.68V573.84C580.252 574.693 580.079 575.493 579.732 576.24C579.412 576.987 578.972 577.64 578.412 578.2C577.852 578.76 577.186 579.2 576.412 579.52C575.666 579.84 574.879 580 574.052 580H561.732V573.84H574.052V567.68H563.572V561.48H574.052V555.32H561.732V549.16H574.052C574.879 549.16 575.666 549.32 576.412 549.64C577.186 549.96 577.852 550.4 578.412 550.96C578.972 551.52 579.412 552.173 579.732 552.92C580.079 553.667 580.252 554.467 580.252 555.32ZM586.42 576.48L594.26 549.16H600.14L608.02 576.48V580H601.82V577.36L600.82 573.84H593.58L592.58 577.36V580H586.42V576.48ZM599.06 567.68L597.22 561.28L595.38 567.68H599.06ZM614.193 549.16H632.713V580H626.513V555.32H620.353V580H614.193V549.16ZM657.401 549.16V561.48V573.84C657.401 574.693 657.227 575.493 656.881 576.24C656.561 576.987 656.121 577.64 655.561 578.2C655.001 578.76 654.334 579.2 653.561 579.52C652.814 579.84 652.027 580 651.201 580H645.041C644.187 580 643.387 579.84 642.641 579.52C641.894 579.2 641.241 578.76 640.681 578.2C640.121 577.64 639.681 576.987 639.361 576.24C639.041 575.493 638.881 574.693 638.881 573.84V570.76H645.041V573.84H651.201V567.68H645.041C644.187 567.68 643.387 567.52 642.641 567.2C641.894 566.853 641.241 566.4 640.681 565.84C640.121 565.28 639.681 564.627 639.361 563.88C639.041 563.133 638.881 562.333 638.881 561.48V549.16H645.041V561.48H651.201V549.16H657.401ZM675.888 580H669.728C668.875 580 668.075 579.84 667.328 579.52C666.582 579.2 665.928 578.76 665.368 578.2C664.808 577.64 664.368 576.987 664.048 576.24C663.728 575.493 663.568 574.693 663.568 573.84V555.32C663.568 554.467 663.728 553.667 664.048 552.92C664.368 552.173 664.808 551.52 665.368 550.96C665.928 550.4 666.582 549.96 667.328 549.64C668.075 549.32 668.875 549.16 669.728 549.16H675.888C676.715 549.16 677.502 549.32 678.248 549.64C679.022 549.96 679.688 550.4 680.248 550.96C680.808 551.52 681.248 552.173 681.568 552.92C681.915 553.667 682.088 554.467 682.088 555.32V558.4H675.888V555.32H669.728V573.84H675.888V570.76H682.088V573.84C682.088 574.693 681.915 575.493 681.568 576.24C681.248 576.987 680.808 577.64 680.248 578.2C679.688 578.76 679.022 579.2 678.248 579.52C677.502 579.84 676.715 580 675.888 580ZM688.256 555.32V549.16H706.776V555.32H700.576V580H694.416V555.32H688.256ZM719.103 565.68L725.263 551.6V549.16H731.463V580H725.263V567L719.583 580H712.943V549.16H719.103V565.68ZM737.631 555.32V549.16H756.151V555.32H749.951V580H743.791V555.32H737.631ZM774.638 580H765.398H762.318V549.16H768.478V558.4H774.638C775.465 558.4 776.252 558.573 776.998 558.92C777.772 559.24 778.438 559.68 778.998 560.24C779.558 560.8 779.998 561.467 780.318 562.24C780.665 562.987 780.838 563.773 780.838 564.6V573.84C780.838 574.693 780.665 575.493 780.318 576.24C779.998 576.987 779.558 577.64 778.998 578.2C778.438 578.76 777.772 579.2 776.998 579.52C776.252 579.84 775.465 580 774.638 580ZM774.638 573.84V564.6H768.478V573.84H774.638Z" fill="#353A53"/>
<path d="M490.752 212.594C497.067 218.069 499.784 218.538 507.498 217.221C496.542 230.758 493.853 225.304 490.752 212.594Z" fill="black"/>
<path d="M489.941 183.348C494.543 170.531 503.846 154.94 505.187 154.483C515.668 150.916 536.177 181.054 543.958 203.358C546.041 209.33 545.463 216.868 547.102 228.311L550.875 249.498C551.227 251.689 549.685 267.12 549.685 267.12L536.379 253.187C540.952 252.306 544.55 249.462 545.545 245.575C543.802 244.142 544.202 243.479 546.049 242.416L545.823 239.373C543.906 238.382 544.051 237.727 545.718 236.453C544.627 224.752 543.742 219.612 541.477 211.858C542.291 218.553 542.759 221.84 542.014 224.512C539.752 212.114 538.09 207.847 534.819 206.225L528.629 203.879L524.514 200.085L519.643 201.031C520.494 206.208 520.819 208.332 520.197 210.644C519.492 213.27 518.598 213.919 516.885 215.612C514.928 217.548 512.003 218.533 510.654 220.564C505.501 228.32 500.851 233.261 497.448 232.776C492.584 232.082 490.48 228.076 487.58 215.204L489.125 208.523C489.788 216.96 490.584 220.451 492.502 225.328C495.265 231.547 499.762 231.451 504.301 225.394C506.752 222.124 507.741 219.378 511.037 217.282C518.299 212.665 519.668 209.323 516.962 201.989C511.283 190.459 507.557 187.218 499.277 188.752C494.649 189.821 494.519 191.28 496.499 185.331L493.702 188.721L495.302 181.797C496.963 179.901 498.112 179.623 500.423 179.636C507.721 179.677 510.698 191.128 516.162 192.74C517.646 193.287 518.244 193.754 518.704 194.944C519.819 198.816 520.361 199.671 521.233 199.459C522.099 199.2 522.593 198.947 523.307 198.376C521.896 196.401 521.507 195.703 521.987 195.206C522.232 194.964 522.839 195.089 524.166 197.042C524.961 196.115 525.393 195.441 526.13 193.891C526.317 192.151 526.306 191.115 526.157 189.147C525.455 186.822 525.048 185.79 524.238 184.392L523.626 184.997L522.891 185.844C521.422 187.539 520.832 184.373 521.927 184.379L523.265 184.387L523.875 183.904L521.946 180.852L521.46 180.849L520.604 181.696L520.357 182.303C519.987 183.274 518.42 180.589 519.15 180.593L519.88 180.597L520.856 179.994C520.699 178.616 521.402 178.173 521.838 178.419C525.112 180.262 527.265 186.842 528.717 188.188C529.555 189.252 529.557 190.261 528.702 190.864C528.36 191.106 528.519 193.418 528.686 193.662C529.363 194.654 529.955 195.092 531.229 195.744L531.212 198.663C531.28 199.254 531.571 199.76 531.814 199.762L532.787 199.767C533.404 198.189 535.22 199.781 535.216 200.511C535.183 202.38 535.406 202.791 536.301 202.22L539.229 200.777L536.7 196.262L536.087 196.988C535.965 197.109 534.995 196.495 535.12 195.888L535.494 194.309C533.328 190.161 532.358 189.547 532.007 187.112C530.579 185.199 529.99 184.442 529.718 183.207L528.386 182.226C527.232 182.273 526.966 182.043 527.419 181.004C527.542 180.762 528.394 180.767 528.632 181.741L529.963 182.843L530.209 182.358L527.679 178.087C527.014 178.174 526.704 178.446 526.339 178.444C525.852 178.441 525.369 177.83 525.492 177.588C525.738 177.102 526.063 176.797 526.716 176.378L524.42 173.567L523.198 174.534L523.078 174.29L524.178 173.323C520.565 167.496 516.687 164.401 513.294 162.071C511.071 159.8 509.587 159.488 506.366 161.18C501.461 168.208 500.61 167.96 495.302 181.797L493.702 188.721C489.63 195.388 488.377 199.957 489.125 208.523L487.58 215.204C486.16 214.234 484.338 214.578 483.428 216.762C481.455 221.495 486.362 235.754 499.01 236.19C500.226 236.197 518.493 232.529 522.881 230.851C524.222 230.338 524.987 229.939 526.418 229.168L526.917 226.981L529.719 226.267L529.733 223.713C534.131 220.332 534.449 207.196 528.629 203.879L534.819 206.225C538.471 223.137 532.095 236.377 520.042 238.255C506.897 239.699 495.685 243.47 484.919 232.705C487.695 239.603 490.17 242.975 500.049 246.049C509.065 247.097 513.901 247.348 523.029 247.881L523.638 247.642L524.74 246.431L525.104 246.555L524.125 247.644C526.289 248.042 528.108 247.672 533.873 244.537C533.406 241.128 533.651 240.764 535.835 241.872C537.119 240.441 537.792 238.852 538.916 234.712C539.114 233.983 540.897 234.849 540.239 237.396C538.923 241.338 538.055 243.018 536.064 244.306L536.379 253.187L549.685 267.12C522.784 279.222 488.136 274.782 472.324 267.119C472.334 265.295 468.573 243.631 489.941 183.348Z" fill="black"/>
<path d="M521.937 204.936C522.698 204.751 523.124 204.647 523.885 204.461C523.865 204.675 523.824 204.785 523.762 204.825C523.135 205.23 522.71 205.16 521.937 204.936Z" fill="black"/>
<path d="M522.875 188.395C523.17 188.103 523.364 187.911 524.093 188.037C524.192 188.111 523.422 189.152 523.478 189.372C523.534 189.596 524.578 188.405 524.698 188.77C524.817 189.136 524.629 189.786 524.447 189.985C523.346 191.195 521.774 189.484 522.875 188.395Z" fill="black"/>
<path d="M528.242 208.26C528.485 208.2 528.727 208.48 528.725 208.749C528.724 209.017 528.141 209.11 527.872 209.109C527.603 209.107 527.268 208.401 527.269 208.132C527.271 207.864 527.754 208.378 528.242 208.26Z" fill="black"/>
<circle cx="531.615" cy="213.622" r="0.9731" transform="rotate(-89.6773 531.615 213.622)" fill="black"/>
<path d="M524.672 192.304C525.138 192.571 525.304 193.173 525.037 193.639C524.769 194.105 524.17 194.259 523.704 193.992C523.237 193.725 522.829 193 523.096 192.533C523.364 192.067 524.205 192.036 524.672 192.304Z" fill="black"/>
<path d="M485.835 216.975C486.347 216.814 487.153 217.125 487.314 217.637C487.475 218.15 486.93 218.671 486.418 218.832C485.905 218.993 485.095 218.801 484.934 218.288C484.773 217.775 485.322 217.136 485.835 216.975Z" fill="black"/>
<path d="M486.559 222.488C487.094 222.44 487.847 222.685 487.894 223.221C487.942 223.756 487.298 224.148 486.763 224.196C486.228 224.243 485.478 223.882 485.43 223.347C485.383 222.812 486.024 222.536 486.559 222.488Z" fill="black"/>
<path d="M498.245 242.021C498.781 241.973 499.392 241.974 499.439 242.51C499.487 243.045 498.843 243.437 498.308 243.485C497.773 243.532 497.023 243.171 496.975 242.636C496.928 242.101 497.71 242.069 498.245 242.021Z" fill="black"/>
<path d="M488.317 227.115C488.792 226.862 489.805 226.786 490.057 227.261C490.309 227.735 489.644 228.356 489.17 228.608C488.695 228.86 487.627 228.815 487.375 228.341C487.123 227.866 487.843 227.367 488.317 227.115Z" fill="black"/>
<path d="M530.877 193.311L530.881 192.581L531.368 192.583L532.34 192.711L531.363 193.313L530.877 193.311Z" fill="black"/>
<path d="M521.113 177.319L520.868 177.561L519.901 176.582L520.146 176.34L521.113 177.319Z" fill="black"/>
<path d="M503.858 260.915C488.888 262.412 482.401 253.677 483.924 236.597L488.024 243.066C487.605 246.22 488.494 245.988 489.961 244.659L496.749 248.833C503.673 252.819 510.009 253.73 526.774 252.408L534.209 249.774C534.154 259.504 527.42 267.278 523.052 265.402C515.91 262.335 507.874 260.513 503.858 260.915Z" fill="#EBF3FA"/>
<path d="M491.5 248.548C492.036 248.501 492.788 248.746 492.836 249.281C492.883 249.816 492.24 250.209 491.705 250.256C491.169 250.304 490.419 249.943 490.372 249.408C490.324 248.872 490.965 248.596 491.5 248.548Z" fill="black"/>
<path d="M496.25 251.257C496.786 251.209 497.636 251.941 497.683 252.476C497.731 253.012 497.087 253.404 496.552 253.452C496.017 253.499 495.267 253.138 495.219 252.603C495.172 252.068 495.715 251.304 496.25 251.257Z" fill="black"/>
<path d="M502.612 256.985C502.129 257.22 501.074 256.836 500.84 256.353C500.606 255.869 501.069 255.274 501.552 255.04C502.036 254.806 502.865 254.878 503.1 255.361C503.334 255.845 503.096 256.751 502.612 256.985Z" fill="black"/>
<path d="M507.98 258.164C507.496 258.398 506.543 258.247 506.309 257.763C506.075 257.28 505.954 256.66 506.438 256.426C506.922 256.192 508.511 256.685 508.745 257.169C508.979 257.652 508.464 257.93 507.98 258.164Z" fill="black"/>
<path d="M514.067 259.896C513.584 260.13 512.631 259.978 512.397 259.495C512.162 259.011 512.042 258.392 512.526 258.157C513.009 257.923 514.217 257.932 514.451 258.416C514.686 258.9 514.551 259.662 514.067 259.896Z" fill="black"/>
<path d="M518.548 259.815C519.011 259.543 519.973 259.618 520.246 260.081C520.518 260.545 520.374 261.332 519.911 261.604C519.447 261.877 518.555 261.784 518.283 261.321C518.011 260.857 518.085 260.087 518.548 259.815Z" fill="black"/>
<path d="M524.412 260.914C524.876 260.642 526.083 260.948 526.356 261.412C526.628 261.875 526.237 262.56 525.774 262.832C525.31 263.104 523.944 263.076 523.672 262.613C523.4 262.149 523.949 261.186 524.412 260.914Z" fill="black"/>
<path d="M492.457 207.562L511.922 196.271M492.457 207.562L511.922 196.271" stroke="black" stroke-width="1.9462"/>
<path d="M507.834 211.645L496.543 192.179M507.834 211.645L496.543 192.179" stroke="black" stroke-width="1.9462"/>
<path d="M504.801 275.39V274.295H518.668V275.39C512.221 277.701 510.396 277.701 504.801 275.39Z" fill="black"/>
<path d="M518.668 276.484C513.51 279.209 508.207 278.066 504.801 276.484C500.544 276.485 493.855 282.81 497.99 286.337C499.207 287.375 502.977 278.917 504.802 286.337C507.356 287.391 513.704 288.867 518.668 286.337C520.492 278.917 524.263 287.375 525.479 286.337C529.615 282.81 522.925 276.484 518.668 276.484Z" fill="black"/>
<path d="M504.801 276.484C508.207 278.066 513.51 279.209 518.668 276.484C522.925 276.484 529.615 282.81 525.479 286.337C524.263 287.375 520.492 278.917 518.668 286.337C513.704 288.867 507.356 287.391 504.802 286.337C502.977 278.917 499.207 287.375 497.99 286.337C493.855 282.81 500.545 276.484 504.802 276.484M504.801 274.295V275.39C510.396 277.701 512.221 277.701 518.668 275.39V274.295H504.801Z" stroke="black" stroke-width="0.243275"/>
<path d="M504.801 275.39V274.295H518.668V275.39C512.221 277.701 510.396 277.701 504.801 275.39Z" fill="black"/>
<path d="M518.668 276.484C513.51 279.209 508.207 278.066 504.801 276.484C500.544 276.485 493.855 282.81 497.99 286.337C499.207 287.375 502.977 278.917 504.802 286.337C507.356 287.391 513.704 288.867 518.668 286.337C520.492 278.917 524.263 287.375 525.479 286.337C529.615 282.81 522.925 276.484 518.668 276.484Z" fill="black"/>
<path d="M504.801 276.484C508.207 278.066 513.51 279.209 518.668 276.484C522.925 276.484 529.615 282.81 525.479 286.337C524.263 287.375 520.492 278.917 518.668 286.337C513.704 288.867 507.356 287.391 504.802 286.337C502.977 278.917 499.207 287.375 497.99 286.337C493.855 282.81 500.545 276.484 504.802 276.484M504.801 274.295V275.39C510.396 277.701 512.221 277.701 518.668 275.39V274.295H504.801Z" stroke="black" stroke-width="0.243275"/>
<path d="M518.668 287.311C513.51 290.035 508.207 288.892 504.801 287.311C500.544 287.311 493.855 293.636 497.99 297.163C499.207 298.201 502.977 289.743 504.802 297.163C507.356 298.217 513.704 299.693 518.668 297.163C520.492 289.743 524.263 298.201 525.479 297.163C529.615 293.636 522.925 287.311 518.668 287.311Z" fill="black"/>
<path d="M504.801 287.311C508.207 288.892 513.51 290.035 518.668 287.311C522.925 287.311 529.615 293.636 525.479 297.163C524.263 298.201 520.492 289.743 518.668 297.163C513.704 299.693 507.356 298.217 504.802 297.163C502.977 289.743 499.207 298.201 497.99 297.163C493.855 293.636 500.545 287.311 504.802 287.311" stroke="black" stroke-width="0.243275"/>
<path d="M544.101 187.346L543.688 187.262L543.993 187.553L545.092 188.602L545.209 188.714L545.284 188.57L545.673 187.823L545.748 187.68L545.59 187.648L544.101 187.346Z" fill="white" stroke="black" stroke-width="0.243275" stroke-miterlimit="16"/>
<path d="M545.076 186.354L544.663 186.27L544.967 186.561L546.066 187.61L546.183 187.722L546.258 187.578L546.648 186.831L546.723 186.688L546.564 186.656L545.076 186.354Z" fill="white" stroke="black" stroke-width="0.243275" stroke-miterlimit="16"/>
<path d="M545.318 184.668L544.905 184.584L545.21 184.875L546.308 185.924L546.425 186.036L546.5 185.893L546.89 185.146L546.965 185.002L546.807 184.97L545.318 184.668Z" fill="white" stroke="black" stroke-width="0.243275" stroke-miterlimit="16"/>
<path d="M543.915 182.588L542.905 182.257L543.814 182.808L546.963 184.714L547.074 184.781L547.134 184.666L547.524 183.919L547.59 183.792L547.454 183.748L543.915 182.588Z" fill="white" stroke="black" stroke-width="0.243275" stroke-miterlimit="16"/>
<path d="M541.97 188.178L540.96 187.847L541.869 188.398L545.018 190.304L545.129 190.371L545.189 190.256L545.579 189.509L545.645 189.382L545.509 189.337L541.97 188.178Z" fill="white" stroke="black" stroke-width="0.243275" stroke-miterlimit="16"/>
<path d="M545.702 182.383L544.692 182.052L545.601 182.603L548.75 184.509L548.861 184.576L548.921 184.461L549.311 183.714L549.377 183.587L549.241 183.542L545.702 182.383Z" fill="white" stroke="black" stroke-width="0.243275" stroke-miterlimit="16"/>
<path d="M546.917 181.91L545.907 181.579L546.816 182.13L549.965 184.037L550.076 184.104L550.136 183.989L550.526 183.242L550.592 183.114L550.456 183.07L546.917 181.91Z" fill="white" stroke="black" stroke-width="0.243275" stroke-miterlimit="16"/>
<path d="M547.644 178.744L546.633 178.413L547.543 178.964L550.692 180.87L550.802 180.938L550.862 180.823L551.252 180.076L551.319 179.948L551.182 179.904L547.644 178.744Z" fill="white" stroke="black" stroke-width="0.243275" stroke-miterlimit="16"/>
<path d="M548.13 175.578L547.12 175.247L548.029 175.798L551.178 177.704L551.289 177.772L551.349 177.657L551.739 176.91L551.805 176.782L551.669 176.738L548.13 175.578Z" fill="white" stroke="black" stroke-width="0.243275" stroke-miterlimit="16"/>
<path d="M548.13 177.043L547.12 176.712L548.029 177.263L551.178 179.169L551.289 179.236L551.349 179.122L551.739 178.374L551.805 178.247L551.669 178.203L548.13 177.043Z" fill="white" stroke="black" stroke-width="0.243275" stroke-miterlimit="16"/>
<path d="M548.618 172.901L547.608 172.57L548.517 173.12L551.666 175.027L551.777 175.094L551.837 174.979L552.227 174.232L552.293 174.105L552.157 174.06L548.618 172.901Z" fill="white" stroke="black" stroke-width="0.243275" stroke-miterlimit="16"/>
<path d="M540.301 188.475L541.096 188.255L540.399 188.695L537.986 190.217L537.875 190.288L537.814 190.171L537.424 189.424L537.354 189.29L537.499 189.25L540.301 188.475Z" fill="white" stroke="black" stroke-width="0.243275" stroke-miterlimit="16"/>
<path d="M538.838 185.204L539.633 184.984L538.936 185.424L536.523 186.946L536.412 187.016L536.351 186.899L535.961 186.152L535.891 186.019L536.036 185.979L538.838 185.204Z" fill="white" stroke="black" stroke-width="0.243275" stroke-miterlimit="16"/>
<path d="M539.565 186.67L540.359 186.451L539.662 186.891L537.25 188.413L537.138 188.483L537.077 188.366L536.687 187.619L536.618 187.486L536.763 187.445L539.565 186.67Z" fill="white" stroke="black" stroke-width="0.243275" stroke-miterlimit="16"/>
<path d="M536.647 183.254L537.441 183.035L536.744 183.475L534.332 184.997L534.22 185.067L534.159 184.95L533.769 184.203L533.7 184.069L533.845 184.029L536.647 183.254Z" fill="white" stroke="black" stroke-width="0.243275" stroke-miterlimit="16"/>
<path d="M535.914 179.85L536.709 179.63L536.012 180.07L533.6 181.592L533.488 181.663L533.427 181.546L533.037 180.799L532.967 180.665L533.112 180.625L535.914 179.85Z" fill="white" stroke="black" stroke-width="0.243275" stroke-miterlimit="16"/>
<path d="M532.997 176.922L533.791 176.703L533.094 177.142L530.682 178.665L530.57 178.735L530.509 178.618L530.119 177.871L530.049 177.737L530.194 177.697L532.997 176.922Z" fill="white" stroke="black" stroke-width="0.243275" stroke-miterlimit="16"/>
<path d="M531.538 174.26L532.332 174.041L531.635 174.48L529.223 176.002L529.111 176.073L529.05 175.956L528.66 175.209L528.59 175.075L528.735 175.035L531.538 174.26Z" fill="white" stroke="black" stroke-width="0.243275" stroke-miterlimit="16"/>
<path d="M529.104 171.819L529.898 171.599L529.201 172.039L526.789 173.561L526.677 173.631L526.616 173.514L526.226 172.767L526.157 172.634L526.302 172.594L529.104 171.819Z" fill="white" stroke="black" stroke-width="0.243275" stroke-miterlimit="16"/>
<path d="M529.104 170.118L529.898 169.898L529.201 170.338L526.789 171.86L526.677 171.93L526.616 171.813L526.226 171.066L526.157 170.933L526.302 170.893L529.104 170.118Z" fill="white" stroke="black" stroke-width="0.243275" stroke-miterlimit="16"/>
<path d="M530.08 173.284L530.875 173.064L530.178 173.504L527.766 175.026L527.654 175.096L527.593 174.979L527.203 174.232L527.133 174.099L527.278 174.059L530.08 173.284Z" fill="white" stroke="black" stroke-width="0.243275" stroke-miterlimit="16"/>
<path d="M532.997 175.711L533.791 175.492L533.094 175.932L530.682 177.454L530.57 177.524L530.509 177.407L530.119 176.66L530.049 176.527L530.194 176.486L532.997 175.711Z" fill="white" stroke="black" stroke-width="0.243275" stroke-miterlimit="16"/>
<path d="M525.702 166.229L526.496 166.009L525.799 166.449L523.387 167.971L523.275 168.042L523.214 167.925L522.824 167.178L522.754 167.044L522.899 167.004L525.702 166.229Z" fill="white" stroke="black" stroke-width="0.243275" stroke-miterlimit="16"/>
<path d="M522.78 162.106L523.574 161.886L522.877 162.326L520.465 163.848L520.353 163.919L520.292 163.802L519.902 163.054L519.832 162.921L519.977 162.881L522.78 162.106Z" fill="white" stroke="black" stroke-width="0.243275" stroke-miterlimit="16"/>
<path d="M553.582 193.291L544.824 217.74C543.851 203.63 532.66 180.276 538.499 189.764C543.17 197.354 548.554 181.736 550.663 172.978C551.068 171.396 552.22 168.623 553.582 170.18C554.944 171.737 555.366 176.911 555.406 179.303L553.582 193.291Z" fill="black" stroke="black" stroke-width="0.243275"/>
<path d="M547.743 199.623L544.094 207.043C545.651 209.476 545.067 213.247 544.58 214.828L550.662 199.259C554.311 188.676 554.676 178.945 553.703 175.904C552.925 173.471 552.568 174.161 552.487 174.809C552.122 176.958 551.465 181.864 551.757 184.297C552.049 186.73 550.5 193.906 549.689 197.191L547.743 199.623Z" fill="white"/>
<path d="M548.842 195.726C547.479 196.505 545.436 200.186 544.584 201.93L541.422 196.943C547.455 199.473 549.126 191.185 549.207 186.725C549.653 189.401 550.204 194.948 548.842 195.726Z" fill="white" stroke="black" stroke-width="0.243275"/>
<path d="M534.242 183.199L536.431 187.335L536.188 188.43L517.699 161.669L518.916 160.818L522.443 165.075L525.849 169.941L531.201 176.996L534.242 183.199Z" fill="black"/>
<path d="M601.752 212.594C608.067 218.069 610.784 218.538 618.498 217.221C607.542 230.758 604.853 225.304 601.752 212.594Z" fill="black"/>
<path d="M600.941 183.348C605.543 170.531 614.846 154.94 616.187 154.483C626.668 150.916 647.177 181.054 654.958 203.358C657.041 209.33 656.463 216.868 658.102 228.311L661.875 249.498C662.227 251.689 660.685 267.12 660.685 267.12L647.379 253.187C651.952 252.306 655.55 249.462 656.545 245.575C654.802 244.142 655.202 243.479 657.049 242.416L656.823 239.373C654.906 238.382 655.051 237.727 656.718 236.453C655.627 224.752 654.742 219.612 652.477 211.858C653.291 218.553 653.759 221.84 653.014 224.512C650.752 212.114 649.09 207.847 645.819 206.225L639.629 203.879L635.514 200.085L630.643 201.031C631.494 206.208 631.819 208.332 631.197 210.644C630.492 213.27 629.598 213.919 627.885 215.612C625.928 217.548 623.003 218.533 621.654 220.564C616.501 228.32 611.851 233.261 608.448 232.776C603.584 232.082 601.48 228.076 598.58 215.204L600.125 208.523C600.788 216.96 601.584 220.451 603.502 225.328C606.265 231.547 610.762 231.451 615.301 225.394C617.752 222.124 618.741 219.378 622.037 217.282C629.299 212.665 630.668 209.323 627.962 201.989C622.283 190.459 618.557 187.218 610.277 188.752C605.649 189.821 605.519 191.28 607.499 185.331L604.702 188.721L606.302 181.797C607.963 179.901 609.112 179.623 611.423 179.636C618.721 179.677 621.698 191.128 627.162 192.74C628.646 193.287 629.244 193.754 629.704 194.944C630.819 198.816 631.361 199.671 632.233 199.459C633.099 199.2 633.593 198.947 634.307 198.376C632.896 196.401 632.507 195.703 632.987 195.206C633.232 194.964 633.839 195.089 635.166 197.042C635.961 196.115 636.393 195.441 637.13 193.891C637.317 192.151 637.306 191.115 637.157 189.147C636.455 186.822 636.048 185.79 635.238 184.392L634.626 184.997L633.891 185.844C632.422 187.539 631.832 184.373 632.927 184.379L634.265 184.387L634.875 183.904L632.946 180.852L632.46 180.849L631.604 181.696L631.357 182.303C630.987 183.274 629.42 180.589 630.15 180.593L630.88 180.597L631.856 179.994C631.699 178.616 632.402 178.173 632.838 178.419C636.112 180.262 638.265 186.842 639.717 188.188C640.555 189.252 640.557 190.261 639.702 190.864C639.36 191.106 639.519 193.418 639.686 193.662C640.363 194.654 640.955 195.092 642.229 195.744L642.212 198.663C642.28 199.254 642.571 199.76 642.814 199.762L643.787 199.767C644.404 198.189 646.22 199.781 646.216 200.511C646.183 202.38 646.406 202.791 647.301 202.22L650.229 200.777L647.7 196.262L647.087 196.988C646.965 197.109 645.995 196.495 646.12 195.888L646.494 194.309C644.328 190.161 643.358 189.547 643.007 187.112C641.579 185.199 640.99 184.442 640.718 183.207L639.386 182.226C638.232 182.273 637.966 182.043 638.419 181.004C638.542 180.762 639.394 180.767 639.632 181.741L640.963 182.843L641.209 182.358L638.679 178.087C638.014 178.174 637.704 178.446 637.339 178.444C636.852 178.441 636.369 177.83 636.492 177.588C636.738 177.102 637.063 176.797 637.716 176.378L635.42 173.567L634.198 174.534L634.078 174.29L635.178 173.323C631.565 167.496 627.687 164.401 624.294 162.071C622.071 159.8 620.587 159.488 617.366 161.18C612.461 168.208 611.61 167.96 606.302 181.797L604.702 188.721C600.63 195.388 599.377 199.957 600.125 208.523L598.58 215.204C597.16 214.234 595.338 214.578 594.428 216.762C592.455 221.495 597.362 235.754 610.01 236.19C611.226 236.197 629.493 232.529 633.881 230.851C635.222 230.338 635.987 229.939 637.418 229.168L637.917 226.981L640.719 226.267L640.733 223.713C645.131 220.332 645.449 207.196 639.629 203.879L645.819 206.225C649.471 223.137 643.095 236.377 631.042 238.255C617.897 239.699 606.685 243.47 595.919 232.705C598.695 239.603 601.17 242.975 611.049 246.049C620.065 247.097 624.901 247.348 634.029 247.881L634.638 247.642L635.74 246.431L636.104 246.555L635.125 247.644C637.289 248.042 639.108 247.672 644.873 244.537C644.406 241.128 644.651 240.764 646.835 241.872C648.119 240.441 648.792 238.852 649.916 234.712C650.114 233.983 651.897 234.849 651.239 237.396C649.923 241.338 649.055 243.018 647.064 244.306L647.379 253.187L660.685 267.12C633.784 279.222 599.136 274.782 583.324 267.119C583.334 265.295 579.573 243.631 600.941 183.348Z" fill="black"/>
<path d="M632.937 204.936C633.698 204.751 634.124 204.647 634.885 204.461C634.865 204.675 634.824 204.785 634.762 204.825C634.135 205.23 633.71 205.16 632.937 204.936Z" fill="black"/>
<path d="M633.875 188.395C634.17 188.103 634.364 187.911 635.093 188.037C635.192 188.111 634.422 189.152 634.478 189.372C634.534 189.596 635.578 188.405 635.698 188.77C635.817 189.136 635.629 189.786 635.447 189.985C634.346 191.195 632.774 189.484 633.875 188.395Z" fill="black"/>
<path d="M639.242 208.26C639.485 208.2 639.727 208.48 639.725 208.749C639.724 209.017 639.141 209.11 638.872 209.109C638.603 209.107 638.268 208.401 638.269 208.132C638.271 207.864 638.754 208.378 639.242 208.26Z" fill="black"/>
<circle cx="642.615" cy="213.622" r="0.9731" transform="rotate(-89.6773 642.615 213.622)" fill="black"/>
<path d="M635.672 192.304C636.138 192.571 636.304 193.173 636.037 193.639C635.769 194.105 635.17 194.259 634.704 193.992C634.237 193.725 633.829 193 634.096 192.533C634.364 192.067 635.205 192.036 635.672 192.304Z" fill="black"/>
<path d="M596.835 216.975C597.347 216.814 598.153 217.125 598.314 217.637C598.475 218.15 597.93 218.671 597.418 218.832C596.905 218.993 596.095 218.801 595.934 218.288C595.773 217.775 596.322 217.136 596.835 216.975Z" fill="black"/>
<path d="M597.559 222.488C598.094 222.44 598.847 222.685 598.894 223.221C598.942 223.756 598.298 224.148 597.763 224.196C597.228 224.243 596.478 223.882 596.43 223.347C596.383 222.812 597.024 222.536 597.559 222.488Z" fill="black"/>
<path d="M609.245 242.021C609.781 241.973 610.392 241.974 610.439 242.51C610.487 243.045 609.843 243.437 609.308 243.485C608.773 243.532 608.023 243.171 607.975 242.636C607.928 242.101 608.71 242.069 609.245 242.021Z" fill="black"/>
<path d="M599.317 227.115C599.792 226.862 600.805 226.786 601.057 227.261C601.309 227.735 600.644 228.356 600.17 228.608C599.695 228.86 598.627 228.815 598.375 228.341C598.123 227.866 598.843 227.367 599.317 227.115Z" fill="black"/>
<path d="M641.877 193.311L641.881 192.581L642.368 192.583L643.34 192.711L642.363 193.313L641.877 193.311Z" fill="black"/>
<path d="M632.113 177.319L631.868 177.561L630.901 176.582L631.146 176.34L632.113 177.319Z" fill="black"/>
<path d="M614.858 260.915C599.888 262.412 593.401 253.677 594.924 236.597L599.024 243.066C598.605 246.22 599.494 245.988 600.961 244.659L607.749 248.833C614.673 252.819 621.009 253.73 637.774 252.408L645.209 249.774C645.154 259.504 638.42 267.278 634.052 265.402C626.91 262.335 618.874 260.513 614.858 260.915Z" fill="#EBF3FA"/>
<path d="M602.5 248.548C603.036 248.501 603.788 248.746 603.836 249.281C603.883 249.816 603.24 250.209 602.705 250.256C602.169 250.304 601.419 249.943 601.372 249.408C601.324 248.872 601.965 248.596 602.5 248.548Z" fill="black"/>
<path d="M607.25 251.257C607.786 251.209 608.636 251.941 608.683 252.476C608.731 253.012 608.087 253.404 607.552 253.452C607.017 253.499 606.267 253.138 606.219 252.603C606.172 252.068 606.715 251.304 607.25 251.257Z" fill="black"/>
<path d="M613.612 256.985C613.129 257.22 612.074 256.836 611.84 256.353C611.606 255.869 612.069 255.274 612.552 255.04C613.036 254.806 613.865 254.878 614.1 255.361C614.334 255.845 614.096 256.751 613.612 256.985Z" fill="black"/>
<path d="M618.98 258.164C618.496 258.398 617.543 258.247 617.309 257.763C617.075 257.28 616.954 256.66 617.438 256.426C617.922 256.192 619.511 256.685 619.745 257.169C619.979 257.652 619.464 257.93 618.98 258.164Z" fill="black"/>
<path d="M625.067 259.896C624.584 260.13 623.631 259.978 623.397 259.495C623.162 259.011 623.042 258.392 623.526 258.157C624.009 257.923 625.217 257.932 625.451 258.416C625.686 258.9 625.551 259.662 625.067 259.896Z" fill="black"/>
<path d="M629.548 259.815C630.011 259.543 630.973 259.618 631.246 260.081C631.518 260.545 631.374 261.332 630.911 261.604C630.447 261.877 629.555 261.784 629.283 261.321C629.011 260.857 629.085 260.087 629.548 259.815Z" fill="black"/>
<path d="M635.412 260.914C635.876 260.642 637.083 260.948 637.356 261.412C637.628 261.875 637.237 262.56 636.774 262.832C636.31 263.104 634.944 263.076 634.672 262.613C634.4 262.149 634.949 261.186 635.412 260.914Z" fill="black"/>
<path d="M603.457 207.562L622.922 196.271M603.457 207.562L622.922 196.271" stroke="black" stroke-width="1.9462"/>
<path d="M618.834 211.645L607.543 192.179M618.834 211.645L607.543 192.179" stroke="black" stroke-width="1.9462"/>
<path d="M615.801 275.39V274.295H629.668V275.39C623.221 277.701 621.396 277.701 615.801 275.39Z" fill="black"/>
<path d="M629.668 276.484C624.51 279.209 619.207 278.066 615.801 276.484C611.544 276.485 604.855 282.81 608.99 286.337C610.207 287.375 613.977 278.917 615.802 286.337C618.356 287.391 624.704 288.867 629.668 286.337C631.492 278.917 635.263 287.375 636.479 286.337C640.615 282.81 633.925 276.484 629.668 276.484Z" fill="black"/>
<path d="M615.801 276.484C619.207 278.066 624.51 279.209 629.668 276.484C633.925 276.484 640.615 282.81 636.479 286.337C635.263 287.375 631.492 278.917 629.668 286.337C624.704 288.867 618.356 287.391 615.802 286.337C613.977 278.917 610.207 287.375 608.99 286.337C604.855 282.81 611.545 276.484 615.802 276.484M615.801 274.295V275.39C621.396 277.701 623.221 277.701 629.668 275.39V274.295H615.801Z" stroke="black" stroke-width="0.243275"/>
<path d="M615.801 275.39V274.295H629.668V275.39C623.221 277.701 621.396 277.701 615.801 275.39Z" fill="black"/>
<path d="M629.668 276.484C624.51 279.209 619.207 278.066 615.801 276.484C611.544 276.485 604.855 282.81 608.99 286.337C610.207 287.375 613.977 278.917 615.802 286.337C618.356 287.391 624.704 288.867 629.668 286.337C631.492 278.917 635.263 287.375 636.479 286.337C640.615 282.81 633.925 276.484 629.668 276.484Z" fill="black"/>
<path d="M615.801 276.484C619.207 278.066 624.51 279.209 629.668 276.484C633.925 276.484 640.615 282.81 636.479 286.337C635.263 287.375 631.492 278.917 629.668 286.337C624.704 288.867 618.356 287.391 615.802 286.337C613.977 278.917 610.207 287.375 608.99 286.337C604.855 282.81 611.545 276.484 615.802 276.484M615.801 274.295V275.39C621.396 277.701 623.221 277.701 629.668 275.39V274.295H615.801Z" stroke="black" stroke-width="0.243275"/>
<path d="M629.668 287.311C624.51 290.035 619.207 288.892 615.801 287.311C611.544 287.311 604.855 293.636 608.99 297.163C610.207 298.201 613.977 289.743 615.802 297.163C618.356 298.217 624.704 299.693 629.668 297.163C631.492 289.743 635.263 298.201 636.479 297.163C640.615 293.636 633.925 287.311 629.668 287.311Z" fill="black"/>
<path d="M615.801 287.311C619.207 288.892 624.51 290.035 629.668 287.311C633.925 287.311 640.615 293.636 636.479 297.163C635.263 298.201 631.492 289.743 629.668 297.163C624.704 299.693 618.356 298.217 615.802 297.163C613.977 289.743 610.207 298.201 608.99 297.163C604.855 293.636 611.545 287.311 615.802 287.311" stroke="black" stroke-width="0.243275"/>
<path d="M655.101 187.346L654.688 187.262L654.993 187.553L656.092 188.602L656.209 188.714L656.284 188.57L656.673 187.823L656.748 187.68L656.59 187.648L655.101 187.346Z" fill="white" stroke="black" stroke-width="0.243275" stroke-miterlimit="16"/>
<path d="M656.076 186.354L655.663 186.27L655.967 186.561L657.066 187.61L657.183 187.722L657.258 187.578L657.648 186.831L657.723 186.688L657.564 186.656L656.076 186.354Z" fill="white" stroke="black" stroke-width="0.243275" stroke-miterlimit="16"/>
<path d="M656.318 184.668L655.905 184.584L656.21 184.875L657.308 185.924L657.425 186.036L657.5 185.893L657.89 185.146L657.965 185.002L657.807 184.97L656.318 184.668Z" fill="white" stroke="black" stroke-width="0.243275" stroke-miterlimit="16"/>
<path d="M654.915 182.588L653.905 182.257L654.814 182.808L657.963 184.714L658.074 184.781L658.134 184.666L658.524 183.919L658.59 183.792L658.454 183.748L654.915 182.588Z" fill="white" stroke="black" stroke-width="0.243275" stroke-miterlimit="16"/>
<path d="M652.97 188.178L651.96 187.847L652.869 188.398L656.018 190.304L656.129 190.371L656.189 190.256L656.579 189.509L656.645 189.382L656.509 189.337L652.97 188.178Z" fill="white" stroke="black" stroke-width="0.243275" stroke-miterlimit="16"/>
<path d="M656.702 182.383L655.692 182.052L656.601 182.603L659.75 184.509L659.861 184.576L659.921 184.461L660.311 183.714L660.377 183.587L660.241 183.542L656.702 182.383Z" fill="white" stroke="black" stroke-width="0.243275" stroke-miterlimit="16"/>
<path d="M657.917 181.91L656.907 181.579L657.816 182.13L660.965 184.037L661.076 184.104L661.136 183.989L661.526 183.242L661.592 183.114L661.456 183.07L657.917 181.91Z" fill="white" stroke="black" stroke-width="0.243275" stroke-miterlimit="16"/>
<path d="M658.644 178.744L657.633 178.413L658.543 178.964L661.692 180.87L661.802 180.938L661.862 180.823L662.252 180.076L662.319 179.948L662.182 179.904L658.644 178.744Z" fill="white" stroke="black" stroke-width="0.243275" stroke-miterlimit="16"/>
<path d="M659.13 175.578L658.12 175.247L659.029 175.798L662.178 177.704L662.289 177.772L662.349 177.657L662.739 176.91L662.805 176.782L662.669 176.738L659.13 175.578Z" fill="white" stroke="black" stroke-width="0.243275" stroke-miterlimit="16"/>
<path d="M659.13 177.043L658.12 176.712L659.029 177.263L662.178 179.169L662.289 179.236L662.349 179.122L662.739 178.374L662.805 178.247L662.669 178.203L659.13 177.043Z" fill="white" stroke="black" stroke-width="0.243275" stroke-miterlimit="16"/>
<path d="M659.618 172.901L658.608 172.57L659.517 173.12L662.666 175.027L662.777 175.094L662.837 174.979L663.227 174.232L663.293 174.105L663.157 174.06L659.618 172.901Z" fill="white" stroke="black" stroke-width="0.243275" stroke-miterlimit="16"/>
<path d="M651.301 188.475L652.096 188.255L651.399 188.695L648.986 190.217L648.875 190.288L648.814 190.171L648.424 189.424L648.354 189.29L648.499 189.25L651.301 188.475Z" fill="white" stroke="black" stroke-width="0.243275" stroke-miterlimit="16"/>
<path d="M649.838 185.204L650.633 184.984L649.936 185.424L647.523 186.946L647.412 187.016L647.351 186.899L646.961 186.152L646.891 186.019L647.036 185.979L649.838 185.204Z" fill="white" stroke="black" stroke-width="0.243275" stroke-miterlimit="16"/>
<path d="M650.565 186.67L651.359 186.451L650.662 186.891L648.25 188.413L648.138 188.483L648.077 188.366L647.687 187.619L647.618 187.486L647.763 187.445L650.565 186.67Z" fill="white" stroke="black" stroke-width="0.243275" stroke-miterlimit="16"/>
<path d="M647.647 183.254L648.441 183.035L647.744 183.475L645.332 184.997L645.22 185.067L645.159 184.95L644.769 184.203L644.7 184.069L644.845 184.029L647.647 183.254Z" fill="white" stroke="black" stroke-width="0.243275" stroke-miterlimit="16"/>
<path d="M646.914 179.85L647.709 179.63L647.012 180.07L644.6 181.592L644.488 181.663L644.427 181.546L644.037 180.799L643.967 180.665L644.112 180.625L646.914 179.85Z" fill="white" stroke="black" stroke-width="0.243275" stroke-miterlimit="16"/>
<path d="M643.997 176.922L644.791 176.703L644.094 177.142L641.682 178.665L641.57 178.735L641.509 178.618L641.119 177.871L641.049 177.737L641.194 177.697L643.997 176.922Z" fill="white" stroke="black" stroke-width="0.243275" stroke-miterlimit="16"/>
<path d="M642.538 174.26L643.332 174.041L642.635 174.48L640.223 176.002L640.111 176.073L640.05 175.956L639.66 175.209L639.59 175.075L639.735 175.035L642.538 174.26Z" fill="white" stroke="black" stroke-width="0.243275" stroke-miterlimit="16"/>
<path d="M640.104 171.819L640.898 171.599L640.201 172.039L637.789 173.561L637.677 173.631L637.616 173.514L637.226 172.767L637.157 172.634L637.302 172.594L640.104 171.819Z" fill="white" stroke="black" stroke-width="0.243275" stroke-miterlimit="16"/>
<path d="M640.104 170.118L640.898 169.898L640.201 170.338L637.789 171.86L637.677 171.93L637.616 171.813L637.226 171.066L637.157 170.933L637.302 170.893L640.104 170.118Z" fill="white" stroke="black" stroke-width="0.243275" stroke-miterlimit="16"/>
<path d="M641.08 173.284L641.875 173.064L641.178 173.504L638.766 175.026L638.654 175.096L638.593 174.979L638.203 174.232L638.133 174.099L638.278 174.059L641.08 173.284Z" fill="white" stroke="black" stroke-width="0.243275" stroke-miterlimit="16"/>
<path d="M643.997 175.711L644.791 175.492L644.094 175.932L641.682 177.454L641.57 177.524L641.509 177.407L641.119 176.66L641.049 176.527L641.194 176.486L643.997 175.711Z" fill="white" stroke="black" stroke-width="0.243275" stroke-miterlimit="16"/>
<path d="M636.702 166.229L637.496 166.009L636.799 166.449L634.387 167.971L634.275 168.042L634.214 167.925L633.824 167.178L633.754 167.044L633.899 167.004L636.702 166.229Z" fill="white" stroke="black" stroke-width="0.243275" stroke-miterlimit="16"/>
<path d="M633.78 162.106L634.574 161.886L633.877 162.326L631.465 163.848L631.353 163.919L631.292 163.802L630.902 163.054L630.832 162.921L630.977 162.881L633.78 162.106Z" fill="white" stroke="black" stroke-width="0.243275" stroke-miterlimit="16"/>
<path d="M664.582 193.291L655.824 217.74C654.851 203.63 643.66 180.276 649.499 189.764C654.17 197.354 659.554 181.736 661.663 172.978C662.068 171.396 663.22 168.623 664.582 170.18C665.944 171.737 666.366 176.911 666.406 179.303L664.582 193.291Z" fill="black" stroke="black" stroke-width="0.243275"/>
<path d="M658.743 199.623L655.094 207.043C656.651 209.476 656.067 213.247 655.58 214.828L661.662 199.259C665.311 188.676 665.676 178.945 664.703 175.904C663.925 173.471 663.568 174.161 663.487 174.809C663.122 176.958 662.465 181.864 662.757 184.297C663.049 186.73 661.5 193.906 660.689 197.191L658.743 199.623Z" fill="white"/>
<path d="M659.842 195.726C658.479 196.505 656.436 200.186 655.584 201.93L652.422 196.943C658.455 199.473 660.126 191.185 660.207 186.725C660.653 189.401 661.204 194.948 659.842 195.726Z" fill="white" stroke="black" stroke-width="0.243275"/>
<path d="M645.242 183.199L647.431 187.335L647.188 188.43L628.699 161.669L629.916 160.818L633.443 165.075L636.849 169.941L642.201 176.996L645.242 183.199Z" fill="black"/>
<path d="M712.752 212.594C719.067 218.069 721.784 218.538 729.498 217.221C718.542 230.758 715.853 225.304 712.752 212.594Z" fill="black"/>
<path d="M711.941 183.348C716.543 170.531 725.846 154.94 727.187 154.483C737.668 150.916 758.177 181.054 765.958 203.358C768.041 209.33 767.463 216.868 769.102 228.311L772.875 249.498C773.227 251.689 771.685 267.12 771.685 267.12L758.379 253.187C762.952 252.306 766.55 249.462 767.545 245.575C765.802 244.142 766.202 243.479 768.049 242.416L767.823 239.373C765.906 238.382 766.051 237.727 767.718 236.453C766.627 224.752 765.742 219.612 763.477 211.858C764.291 218.553 764.759 221.84 764.014 224.512C761.752 212.114 760.09 207.847 756.819 206.225L750.629 203.879L746.514 200.085L741.643 201.031C742.494 206.208 742.819 208.332 742.197 210.644C741.492 213.27 740.598 213.919 738.885 215.612C736.928 217.548 734.003 218.533 732.654 220.564C727.501 228.32 722.851 233.261 719.448 232.776C714.584 232.082 712.48 228.076 709.58 215.204L711.125 208.523C711.788 216.96 712.584 220.451 714.502 225.328C717.265 231.547 721.762 231.451 726.301 225.394C728.752 222.124 729.741 219.378 733.037 217.282C740.299 212.665 741.668 209.323 738.962 201.989C733.283 190.459 729.557 187.218 721.277 188.752C716.649 189.821 716.519 191.28 718.499 185.331L715.702 188.721L717.302 181.797C718.963 179.901 720.112 179.623 722.423 179.636C729.721 179.677 732.698 191.128 738.162 192.74C739.646 193.287 740.244 193.754 740.704 194.944C741.819 198.816 742.361 199.671 743.233 199.459C744.099 199.2 744.593 198.947 745.307 198.376C743.896 196.401 743.507 195.703 743.987 195.206C744.232 194.964 744.839 195.089 746.166 197.042C746.961 196.115 747.393 195.441 748.13 193.891C748.317 192.151 748.306 191.115 748.157 189.147C747.455 186.822 747.048 185.79 746.238 184.392L745.626 184.997L744.891 185.844C743.422 187.539 742.832 184.373 743.927 184.379L745.265 184.387L745.875 183.904L743.946 180.852L743.46 180.849L742.604 181.696L742.357 182.303C741.987 183.274 740.42 180.589 741.15 180.593L741.88 180.597L742.856 179.994C742.699 178.616 743.402 178.173 743.838 178.419C747.112 180.262 749.265 186.842 750.717 188.188C751.555 189.252 751.557 190.261 750.702 190.864C750.36 191.106 750.519 193.418 750.686 193.662C751.363 194.654 751.955 195.092 753.229 195.744L753.212 198.663C753.28 199.254 753.571 199.76 753.814 199.762L754.787 199.767C755.404 198.189 757.22 199.781 757.216 200.511C757.183 202.38 757.406 202.791 758.301 202.22L761.229 200.777L758.7 196.262L758.087 196.988C757.965 197.109 756.995 196.495 757.12 195.888L757.494 194.309C755.328 190.161 754.358 189.547 754.007 187.112C752.579 185.199 751.99 184.442 751.718 183.207L750.386 182.226C749.232 182.273 748.966 182.043 749.419 181.004C749.542 180.762 750.394 180.767 750.632 181.741L751.963 182.843L752.209 182.358L749.679 178.087C749.014 178.174 748.704 178.446 748.339 178.444C747.852 178.441 747.369 177.83 747.492 177.588C747.738 177.102 748.063 176.797 748.716 176.378L746.42 173.567L745.198 174.534L745.078 174.29L746.178 173.323C742.565 167.496 738.687 164.401 735.294 162.071C733.071 159.8 731.587 159.488 728.366 161.18C723.461 168.208 722.61 167.96 717.302 181.797L715.702 188.721C711.63 195.388 710.377 199.957 711.125 208.523L709.58 215.204C708.16 214.234 706.338 214.578 705.428 216.762C703.455 221.495 708.362 235.754 721.01 236.19C722.226 236.197 740.493 232.529 744.881 230.851C746.222 230.338 746.987 229.939 748.418 229.168L748.917 226.981L751.719 226.267L751.733 223.713C756.131 220.332 756.449 207.196 750.629 203.879L756.819 206.225C760.471 223.137 754.095 236.377 742.042 238.255C728.897 239.699 717.685 243.47 706.919 232.705C709.695 239.603 712.17 242.975 722.049 246.049C731.065 247.097 735.901 247.348 745.029 247.881L745.638 247.642L746.74 246.431L747.104 246.555L746.125 247.644C748.289 248.042 750.108 247.672 755.873 244.537C755.406 241.128 755.651 240.764 757.835 241.872C759.119 240.441 759.792 238.852 760.916 234.712C761.114 233.983 762.897 234.849 762.239 237.396C760.923 241.338 760.055 243.018 758.064 244.306L758.379 253.187L771.685 267.12C744.784 279.222 710.136 274.782 694.324 267.119C694.334 265.295 690.573 243.631 711.941 183.348Z" fill="black"/>
<path d="M743.937 204.936C744.698 204.751 745.124 204.647 745.885 204.461C745.865 204.675 745.824 204.785 745.762 204.825C745.135 205.23 744.71 205.16 743.937 204.936Z" fill="black"/>
<path d="M744.875 188.395C745.17 188.103 745.364 187.911 746.093 188.037C746.192 188.111 745.422 189.152 745.478 189.372C745.534 189.596 746.578 188.405 746.698 188.77C746.817 189.136 746.629 189.786 746.447 189.985C745.346 191.195 743.774 189.484 744.875 188.395Z" fill="black"/>
<path d="M750.242 208.26C750.485 208.2 750.727 208.48 750.725 208.749C750.724 209.017 750.141 209.11 749.872 209.109C749.603 209.107 749.268 208.401 749.269 208.132C749.271 207.864 749.754 208.378 750.242 208.26Z" fill="black"/>
<circle cx="753.615" cy="213.622" r="0.9731" transform="rotate(-89.6773 753.615 213.622)" fill="black"/>
<path d="M746.672 192.304C747.138 192.571 747.304 193.173 747.037 193.639C746.769 194.105 746.17 194.259 745.704 193.992C745.237 193.725 744.829 193 745.096 192.533C745.364 192.067 746.205 192.036 746.672 192.304Z" fill="black"/>
<path d="M707.835 216.975C708.347 216.814 709.153 217.125 709.314 217.637C709.475 218.15 708.93 218.671 708.418 218.832C707.905 218.993 707.095 218.801 706.934 218.288C706.773 217.775 707.322 217.136 707.835 216.975Z" fill="black"/>
<path d="M708.559 222.488C709.094 222.44 709.847 222.685 709.894 223.221C709.942 223.756 709.298 224.148 708.763 224.196C708.228 224.243 707.478 223.882 707.43 223.347C707.383 222.812 708.024 222.536 708.559 222.488Z" fill="black"/>
<path d="M720.245 242.021C720.781 241.973 721.392 241.974 721.439 242.51C721.487 243.045 720.843 243.437 720.308 243.485C719.773 243.532 719.023 243.171 718.975 242.636C718.928 242.101 719.71 242.069 720.245 242.021Z" fill="black"/>
<path d="M710.317 227.115C710.792 226.862 711.805 226.786 712.057 227.261C712.309 227.735 711.644 228.356 711.17 228.608C710.695 228.86 709.627 228.815 709.375 228.341C709.123 227.866 709.843 227.367 710.317 227.115Z" fill="black"/>
<path d="M752.877 193.311L752.881 192.581L753.368 192.583L754.34 192.711L753.363 193.313L752.877 193.311Z" fill="black"/>
<path d="M743.113 177.319L742.868 177.561L741.901 176.582L742.146 176.34L743.113 177.319Z" fill="black"/>
<path d="M725.858 260.915C710.888 262.412 704.401 253.677 705.924 236.597L710.024 243.066C709.605 246.22 710.494 245.988 711.961 244.659L718.749 248.833C725.673 252.819 732.009 253.73 748.774 252.408L756.209 249.774C756.154 259.504 749.42 267.278 745.052 265.402C737.91 262.335 729.874 260.513 725.858 260.915Z" fill="#EBF3FA"/>
<path d="M713.5 248.548C714.036 248.501 714.788 248.746 714.836 249.281C714.883 249.816 714.24 250.209 713.705 250.256C713.169 250.304 712.419 249.943 712.372 249.408C712.324 248.872 712.965 248.596 713.5 248.548Z" fill="black"/>
<path d="M718.25 251.257C718.786 251.209 719.636 251.941 719.683 252.476C719.731 253.012 719.087 253.404 718.552 253.452C718.017 253.499 717.267 253.138 717.219 252.603C717.172 252.068 717.715 251.304 718.25 251.257Z" fill="black"/>
<path d="M724.612 256.985C724.129 257.22 723.074 256.836 722.84 256.353C722.606 255.869 723.069 255.274 723.552 255.04C724.036 254.806 724.865 254.878 725.1 255.361C725.334 255.845 725.096 256.751 724.612 256.985Z" fill="black"/>
<path d="M729.98 258.164C729.496 258.398 728.543 258.247 728.309 257.763C728.075 257.28 727.954 256.66 728.438 256.426C728.922 256.192 730.511 256.685 730.745 257.169C730.979 257.652 730.464 257.93 729.98 258.164Z" fill="black"/>
<path d="M736.067 259.896C735.584 260.13 734.631 259.978 734.397 259.495C734.162 259.011 734.042 258.392 734.526 258.157C735.009 257.923 736.217 257.932 736.451 258.416C736.686 258.9 736.551 259.662 736.067 259.896Z" fill="black"/>
<path d="M740.548 259.815C741.011 259.543 741.973 259.618 742.246 260.081C742.518 260.545 742.374 261.332 741.911 261.604C741.447 261.877 740.555 261.784 740.283 261.321C740.011 260.857 740.085 260.087 740.548 259.815Z" fill="black"/>
<path d="M746.412 260.914C746.876 260.642 748.083 260.948 748.356 261.412C748.628 261.875 748.237 262.56 747.774 262.832C747.31 263.104 745.944 263.076 745.672 262.613C745.4 262.149 745.949 261.186 746.412 260.914Z" fill="black"/>
<path d="M714.457 207.562L733.922 196.271M714.457 207.562L733.922 196.271" stroke="black" stroke-width="1.9462"/>
<path d="M729.834 211.645L718.543 192.179M729.834 211.645L718.543 192.179" stroke="black" stroke-width="1.9462"/>
<path d="M726.801 275.39V274.295H740.668V275.39C734.221 277.701 732.396 277.701 726.801 275.39Z" fill="black"/>
<path d="M740.668 276.484C735.51 279.209 730.207 278.066 726.801 276.484C722.544 276.485 715.855 282.81 719.99 286.337C721.207 287.375 724.977 278.917 726.802 286.337C729.356 287.391 735.704 288.867 740.668 286.337C742.492 278.917 746.263 287.375 747.479 286.337C751.615 282.81 744.925 276.484 740.668 276.484Z" fill="black"/>
<path d="M726.801 276.484C730.207 278.066 735.51 279.209 740.668 276.484C744.925 276.484 751.615 282.81 747.479 286.337C746.263 287.375 742.492 278.917 740.668 286.337C735.704 288.867 729.356 287.391 726.802 286.337C724.977 278.917 721.207 287.375 719.99 286.337C715.855 282.81 722.545 276.484 726.802 276.484M726.801 274.295V275.39C732.396 277.701 734.221 277.701 740.668 275.39V274.295H726.801Z" stroke="black" stroke-width="0.243275"/>
<path d="M726.801 275.39V274.295H740.668V275.39C734.221 277.701 732.396 277.701 726.801 275.39Z" fill="black"/>
<path d="M740.668 276.484C735.51 279.209 730.207 278.066 726.801 276.484C722.544 276.485 715.855 282.81 719.99 286.337C721.207 287.375 724.977 278.917 726.802 286.337C729.356 287.391 735.704 288.867 740.668 286.337C742.492 278.917 746.263 287.375 747.479 286.337C751.615 282.81 744.925 276.484 740.668 276.484Z" fill="black"/>
<path d="M726.801 276.484C730.207 278.066 735.51 279.209 740.668 276.484C744.925 276.484 751.615 282.81 747.479 286.337C746.263 287.375 742.492 278.917 740.668 286.337C735.704 288.867 729.356 287.391 726.802 286.337C724.977 278.917 721.207 287.375 719.99 286.337C715.855 282.81 722.545 276.484 726.802 276.484M726.801 274.295V275.39C732.396 277.701 734.221 277.701 740.668 275.39V274.295H726.801Z" stroke="black" stroke-width="0.243275"/>
<path d="M740.668 287.311C735.51 290.035 730.207 288.892 726.801 287.311C722.544 287.311 715.855 293.636 719.99 297.163C721.207 298.201 724.977 289.743 726.802 297.163C729.356 298.217 735.704 299.693 740.668 297.163C742.492 289.743 746.263 298.201 747.479 297.163C751.615 293.636 744.925 287.311 740.668 287.311Z" fill="black"/>
<path d="M726.801 287.311C730.207 288.892 735.51 290.035 740.668 287.311C744.925 287.311 751.615 293.636 747.479 297.163C746.263 298.201 742.492 289.743 740.668 297.163C735.704 299.693 729.356 298.217 726.802 297.163C724.977 289.743 721.207 298.201 719.99 297.163C715.855 293.636 722.545 287.311 726.802 287.311" stroke="black" stroke-width="0.243275"/>
<path d="M766.101 187.346L765.688 187.262L765.993 187.553L767.092 188.602L767.209 188.714L767.284 188.57L767.673 187.823L767.748 187.68L767.59 187.648L766.101 187.346Z" fill="white" stroke="black" stroke-width="0.243275" stroke-miterlimit="16"/>
<path d="M767.076 186.354L766.663 186.27L766.967 186.561L768.066 187.61L768.183 187.722L768.258 187.578L768.648 186.831L768.723 186.688L768.564 186.656L767.076 186.354Z" fill="white" stroke="black" stroke-width="0.243275" stroke-miterlimit="16"/>
<path d="M767.318 184.668L766.905 184.584L767.21 184.875L768.308 185.924L768.425 186.036L768.5 185.893L768.89 185.146L768.965 185.002L768.807 184.97L767.318 184.668Z" fill="white" stroke="black" stroke-width="0.243275" stroke-miterlimit="16"/>
<path d="M765.915 182.588L764.905 182.257L765.814 182.808L768.963 184.714L769.074 184.781L769.134 184.666L769.524 183.919L769.59 183.792L769.454 183.748L765.915 182.588Z" fill="white" stroke="black" stroke-width="0.243275" stroke-miterlimit="16"/>
<path d="M763.97 188.178L762.96 187.847L763.869 188.398L767.018 190.304L767.129 190.371L767.189 190.256L767.579 189.509L767.645 189.382L767.509 189.337L763.97 188.178Z" fill="white" stroke="black" stroke-width="0.243275" stroke-miterlimit="16"/>
<path d="M767.702 182.383L766.692 182.052L767.601 182.603L770.75 184.509L770.861 184.576L770.921 184.461L771.311 183.714L771.377 183.587L771.241 183.542L767.702 182.383Z" fill="white" stroke="black" stroke-width="0.243275" stroke-miterlimit="16"/>
<path d="M768.917 181.91L767.907 181.579L768.816 182.13L771.965 184.037L772.076 184.104L772.136 183.989L772.526 183.242L772.592 183.114L772.456 183.07L768.917 181.91Z" fill="white" stroke="black" stroke-width="0.243275" stroke-miterlimit="16"/>
<path d="M769.644 178.744L768.633 178.413L769.543 178.964L772.692 180.87L772.802 180.938L772.862 180.823L773.252 180.076L773.319 179.948L773.182 179.904L769.644 178.744Z" fill="white" stroke="black" stroke-width="0.243275" stroke-miterlimit="16"/>
<path d="M770.13 175.578L769.12 175.247L770.029 175.798L773.178 177.704L773.289 177.772L773.349 177.657L773.739 176.91L773.805 176.782L773.669 176.738L770.13 175.578Z" fill="white" stroke="black" stroke-width="0.243275" stroke-miterlimit="16"/>
<path d="M770.13 177.043L769.12 176.712L770.029 177.263L773.178 179.169L773.289 179.236L773.349 179.122L773.739 178.374L773.805 178.247L773.669 178.203L770.13 177.043Z" fill="white" stroke="black" stroke-width="0.243275" stroke-miterlimit="16"/>
<path d="M770.618 172.901L769.608 172.57L770.517 173.12L773.666 175.027L773.777 175.094L773.837 174.979L774.227 174.232L774.293 174.105L774.157 174.06L770.618 172.901Z" fill="white" stroke="black" stroke-width="0.243275" stroke-miterlimit="16"/>
<path d="M762.301 188.475L763.096 188.255L762.399 188.695L759.986 190.217L759.875 190.288L759.814 190.171L759.424 189.424L759.354 189.29L759.499 189.25L762.301 188.475Z" fill="white" stroke="black" stroke-width="0.243275" stroke-miterlimit="16"/>
<path d="M760.838 185.204L761.633 184.984L760.936 185.424L758.523 186.946L758.412 187.016L758.351 186.899L757.961 186.152L757.891 186.019L758.036 185.979L760.838 185.204Z" fill="white" stroke="black" stroke-width="0.243275" stroke-miterlimit="16"/>
<path d="M761.565 186.67L762.359 186.451L761.662 186.891L759.25 188.413L759.138 188.483L759.077 188.366L758.687 187.619L758.618 187.486L758.763 187.445L761.565 186.67Z" fill="white" stroke="black" stroke-width="0.243275" stroke-miterlimit="16"/>
<path d="M758.647 183.254L759.441 183.035L758.744 183.475L756.332 184.997L756.22 185.067L756.159 184.95L755.769 184.203L755.7 184.069L755.845 184.029L758.647 183.254Z" fill="white" stroke="black" stroke-width="0.243275" stroke-miterlimit="16"/>
<path d="M757.914 179.85L758.709 179.63L758.012 180.07L755.6 181.592L755.488 181.663L755.427 181.546L755.037 180.799L754.967 180.665L755.112 180.625L757.914 179.85Z" fill="white" stroke="black" stroke-width="0.243275" stroke-miterlimit="16"/>
<path d="M754.997 176.922L755.791 176.703L755.094 177.142L752.682 178.665L752.57 178.735L752.509 178.618L752.119 177.871L752.049 177.737L752.194 177.697L754.997 176.922Z" fill="white" stroke="black" stroke-width="0.243275" stroke-miterlimit="16"/>
<path d="M753.538 174.26L754.332 174.041L753.635 174.48L751.223 176.002L751.111 176.073L751.05 175.956L750.66 175.209L750.59 175.075L750.735 175.035L753.538 174.26Z" fill="white" stroke="black" stroke-width="0.243275" stroke-miterlimit="16"/>
<path d="M751.104 171.819L751.898 171.599L751.201 172.039L748.789 173.561L748.677 173.631L748.616 173.514L748.226 172.767L748.157 172.634L748.302 172.594L751.104 171.819Z" fill="white" stroke="black" stroke-width="0.243275" stroke-miterlimit="16"/>
<path d="M751.104 170.118L751.898 169.898L751.201 170.338L748.789 171.86L748.677 171.93L748.616 171.813L748.226 171.066L748.157 170.933L748.302 170.893L751.104 170.118Z" fill="white" stroke="black" stroke-width="0.243275" stroke-miterlimit="16"/>
<path d="M752.08 173.284L752.875 173.064L752.178 173.504L749.766 175.026L749.654 175.096L749.593 174.979L749.203 174.232L749.133 174.099L749.278 174.059L752.08 173.284Z" fill="white" stroke="black" stroke-width="0.243275" stroke-miterlimit="16"/>
<path d="M754.997 175.711L755.791 175.492L755.094 175.932L752.682 177.454L752.57 177.524L752.509 177.407L752.119 176.66L752.049 176.527L752.194 176.486L754.997 175.711Z" fill="white" stroke="black" stroke-width="0.243275" stroke-miterlimit="16"/>
<path d="M747.702 166.229L748.496 166.009L747.799 166.449L745.387 167.971L745.275 168.042L745.214 167.925L744.824 167.178L744.754 167.044L744.899 167.004L747.702 166.229Z" fill="white" stroke="black" stroke-width="0.243275" stroke-miterlimit="16"/>
<path d="M744.78 162.106L745.574 161.886L744.877 162.326L742.465 163.848L742.353 163.919L742.292 163.802L741.902 163.054L741.832 162.921L741.977 162.881L744.78 162.106Z" fill="white" stroke="black" stroke-width="0.243275" stroke-miterlimit="16"/>
<path d="M775.582 193.291L766.824 217.74C765.851 203.63 754.66 180.276 760.499 189.764C765.17 197.354 770.554 181.736 772.663 172.978C773.068 171.396 774.22 168.623 775.582 170.18C776.944 171.737 777.366 176.911 777.406 179.303L775.582 193.291Z" fill="black" stroke="black" stroke-width="0.243275"/>
<path d="M769.743 199.623L766.094 207.043C767.651 209.476 767.067 213.247 766.58 214.828L772.662 199.259C776.311 188.676 776.676 178.945 775.703 175.904C774.925 173.471 774.568 174.161 774.487 174.809C774.122 176.958 773.465 181.864 773.757 184.297C774.049 186.73 772.5 193.906 771.689 197.191L769.743 199.623Z" fill="white"/>
<path d="M770.842 195.726C769.479 196.505 767.436 200.186 766.584 201.93L763.422 196.943C769.455 199.473 771.126 191.185 771.207 186.725C771.653 189.401 772.204 194.948 770.842 195.726Z" fill="white" stroke="black" stroke-width="0.243275"/>
<path d="M756.242 183.199L758.431 187.335L758.188 188.43L739.699 161.669L740.916 160.818L744.443 165.075L747.849 169.941L753.201 176.996L756.242 183.199Z" fill="black"/>
</g>
<defs>
<filter id="filter0_dd_5122_3591" x="193.1" y="464.1" width="852.8" height="190.8" filterUnits="userSpaceOnUse" color-interpolation-filters="sRGB">
<feFlood flood-opacity="0" result="BackgroundImageFix"/>
<feColorMatrix in="SourceAlpha" type="matrix" values="0 0 0 0 0 0 0 0 0 0 0 0 0 0 0 0 0 0 127 0" result="hardAlpha"/>
<feOffset dx="5" dy="5"/>
<feGaussianBlur stdDeviation="17.35"/>
<feComposite in2="hardAlpha" operator="out"/>
<feColorMatrix type="matrix" values="0 0 0 0 0.54874 0 0 0 0 0.652025 0 0 0 0 0.742399 0 0 0 0.78 0"/>
<feBlend mode="normal" in2="BackgroundImageFix" result="effect1_dropShadow_5122_3591"/>
<feColorMatrix in="SourceAlpha" type="matrix" values="0 0 0 0 0 0 0 0 0 0 0 0 0 0 0 0 0 0 127 0" result="hardAlpha"/>
<feOffset dx="-5" dy="-5"/>
<feGaussianBlur stdDeviation="23.95"/>
<feComposite in2="hardAlpha" operator="out"/>
<feColorMatrix type="matrix" values="0 0 0 0 1 0 0 0 0 1 0 0 0 0 1 0 0 0 1 0"/>
<feBlend mode="normal" in2="effect1_dropShadow_5122_3591" result="effect2_dropShadow_5122_3591"/>
<feBlend mode="normal" in="SourceGraphic" in2="effect2_dropShadow_5122_3591" result="shape"/>
</filter>
<linearGradient id="paint0_linear_5122_3591" x1="246" y1="517" x2="498" y2="612" gradientUnits="userSpaceOnUse">
<stop stop-color="white"/>
<stop offset="1" stop-color="#EBF3FA"/>
</linearGradient>
<clipPath id="clip0_5122_3591">
<rect width="1250" height="765" fill="white"/>
</clipPath>
</defs>
</svg>
