<svg width="1250" height="765" viewBox="0 0 1250 765" fill="none" xmlns="http://www.w3.org/2000/svg">
<g clip-path="url(#clip0_5122_13905)">
<rect width="1250" height="765" fill="white"/>
<path d="M386.31 93.87H400.2V117H395.55V98.49H390.93V117H386.31V93.87ZM414.066 117H409.446C408.806 117 408.206 116.88 407.646 116.64C407.086 116.4 406.596 116.07 406.176 115.65C405.756 115.23 405.426 114.74 405.186 114.18C404.946 113.62 404.826 113.02 404.826 112.38V98.49C404.826 97.85 404.946 97.25 405.186 96.69C405.426 96.13 405.756 95.64 406.176 95.22C406.596 94.8 407.086 94.47 407.646 94.23C408.206 93.99 408.806 93.87 409.446 93.87H414.066C414.686 93.87 415.276 93.99 415.836 94.23C416.416 94.47 416.916 94.8 417.336 95.22C417.756 95.64 418.086 96.13 418.326 96.69C418.586 97.25 418.716 97.85 418.716 98.49V112.38C418.716 113.02 418.586 113.62 418.326 114.18C418.086 114.74 417.756 115.23 417.336 115.65C416.916 116.07 416.416 116.4 415.836 116.64C415.276 116.88 414.686 117 414.066 117ZM414.066 98.49H409.446V112.38H414.066V98.49ZM437.231 98.49V103.11C437.231 103.55 437.171 103.97 437.051 104.37C436.951 104.75 436.801 105.11 436.601 105.45C436.801 105.79 436.951 106.16 437.051 106.56C437.171 106.94 437.231 107.34 437.231 107.76V112.38C437.231 113.02 437.101 113.62 436.841 114.18C436.601 114.74 436.271 115.23 435.851 115.65C435.431 116.07 434.931 116.4 434.351 116.64C433.791 116.88 433.201 117 432.581 117H423.341V112.38H432.581V107.76H424.721V103.11H432.581V98.49H423.341V93.87H432.581C433.201 93.87 433.791 93.99 434.351 94.23C434.931 94.47 435.431 94.8 435.851 95.22C436.271 95.64 436.601 96.13 436.841 96.69C437.101 97.25 437.231 97.85 437.231 98.49ZM446.747 93.87H458.057V112.38H460.367V119.25H455.747V117H446.477V119.25H441.857V112.38H444.437L446.747 93.87ZM453.407 112.38V98.49H450.827L449.087 112.38H453.407ZM474.241 110.07H469.621V117H465.001V93.87H474.241C474.861 93.87 475.451 93.99 476.011 94.23C476.591 94.47 477.091 94.8 477.511 95.22C477.931 95.64 478.261 96.13 478.501 96.69C478.761 97.25 478.891 97.85 478.891 98.49V105.45C478.891 106.09 478.761 106.69 478.501 107.25C478.261 107.81 477.931 108.3 477.511 108.72C477.091 109.14 476.591 109.47 476.011 109.71C475.451 109.95 474.861 110.07 474.241 110.07ZM474.241 98.49H469.621V105.45H474.241V98.49ZM483.517 114.36L489.397 93.87H493.807L499.717 114.36V117H495.067V115.02L494.317 112.38H488.887L488.137 115.02V117H483.517V114.36ZM492.997 107.76L491.617 102.96L490.237 107.76H492.997ZM513.587 117H504.347V93.87H512.447C513.087 93.87 513.687 93.99 514.247 94.23C514.807 94.47 515.297 94.8 515.717 95.22C516.137 95.64 516.467 96.13 516.707 96.69C516.947 97.25 517.067 97.85 517.067 98.49V103.11C517.067 103.67 516.997 104.13 516.857 104.49C517.277 104.91 517.607 105.4 517.847 105.96C518.107 106.52 518.237 107.12 518.237 107.76V112.38C518.237 113.02 518.107 113.62 517.847 114.18C517.607 114.74 517.277 115.23 516.857 115.65C516.437 116.07 515.937 116.4 515.357 116.64C514.797 116.88 514.207 117 513.587 117ZM513.587 112.38V107.76H508.967V112.38H513.587ZM512.447 98.49H508.967V103.11H512.447V98.49ZM528.653 93.87H537.923V117H533.273V98.49H528.653V112.38C528.653 113.02 528.533 113.62 528.293 114.18C528.053 114.74 527.723 115.23 527.303 115.65C526.883 116.07 526.393 116.4 525.833 116.64C525.273 116.88 524.673 117 524.033 117H521.723V112.38H524.033V98.49C524.033 97.85 524.153 97.25 524.393 96.69C524.633 96.13 524.963 95.64 525.383 95.22C525.803 94.8 526.293 94.47 526.853 94.23C527.413 93.99 528.013 93.87 528.653 93.87ZM545.998 93.87H555.268V117H550.618V110.07H548.998L545.998 116.37V117H541.378V115.32L544.078 109.65C543.278 109.27 542.628 108.72 542.128 108C541.628 107.26 541.378 106.41 541.378 105.45V98.49C541.378 97.85 541.498 97.25 541.738 96.69C541.978 96.13 542.308 95.64 542.728 95.22C543.148 94.8 543.638 94.47 544.198 94.23C544.758 93.99 545.358 93.87 545.998 93.87ZM545.998 105.45H550.618V98.49H545.998V105.45ZM559.924 93.87H571.474V98.49H564.544V103.11H570.334V107.76H564.544V112.38H571.474V117H559.924V93.87ZM589.625 93.87H594.605V117H589.985V108.87L587.525 117H583.175L580.715 108.87V117H576.095V93.87H581.045L585.335 108.18L589.625 93.87ZM599.24 93.87H603.86V110.07H599.24V93.87ZM599.24 112.38H603.86V117H599.24V112.38ZM623.615 98.49V93.87H637.505V98.49H632.855V117H628.235V98.49H623.615ZM651.4 117H644.47H642.16V93.87H646.78V100.8H651.4C652.02 100.8 652.61 100.93 653.17 101.19C653.75 101.43 654.25 101.76 654.67 102.18C655.09 102.6 655.42 103.1 655.66 103.68C655.92 104.24 656.05 104.83 656.05 105.45V112.38C656.05 113.02 655.92 113.62 655.66 114.18C655.42 114.74 655.09 115.23 654.67 115.65C654.25 116.07 653.75 116.4 653.17 116.64C652.61 116.88 652.02 117 651.4 117ZM651.4 112.38V105.45H646.78V112.38H651.4ZM657.19 93.87H661.81V117H657.19V93.87ZM690.804 117H681.564V93.87H689.664C690.304 93.87 690.904 93.99 691.464 94.23C692.024 94.47 692.514 94.8 692.934 95.22C693.354 95.64 693.684 96.13 693.924 96.69C694.164 97.25 694.284 97.85 694.284 98.49V103.11C694.284 103.67 694.214 104.13 694.074 104.49C694.494 104.91 694.824 105.4 695.064 105.96C695.324 106.52 695.454 107.12 695.454 107.76V112.38C695.454 113.02 695.324 113.62 695.064 114.18C694.824 114.74 694.494 115.23 694.074 115.65C693.654 116.07 693.154 116.4 692.574 116.64C692.014 116.88 691.424 117 690.804 117ZM690.804 112.38V107.76H686.184V112.38H690.804ZM689.664 98.49H686.184V103.11H689.664V98.49ZM709.35 117H702.42H700.11V93.87H704.73V100.8H709.35C709.97 100.8 710.56 100.93 711.12 101.19C711.7 101.43 712.2 101.76 712.62 102.18C713.04 102.6 713.37 103.1 713.61 103.68C713.87 104.24 714 104.83 714 105.45V112.38C714 113.02 713.87 113.62 713.61 114.18C713.37 114.74 713.04 115.23 712.62 115.65C712.2 116.07 711.7 116.4 711.12 116.64C710.56 116.88 709.97 117 709.35 117ZM709.35 112.38V105.45H704.73V112.38H709.35ZM715.14 93.87H719.76V117H715.14V93.87ZM728.987 106.26L733.607 95.7V93.87H738.257V117H733.607V107.25L729.347 117H724.367V93.87H728.987V106.26ZM756.772 98.49H747.502V117H742.882V93.87H756.772V98.49ZM770.638 110.07H766.018V117H761.398V93.87H770.638C771.258 93.87 771.848 93.99 772.408 94.23C772.988 94.47 773.488 94.8 773.908 95.22C774.328 95.64 774.658 96.13 774.898 96.69C775.158 97.25 775.288 97.85 775.288 98.49V105.45C775.288 106.09 775.158 106.69 774.898 107.25C774.658 107.81 774.328 108.3 773.908 108.72C773.488 109.14 772.988 109.47 772.408 109.71C771.848 109.95 771.258 110.07 770.638 110.07ZM770.638 98.49H766.018V105.45H770.638V98.49ZM779.914 114.36L785.794 93.87H790.204L796.114 114.36V117H791.464V115.02L790.714 112.38H785.284L784.534 115.02V117H779.914V114.36ZM789.394 107.76L788.014 102.96L786.634 107.76H789.394ZM806.534 93.87H815.804V117H811.154V98.49H806.534V112.38C806.534 113.02 806.414 113.62 806.174 114.18C805.934 114.74 805.604 115.23 805.184 115.65C804.764 116.07 804.274 116.4 803.714 116.64C803.154 116.88 802.554 117 801.914 117H799.604V112.38H801.914V98.49C801.914 97.85 802.034 97.25 802.274 96.69C802.514 96.13 802.844 95.64 803.264 95.22C803.684 94.8 804.174 94.47 804.734 94.23C805.294 93.99 805.894 93.87 806.534 93.87ZM844.486 121.74H832.036V119.7H844.486V121.74ZM856.82 121.74H844.37V119.7H856.82V121.74ZM869.154 121.74H856.704V119.7H869.154V121.74ZM871.408 93.87H876.028V110.07H871.408V93.87ZM871.408 112.38H876.028V117H871.408V112.38Z" fill="#353A53"/>
<path d="M212.31 580.87H226.2V604H221.55V585.49H216.93V604H212.31V580.87ZM240.066 604H235.446C234.806 604 234.206 603.88 233.646 603.64C233.086 603.4 232.596 603.07 232.176 602.65C231.756 602.23 231.426 601.74 231.186 601.18C230.946 600.62 230.826 600.02 230.826 599.38V585.49C230.826 584.85 230.946 584.25 231.186 583.69C231.426 583.13 231.756 582.64 232.176 582.22C232.596 581.8 233.086 581.47 233.646 581.23C234.206 580.99 234.806 580.87 235.446 580.87H240.066C240.686 580.87 241.276 580.99 241.836 581.23C242.416 581.47 242.916 581.8 243.336 582.22C243.756 582.64 244.086 583.13 244.326 583.69C244.586 584.25 244.716 584.85 244.716 585.49V599.38C244.716 600.02 244.586 600.62 244.326 601.18C244.086 601.74 243.756 602.23 243.336 602.65C242.916 603.07 242.416 603.4 241.836 603.64C241.276 603.88 240.686 604 240.066 604ZM240.066 585.49H235.446V599.38H240.066V585.49ZM263.231 580.87V585.49H262.301L258.671 592.45L262.301 599.38H263.231V604H260.891C260.471 604 260.081 603.9 259.721 603.7C259.361 603.48 259.071 603.17 258.851 602.77L254.651 594.76H253.961V604H249.341V580.87H253.961V590.11H254.651L258.851 582.1C259.071 581.7 259.361 581.4 259.721 581.2C260.081 580.98 260.471 580.87 260.891 580.87H263.231ZM267.857 601.36L273.737 580.87H278.147L284.057 601.36V604H279.407V602.02L278.657 599.38H273.227L272.477 602.02V604H267.857V601.36ZM277.337 594.76L275.957 589.96L274.577 594.76H277.337ZM311.817 580.87V585.49H310.887L307.257 592.45L310.887 599.38H311.817V604H309.507C309.067 604 308.667 603.89 308.307 603.67C307.947 603.45 307.667 603.15 307.467 602.77L303.237 594.76H302.577V604H297.927V594.76H297.267L293.037 602.77C292.837 603.15 292.557 603.45 292.197 603.67C291.837 603.89 291.437 604 290.997 604H288.687V599.38H289.587L293.247 592.45L289.587 585.49H288.687V580.87H290.997C291.437 580.87 291.837 580.98 292.197 581.2C292.557 581.42 292.837 581.72 293.037 582.1L297.267 590.11H297.927V580.87H302.577V590.11H303.237L307.467 582.1C307.667 581.72 307.947 581.42 308.307 581.2C308.667 580.98 309.067 580.87 309.507 580.87H311.817ZM321.051 593.26L325.671 582.7V580.87H330.321V604H325.671V594.25L321.411 604H316.431V580.87H321.051V593.26ZM354.713 590.11H359.333V580.87H363.983V604H359.333V594.76H354.713V604H350.093V580.87H354.713V590.11ZM368.609 601.36L374.489 580.87H378.899L384.809 601.36V604H380.159V602.02L379.409 599.38H373.979L373.229 602.02V604H368.609V601.36ZM378.089 594.76L376.709 589.96L375.329 594.76H378.089ZM418.475 580.87V585.49H417.545L413.915 592.45L417.545 599.38H418.475V604H416.135C415.715 604 415.325 603.9 414.965 603.7C414.605 603.48 414.315 603.17 414.095 602.77L409.895 594.76H409.205V604H404.585V580.87H409.205V590.11H409.895L414.095 582.1C414.315 581.7 414.605 581.4 414.965 581.2C415.325 580.98 415.715 580.87 416.135 580.87H418.475ZM423.101 601.36L428.981 580.87H433.391L439.301 601.36V604H434.651V602.02L433.901 599.38H428.471L427.721 602.02V604H423.101V601.36ZM432.581 594.76L431.201 589.96L429.821 594.76H432.581ZM453.171 604H448.551C447.911 604 447.311 603.88 446.751 603.64C446.191 603.4 445.701 603.07 445.281 602.65C444.861 602.23 444.531 601.74 444.291 601.18C444.051 600.62 443.931 600.02 443.931 599.38V585.49C443.931 584.85 444.051 584.25 444.291 583.69C444.531 583.13 444.861 582.64 445.281 582.22C445.701 581.8 446.191 581.47 446.751 581.23C447.311 580.99 447.911 580.87 448.551 580.87H453.171C453.791 580.87 454.381 580.99 454.941 581.23C455.521 581.47 456.021 581.8 456.441 582.22C456.861 582.64 457.191 583.13 457.431 583.69C457.691 584.25 457.821 584.85 457.821 585.49V587.8H453.171V585.49H448.551V599.38H453.171V597.07H457.821V599.38C457.821 600.02 457.691 600.62 457.431 601.18C457.191 601.74 456.861 602.23 456.441 602.65C456.021 603.07 455.521 603.4 454.941 603.64C454.381 603.88 453.791 604 453.171 604ZM471.687 604H467.067C466.427 604 465.827 603.88 465.267 603.64C464.707 603.4 464.217 603.07 463.797 602.65C463.377 602.23 463.047 601.74 462.807 601.18C462.567 600.62 462.447 600.02 462.447 599.38V585.49C462.447 584.85 462.567 584.25 462.807 583.69C463.047 583.13 463.377 582.64 463.797 582.22C464.217 581.8 464.707 581.47 465.267 581.23C465.827 580.99 466.427 580.87 467.067 580.87H471.687C472.307 580.87 472.897 580.99 473.457 581.23C474.037 581.47 474.537 581.8 474.957 582.22C475.377 582.64 475.707 583.13 475.947 583.69C476.207 584.25 476.337 584.85 476.337 585.49V587.8H471.687V585.49H467.067V599.38H471.687V597.07H476.337V599.38C476.337 600.02 476.207 600.62 475.947 601.18C475.707 601.74 475.377 602.23 474.957 602.65C474.537 603.07 474.037 603.4 473.457 603.64C472.897 603.88 472.307 604 471.687 604ZM480.992 580.87H492.542V585.49H485.612V590.11H491.402V594.76H485.612V599.38H492.542V604H480.992V580.87ZM516.93 580.87H521.55C522.17 580.87 522.76 580.99 523.32 581.23C523.9 581.47 524.4 581.8 524.82 582.22C525.24 582.64 525.57 583.13 525.81 583.69C526.07 584.25 526.2 584.85 526.2 585.49V599.38C526.2 600.02 526.07 600.62 525.81 601.18C525.57 601.74 525.24 602.23 524.82 602.65C524.4 603.07 523.9 603.4 523.32 603.64C522.76 603.88 522.17 604 521.55 604H516.93C516.29 604 515.69 603.88 515.13 603.64C514.57 603.4 514.08 603.07 513.66 602.65C513.24 602.23 512.91 601.74 512.67 601.18C512.43 600.62 512.31 600.02 512.31 599.38V597.07H516.93V599.38H521.55V594.76H516.93V590.11H521.55V585.49H516.93V587.8H512.31V585.49C512.31 584.85 512.43 584.25 512.67 583.69C512.91 583.13 513.24 582.64 513.66 582.22C514.08 581.8 514.57 581.47 515.13 581.23C515.69 580.99 516.29 580.87 516.93 580.87ZM530.826 585.49V580.87H544.716V585.49H540.066V604H535.446V585.49H530.826ZM558.581 604H553.961C553.321 604 552.721 603.88 552.161 603.64C551.601 603.4 551.111 603.07 550.691 602.65C550.271 602.23 549.941 601.74 549.701 601.18C549.461 600.62 549.341 600.02 549.341 599.38V585.49C549.341 584.85 549.461 584.25 549.701 583.69C549.941 583.13 550.271 582.64 550.691 582.22C551.111 581.8 551.601 581.47 552.161 581.23C552.721 580.99 553.321 580.87 553.961 580.87H558.581C559.201 580.87 559.791 580.99 560.351 581.23C560.931 581.47 561.431 581.8 561.851 582.22C562.271 582.64 562.601 583.13 562.841 583.69C563.101 584.25 563.231 584.85 563.231 585.49V599.38C563.231 600.02 563.101 600.62 562.841 601.18C562.601 601.74 562.271 602.23 561.851 602.65C561.431 603.07 560.931 603.4 560.351 603.64C559.791 603.88 559.201 604 558.581 604ZM558.581 585.49H553.961V599.38H558.581V585.49ZM567.857 585.49V580.87H581.747V585.49H577.097V604H572.477V585.49H567.857ZM610.759 604H606.139C605.499 604 604.899 603.88 604.339 603.64C603.779 603.4 603.289 603.07 602.869 602.65C602.449 602.23 602.119 601.74 601.879 601.18C601.639 600.62 601.519 600.02 601.519 599.38V585.49C601.519 584.85 601.639 584.25 601.879 583.69C602.119 583.13 602.449 582.64 602.869 582.22C603.289 581.8 603.779 581.47 604.339 581.23C604.899 580.99 605.499 580.87 606.139 580.87H610.759C611.379 580.87 611.969 580.99 612.529 581.23C613.109 581.47 613.609 581.8 614.029 582.22C614.449 582.64 614.779 583.13 615.019 583.69C615.279 584.25 615.409 584.85 615.409 585.49V587.8H610.759V585.49H606.139V599.38H610.759V597.07H615.409V599.38C615.409 600.02 615.279 600.62 615.019 601.18C614.779 601.74 614.449 602.23 614.029 602.65C613.609 603.07 613.109 603.4 612.529 603.64C611.969 603.88 611.379 604 610.759 604ZM633.925 580.87V585.49H632.995L629.365 592.45L632.995 599.38H633.925V604H631.585C631.165 604 630.775 603.9 630.415 603.7C630.055 603.48 629.765 603.17 629.545 602.77L625.345 594.76H624.655V604H620.035V580.87H624.655V590.11H625.345L629.545 582.1C629.765 581.7 630.055 581.4 630.415 581.2C630.775 580.98 631.165 580.87 631.585 580.87H633.925ZM647.79 597.07H643.17V604H638.55V580.87H647.79C648.41 580.87 649 580.99 649.56 581.23C650.14 581.47 650.64 581.8 651.06 582.22C651.48 582.64 651.81 583.13 652.05 583.69C652.31 584.25 652.44 584.85 652.44 585.49V592.45C652.44 593.09 652.31 593.69 652.05 594.25C651.81 594.81 651.48 595.3 651.06 595.72C650.64 596.14 650.14 596.47 649.56 596.71C649 596.95 648.41 597.07 647.79 597.07ZM647.79 585.49H643.17V592.45H647.79V585.49ZM661.686 593.26L666.306 582.7V580.87H670.956V604H666.306V594.25L662.046 604H657.066V580.87H661.686V593.26ZM680.201 590.11H684.821V580.87H689.471V604H684.821V594.76H680.201V604H675.581V580.87H680.201V590.11ZM713.864 593.26L718.484 582.7V580.87H723.134V604H718.484V594.25L714.224 604H709.244V580.87H713.864V593.26ZM742.906 580.87H756.796V604H752.146V585.49H747.526V604H742.906V580.87ZM770.661 604H766.041C765.401 604 764.801 603.88 764.241 603.64C763.681 603.4 763.191 603.07 762.771 602.65C762.351 602.23 762.021 601.74 761.781 601.18C761.541 600.62 761.421 600.02 761.421 599.38V585.49C761.421 584.85 761.541 584.25 761.781 583.69C762.021 583.13 762.351 582.64 762.771 582.22C763.191 581.8 763.681 581.47 764.241 581.23C764.801 580.99 765.401 580.87 766.041 580.87H770.661C771.281 580.87 771.871 580.99 772.431 581.23C773.011 581.47 773.511 581.8 773.931 582.22C774.351 582.64 774.681 583.13 774.921 583.69C775.181 584.25 775.311 584.85 775.311 585.49V599.38C775.311 600.02 775.181 600.62 774.921 601.18C774.681 601.74 774.351 602.23 773.931 602.65C773.511 603.07 773.011 603.4 772.431 603.64C771.871 603.88 771.281 604 770.661 604ZM770.661 585.49H766.041V599.38H770.661V585.49ZM785.727 580.87H794.997V604H790.347V585.49H785.727V599.38C785.727 600.02 785.607 600.62 785.367 601.18C785.127 601.74 784.797 602.23 784.377 602.65C783.957 603.07 783.467 603.4 782.907 603.64C782.347 603.88 781.747 604 781.107 604H778.797V599.38H781.107V585.49C781.107 584.85 781.227 584.25 781.467 583.69C781.707 583.13 782.037 582.64 782.457 582.22C782.877 581.8 783.367 581.47 783.927 581.23C784.487 580.99 785.087 580.87 785.727 580.87ZM812.343 580.87V590.11V599.38C812.343 600.02 812.213 600.62 811.953 601.18C811.713 601.74 811.383 602.23 810.963 602.65C810.543 603.07 810.043 603.4 809.463 603.64C808.903 603.88 808.313 604 807.693 604H803.073C802.433 604 801.833 603.88 801.273 603.64C800.713 603.4 800.223 603.07 799.803 602.65C799.383 602.23 799.053 601.74 798.813 601.18C798.573 600.62 798.453 600.02 798.453 599.38V597.07H803.073V599.38H807.693V594.76H803.073C802.433 594.76 801.833 594.64 801.273 594.4C800.713 594.14 800.223 593.8 799.803 593.38C799.383 592.96 799.053 592.47 798.813 591.91C798.573 591.35 798.453 590.75 798.453 590.11V580.87H803.073V590.11H807.693V580.87H812.343ZM826.208 592.45V580.87H830.858V604H826.208V597.07H821.588C820.948 597.07 820.348 596.95 819.788 596.71C819.228 596.47 818.738 596.14 818.318 595.72C817.898 595.3 817.568 594.81 817.328 594.25C817.088 593.69 816.968 593.09 816.968 592.45V580.87H821.588V592.45H826.208ZM840.104 593.26L844.724 582.7V580.87H849.374V604H844.724V594.25L840.464 604H835.484V580.87H840.104V593.26ZM878.386 604H873.766C873.126 604 872.526 603.88 871.966 603.64C871.406 603.4 870.916 603.07 870.496 602.65C870.076 602.23 869.746 601.74 869.506 601.18C869.266 600.62 869.146 600.02 869.146 599.38V585.49C869.146 584.85 869.266 584.25 869.506 583.69C869.746 583.13 870.076 582.64 870.496 582.22C870.916 581.8 871.406 581.47 871.966 581.23C872.526 580.99 873.126 580.87 873.766 580.87H878.386C879.006 580.87 879.596 580.99 880.156 581.23C880.736 581.47 881.236 581.8 881.656 582.22C882.076 582.64 882.406 583.13 882.646 583.69C882.906 584.25 883.036 584.85 883.036 585.49V587.8H878.386V585.49H873.766V599.38H878.386V597.07H883.036V599.38C883.036 600.02 882.906 600.62 882.646 601.18C882.406 601.74 882.076 602.23 881.656 602.65C881.236 603.07 880.736 603.4 880.156 603.64C879.596 603.88 879.006 604 878.386 604ZM896.902 604H887.662V580.87H895.762C896.402 580.87 897.002 580.99 897.562 581.23C898.122 581.47 898.612 581.8 899.032 582.22C899.452 582.64 899.782 583.13 900.022 583.69C900.262 584.25 900.382 584.85 900.382 585.49V590.11C900.382 590.67 900.312 591.13 900.172 591.49C900.592 591.91 900.922 592.4 901.162 592.96C901.422 593.52 901.552 594.12 901.552 594.76V599.38C901.552 600.02 901.422 600.62 901.162 601.18C900.922 601.74 900.592 602.23 900.172 602.65C899.752 603.07 899.252 603.4 898.672 603.64C898.112 603.88 897.522 604 896.902 604ZM896.902 599.38V594.76H892.282V599.38H896.902ZM895.762 585.49H892.282V590.11H895.762V585.49ZM915.417 604H910.797C910.157 604 909.557 603.88 908.997 603.64C908.437 603.4 907.947 603.07 907.527 602.65C907.107 602.23 906.777 601.74 906.537 601.18C906.297 600.62 906.177 600.02 906.177 599.38V585.49C906.177 584.85 906.297 584.25 906.537 583.69C906.777 583.13 907.107 582.64 907.527 582.22C907.947 581.8 908.437 581.47 908.997 581.23C909.557 580.99 910.157 580.87 910.797 580.87H915.417C916.037 580.87 916.627 580.99 917.187 581.23C917.767 581.47 918.267 581.8 918.687 582.22C919.107 582.64 919.437 583.13 919.677 583.69C919.937 584.25 920.067 584.85 920.067 585.49V599.38C920.067 600.02 919.937 600.62 919.677 601.18C919.437 601.74 919.107 602.23 918.687 602.65C918.267 603.07 917.767 603.4 917.187 603.64C916.627 603.88 916.037 604 915.417 604ZM915.417 585.49H910.797V599.38H915.417V585.49ZM938.583 604H933.933V594.25L929.673 604H924.693V580.87H929.313V593.26L933.933 582.7V580.87H938.583V604ZM931.623 579.7C932.263 579.7 932.863 579.58 933.423 579.34C933.983 579.1 934.473 578.77 934.893 578.35C935.313 577.93 935.643 577.44 935.883 576.88C936.123 576.32 936.243 575.72 936.243 575.08H933.933C933.933 575.72 933.703 576.27 933.243 576.73C932.803 577.17 932.263 577.39 931.623 577.39C930.983 577.39 930.433 577.17 929.973 576.73C929.533 576.27 929.313 575.72 929.313 575.08H927.003C927.003 575.72 927.123 576.32 927.363 576.88C927.603 577.44 927.933 577.93 928.353 578.35C928.773 578.77 929.263 579.1 929.823 579.34C930.383 579.58 930.983 579.7 931.623 579.7ZM958.355 580.87H972.245V604H967.595V585.49H962.975V604H958.355V580.87ZM986.111 597.07H981.491V604H976.871V580.87H986.111C986.731 580.87 987.321 580.99 987.881 581.23C988.461 581.47 988.961 581.8 989.381 582.22C989.801 582.64 990.131 583.13 990.371 583.69C990.631 584.25 990.761 584.85 990.761 585.49V592.45C990.761 593.09 990.631 593.69 990.371 594.25C990.131 594.81 989.801 595.3 989.381 595.72C988.961 596.14 988.461 596.47 987.881 596.71C987.321 596.95 986.731 597.07 986.111 597.07ZM986.111 585.49H981.491V592.45H986.111V585.49ZM1000.01 593.26L1004.63 582.7V580.87H1009.28V604H1004.63V594.25L1000.37 604H995.386V580.87H1000.01V593.26ZM1027.79 585.49V590.11C1027.79 590.55 1027.73 590.97 1027.61 591.37C1027.51 591.75 1027.36 592.11 1027.16 592.45C1027.36 592.79 1027.51 593.16 1027.61 593.56C1027.73 593.94 1027.79 594.34 1027.79 594.76V599.38C1027.79 600.02 1027.66 600.62 1027.4 601.18C1027.16 601.74 1026.83 602.23 1026.41 602.65C1025.99 603.07 1025.49 603.4 1024.91 603.64C1024.35 603.88 1023.76 604 1023.14 604H1013.9V599.38H1023.14V594.76H1015.28V590.11H1023.14V585.49H1013.9V580.87H1023.14C1023.76 580.87 1024.35 580.99 1024.91 581.23C1025.49 581.47 1025.99 581.8 1026.41 582.22C1026.83 582.64 1027.16 583.13 1027.4 583.69C1027.66 584.25 1027.79 584.85 1027.79 585.49ZM1032.42 580.87H1037.04V597.07H1032.42V580.87ZM1032.42 599.38H1037.04V604H1032.42V599.38Z" fill="#353A53"/>
<rect x="0.234375" y="761.699" width="1250" height="68" fill="#353A53"/>
<circle cx="69.3589" cy="776.359" r="75.3589" fill="#353A53"/>
<circle cx="220.076" cy="776.359" r="75.3589" fill="#353A53"/>
<circle cx="370.794" cy="776.359" r="75.3589" fill="#353A53"/>
<circle cx="521.511" cy="776.359" r="75.3589" fill="#353A53"/>
<circle cx="672.23" cy="776.359" r="75.3589" fill="#353A53"/>
<circle cx="822.947" cy="776.359" r="75.3589" fill="#353A53"/>
<circle cx="973.666" cy="776.359" r="75.3589" fill="#353A53"/>
<circle cx="1124.38" cy="776.359" r="75.3589" fill="#353A53"/>
<path d="M1275.1 701C1255.11 701 1235.95 708.94 1221.81 723.072C1207.68 737.205 1199.74 756.372 1199.74 776.359C1199.74 796.345 1207.68 815.513 1221.81 829.646C1235.95 843.778 1255.11 851.718 1275.1 851.718L1275.1 776.359V701Z" fill="#353A53"/>
<circle cx="1200.1" cy="-15.6401" r="75.3589" transform="rotate(-180 1200.1 -15.6401)" fill="#353A53"/>
<circle cx="1049.38" cy="-15.6401" r="75.3589" transform="rotate(-180 1049.38 -15.6401)" fill="#353A53"/>
<circle cx="898.665" cy="-15.6401" r="75.3589" transform="rotate(-180 898.665 -15.6401)" fill="#353A53"/>
<circle cx="747.948" cy="-15.6401" r="75.3589" transform="rotate(-180 747.948 -15.6401)" fill="#353A53"/>
<circle cx="597.229" cy="-15.6401" r="75.3589" transform="rotate(-180 597.229 -15.6401)" fill="#353A53"/>
<circle cx="446.512" cy="-15.6401" r="75.3589" transform="rotate(-180 446.512 -15.6401)" fill="#353A53"/>
<circle cx="295.793" cy="-15.6401" r="75.3589" transform="rotate(-180 295.793 -15.6401)" fill="#353A53"/>
<circle cx="145.075" cy="-15.6401" r="75.3589" transform="rotate(-180 145.075 -15.6401)" fill="#353A53"/>
<path d="M-5.6421 59.7187C14.3443 59.7188 33.5121 51.7792 47.6447 37.6466C61.7772 23.5141 69.7168 4.34628 69.7168 -15.6401C69.7168 -35.6266 61.7772 -54.7944 47.6447 -68.9269C33.5122 -83.0595 14.3443 -90.999 -5.64208 -90.999L-5.6421 -15.6401L-5.6421 59.7187Z" fill="#353A53"/>
</g>
<defs>
<clipPath id="clip0_5122_13905">
<rect width="1250" height="765" fill="white"/>
</clipPath>
</defs>
</svg>
