<svg width="1250" height="128" viewBox="0 0 1250 128" fill="none" xmlns="http://www.w3.org/2000/svg">
<rect x="-0.320312" y="61.5117" width="1250" height="68" fill="#353A53"/>
<circle cx="68.8042" cy="76.1714" r="75.3589" fill="#353A53"/>
<circle cx="219.521" cy="76.1714" r="75.3589" fill="#353A53"/>
<circle cx="370.24" cy="76.1714" r="75.3589" fill="#353A53"/>
<circle cx="520.957" cy="76.1714" r="75.3589" fill="#353A53"/>
<circle cx="671.675" cy="76.1714" r="75.3589" fill="#353A53"/>
<circle cx="822.392" cy="76.1714" r="75.3589" fill="#353A53"/>
<circle cx="973.111" cy="76.1714" r="75.3589" fill="#353A53"/>
<circle cx="1123.83" cy="76.1714" r="75.3589" fill="#353A53"/>
<path d="M1274.55 0.8125C1254.56 0.8125 1235.39 8.75207 1221.26 22.8846C1207.13 37.0171 1199.19 56.185 1199.19 76.1714C1199.19 96.1578 1207.13 115.326 1221.26 129.458C1235.39 143.591 1254.56 151.53 1274.55 151.53L1274.55 76.1714L1274.55 0.8125Z" fill="#353A53"/>
</svg>
