<svg width="60" height="60" viewBox="0 0 60 60" fill="none" xmlns="http://www.w3.org/2000/svg">
<g clip-path="url(#clip0_3202_8512)">
<circle cx="30" cy="30" r="30" fill="url(#paint0_radial_3202_8512)"/>
<path d="M13.4745 40.7361L4.05364 37.4577L3.22461 34.2546C5.21429 33.0487 5.05853 31.3153 4.73194 30.5993L8.12343 31.5414C9.7815 30.9686 10.1458 27.0319 10.1206 25.1352C14.2809 23.8992 13.7131 19.1436 12.9092 16.9203C14.5371 16.5585 25.1939 16.5685 30.3189 16.6188L31.5247 16.1289L39.815 16.242L39.9281 16.3927H40.8702C41.2018 16.3927 41.0084 16.5183 40.8702 16.5811H39.5513L41.0209 17.5986C41.9504 17.6112 43.8999 17.6288 44.2617 17.5986C44.6234 17.5685 44.4627 17.8875 44.337 18.0508L41.7746 18.1262L42.5659 18.6161H46.4096C46.8015 18.6161 46.5729 18.8924 46.4096 19.0306H43.2442L44.4124 19.7466C45.3545 19.7591 47.3442 19.7918 47.7662 19.8219C48.1883 19.8521 48.0426 20.0857 47.9169 20.1988H45.1661L47.1633 21.4046C47.628 21.3795 48.6932 21.3142 49.2359 21.2539C49.7785 21.1936 49.6378 21.5051 49.4996 21.6684L47.7662 21.7814L48.8213 22.2336C49.1354 22.1457 49.9669 21.9322 50.7809 21.7814C51.5948 21.6307 51.3712 22.0201 51.1577 22.2336L49.3489 22.7235L49.7634 23.2511C50.492 23.025 52.0998 22.5427 52.7027 22.4221C53.3057 22.3015 53.1298 22.5728 52.9665 22.7235L50.2156 23.5149L50.7809 23.7786C51.7858 23.7911 53.9538 23.8087 54.5869 23.7786C55.22 23.7484 54.8507 24.168 54.5869 24.3815C53.8583 24.369 52.3108 24.3514 51.9491 24.3815C51.5873 24.4117 51.7983 24.6202 51.9491 24.7207H56.5087C57.0815 24.7207 56.7474 25.1226 56.5087 25.3236H53.1172C53.8332 25.8135 54.5115 25.7004 55.2275 25.8889C55.8003 26.0396 55.4662 26.3285 55.2275 26.4541C54.6371 26.3913 53.3886 26.2657 53.1172 26.2657C52.8459 26.2657 52.5269 26.6175 52.4013 26.7934C53.0419 26.8059 54.4738 26.8235 55.0768 26.7934C55.6797 26.7632 55.328 27.3335 55.0768 27.6224H50.9693L50.4794 28.0368C50.7181 28.0117 51.3461 27.9765 51.9491 28.0368C52.552 28.0971 52.2003 28.5141 51.9491 28.7151H50.4794L49.7634 29.5441H48.8213L47.4647 30.2224C48.2812 30.1596 50.0875 30.0265 50.7809 29.9964C51.4742 29.9662 51.0698 30.5114 50.7809 30.7877C49.7509 30.7752 47.525 30.7576 46.8618 30.7877C46.1986 30.8179 46.5855 31.1269 46.8618 31.2776C47.3266 31.1645 48.3691 30.9384 48.8213 30.9384C49.2735 30.9384 49.2107 31.4409 49.1228 31.6921H46.2966H45.5429L45.2414 32.1821C45.656 32.1946 46.6282 32.2122 47.201 32.1821C47.7738 32.1519 47.4396 32.4961 47.201 32.672H44.6385L42.4906 34.0662H43.9979C44.3295 34.0662 44.0104 34.418 43.8095 34.5938H41.3224C41.0209 34.8576 41.7746 35.1591 42.4906 35.4228C43.0633 35.6339 42.2519 36.1388 41.7746 36.3649L39.7774 36.1765C39.3553 36.478 39.0237 36.3021 38.9106 36.1765C38.9106 36.4177 38.6092 36.4026 38.4585 36.3649L37.7048 36.8548L37.8932 37.0055L38.3077 36.8548L38.4585 37.2316L38.0063 37.2693L37.1019 37.2316C36.5894 36.9904 36.7125 37.3069 36.8381 37.4954L38.0063 37.6084L37.8932 37.8345H35.8583L35.4438 38.0983H38.0063V38.5882H34.8409V39.1534H36.3859V39.4172H32.3538C32.1729 39.4474 32.2784 39.8066 32.3538 39.9825H35.1423V40.3593H31.1856H30.545V41.1883H29.4145C29.0527 41.4898 29.2637 41.8164 29.4145 41.942V42.1304H30.7711V42.5072H28.1332L27.7564 43.1478L29.3391 43.4116L29.2261 43.6377L19.1646 42.0927L13.4745 40.7361Z" fill="#34658C"/>
<path d="M28.5101 42.1304H29.4145M29.4145 42.1304H30.7711V42.5072H28.1332L27.7564 43.1478L29.3391 43.4116L29.2261 43.6377L19.1646 42.0927L13.4745 40.7361L4.05364 37.4577L3.22461 34.2546C5.21429 33.0487 5.05853 31.3153 4.73194 30.5993L8.12343 31.5414C9.7815 30.9686 10.1458 27.0319 10.1206 25.1352C14.2809 23.8992 13.7131 19.1436 12.9092 16.9203C14.5371 16.5585 25.1939 16.5685 30.3189 16.6188L31.5247 16.1289L39.815 16.242L39.9281 16.3927C40.104 16.3927 40.5386 16.3927 40.8702 16.3927C41.2018 16.3927 41.0084 16.5183 40.8702 16.5811H39.5513L41.0209 17.5986C41.9504 17.6112 43.8999 17.6288 44.2617 17.5986C44.6234 17.5685 44.4626 17.8875 44.337 18.0508L41.7746 18.1262L42.5659 18.6161C43.6839 18.6161 46.0177 18.6161 46.4096 18.6161C46.8015 18.6161 46.5729 18.8924 46.4096 19.0306H43.2442L44.4124 19.7466C45.3545 19.7591 47.3442 19.7918 47.7662 19.8219C48.1883 19.8521 48.0426 20.0857 47.9169 20.1988H45.1661L47.1633 21.4046C47.628 21.3795 48.6932 21.3142 49.2359 21.2539C49.7785 21.1936 49.6378 21.5051 49.4996 21.6684L47.7662 21.7814L48.8213 22.2336C49.1354 22.1457 49.9669 21.9322 50.7809 21.7814C51.5948 21.6307 51.3712 22.0201 51.1577 22.2336L49.3489 22.7235L49.7634 23.2511C50.492 23.025 52.0998 22.5427 52.7027 22.4221C53.3057 22.3015 53.1298 22.5728 52.9665 22.7235L50.2156 23.5149L50.7809 23.7786C51.7858 23.7911 53.9538 23.8087 54.5869 23.7786C55.22 23.7484 54.8507 24.168 54.5869 24.3815C53.8583 24.369 52.3108 24.3514 51.9491 24.3815C51.5873 24.4117 51.7983 24.6202 51.9491 24.7207C53.2303 24.7207 55.9359 24.7207 56.5087 24.7207C57.0815 24.7207 56.7474 25.1226 56.5087 25.3236H53.1172C53.8332 25.8135 54.5115 25.7004 55.2275 25.8889C55.8003 26.0396 55.4662 26.3285 55.2275 26.4541C54.6371 26.3913 53.3886 26.2657 53.1172 26.2657C52.8459 26.2657 52.5269 26.6175 52.4013 26.7934C53.0419 26.8059 54.4738 26.8235 55.0768 26.7934C55.6797 26.7632 55.328 27.3335 55.0768 27.6224H50.9693L50.4794 28.0368C50.7181 28.0117 51.3461 27.9765 51.9491 28.0368C52.552 28.0971 52.2003 28.5141 51.9491 28.7151H50.4794L49.7634 29.5441H48.8213L47.4647 30.2224C48.2812 30.1596 50.0875 30.0265 50.7809 29.9964C51.4742 29.9662 51.0698 30.5114 50.7809 30.7877C49.7509 30.7752 47.525 30.7576 46.8618 30.7877C46.1986 30.8179 46.5855 31.1269 46.8618 31.2776C47.3266 31.1645 48.3691 30.9384 48.8213 30.9384C49.2735 30.9384 49.2107 31.4409 49.1228 31.6921H46.2966H45.5429L45.2414 32.1821C45.656 32.1946 46.6282 32.2122 47.201 32.1821C47.7738 32.1519 47.4396 32.4961 47.201 32.672H44.6385L42.4906 34.0662H43.9979C44.3295 34.0662 44.0104 34.418 43.8095 34.5938H41.3224C41.0209 34.8576 41.7746 35.1591 42.4906 35.4228C43.0633 35.6339 42.2519 36.1388 41.7746 36.3649L39.7774 36.1765C39.3553 36.478 39.0237 36.3021 38.9106 36.1765C38.9106 36.4177 38.6092 36.4026 38.4585 36.3649L37.7048 36.8548L37.8932 37.0055L38.3077 36.8548L38.4585 37.2316L38.0063 37.2693L37.1019 37.2316C36.5894 36.9904 36.7125 37.3069 36.8381 37.4954L38.0063 37.6084L37.8932 37.8345H35.8583L35.4438 38.0983H38.0063V38.5882H34.8409V39.1534H36.3859V39.4172H32.3538C32.1729 39.4474 32.2784 39.8066 32.3538 39.9825H35.1423V40.3593H31.1856H30.545V41.1883M29.4145 42.1304V41.942M29.4145 41.942H32.0146M29.4145 41.942C29.2637 41.8164 29.0527 41.4898 29.4145 41.1883H30.545M33.1828 41.1883H30.545" stroke="black" stroke-width="0.150733"/>
<path d="M4.01562 33.7643H6.50272M7.63322 33.7643H10.4595M11.5523 34.9325H14.3785M7.63322 34.9325H10.4595M4.76929 32.5962H6.72882M7.63322 32.6715H10.4595M7.74627 31.6164H10.5725M11.5523 33.7643H14.3785M11.5146 36.063H14.3408M15.0568 37.1558H17.8831M15.0568 38.2863H17.8831M15.0568 34.0281H17.8831M14.9815 32.8976H17.8077M15.0568 31.7671H17.8831M10.874 30.5236H13.7002M10.9493 29.3931H13.7756M11.1001 28.2626H13.9263M9.89421 28.2626H10.7232M10.0449 27.1698H10.874M10.1203 26.1146H10.9493M11.1754 27.1698H14.0017M11.1754 26.1146H13.851M11.1001 24.9088H13.7756M18.6367 35.0456H21.463M18.6367 36.2137H21.463M18.6367 33.9528H21.463M18.7498 32.8976H21.576M22.2166 36.2891H25.0429M22.2166 37.4573H25.0429M22.2166 35.1963H25.0429M22.3297 34.1412H25.1559M25.9473 37.3066H28.7735M25.9473 38.4747H28.7735M25.9473 36.2137H28.7735M26.0603 35.1586H28.8866M29.7156 36.2137H32.5418M29.7156 37.3819H32.5418M29.7156 35.1209H32.5418M29.8287 34.0658H32.6549M33.5593 35.0456H36.3855M33.5593 36.2137H36.3855M33.5593 33.9528H36.3855M33.6723 32.8976H36.4986M37.516 33.8397H40.3423M37.516 32.7469H40.3423M37.6291 31.6918H40.4553M15.0568 39.4168H17.8831M15.0568 40.5473H17.8831M18.9759 39.4168H21.8021M18.9759 40.5473H21.8021M22.2166 38.7008H25.0429M18.7498 41.6778H21.576M22.3297 41.6778H25.1559M25.9473 40.7357H28.7735M25.9473 39.7183H28.7735M29.7156 38.4747H32.5418M41.3597 30.5236H44.186M41.2467 26.0016H44.0729M41.2467 27.1698H44.0729M41.2467 24.9088H44.0729M41.3597 23.8536H44.186M41.2467 29.4308H44.0729M41.2467 28.4133H44.0729M41.1336 22.8739H43.9599M41.1336 21.7811H43.9599M41.2467 20.7259H44.0729M44.7135 24.9088H47.5398M44.7135 23.816H47.5398M44.8266 22.7608H47.6528M44.6382 28.2626H47.4644M44.6382 27.1698H48.1427M44.7512 26.1146H47.5775M48.6326 24.7957H51.4588M48.6703 26.0016H51.4965M36.4986 24.9088H39.3248M36.5363 26.1146H39.3625M18.9759 24.7957H21.8021M19.0136 26.0016H21.8398M15.0568 18.1635H17.8831M15.0945 19.3693H17.9207M33.71 17.1083H36.5363M33.7477 18.3142H36.574M37.2899 18.3519H40.1162M37.3276 19.5577H40.1539M37.3276 17.1083H40.1539M29.7156 17.1083H32.5418M22.3297 16.9199H25.1559M24.7791 22.8739H26.0603M24.7791 23.816H26.0603M22.8949 24.9088H24.1762M22.8949 26.1146H24.1762M24.7791 24.9088H26.0603M24.7791 26.1146H26.0603M26.5502 24.9088H27.8314M26.5502 26.1146H27.8314M28.4344 24.9088H29.7156M28.4344 26.1146H29.7156M30.2809 24.9088H31.5621M30.2809 26.1146H31.5621M26.5502 22.7608H27.8314M26.5502 23.9667H27.8314M28.4344 22.7608H29.7156M28.4344 23.9667H29.7156M28.2083 27.0567H29.4895M28.2083 28.2626H29.4895M26.3995 27.0567H27.6807M26.3995 28.2626H27.6807M24.666 27.0567H25.9473M24.666 28.2626H25.9473M32.0896 24.9088H32.8433M32.0896 26.1146H32.8433M18.8628 18.1635H21.6891M18.8628 17.1083H21.6891" stroke="black" stroke-width="0.150733"/>
<path d="M15.6974 17.9004V18.5787M15.6974 19.0686V19.7469M34.0491 16.7699V17.4482M34.0491 17.9004V18.5787M34.0491 32.5215V33.1998M34.0491 33.6143V34.2926M34.0491 34.6694V35.3477M34.0491 35.8376V36.5159M30.1677 33.765V34.4433M30.1677 34.8578V35.5361M30.1677 35.8376V36.5159M30.1677 37.0058V37.6841M30.1677 38.174V38.8523M26.3617 34.9332V35.6115M26.3617 36.026V36.7043M26.3617 37.0058V37.6841M26.3617 38.174V38.8523M26.3617 39.3421V40.0204M22.6688 33.765V34.4433M22.6688 34.8578V35.5361M22.6688 35.8376V36.5159M22.6688 37.0058V37.6841M22.6688 38.174V38.8523M19.0135 32.5968V33.2751M19.0135 33.6897V34.368M19.0135 34.6694V35.3477M19.0135 35.8376V36.5159M15.6974 31.5417V32.22M15.6974 32.6345V33.3128M15.6974 33.6143V34.2926M15.6974 36.8927V37.571M15.6974 37.9855V38.6638M15.6974 38.9653V39.6436M15.6974 40.1335V40.8118M19.3903 39.0407V39.719M19.3903 40.1335V40.8118M19.3903 41.1133V41.7916M12.0421 33.5389V34.2172M12.0421 34.6317V35.31M12.0421 35.6115V36.2898M8.12305 32.5215V33.1998M8.12305 33.6143V34.2926M8.12305 34.5941V35.2724M11.5145 26.7936V27.4719M11.5145 27.8864V28.5647M11.5145 28.8662V29.5445M11.5145 30.0344V30.7127M11.5145 24.5326V25.2109M11.5145 25.6254V26.3037M22.8195 16.6191V17.2974M30.1677 16.7699V17.4482M38.1189 31.3156V31.9939M38.1189 32.4084V33.0867M38.1189 33.4636V34.1419M26.3617 40.435V41.1133M22.7818 41.377V42.0553M41.8119 25.8139V26.4922M41.8119 26.9067V27.585M41.8119 27.8864V28.5647M41.8119 29.0546V29.7329M41.8119 30.2228V30.9011M41.8496 20.2367V20.915M41.8496 21.3295V22.0078M41.8496 22.3093V22.9876M41.8496 23.4775V24.1558M41.8496 24.6457V25.324M45.2034 22.4977V23.176M45.2034 23.5905V24.2688M45.2034 24.5703V25.2486M45.2034 25.7385V26.4168M45.2034 26.9067V27.585M45.2034 27.8864V28.5647M49.0094 24.5703V25.2486M49.0094 25.5501V26.2284M15.4336 24.5326V25.2109M15.8104 24.5326V25.2109M16.451 24.5326V25.2109M16.7902 24.5326V25.2109M17.3931 24.5326V25.2109M17.8453 24.5326V25.2109M18.3352 24.5326V25.2109M15.4713 25.7762V26.4545M15.8481 25.7762V26.4545M16.4887 25.7762V26.4545M16.8279 25.7762V26.4545M17.4308 25.7762V26.4545M17.883 25.7762V26.4545M18.3729 25.7762V26.4545M33.2578 24.5703V25.2486M33.6346 24.5703V25.2486M34.2752 24.5703V25.2486M34.6144 24.5703V25.2486M35.2173 24.5703V25.2486M35.6695 24.5703V25.2486M36.1594 24.5703V25.2486M33.2955 25.8139V26.4922M33.6723 25.8139V26.4922M34.3129 25.8139V26.4922M34.6521 25.8139V26.4922M35.255 25.8139V26.4922M35.7072 25.8139V26.4922M36.1971 25.8139V26.4922M14.9814 24.8718H14.3785M14.9814 26.153H14.3785" stroke="black" stroke-width="0.150733"/>
<path d="M37.5548 35.3484C37.2659 35.474 36.8103 36.0644 37.5548 36.0644C38.2707 36.0644 37.9316 35.3484 37.5548 35.3484ZM37.5548 35.3484C37.3287 35.0846 37.0122 34.5571 37.5548 34.5571C38.0974 34.5571 37.7809 35.0846 37.5548 35.3484ZM41.5868 32.2584C41.2979 32.384 40.8423 32.9744 41.5868 32.9744C42.3027 32.9744 41.9636 32.2584 41.5868 32.2584ZM41.5868 32.2584C41.3607 31.9946 41.0442 31.4671 41.5868 31.4671C42.1294 31.4671 41.8129 31.9946 41.5868 32.2584ZM45.1667 29.809C44.8778 29.9346 44.4222 30.525 45.1667 30.525C45.8826 30.525 45.5435 29.809 45.1667 29.809ZM45.1667 29.809C44.9407 29.5452 44.6241 29.0176 45.1667 29.0176C45.7093 29.0176 45.3928 29.5452 45.1667 29.809ZM48.4829 27.5857C48.1939 27.7113 47.7383 28.3017 48.4829 28.3017C49.1988 28.3017 48.8597 27.5857 48.4829 27.5857ZM48.4829 27.5857C48.2568 27.3219 47.9403 26.7943 48.4829 26.7943C49.0254 26.7943 48.7089 27.3219 48.4829 27.5857ZM48.5959 23.4782C48.307 23.6038 47.8513 24.1942 48.5959 24.1942C49.3118 24.1942 48.9727 23.4782 48.5959 23.4782ZM48.5959 23.4782C48.3698 23.2144 48.0533 22.6869 48.5959 22.6869C49.1385 22.6869 48.822 23.2144 48.5959 23.4782ZM45.1667 21.1418C44.8778 21.2675 44.4222 21.8578 45.1667 21.8578C45.8826 21.8578 45.5435 21.1418 45.1667 21.1418ZM45.1667 21.1418C44.9407 20.8781 44.6241 20.3505 45.1667 20.3505C45.7093 20.3505 45.3928 20.8781 45.1667 21.1418ZM41.4738 19.0316C41.1849 19.1572 40.7292 19.7476 41.4738 19.7476C42.1897 19.7476 41.8506 19.0316 41.4738 19.0316ZM41.4738 19.0316C41.2477 18.7678 40.9312 18.2402 41.4738 18.2402C42.0164 18.2402 41.6999 18.7678 41.4738 19.0316ZM52.2889 25.8146C52 25.9402 51.5443 26.5305 52.2889 26.5305C53.0048 26.5305 52.6657 25.8146 52.2889 25.8146ZM52.2889 25.8146C52.0628 25.5508 51.7463 25.0232 52.2889 25.0232C52.8315 25.0232 52.515 25.5508 52.2889 25.8146ZM33.6735 37.7978C33.3846 37.9235 32.9289 38.5138 33.6735 38.5138C34.3894 38.5138 34.0503 37.7978 33.6735 37.7978ZM33.6735 37.7978C33.4474 37.5341 33.1309 37.0065 33.6735 37.0065C34.2161 37.0065 33.8995 37.5341 33.6735 37.7978ZM29.9053 40.2473C29.6164 40.3729 29.1607 40.9632 29.9053 40.9632C30.6212 40.9632 30.2821 40.2473 29.9053 40.2473ZM29.9053 40.2473C29.6792 39.9835 29.3627 39.4559 29.9053 39.4559C30.4479 39.4559 30.1314 39.9835 29.9053 40.2473ZM26.0992 42.1691C25.8103 42.2947 25.3547 42.8851 26.0992 42.8851C26.8151 42.8851 26.476 42.1691 26.0992 42.1691ZM26.0992 42.1691C25.8732 41.9053 25.5566 41.3778 26.0992 41.3778C26.6418 41.3778 26.3253 41.9053 26.0992 42.1691ZM22.7077 40.0212C22.4188 40.1468 21.9632 40.7371 22.7077 40.7371C23.4236 40.7371 23.0845 40.0212 22.7077 40.0212ZM22.7077 40.0212C22.4816 39.7574 22.1651 39.2298 22.7077 39.2298C23.2503 39.2298 22.9338 39.7574 22.7077 40.0212ZM19.0148 37.8355C18.7259 37.9611 18.2702 38.5515 19.0148 38.5515C19.7307 38.5515 19.3916 37.8355 19.0148 37.8355ZM19.0148 37.8355C18.7887 37.5717 18.4722 37.0442 19.0148 37.0442C19.5574 37.0442 19.2409 37.5717 19.0148 37.8355ZM15.5854 35.5368C15.2965 35.6625 14.8409 36.2528 15.5854 36.2528C16.3013 36.2528 15.9622 35.5368 15.5854 35.5368ZM15.5854 35.5368C15.3593 35.2731 15.0428 34.7455 15.5854 34.7455C16.128 34.7455 15.8115 35.2731 15.5854 35.5368ZM11.5911 32.4468C11.3022 32.5724 10.8465 33.1628 11.5911 33.1628C12.307 33.1628 11.9679 32.4468 11.5911 32.4468ZM11.5911 32.4468C11.365 32.183 11.0485 31.6555 11.5911 31.6555C12.1337 31.6555 11.8172 32.183 11.5911 32.4468ZM3.97909 34.9716C3.69018 35.0972 3.23452 35.6876 3.97909 35.6876C4.695 35.6876 4.3559 34.9716 3.97909 34.9716ZM3.97909 34.9716C3.75301 34.7078 3.4365 34.1803 3.97909 34.1803C4.52167 34.1803 4.20516 34.7078 3.97909 34.9716ZM14.9825 20.8027C14.6936 20.9283 13.8611 21.6317 14.6057 21.6317C15.3216 21.6317 15.3593 20.8027 14.9825 20.8027ZM14.9825 20.8027C14.7565 20.5389 14.8545 20.1244 15.397 20.1244C15.9396 20.1244 15.2086 20.5389 14.9825 20.8027Z" stroke="black" stroke-width="0.150733"/>
<path d="M28.9236 21.178C28.4714 21.0933 27.9438 21.7508 28.6975 21.9317C29.4512 22.1126 29.5266 21.2911 28.9236 21.178Z" stroke="black" stroke-width="0.150733"/>
<path d="M29.1121 20.3114C28.6599 20.2266 28.1323 20.8842 28.886 21.065C29.6396 21.2459 29.7151 20.4244 29.1121 20.3114Z" stroke="black" stroke-width="0.150733"/>
<path d="M29.4889 19.4447C29.0367 19.3599 28.5091 20.0175 29.2628 20.1983C30.0165 20.3792 30.0919 19.5577 29.4889 19.4447Z" stroke="black" stroke-width="0.150733"/>
<path d="M29.7904 18.4648C29.3382 18.3801 28.8106 19.0376 29.5643 19.2185C30.3179 19.3994 30.3934 18.5779 29.7904 18.4648Z" stroke="black" stroke-width="0.150733"/>
<path d="M30.0541 17.6735C29.602 17.5888 29.0744 18.2463 29.828 18.4272C30.5817 18.6081 30.6571 17.7866 30.0541 17.6735Z" stroke="black" stroke-width="0.150733"/>
<path d="M26.3259 33.7263C25.8738 33.6415 25.3462 34.2991 26.0998 34.4799C26.8535 34.6608 26.9289 33.8393 26.3259 33.7263Z" stroke="black" stroke-width="0.150733"/>
<path d="M26.7026 32.445C26.2505 32.3603 25.7229 33.0178 26.4765 33.1987C27.2302 33.3796 27.3056 32.5581 26.7026 32.445Z" stroke="black" stroke-width="0.150733"/>
<path d="M26.8158 31.1638C26.3636 31.0791 25.836 31.7366 26.5897 31.9175C27.3434 32.0984 27.4188 31.2769 26.8158 31.1638Z" stroke="black" stroke-width="0.150733"/>
<path d="M26.9287 29.6188C26.4766 29.5341 25.949 30.1916 26.7026 30.3725C27.4563 30.5534 27.5317 29.7319 26.9287 29.6188Z" stroke="black" stroke-width="0.150733"/>
<path d="M15.2071 30.3354C14.7549 30.2506 14.2273 30.9081 14.981 31.089C15.7346 31.2699 15.8101 30.4484 15.2071 30.3354Z" stroke="black" stroke-width="0.150733"/>
<path d="M14.7171 29.3933C14.265 29.3085 13.7374 29.9661 14.491 30.1469C15.2447 30.3278 15.3201 29.5063 14.7171 29.3933Z" stroke="black" stroke-width="0.150733"/>
<path d="M14.6795 28.1874C14.2273 28.1026 13.6997 28.7602 14.4534 28.9411C15.207 29.122 15.2825 28.3005 14.6795 28.1874Z" stroke="black" stroke-width="0.150733"/>
<path d="M14.6795 27.0192C14.2273 26.9345 13.6997 27.592 14.4534 27.7729C15.207 27.9538 15.2825 27.1323 14.6795 27.0192Z" stroke="black" stroke-width="0.150733"/>
<path d="M14.6834 23.3339C14.2312 23.2491 13.7036 23.9067 14.4573 24.0876C15.2109 24.2684 15.2864 23.4469 14.6834 23.3339Z" stroke="black" stroke-width="0.150733"/>
<path d="M14.6834 22.1657C14.2312 22.0809 13.7036 22.7385 14.4573 22.9194C15.2109 23.1003 15.2864 22.2788 14.6834 22.1657Z" stroke="black" stroke-width="0.150733"/>
<path d="M26.7639 20.7712C27.2161 20.6864 27.7437 21.344 26.99 21.5249C26.2363 21.7057 26.1609 20.8843 26.7639 20.7712Z" stroke="black" stroke-width="0.150733"/>
<path d="M26.3872 19.49C26.8394 19.4052 27.367 20.0628 26.6133 20.2436C25.8596 20.4245 25.7842 19.603 26.3872 19.49Z" stroke="black" stroke-width="0.150733"/>
<path d="M26.2741 18.2087C26.7262 18.124 27.2538 18.7815 26.5002 18.9624C25.7465 19.1433 25.6711 18.3218 26.2741 18.2087Z" stroke="black" stroke-width="0.150733"/>
<path d="M26.1611 16.6638C26.6133 16.579 27.1409 17.2365 26.3872 17.4174C25.6335 17.5983 25.5581 16.7768 26.1611 16.6638Z" stroke="black" stroke-width="0.150733"/>
<path d="M30.7721 22.4526C30.392 22.1936 29.6448 22.5841 30.2626 23.0522C30.8803 23.5203 31.2791 22.7982 30.7721 22.4526Z" stroke="black" stroke-width="0.150733"/>
<path d="M31.2925 21.7344C30.9124 21.4754 30.1652 21.8659 30.783 22.334C31.4007 22.8021 31.7995 22.0799 31.2925 21.7344Z" stroke="black" stroke-width="0.150733"/>
<path d="M32.3363 20.7674C31.9562 20.5083 31.209 20.8989 31.8268 21.367C32.4445 21.8351 32.8433 21.1129 32.3363 20.7674Z" stroke="black" stroke-width="0.150733"/>
<path d="M33.1653 19.9006C32.7852 19.6416 32.0381 20.0322 32.6558 20.5003C33.2736 20.9683 33.6723 20.2462 33.1653 19.9006Z" stroke="black" stroke-width="0.150733"/>
<path d="M33.8994 18.9551C33.5192 18.6961 32.7721 19.0866 33.3899 19.5547C34.0076 20.0228 34.4063 19.3007 33.8994 18.9551Z" stroke="black" stroke-width="0.150733"/>
<path d="M32.6752 23.4882C32.3578 23.1553 31.5454 23.3806 32.0513 23.9677C32.5572 24.5549 33.0985 23.9323 32.6752 23.4882Z" stroke="black" stroke-width="0.150733"/>
<path d="M33.9733 22.7618C33.6559 22.4289 32.8435 22.6542 33.3494 23.2413C33.8553 23.8285 34.3966 23.2059 33.9733 22.7618Z" stroke="black" stroke-width="0.150733"/>
<path d="M35.2922 21.8575C34.9748 21.5245 34.1624 21.7498 34.6683 22.3369C35.1742 22.9241 35.7155 22.3015 35.2922 21.8575Z" stroke="black" stroke-width="0.150733"/>
<path d="M36.4436 21.0765C36.1262 20.7435 35.3138 20.9688 35.8197 21.556C36.3257 22.1432 36.8669 21.5206 36.4436 21.0765Z" stroke="black" stroke-width="0.150733"/>
<path d="M37.5049 20.0563C37.1875 19.7233 36.3751 19.9486 36.881 20.5358C37.3869 21.123 37.9282 20.5004 37.5049 20.0563Z" stroke="black" stroke-width="0.150733"/>
<path d="M32.6666 27.5747C32.915 27.1875 32.5038 26.4515 32.053 27.0821C31.6023 27.7126 32.3353 28.0911 32.6666 27.5747Z" stroke="black" stroke-width="0.150733"/>
<path d="M34.0932 28.1713C34.3416 27.7841 33.9304 27.0481 33.4797 27.6786C33.0289 28.3092 33.7619 28.6877 34.0932 28.1713Z" stroke="black" stroke-width="0.150733"/>
<path d="M35.2841 29.2386C35.5325 28.8514 35.1213 28.1155 34.6706 28.746C34.2198 29.3765 34.9528 29.755 35.2841 29.2386Z" stroke="black" stroke-width="0.150733"/>
<path d="M36.3154 30.1725C36.5638 29.7853 36.1526 29.0493 35.7019 29.6798C35.2512 30.3104 35.9842 30.6889 36.3154 30.1725Z" stroke="black" stroke-width="0.150733"/>
<path d="M37.5579 30.9621C37.8063 30.5749 37.395 29.8389 36.9443 30.4695C36.4936 31.1 37.2266 31.4785 37.5579 30.9621Z" stroke="black" stroke-width="0.150733"/>
<path d="M30.6899 28.5276C31.0182 28.2052 30.7807 27.3963 30.2012 27.9109C29.6216 28.4256 30.2522 28.9574 30.6899 28.5276Z" stroke="black" stroke-width="0.150733"/>
<path d="M31.5993 29.4453C31.9275 29.1229 31.69 28.314 31.1105 28.8286C30.5309 29.3433 31.1615 29.8751 31.5993 29.4453Z" stroke="black" stroke-width="0.150733"/>
<path d="M32.3164 30.336C32.6446 30.0136 32.4071 29.2047 31.8276 29.7193C31.248 30.234 31.8786 30.7658 32.3164 30.336Z" stroke="black" stroke-width="0.150733"/>
<path d="M33.2584 31.278C33.5866 30.9557 33.3492 30.1468 32.7697 30.6614C32.1901 31.176 32.8207 31.7079 33.2584 31.278Z" stroke="black" stroke-width="0.150733"/>
<path d="M34.1241 32.3092C34.4523 31.9869 34.2149 31.1779 33.6354 31.6926C33.0558 32.2072 33.6864 32.7391 34.1241 32.3092Z" stroke="black" stroke-width="0.150733"/>
<path d="M23.1015 18.4273C23.4297 18.105 23.1923 17.296 22.6128 17.8107C22.0332 18.3253 22.6638 18.8572 23.1015 18.4273Z" stroke="black" stroke-width="0.150733"/>
<path d="M23.3834 19.3831C23.7116 19.0608 23.4742 18.2518 22.8947 18.7665C22.3151 19.2811 22.9457 19.813 23.3834 19.3831Z" stroke="black" stroke-width="0.150733"/>
<path d="M24.1005 20.3492C24.4287 20.0268 24.1913 19.2179 23.6118 19.7325C23.0322 20.2472 23.6628 20.779 24.1005 20.3492Z" stroke="black" stroke-width="0.150733"/>
<path d="M24.6647 21.2672C24.9929 20.9449 24.7554 20.136 24.1759 20.6506C23.5963 21.1653 24.2269 21.6971 24.6647 21.2672Z" stroke="black" stroke-width="0.150733"/>
<path d="M25.4936 22.2846C25.8218 21.9623 25.5844 21.1533 25.0049 21.668C24.4253 22.1826 25.0559 22.7145 25.4936 22.2846Z" stroke="black" stroke-width="0.150733"/>
<path d="M28.9371 29.734C29.2653 29.4117 29.0279 28.6027 28.4483 29.1174C27.8688 29.632 28.4994 30.1639 28.9371 29.734Z" stroke="black" stroke-width="0.150733"/>
<path d="M29.2627 30.6518C29.5909 30.3294 29.3535 29.5205 28.7739 30.0351C28.1944 30.5498 28.825 31.0817 29.2627 30.6518Z" stroke="black" stroke-width="0.150733"/>
<path d="M29.6395 31.4808C29.9677 31.1585 29.7303 30.3495 29.1508 30.8642C28.5712 31.3788 29.2018 31.9107 29.6395 31.4808Z" stroke="black" stroke-width="0.150733"/>
<path d="M29.9044 32.4092C30.2326 32.0868 29.9952 31.2779 29.4157 31.7926C28.8361 32.3072 29.4667 32.8391 29.9044 32.4092Z" stroke="black" stroke-width="0.150733"/>
<path d="M30.2047 33.2519C30.533 32.9296 30.2955 32.1207 29.716 32.6353C29.1364 33.1499 29.767 33.6818 30.2047 33.2519Z" stroke="black" stroke-width="0.150733"/>
<path d="M19.6665 19.7854C19.9947 19.463 19.7573 18.6541 19.1777 19.1687C18.5982 19.6834 19.2288 20.2152 19.6665 19.7854Z" stroke="black" stroke-width="0.150733"/>
<path d="M20.5758 20.7031C20.904 20.3807 20.6666 19.5718 20.0871 20.0864C19.5075 20.6011 20.1381 21.133 20.5758 20.7031Z" stroke="black" stroke-width="0.150733"/>
<path d="M21.2929 21.5938C21.6211 21.2714 21.3837 20.4625 20.8041 20.9771C20.2246 21.4918 20.8552 22.0236 21.2929 21.5938Z" stroke="black" stroke-width="0.150733"/>
<path d="M22.235 22.5358C22.5632 22.2135 22.3258 21.4046 21.7462 21.9192C21.1667 22.4339 21.7973 22.9657 22.235 22.5358Z" stroke="black" stroke-width="0.150733"/>
<path d="M23.1007 23.567C23.4289 23.2447 23.1915 22.4358 22.6119 22.9504C22.0324 23.465 22.663 23.9969 23.1007 23.567Z" stroke="black" stroke-width="0.150733"/>
<path d="M22.5835 28.301C22.2553 27.9786 22.4927 27.1697 23.0723 27.6844C23.6518 28.199 23.0212 28.7309 22.5835 28.301Z" stroke="black" stroke-width="0.150733"/>
<path d="M21.6742 29.2187C21.346 28.8963 21.5834 28.0874 22.1629 28.6021C22.7425 29.1167 22.1119 29.6486 21.6742 29.2187Z" stroke="black" stroke-width="0.150733"/>
<path d="M20.9571 30.1094C20.6289 29.787 20.8663 28.9781 21.4459 29.4928C22.0254 30.0074 21.3948 30.5393 20.9571 30.1094Z" stroke="black" stroke-width="0.150733"/>
<path d="M20.015 31.0515C19.6868 30.7291 19.9242 29.9202 20.5038 30.4348C21.0833 30.9495 20.4527 31.4814 20.015 31.0515Z" stroke="black" stroke-width="0.150733"/>
<path d="M19.1493 32.0827C18.8211 31.7603 19.0585 30.9514 19.6381 31.466C20.2176 31.9807 19.587 32.5125 19.1493 32.0827Z" stroke="black" stroke-width="0.150733"/>
<path d="M10.9341 37.2698C10.6059 36.9474 10.8433 36.1385 11.4228 36.6531C12.0024 37.1678 11.3718 37.6996 10.9341 37.2698Z" stroke="black" stroke-width="0.150733"/>
<path d="M9.99199 38.2118C9.66378 37.8895 9.90122 37.0806 10.4808 37.5952C11.0603 38.1098 10.4297 38.6417 9.99199 38.2118Z" stroke="black" stroke-width="0.150733"/>
<path d="M8.76413 39.0032C8.43592 38.6808 8.67336 37.8719 9.2529 38.3866C9.83245 38.9012 9.20185 39.4331 8.76413 39.0032Z" stroke="black" stroke-width="0.150733"/>
<path d="M7.58251 36.0627C7.2543 35.7404 7.49174 34.9314 8.07128 35.4461C8.65083 35.9607 8.02023 36.4926 7.58251 36.0627Z" stroke="black" stroke-width="0.150733"/>
<path d="M6.64043 37.0048C6.31222 36.6825 6.54966 35.8735 7.1292 36.3882C7.70875 36.9028 7.07815 37.4347 6.64043 37.0048Z" stroke="black" stroke-width="0.150733"/>
<path d="M5.41257 37.7962C5.08436 37.4738 5.32179 36.6649 5.90134 37.1795C6.48088 37.6942 5.85028 38.226 5.41257 37.7962Z" stroke="black" stroke-width="0.150733"/>
<path d="M24.8944 29.4745C24.4977 29.2416 24.5315 28.3992 25.2187 28.7576C25.9059 29.1161 25.4234 29.7852 24.8944 29.4745Z" stroke="black" stroke-width="0.150733"/>
<path d="M24.0803 30.5617C23.6836 30.3287 23.7174 29.4863 24.4046 29.8448C25.0918 30.2033 24.6093 30.8724 24.0803 30.5617Z" stroke="black" stroke-width="0.150733"/>
<path d="M23.4316 31.467C23.0349 31.234 23.0687 30.3916 23.7559 30.7501C24.4431 31.1086 23.9606 31.7777 23.4316 31.467Z" stroke="black" stroke-width="0.150733"/>
<path d="M22.9487 32.4091C22.552 32.1761 22.5859 31.3337 23.273 31.6922C23.9602 32.0506 23.4777 32.7197 22.9487 32.4091Z" stroke="black" stroke-width="0.150733"/>
<path d="M22.6243 33.3889C22.2277 33.156 22.2615 32.3136 22.9487 32.6721C23.6359 33.0305 23.1534 33.6996 22.6243 33.3889Z" stroke="black" stroke-width="0.150733"/>
</g>
<defs>
<radialGradient id="paint0_radial_3202_8512" cx="0" cy="0" r="1" gradientUnits="userSpaceOnUse" gradientTransform="translate(30 30) rotate(90) scale(30)">
<stop offset="0.67" stop-color="#FFDB1D"/>
<stop offset="1" stop-color="#AB9628" stop-opacity="0.8"/>
</radialGradient>
<clipPath id="clip0_3202_8512">
<rect width="60" height="60" fill="white"/>
</clipPath>
</defs>
</svg>
