<svg width="60" height="60" viewBox="0 0 60 60" fill="none" xmlns="http://www.w3.org/2000/svg">
<g clip-path="url(#clip0_3202_8493)">
<circle cx="30" cy="30" r="30" fill="url(#paint0_radial_3202_8493)"/>
<path d="M47.1626 42.1357C29.3103 71.2142 -11.7662 25.4096 17.8333 11.291L52.5336 22.715L47.1626 24.9998C40.5811 22.9434 37.8146 36.5189 37.2541 43.5637L47.1626 42.1357Z" fill="#F24841" stroke="black" stroke-width="1.42799"/>
<path d="M8.12198 29.7117C11.1527 28.7241 15.5635 27.4601 20.4027 26.3535M45.107 24.4281C42.2426 23.6855 38.4194 23.6443 34.2543 24.0235M7.55078 26.8556C13.12 23.238 29.5704 17.3737 50.819 22.8572M8.12198 21.1439C11.9388 21.1439 13.9178 20.3016 15.4047 19.1917M25.6863 14.0039C19.0787 14.547 17.979 17.2703 15.4047 19.1917M15.4047 19.1917C18.4035 18.4307 23.63 16.7457 34.8255 16.8599M20.4027 26.3535C18.9271 28.2345 16.0331 34.3957 16.2615 43.9918M20.4027 26.3535C21.9404 26.0019 23.5214 25.6662 25.1151 25.3603M19.6887 47.2762C18.9747 42.9947 19.0604 32.6175 25.1151 25.3603M25.1151 25.3603C26.9877 25.0008 28.8778 24.6826 30.7361 24.4281M30.7361 24.4281C27.244 27.0937 20.9454 35.8808 23.6871 49.7037M30.7361 24.4281C31.9262 24.2651 33.1033 24.1282 34.2543 24.0235M34.2543 24.0235C34.2543 27.2983 31.874 26.8058 29.9052 32.2822M27.3999 50.9889C27.4357 49.6759 27.4852 48.44 27.5469 47.2762M29.9052 32.2822C31.7357 32.4726 36.3677 32.3679 40.2518 30.4258M29.9052 32.2822C29.4198 33.6321 28.9595 35.3447 28.566 37.5658M28.566 37.5658C30.3669 37.899 34.9111 37.9371 38.681 35.4238M28.566 37.5658C28.311 39.005 28.084 40.6578 27.8965 42.5638M27.8965 42.5638H37.5386M27.8965 42.5638C27.7564 43.9877 27.6383 45.553 27.5469 47.2762M27.5469 47.2762C31.1155 47.7045 39.5093 47.3618 44.5358 42.5638" stroke="black" stroke-width="0.571197"/>
</g>
<defs>
<radialGradient id="paint0_radial_3202_8493" cx="0" cy="0" r="1" gradientUnits="userSpaceOnUse" gradientTransform="translate(30 30) rotate(90) scale(30)">
<stop offset="0.67" stop-color="#FFDB1D"/>
<stop offset="1" stop-color="#AB9628" stop-opacity="0.8"/>
</radialGradient>
<clipPath id="clip0_3202_8493">
<rect width="60" height="60" fill="white"/>
</clipPath>
</defs>
</svg>
