<svg width="221" height="127" viewBox="0 0 221 127" fill="none" xmlns="http://www.w3.org/2000/svg">
<path d="M134.368 51.3242H85.6641C84.4548 51.3242 82.3324 52.6435 82.2559 54.4025C82.2192 60.376 82.1675 72.8285 82.2554 74.8514C82.3319 76.6105 84.4542 77.9297 85.6636 77.9297H134.367C135.576 77.9297 137.699 76.6105 137.776 74.8514C137.812 68.878 137.864 56.4254 137.776 54.4025C137.699 52.6435 135.577 51.3242 134.368 51.3242Z" fill="white" stroke="white" stroke-width="0.21988"/>
<path d="M86.1035 62.4297V66.717" stroke="black" stroke-width="0.879521" stroke-linecap="round"/>
<path d="M129.419 75.3971V53.629C129.419 53.1892 129.199 52.8594 128.869 52.8594H90.2802C89.9503 52.8594 89.7305 53.1892 89.7305 53.629V75.3971C89.7305 75.8369 89.9503 76.1667 90.2802 76.1667H128.869C129.199 76.1667 129.419 75.8369 129.419 75.3971Z" fill="black" stroke="white" stroke-width="0.21988"/>
<circle cx="133.489" cy="64.6272" r="1.97876" fill="black"/>
<path d="M144.811 71.9922L140.083 76.7196L141.952 78.3687C140.545 83.294 133.89 85.8447 130.738 86.5043V88.3733C144.195 85.7347 145.727 76.3531 144.811 71.9922Z" fill="white" stroke="white" stroke-width="0.21988" stroke-linecap="round"/>
<path d="M75.2148 56.3828L79.9422 51.6554L78.0732 50.0063C79.4804 45.081 86.1355 42.5303 89.2871 41.8707V40.0017C75.8304 42.6403 74.2986 52.0219 75.2148 56.3828Z" fill="white" stroke="white" stroke-width="0.21988" stroke-linecap="round"/>
<path d="M34.155 0.435H41.1V12H38.775V2.745H36.465V12H34.155V0.435ZM48.0328 12H45.7228C45.4028 12 45.1028 11.94 44.8228 11.82C44.5428 11.7 44.2978 11.535 44.0878 11.325C43.8778 11.115 43.7128 10.87 43.5928 10.59C43.4728 10.31 43.4128 10.01 43.4128 9.69V2.745C43.4128 2.425 43.4728 2.125 43.5928 1.845C43.7128 1.565 43.8778 1.32 44.0878 1.11C44.2978 0.9 44.5428 0.734999 44.8228 0.614999C45.1028 0.494999 45.4028 0.435 45.7228 0.435H48.0328C48.3428 0.435 48.6378 0.494999 48.9178 0.614999C49.2078 0.734999 49.4578 0.9 49.6678 1.11C49.8778 1.32 50.0428 1.565 50.1628 1.845C50.2928 2.125 50.3578 2.425 50.3578 2.745V9.69C50.3578 10.01 50.2928 10.31 50.1628 10.59C50.0428 10.87 49.8778 11.115 49.6678 11.325C49.4578 11.535 49.2078 11.7 48.9178 11.82C48.6378 11.94 48.3428 12 48.0328 12ZM48.0328 2.745H45.7228V9.69H48.0328V2.745ZM57.2906 12H52.6706V0.435H56.7206C57.0406 0.435 57.3406 0.494999 57.6206 0.614999C57.9006 0.734999 58.1456 0.9 58.3556 1.11C58.5656 1.32 58.7306 1.565 58.8506 1.845C58.9706 2.125 59.0306 2.425 59.0306 2.745V5.055C59.0306 5.335 58.9956 5.565 58.9256 5.745C59.1356 5.955 59.3006 6.2 59.4206 6.48C59.5506 6.76 59.6156 7.06 59.6156 7.38V9.69C59.6156 10.01 59.5506 10.31 59.4206 10.59C59.3006 10.87 59.1356 11.115 58.9256 11.325C58.7156 11.535 58.4656 11.7 58.1756 11.82C57.8956 11.94 57.6006 12 57.2906 12ZM57.2906 9.69V7.38H54.9806V9.69H57.2906ZM56.7206 2.745H54.9806V5.055H56.7206V2.745ZM61.9434 0.435H67.7184V2.745H64.2534V5.055H67.1484V7.38H64.2534V9.69H67.7184V12H61.9434V0.435ZM74.649 8.535H72.339V12H70.029V0.435H74.649C74.959 0.435 75.254 0.494999 75.534 0.614999C75.824 0.734999 76.074 0.9 76.284 1.11C76.494 1.32 76.659 1.565 76.779 1.845C76.909 2.125 76.974 2.425 76.974 2.745V6.225C76.974 6.545 76.909 6.845 76.779 7.125C76.659 7.405 76.494 7.65 76.284 7.86C76.074 8.07 75.824 8.235 75.534 8.355C75.254 8.475 74.959 8.535 74.649 8.535ZM74.649 2.745H72.339V6.225H74.649V2.745ZM81.5968 5.055H83.9068V0.435H86.2318V12H83.9068V7.38H81.5968V12H79.2868V0.435H81.5968V5.055ZM90.8546 6.63L93.1646 1.35V0.435H95.4896V12H93.1646V7.125L91.0346 12H88.5446V0.435H90.8546V6.63ZM97.8025 2.745V0.435H104.747V2.745H102.422V12H100.112V2.745H97.8025ZM107.075 0.435H112.85V2.745H109.385V5.055H112.28V7.38H109.385V9.69H112.85V12H107.075V0.435ZM122.734 2.745V0.435H129.679V2.745H127.354V12H125.044V2.745H122.734ZM132.007 0.435H137.782V2.745H134.317V5.055H137.212V7.38H134.317V9.69H137.782V12H132.007V0.435ZM142.988 0.435H147.623V12H145.298V2.745H142.988V9.69C142.988 10.01 142.928 10.31 142.808 10.59C142.688 10.87 142.523 11.115 142.313 11.325C142.103 11.535 141.858 11.7 141.578 11.82C141.298 11.94 140.998 12 140.678 12H139.523V9.69H140.678V2.745C140.678 2.425 140.738 2.125 140.858 1.845C140.978 1.565 141.143 1.32 141.353 1.11C141.563 0.9 141.808 0.734999 142.088 0.614999C142.368 0.494999 142.668 0.435 142.988 0.435ZM149.365 0.435H155.14V2.745H151.675V5.055H154.57V7.38H151.675V9.69H155.14V12H149.365V0.435ZM163.226 0.435V2.175H164.396C164.716 2.175 165.016 2.235 165.296 2.355C165.576 2.475 165.821 2.64 166.031 2.85C166.241 3.06 166.406 3.305 166.526 3.585C166.646 3.865 166.706 4.165 166.706 4.485V7.95C166.706 8.27 166.646 8.57 166.526 8.85C166.406 9.13 166.241 9.375 166.031 9.585C165.821 9.795 165.576 9.96 165.296 10.08C165.016 10.2 164.716 10.26 164.396 10.26H163.226V12H160.916V10.26H159.761C159.441 10.26 159.141 10.2 158.861 10.08C158.581 9.96 158.336 9.795 158.126 9.585C157.916 9.375 157.751 9.13 157.631 8.85C157.511 8.57 157.451 8.27 157.451 7.95V4.485C157.451 4.165 157.511 3.865 157.631 3.585C157.751 3.305 157.916 3.06 158.126 2.85C158.336 2.64 158.581 2.475 158.861 2.355C159.141 2.235 159.441 2.175 159.761 2.175H160.916V0.435H163.226ZM159.761 4.485V7.95H160.916V4.485H159.761ZM163.226 7.95H164.396V4.485H163.226V7.95ZM173.643 12H171.333C171.013 12 170.713 11.94 170.433 11.82C170.153 11.7 169.908 11.535 169.698 11.325C169.488 11.115 169.323 10.87 169.203 10.59C169.083 10.31 169.023 10.01 169.023 9.69V2.745C169.023 2.425 169.083 2.125 169.203 1.845C169.323 1.565 169.488 1.32 169.698 1.11C169.908 0.9 170.153 0.734999 170.433 0.614999C170.713 0.494999 171.013 0.435 171.333 0.435H173.643C173.953 0.435 174.248 0.494999 174.528 0.614999C174.818 0.734999 175.068 0.9 175.278 1.11C175.488 1.32 175.653 1.565 175.773 1.845C175.903 2.125 175.968 2.425 175.968 2.745V9.69C175.968 10.01 175.903 10.31 175.773 10.59C175.653 10.87 175.488 11.115 175.278 11.325C175.068 11.535 174.818 11.7 174.528 11.82C174.248 11.94 173.953 12 173.643 12ZM173.643 2.745H171.333V9.69H173.643V2.745ZM180.591 5.055H182.901V0.435H185.226V12H182.901V7.38H180.591V12H178.281V0.435H180.591V5.055Z" fill="white"/>
<path d="M1.155 113.745V111.435H8.1V113.745H5.775V123H3.465V113.745H1.155ZM10.4128 121.68L13.3528 111.435H15.5578L18.5128 121.68V123H16.1878V122.01L15.8128 120.69H13.0978L12.7228 122.01V123H10.4128V121.68ZM15.1528 118.38L14.4628 115.98L13.7728 118.38H15.1528ZM27.7729 111.435V113.745H27.3079L25.4929 117.225L27.3079 120.69H27.7729V123H26.6029C26.3929 123 26.1979 122.95 26.0179 122.85C25.8379 122.74 25.6929 122.585 25.5829 122.385L23.4829 118.38H23.1379V123H20.8279V111.435H23.1379V116.055H23.4829L25.5829 112.05C25.6929 111.85 25.8379 111.7 26.0179 111.6C26.1979 111.49 26.3929 111.435 26.6029 111.435H27.7729ZM42.2789 123H37.6589V111.435H44.0189V113.745H39.9689V114.9H42.2789C42.5889 114.9 42.8839 114.965 43.1639 115.095C43.4539 115.215 43.7039 115.38 43.9139 115.59C44.1239 115.8 44.2889 116.05 44.4089 116.34C44.5389 116.62 44.6039 116.915 44.6039 117.225V120.69C44.6039 121.01 44.5389 121.31 44.4089 121.59C44.2889 121.87 44.1239 122.115 43.9139 122.325C43.7039 122.535 43.4539 122.7 43.1639 122.82C42.8839 122.94 42.5889 123 42.2789 123ZM42.2789 120.69V117.225H39.9689V120.69H42.2789ZM53.8617 111.435V116.055V120.69C53.8617 121.01 53.7967 121.31 53.6667 121.59C53.5467 121.87 53.3817 122.115 53.1717 122.325C52.9617 122.535 52.7117 122.7 52.4217 122.82C52.1417 122.94 51.8467 123 51.5367 123H49.2267C48.9067 123 48.6067 122.94 48.3267 122.82C48.0467 122.7 47.8017 122.535 47.5917 122.325C47.3817 122.115 47.2167 121.87 47.0967 121.59C46.9767 121.31 46.9167 121.01 46.9167 120.69V119.535H49.2267V120.69H51.5367V118.38H49.2267C48.9067 118.38 48.6067 118.32 48.3267 118.2C48.0467 118.07 47.8017 117.9 47.5917 117.69C47.3817 117.48 47.2167 117.235 47.0967 116.955C46.9767 116.675 46.9167 116.375 46.9167 116.055V111.435H49.2267V116.055H51.5367V111.435H53.8617ZM58.6195 111.435H64.2745V120.69H65.4295V124.125H63.1195V123H58.4845V124.125H56.1745V120.69H57.4645L58.6195 111.435ZM61.9495 120.69V113.745H60.6595L59.7895 120.69H61.9495ZM67.7618 111.435H73.5368V113.745H70.0718V116.055H72.9668V118.38H70.0718V120.69H73.5368V123H67.7618V111.435ZM75.8474 113.745V111.435H82.7924V113.745H80.4674V123H78.1574V113.745H75.8474ZM99.6234 111.435V116.055V120.69C99.6234 121.01 99.5584 121.31 99.4284 121.59C99.3084 121.87 99.1434 122.115 98.9334 122.325C98.7234 122.535 98.4734 122.7 98.1834 122.82C97.9034 122.94 97.6084 123 97.2984 123H94.9884C94.6684 123 94.3684 122.94 94.0884 122.82C93.8084 122.7 93.5634 122.535 93.3534 122.325C93.1434 122.115 92.9784 121.87 92.8584 121.59C92.7384 121.31 92.6784 121.01 92.6784 120.69V119.535H94.9884V120.69H97.2984V118.38H94.9884C94.6684 118.38 94.3684 118.32 94.0884 118.2C93.8084 118.07 93.5634 117.9 93.3534 117.69C93.1434 117.48 92.9784 117.235 92.8584 116.955C92.7384 116.675 92.6784 116.375 92.6784 116.055V111.435H94.9884V116.055H97.2984V111.435H99.6234ZM104.381 111.435H110.036V120.69H111.191V124.125H108.881V123H104.246V124.125H101.936V120.69H103.226L104.381 111.435ZM107.711 120.69V113.745H106.421L105.551 120.69H107.711ZM118.129 123H115.819C115.499 123 115.199 122.94 114.919 122.82C114.639 122.7 114.394 122.535 114.184 122.325C113.974 122.115 113.809 121.87 113.689 121.59C113.569 121.31 113.509 121.01 113.509 120.69V113.745C113.509 113.425 113.569 113.125 113.689 112.845C113.809 112.565 113.974 112.32 114.184 112.11C114.394 111.9 114.639 111.735 114.919 111.615C115.199 111.495 115.499 111.435 115.819 111.435H118.129C118.439 111.435 118.734 111.495 119.014 111.615C119.304 111.735 119.554 111.9 119.764 112.11C119.974 112.32 120.139 112.565 120.259 112.845C120.389 113.125 120.454 113.425 120.454 113.745V120.69C120.454 121.01 120.389 121.31 120.259 121.59C120.139 121.87 119.974 122.115 119.764 122.325C119.554 122.535 119.304 122.7 119.014 122.82C118.734 122.94 118.439 123 118.129 123ZM118.129 113.745H115.819V120.69H118.129V113.745ZM127.386 123H122.766V111.435H129.126V113.745H125.076V114.9H127.386C127.696 114.9 127.991 114.965 128.271 115.095C128.561 115.215 128.811 115.38 129.021 115.59C129.231 115.8 129.396 116.05 129.516 116.34C129.646 116.62 129.711 116.915 129.711 117.225V120.69C129.711 121.01 129.646 121.31 129.516 121.59C129.396 121.87 129.231 122.115 129.021 122.325C128.811 122.535 128.561 122.7 128.271 122.82C127.991 122.94 127.696 123 127.386 123ZM127.386 120.69V117.225H125.076V120.69H127.386ZM134.334 116.055H136.644V111.435H138.969V123H136.644V118.38H134.334V123H132.024V111.435H134.334V116.055ZM141.297 111.435H147.072V113.745H143.607V116.055H146.502V118.38H143.607V120.69H147.072V123H141.297V111.435ZM149.398 111.435H155.173V113.745H151.708V116.055H154.603V118.38H151.708V120.69H155.173V123H149.398V111.435ZM167.366 117.63L169.676 112.35V111.435H172.001V123H169.676V118.125L167.546 123H165.056V111.435H167.366V117.63ZM181.259 113.745H176.624V123H174.314V111.435H181.259V113.745ZM188.192 119.535H185.882V123H183.572V111.435H188.192C188.502 111.435 188.797 111.495 189.077 111.615C189.367 111.735 189.617 111.9 189.827 112.11C190.037 112.32 190.202 112.565 190.322 112.845C190.452 113.125 190.517 113.425 190.517 113.745V117.225C190.517 117.545 190.452 117.845 190.322 118.125C190.202 118.405 190.037 118.65 189.827 118.86C189.617 119.07 189.367 119.235 189.077 119.355C188.797 119.475 188.502 119.535 188.192 119.535ZM188.192 113.745H185.882V117.225H188.192V113.745ZM192.83 121.68L195.77 111.435H197.975L200.93 121.68V123H198.605V122.01L198.23 120.69H195.515L195.14 122.01V123H192.83V121.68ZM197.57 118.38L196.88 115.98L196.19 118.38H197.57ZM203.245 113.745V111.435H210.19V113.745H207.865V123H205.555V113.745H203.245ZM217.123 123H213.658H212.503V111.435H214.813V114.9H217.123C217.433 114.9 217.728 114.965 218.008 115.095C218.298 115.215 218.548 115.38 218.758 115.59C218.968 115.8 219.133 116.05 219.253 116.34C219.383 116.62 219.448 116.915 219.448 117.225V120.69C219.448 121.01 219.383 121.31 219.253 121.59C219.133 121.87 218.968 122.115 218.758 122.325C218.548 122.535 218.298 122.7 218.008 122.82C217.728 122.94 217.433 123 217.123 123ZM217.123 120.69V117.225H214.813V120.69H217.123Z" fill="white"/>
</svg>
