<svg width="390" height="844" viewBox="0 0 390 844" fill="none" xmlns="http://www.w3.org/2000/svg">
<g clip-path="url(#clip0_5122_36546)">
<rect width="390" height="844" fill="#818181"/>
<g filter="url(#filter0_f_5122_36546)">
<rect x="-43.0352" y="837.367" width="584.194" height="31.7802" fill="#353A53"/>
<circle cx="-10.7298" cy="844.219" r="35.2194" fill="#353A53"/>
<circle cx="59.7077" cy="844.219" r="35.2194" fill="#353A53"/>
<circle cx="130.147" cy="844.219" r="35.2194" fill="#353A53"/>
<circle cx="200.587" cy="844.219" r="35.2194" fill="#353A53"/>
<circle cx="271.026" cy="844.219" r="35.2194" fill="#353A53"/>
<circle cx="341.464" cy="844.219" r="35.2194" fill="#353A53"/>
<circle cx="411.903" cy="844.219" r="35.2194" fill="#353A53"/>
<rect x="550.035" y="7.07031" width="584.194" height="31.7802" transform="rotate(-180 550.035 7.07031)" fill="#353A53"/>
<circle cx="376.853" cy="0.218117" r="35.2194" transform="rotate(-180 376.853 0.218117)" fill="#353A53"/>
<circle cx="306.413" cy="0.218117" r="35.2194" transform="rotate(-180 306.413 0.218117)" fill="#353A53"/>
<circle cx="235.974" cy="0.218117" r="35.2194" transform="rotate(-180 235.974 0.218117)" fill="#353A53"/>
<circle cx="165.536" cy="0.218117" r="35.2194" transform="rotate(-180 165.536 0.218117)" fill="#353A53"/>
<circle cx="95.097" cy="0.218117" r="35.2194" transform="rotate(-180 95.097 0.218117)" fill="#353A53"/>
<circle cx="24.6576" cy="0.218117" r="35.2194" transform="rotate(-180 24.6576 0.218117)" fill="#353A53"/>
</g>
<path d="M219.368 409.324H170.664C169.455 409.324 167.332 410.644 167.256 412.403C167.219 418.376 167.167 430.829 167.255 432.851C167.332 434.61 169.454 435.93 170.664 435.93H219.367C220.576 435.93 222.699 434.61 222.776 432.851C222.812 426.878 222.864 414.425 222.776 412.403C222.699 410.644 220.577 409.324 219.368 409.324Z" fill="white" stroke="white" stroke-width="0.21988"/>
<path d="M171.104 420.428V424.715" stroke="black" stroke-width="0.879521" stroke-linecap="round"/>
<path d="M214.419 433.399V411.631C214.419 411.191 214.199 410.861 213.869 410.861H175.28C174.95 410.861 174.73 411.191 174.73 411.631V433.399C174.73 433.839 174.95 434.169 175.28 434.169H213.869C214.199 434.169 214.419 433.839 214.419 433.399Z" fill="black" stroke="white" stroke-width="0.21988"/>
<circle cx="218.489" cy="422.625" r="1.97876" fill="black"/>
<path d="M229.811 429.992L225.083 434.72L226.952 436.369C225.545 441.294 218.89 443.845 215.738 444.504V446.373C229.195 443.735 230.727 434.353 229.811 429.992Z" fill="white" stroke="white" stroke-width="0.21988" stroke-linecap="round"/>
<path d="M160.215 414.381L164.942 409.653L163.073 408.004C164.48 403.079 171.135 400.528 174.287 399.869V398C160.83 400.638 159.299 410.02 160.215 414.381Z" fill="white" stroke="white" stroke-width="0.21988" stroke-linecap="round"/>
<path d="M119.155 358.435H126.1V370H123.775V360.745H121.465V370H119.155V358.435ZM133.033 370H130.723C130.403 370 130.103 369.94 129.823 369.82C129.543 369.7 129.298 369.535 129.088 369.325C128.878 369.115 128.713 368.87 128.593 368.59C128.473 368.31 128.413 368.01 128.413 367.69V360.745C128.413 360.425 128.473 360.125 128.593 359.845C128.713 359.565 128.878 359.32 129.088 359.11C129.298 358.9 129.543 358.735 129.823 358.615C130.103 358.495 130.403 358.435 130.723 358.435H133.033C133.343 358.435 133.638 358.495 133.918 358.615C134.208 358.735 134.458 358.9 134.668 359.11C134.878 359.32 135.043 359.565 135.163 359.845C135.293 360.125 135.358 360.425 135.358 360.745V367.69C135.358 368.01 135.293 368.31 135.163 368.59C135.043 368.87 134.878 369.115 134.668 369.325C134.458 369.535 134.208 369.7 133.918 369.82C133.638 369.94 133.343 370 133.033 370ZM133.033 360.745H130.723V367.69H133.033V360.745ZM142.291 370H137.671V358.435H141.721C142.041 358.435 142.341 358.495 142.621 358.615C142.901 358.735 143.146 358.9 143.356 359.11C143.566 359.32 143.731 359.565 143.851 359.845C143.971 360.125 144.031 360.425 144.031 360.745V363.055C144.031 363.335 143.996 363.565 143.926 363.745C144.136 363.955 144.301 364.2 144.421 364.48C144.551 364.76 144.616 365.06 144.616 365.38V367.69C144.616 368.01 144.551 368.31 144.421 368.59C144.301 368.87 144.136 369.115 143.926 369.325C143.716 369.535 143.466 369.7 143.176 369.82C142.896 369.94 142.601 370 142.291 370ZM142.291 367.69V365.38H139.981V367.69H142.291ZM141.721 360.745H139.981V363.055H141.721V360.745ZM146.943 358.435H152.718V360.745H149.253V363.055H152.148V365.38H149.253V367.69H152.718V370H146.943V358.435ZM159.649 366.535H157.339V370H155.029V358.435H159.649C159.959 358.435 160.254 358.495 160.534 358.615C160.824 358.735 161.074 358.9 161.284 359.11C161.494 359.32 161.659 359.565 161.779 359.845C161.909 360.125 161.974 360.425 161.974 360.745V364.225C161.974 364.545 161.909 364.845 161.779 365.125C161.659 365.405 161.494 365.65 161.284 365.86C161.074 366.07 160.824 366.235 160.534 366.355C160.254 366.475 159.959 366.535 159.649 366.535ZM159.649 360.745H157.339V364.225H159.649V360.745ZM166.597 363.055H168.907V358.435H171.232V370H168.907V365.38H166.597V370H164.287V358.435H166.597V363.055ZM175.855 364.63L178.165 359.35V358.435H180.49V370H178.165V365.125L176.035 370H173.545V358.435H175.855V364.63ZM182.802 360.745V358.435H189.747V360.745H187.422V370H185.112V360.745H182.802ZM192.075 358.435H197.85V360.745H194.385V363.055H197.28V365.38H194.385V367.69H197.85V370H192.075V358.435ZM207.734 360.745V358.435H214.679V360.745H212.354V370H210.044V360.745H207.734ZM217.007 358.435H222.782V360.745H219.317V363.055H222.212V365.38H219.317V367.69H222.782V370H217.007V358.435ZM227.988 358.435H232.623V370H230.298V360.745H227.988V367.69C227.988 368.01 227.928 368.31 227.808 368.59C227.688 368.87 227.523 369.115 227.313 369.325C227.103 369.535 226.858 369.7 226.578 369.82C226.298 369.94 225.998 370 225.678 370H224.523V367.69H225.678V360.745C225.678 360.425 225.738 360.125 225.858 359.845C225.978 359.565 226.143 359.32 226.353 359.11C226.563 358.9 226.808 358.735 227.088 358.615C227.368 358.495 227.668 358.435 227.988 358.435ZM234.365 358.435H240.14V360.745H236.675V363.055H239.57V365.38H236.675V367.69H240.14V370H234.365V358.435ZM248.226 358.435V360.175H249.396C249.716 360.175 250.016 360.235 250.296 360.355C250.576 360.475 250.821 360.64 251.031 360.85C251.241 361.06 251.406 361.305 251.526 361.585C251.646 361.865 251.706 362.165 251.706 362.485V365.95C251.706 366.27 251.646 366.57 251.526 366.85C251.406 367.13 251.241 367.375 251.031 367.585C250.821 367.795 250.576 367.96 250.296 368.08C250.016 368.2 249.716 368.26 249.396 368.26H248.226V370H245.916V368.26H244.761C244.441 368.26 244.141 368.2 243.861 368.08C243.581 367.96 243.336 367.795 243.126 367.585C242.916 367.375 242.751 367.13 242.631 366.85C242.511 366.57 242.451 366.27 242.451 365.95V362.485C242.451 362.165 242.511 361.865 242.631 361.585C242.751 361.305 242.916 361.06 243.126 360.85C243.336 360.64 243.581 360.475 243.861 360.355C244.141 360.235 244.441 360.175 244.761 360.175H245.916V358.435H248.226ZM244.761 362.485V365.95H245.916V362.485H244.761ZM248.226 365.95H249.396V362.485H248.226V365.95ZM258.643 370H256.333C256.013 370 255.713 369.94 255.433 369.82C255.153 369.7 254.908 369.535 254.698 369.325C254.488 369.115 254.323 368.87 254.203 368.59C254.083 368.31 254.023 368.01 254.023 367.69V360.745C254.023 360.425 254.083 360.125 254.203 359.845C254.323 359.565 254.488 359.32 254.698 359.11C254.908 358.9 255.153 358.735 255.433 358.615C255.713 358.495 256.013 358.435 256.333 358.435H258.643C258.953 358.435 259.248 358.495 259.528 358.615C259.818 358.735 260.068 358.9 260.278 359.11C260.488 359.32 260.653 359.565 260.773 359.845C260.903 360.125 260.968 360.425 260.968 360.745V367.69C260.968 368.01 260.903 368.31 260.773 368.59C260.653 368.87 260.488 369.115 260.278 369.325C260.068 369.535 259.818 369.7 259.528 369.82C259.248 369.94 258.953 370 258.643 370ZM258.643 360.745H256.333V367.69H258.643V360.745ZM265.591 363.055H267.901V358.435H270.226V370H267.901V365.38H265.591V370H263.281V358.435H265.591V363.055Z" fill="white"/>
<path d="M86.155 471.745V469.435H93.1V471.745H90.775V481H88.465V471.745H86.155ZM95.4128 479.68L98.3528 469.435H100.558L103.513 479.68V481H101.188V480.01L100.813 478.69H98.0978L97.7228 480.01V481H95.4128V479.68ZM100.153 476.38L99.4628 473.98L98.7728 476.38H100.153ZM112.773 469.435V471.745H112.308L110.493 475.225L112.308 478.69H112.773V481H111.603C111.393 481 111.198 480.95 111.018 480.85C110.838 480.74 110.693 480.585 110.583 480.385L108.483 476.38H108.138V481H105.828V469.435H108.138V474.055H108.483L110.583 470.05C110.693 469.85 110.838 469.7 111.018 469.6C111.198 469.49 111.393 469.435 111.603 469.435H112.773ZM127.279 481H122.659V469.435H129.019V471.745H124.969V472.9H127.279C127.589 472.9 127.884 472.965 128.164 473.095C128.454 473.215 128.704 473.38 128.914 473.59C129.124 473.8 129.289 474.05 129.409 474.34C129.539 474.62 129.604 474.915 129.604 475.225V478.69C129.604 479.01 129.539 479.31 129.409 479.59C129.289 479.87 129.124 480.115 128.914 480.325C128.704 480.535 128.454 480.7 128.164 480.82C127.884 480.94 127.589 481 127.279 481ZM127.279 478.69V475.225H124.969V478.69H127.279ZM138.862 469.435V474.055V478.69C138.862 479.01 138.797 479.31 138.667 479.59C138.547 479.87 138.382 480.115 138.172 480.325C137.962 480.535 137.712 480.7 137.422 480.82C137.142 480.94 136.847 481 136.537 481H134.227C133.907 481 133.607 480.94 133.327 480.82C133.047 480.7 132.802 480.535 132.592 480.325C132.382 480.115 132.217 479.87 132.097 479.59C131.977 479.31 131.917 479.01 131.917 478.69V477.535H134.227V478.69H136.537V476.38H134.227C133.907 476.38 133.607 476.32 133.327 476.2C133.047 476.07 132.802 475.9 132.592 475.69C132.382 475.48 132.217 475.235 132.097 474.955C131.977 474.675 131.917 474.375 131.917 474.055V469.435H134.227V474.055H136.537V469.435H138.862ZM143.62 469.435H149.275V478.69H150.43V482.125H148.12V481H143.485V482.125H141.175V478.69H142.465L143.62 469.435ZM146.95 478.69V471.745H145.66L144.79 478.69H146.95ZM152.762 469.435H158.537V471.745H155.072V474.055H157.967V476.38H155.072V478.69H158.537V481H152.762V469.435ZM160.847 471.745V469.435H167.792V471.745H165.467V481H163.157V471.745H160.847ZM184.623 469.435V474.055V478.69C184.623 479.01 184.558 479.31 184.428 479.59C184.308 479.87 184.143 480.115 183.933 480.325C183.723 480.535 183.473 480.7 183.183 480.82C182.903 480.94 182.608 481 182.298 481H179.988C179.668 481 179.368 480.94 179.088 480.82C178.808 480.7 178.563 480.535 178.353 480.325C178.143 480.115 177.978 479.87 177.858 479.59C177.738 479.31 177.678 479.01 177.678 478.69V477.535H179.988V478.69H182.298V476.38H179.988C179.668 476.38 179.368 476.32 179.088 476.2C178.808 476.07 178.563 475.9 178.353 475.69C178.143 475.48 177.978 475.235 177.858 474.955C177.738 474.675 177.678 474.375 177.678 474.055V469.435H179.988V474.055H182.298V469.435H184.623ZM189.381 469.435H195.036V478.69H196.191V482.125H193.881V481H189.246V482.125H186.936V478.69H188.226L189.381 469.435ZM192.711 478.69V471.745H191.421L190.551 478.69H192.711ZM203.129 481H200.819C200.499 481 200.199 480.94 199.919 480.82C199.639 480.7 199.394 480.535 199.184 480.325C198.974 480.115 198.809 479.87 198.689 479.59C198.569 479.31 198.509 479.01 198.509 478.69V471.745C198.509 471.425 198.569 471.125 198.689 470.845C198.809 470.565 198.974 470.32 199.184 470.11C199.394 469.9 199.639 469.735 199.919 469.615C200.199 469.495 200.499 469.435 200.819 469.435H203.129C203.439 469.435 203.734 469.495 204.014 469.615C204.304 469.735 204.554 469.9 204.764 470.11C204.974 470.32 205.139 470.565 205.259 470.845C205.389 471.125 205.454 471.425 205.454 471.745V478.69C205.454 479.01 205.389 479.31 205.259 479.59C205.139 479.87 204.974 480.115 204.764 480.325C204.554 480.535 204.304 480.7 204.014 480.82C203.734 480.94 203.439 481 203.129 481ZM203.129 471.745H200.819V478.69H203.129V471.745ZM212.386 481H207.766V469.435H214.126V471.745H210.076V472.9H212.386C212.696 472.9 212.991 472.965 213.271 473.095C213.561 473.215 213.811 473.38 214.021 473.59C214.231 473.8 214.396 474.05 214.516 474.34C214.646 474.62 214.711 474.915 214.711 475.225V478.69C214.711 479.01 214.646 479.31 214.516 479.59C214.396 479.87 214.231 480.115 214.021 480.325C213.811 480.535 213.561 480.7 213.271 480.82C212.991 480.94 212.696 481 212.386 481ZM212.386 478.69V475.225H210.076V478.69H212.386ZM219.334 474.055H221.644V469.435H223.969V481H221.644V476.38H219.334V481H217.024V469.435H219.334V474.055ZM226.297 469.435H232.072V471.745H228.607V474.055H231.502V476.38H228.607V478.69H232.072V481H226.297V469.435ZM234.398 469.435H240.173V471.745H236.708V474.055H239.603V476.38H236.708V478.69H240.173V481H234.398V469.435ZM252.366 475.63L254.676 470.35V469.435H257.001V481H254.676V476.125L252.546 481H250.056V469.435H252.366V475.63ZM266.259 471.745H261.624V481H259.314V469.435H266.259V471.745ZM273.192 477.535H270.882V481H268.572V469.435H273.192C273.502 469.435 273.797 469.495 274.077 469.615C274.367 469.735 274.617 469.9 274.827 470.11C275.037 470.32 275.202 470.565 275.322 470.845C275.452 471.125 275.517 471.425 275.517 471.745V475.225C275.517 475.545 275.452 475.845 275.322 476.125C275.202 476.405 275.037 476.65 274.827 476.86C274.617 477.07 274.367 477.235 274.077 477.355C273.797 477.475 273.502 477.535 273.192 477.535ZM273.192 471.745H270.882V475.225H273.192V471.745ZM277.83 479.68L280.77 469.435H282.975L285.93 479.68V481H283.605V480.01L283.23 478.69H280.515L280.14 480.01V481H277.83V479.68ZM282.57 476.38L281.88 473.98L281.19 476.38H282.57ZM288.245 471.745V469.435H295.19V471.745H292.865V481H290.555V471.745H288.245ZM302.123 481H298.658H297.503V469.435H299.813V472.9H302.123C302.433 472.9 302.728 472.965 303.008 473.095C303.298 473.215 303.548 473.38 303.758 473.59C303.968 473.8 304.133 474.05 304.253 474.34C304.383 474.62 304.448 474.915 304.448 475.225V478.69C304.448 479.01 304.383 479.31 304.253 479.59C304.133 479.87 303.968 480.115 303.758 480.325C303.548 480.535 303.298 480.7 303.008 480.82C302.728 480.94 302.433 481 302.123 481ZM302.123 478.69V475.225H299.813V478.69H302.123Z" fill="white"/>
</g>
<defs>
<filter id="filter0_f_5122_36546" x="-91" y="-45.002" width="689" height="934.439" filterUnits="userSpaceOnUse" color-interpolation-filters="sRGB">
<feFlood flood-opacity="0" result="BackgroundImageFix"/>
<feBlend mode="normal" in="SourceGraphic" in2="BackgroundImageFix" result="shape"/>
<feGaussianBlur stdDeviation="5" result="effect1_foregroundBlur_5122_36546"/>
</filter>
<clipPath id="clip0_5122_36546">
<rect width="390" height="844" fill="white"/>
</clipPath>
</defs>
</svg>
