<svg width="1250" height="765" viewBox="0 0 1250 765" fill="none" xmlns="http://www.w3.org/2000/svg">
<g clip-path="url(#clip0_5340_55)">
<rect width="1250" height="765" fill="#EBF3FA"/>
<rect x="0.234375" y="761.699" width="1250" height="68" fill="#353A53"/>
<circle cx="69.3589" cy="776.359" r="75.3589" fill="#353A53"/>
<circle cx="220.076" cy="776.359" r="75.3589" fill="#353A53"/>
<circle cx="370.794" cy="776.359" r="75.3589" fill="#353A53"/>
<circle cx="521.511" cy="776.359" r="75.3589" fill="#353A53"/>
<circle cx="672.23" cy="776.359" r="75.3589" fill="#353A53"/>
<circle cx="822.947" cy="776.359" r="75.3589" fill="#353A53"/>
<circle cx="973.666" cy="776.359" r="75.3589" fill="#353A53"/>
<circle cx="1124.38" cy="776.359" r="75.3589" fill="#353A53"/>
<path d="M1275.1 701C1255.11 701 1235.95 708.94 1221.81 723.072C1207.68 737.205 1199.74 756.372 1199.74 776.359C1199.74 796.345 1207.68 815.513 1221.81 829.646C1235.95 843.778 1255.11 851.718 1275.1 851.718L1275.1 776.359V701Z" fill="#353A53"/>
<circle cx="1200.1" cy="-15.6401" r="75.3589" transform="rotate(-180 1200.1 -15.6401)" fill="#353A53"/>
<circle cx="1049.38" cy="-15.6401" r="75.3589" transform="rotate(-180 1049.38 -15.6401)" fill="#353A53"/>
<circle cx="898.665" cy="-15.6401" r="75.3589" transform="rotate(-180 898.665 -15.6401)" fill="#353A53"/>
<circle cx="747.948" cy="-15.6401" r="75.3589" transform="rotate(-180 747.948 -15.6401)" fill="#353A53"/>
<circle cx="597.229" cy="-15.6401" r="75.3589" transform="rotate(-180 597.229 -15.6401)" fill="#353A53"/>
<circle cx="446.512" cy="-15.6401" r="75.3589" transform="rotate(-180 446.512 -15.6401)" fill="#353A53"/>
<circle cx="295.793" cy="-15.6401" r="75.3589" transform="rotate(-180 295.793 -15.6401)" fill="#353A53"/>
<circle cx="145.075" cy="-15.6401" r="75.3589" transform="rotate(-180 145.075 -15.6401)" fill="#353A53"/>
<path d="M-5.6421 59.7187C14.3443 59.7188 33.5121 51.7792 47.6447 37.6466C61.7772 23.5141 69.7168 4.34628 69.7168 -15.6401C69.7168 -35.6266 61.7772 -54.7944 47.6447 -68.9269C33.5122 -83.0595 14.3443 -90.999 -5.64208 -90.999L-5.6421 -15.6401L-5.6421 59.7187Z" fill="#353A53"/>
<path d="M417.55 199H408.31V175.87H416.41C417.05 175.87 417.65 175.99 418.21 176.23C418.77 176.47 419.26 176.8 419.68 177.22C420.1 177.64 420.43 178.13 420.67 178.69C420.91 179.25 421.03 179.85 421.03 180.49V185.11C421.03 185.67 420.96 186.13 420.82 186.49C421.24 186.91 421.57 187.4 421.81 187.96C422.07 188.52 422.2 189.12 422.2 189.76V194.38C422.2 195.02 422.07 195.62 421.81 196.18C421.57 196.74 421.24 197.23 420.82 197.65C420.4 198.07 419.9 198.4 419.32 198.64C418.76 198.88 418.17 199 417.55 199ZM417.55 194.38V189.76H412.93V194.38H417.55ZM416.41 180.49H412.93V185.11H416.41V180.49ZM436.096 199H429.166H426.856V175.87H431.476V182.8H436.096C436.716 182.8 437.306 182.93 437.866 183.19C438.446 183.43 438.946 183.76 439.366 184.18C439.786 184.6 440.116 185.1 440.356 185.68C440.616 186.24 440.746 186.83 440.746 187.45V194.38C440.746 195.02 440.616 195.62 440.356 196.18C440.116 196.74 439.786 197.23 439.366 197.65C438.946 198.07 438.446 198.4 437.866 198.64C437.306 198.88 436.716 199 436.096 199ZM436.096 194.38V187.45H431.476V194.38H436.096ZM441.886 175.87H446.506V199H441.886V175.87ZM460.353 199H451.113V175.87H463.833V180.49H455.733V182.8H460.353C460.973 182.8 461.563 182.93 462.123 183.19C462.703 183.43 463.203 183.76 463.623 184.18C464.043 184.6 464.373 185.1 464.613 185.68C464.873 186.24 465.003 186.83 465.003 187.45V194.38C465.003 195.02 464.873 195.62 464.613 196.18C464.373 196.74 464.043 197.23 463.623 197.65C463.203 198.07 462.703 198.4 462.123 198.64C461.563 198.88 460.973 199 460.353 199ZM460.353 194.38V187.45H455.733V194.38H460.353ZM469.658 175.87H481.208V180.49H474.278V185.11H480.068V189.76H474.278V194.38H481.208V199H469.658V175.87ZM495.07 192.07H490.45V199H485.83V175.87H495.07C495.69 175.87 496.28 175.99 496.84 176.23C497.42 176.47 497.92 176.8 498.34 177.22C498.76 177.64 499.09 178.13 499.33 178.69C499.59 179.25 499.72 179.85 499.72 180.49V187.45C499.72 188.09 499.59 188.69 499.33 189.25C499.09 189.81 498.76 190.3 498.34 190.72C497.92 191.14 497.42 191.47 496.84 191.71C496.28 191.95 495.69 192.07 495.07 192.07ZM495.07 180.49H490.45V187.45H495.07V180.49ZM508.965 188.26L513.585 177.7V175.87H518.235V199H513.585V189.25L509.325 199H504.345V175.87H508.965V188.26ZM522.861 194.38H527.481V196.69L526.341 201.25H525.171V199H522.861V194.38ZM561.126 180.49H551.856V199H547.236V175.87H561.126V180.49ZM570.641 175.87H581.951V194.38H584.261V201.25H579.641V199H570.371V201.25H565.751V194.38H568.331L570.641 175.87ZM577.301 194.38V180.49H574.721L572.981 194.38H577.301ZM588.926 175.87H600.476V180.49H593.546V185.11H599.336V189.76H593.546V194.38H600.476V199H588.926V175.87ZM620.244 180.49V175.87H634.134V180.49H629.484V199H624.864V180.49H620.244ZM648.029 199H641.099H638.789V175.87H643.409V182.8H648.029C648.649 182.8 649.239 182.93 649.799 183.19C650.379 183.43 650.879 183.76 651.299 184.18C651.719 184.6 652.049 185.1 652.289 185.68C652.549 186.24 652.679 186.83 652.679 187.45V194.38C652.679 195.02 652.549 195.62 652.289 196.18C652.049 196.74 651.719 197.23 651.299 197.65C650.879 198.07 650.379 198.4 649.799 198.64C649.239 198.88 648.649 199 648.029 199ZM648.029 194.38V187.45H643.409V194.38H648.029ZM653.819 175.87H658.439V199H653.819V175.87ZM682.813 185.11H687.433V175.87H692.083V199H687.433V189.76H682.813V199H678.193V175.87H682.813V185.11ZM696.708 196.36L702.588 175.87H706.998L712.908 196.36V199H708.258V197.02L707.508 194.38H702.078L701.328 197.02V199H696.708V196.36ZM706.188 189.76L704.808 184.96L703.428 189.76H706.188ZM726.779 177.19V175.87H731.429V178.24L727.049 187.45L731.429 196.63V199H726.779V197.68L724.469 192.82L722.159 197.68V199H717.539V196.63L721.919 187.45L717.539 178.24V175.87H722.159V177.19L724.469 182.05L726.779 177.19ZM745.294 199H740.674C740.034 199 739.434 198.88 738.874 198.64C738.314 198.4 737.824 198.07 737.404 197.65C736.984 197.23 736.654 196.74 736.414 196.18C736.174 195.62 736.054 195.02 736.054 194.38V180.49C736.054 179.85 736.174 179.25 736.414 178.69C736.654 178.13 736.984 177.64 737.404 177.22C737.824 176.8 738.314 176.47 738.874 176.23C739.434 175.99 740.034 175.87 740.674 175.87H745.294C745.914 175.87 746.504 175.99 747.064 176.23C747.644 176.47 748.144 176.8 748.564 177.22C748.984 177.64 749.314 178.13 749.554 178.69C749.814 179.25 749.944 179.85 749.944 180.49V194.38C749.944 195.02 749.814 195.62 749.554 196.18C749.314 196.74 748.984 197.23 748.564 197.65C748.144 198.07 747.644 198.4 747.064 198.64C746.504 198.88 745.914 199 745.294 199ZM745.294 180.49H740.674V194.38H745.294V180.49ZM759.46 175.87H770.77V194.38H773.08V201.25H768.46V199H759.19V201.25H754.57V194.38H757.15L759.46 175.87ZM766.12 194.38V180.49H763.54L761.8 194.38H766.12ZM782.334 188.26L786.954 177.7V175.87H791.604V199H786.954V189.25L782.694 199H777.714V175.87H782.334V188.26ZM807.78 194.38H810.12V175.87H814.74V199H796.23V175.87H800.85V194.38H803.16V175.87H807.78V194.38ZM828.614 199H821.684H819.374V175.87H823.994V182.8H828.614C829.234 182.8 829.824 182.93 830.384 183.19C830.964 183.43 831.464 183.76 831.884 184.18C832.304 184.6 832.634 185.1 832.874 185.68C833.134 186.24 833.264 186.83 833.264 187.45V194.38C833.264 195.02 833.134 195.62 832.874 196.18C832.634 196.74 832.304 197.23 831.884 197.65C831.464 198.07 830.964 198.4 830.384 198.64C829.824 198.88 829.234 199 828.614 199ZM828.614 194.38V187.45H823.994V194.38H828.614ZM847.13 199H842.51C841.87 199 841.27 198.88 840.71 198.64C840.15 198.4 839.66 198.07 839.24 197.65C838.82 197.23 838.49 196.74 838.25 196.18C838.01 195.62 837.89 195.02 837.89 194.38V180.49C837.89 179.85 838.01 179.25 838.25 178.69C838.49 178.13 838.82 177.64 839.24 177.22C839.66 176.8 840.15 176.47 840.71 176.23C841.27 175.99 841.87 175.87 842.51 175.87H847.13C847.75 175.87 848.34 175.99 848.9 176.23C849.48 176.47 849.98 176.8 850.4 177.22C850.82 177.64 851.15 178.13 851.39 178.69C851.65 179.25 851.78 179.85 851.78 180.49V182.8H847.13V180.49H842.51V194.38H847.13V192.07H851.78V194.38C851.78 195.02 851.65 195.62 851.39 196.18C851.15 196.74 850.82 197.23 850.4 197.65C849.98 198.07 849.48 198.4 848.9 198.64C848.34 198.88 847.75 199 847.13 199ZM861.026 175.87H870.296V199H865.646V192.07H864.026L861.026 198.37V199H856.406V197.32L859.106 191.65C858.306 191.27 857.656 190.72 857.156 190C856.656 189.26 856.406 188.41 856.406 187.45V180.49C856.406 179.85 856.526 179.25 856.766 178.69C857.006 178.13 857.336 177.64 857.756 177.22C858.176 176.8 858.666 176.47 859.226 176.23C859.786 175.99 860.386 175.87 861.026 175.87ZM861.026 187.45H865.646V180.49H861.026V187.45Z" fill="#353A53"/>
</g>
<defs>
<clipPath id="clip0_5340_55">
<rect width="1250" height="765" fill="white"/>
</clipPath>
</defs>
</svg>
