<svg width="1250" height="765" viewBox="0 0 1250 765" fill="none" xmlns="http://www.w3.org/2000/svg">
<g clip-path="url(#clip0_5122_13905)">
<rect width="1250" height="765" fill="white"/>
<path d="M211.31 620.87H225.2V644H220.55V625.49H215.93V644H211.31V620.87ZM239.066 644H234.446C233.806 644 233.206 643.88 232.646 643.64C232.086 643.4 231.596 643.07 231.176 642.65C230.756 642.23 230.426 641.74 230.186 641.18C229.946 640.62 229.826 640.02 229.826 639.38V625.49C229.826 624.85 229.946 624.25 230.186 623.69C230.426 623.13 230.756 622.64 231.176 622.22C231.596 621.8 232.086 621.47 232.646 621.23C233.206 620.99 233.806 620.87 234.446 620.87H239.066C239.686 620.87 240.276 620.99 240.836 621.23C241.416 621.47 241.916 621.8 242.336 622.22C242.756 622.64 243.086 623.13 243.326 623.69C243.586 624.25 243.716 624.85 243.716 625.49V639.38C243.716 640.02 243.586 640.62 243.326 641.18C243.086 641.74 242.756 642.23 242.336 642.65C241.916 643.07 241.416 643.4 240.836 643.64C240.276 643.88 239.686 644 239.066 644ZM239.066 625.49H234.446V639.38H239.066V625.49ZM262.231 620.87V625.49H261.301L257.671 632.45L261.301 639.38H262.231V644H259.891C259.471 644 259.081 643.9 258.721 643.7C258.361 643.48 258.071 643.17 257.851 642.77L253.651 634.76H252.961V644H248.341V620.87H252.961V630.11H253.651L257.851 622.1C258.071 621.7 258.361 621.4 258.721 621.2C259.081 620.98 259.471 620.87 259.891 620.87H262.231ZM266.857 641.36L272.737 620.87H277.147L283.057 641.36V644H278.407V642.02L277.657 639.38H272.227L271.477 642.02V644H266.857V641.36ZM276.337 634.76L274.957 629.96L273.577 634.76H276.337ZM310.817 620.87V625.49H309.887L306.257 632.45L309.887 639.38H310.817V644H308.507C308.067 644 307.667 643.89 307.307 643.67C306.947 643.45 306.667 643.15 306.467 642.77L302.237 634.76H301.577V644H296.927V634.76H296.267L292.037 642.77C291.837 643.15 291.557 643.45 291.197 643.67C290.837 643.89 290.437 644 289.997 644H287.687V639.38H288.587L292.247 632.45L288.587 625.49H287.687V620.87H289.997C290.437 620.87 290.837 620.98 291.197 621.2C291.557 621.42 291.837 621.72 292.037 622.1L296.267 630.11H296.927V620.87H301.577V630.11H302.237L306.467 622.1C306.667 621.72 306.947 621.42 307.307 621.2C307.667 620.98 308.067 620.87 308.507 620.87H310.817ZM320.051 633.26L324.671 622.7V620.87H329.321V644H324.671V634.25L320.411 644H315.431V620.87H320.051V633.26ZM353.713 630.11H358.333V620.87H362.983V644H358.333V634.76H353.713V644H349.093V620.87H353.713V630.11ZM367.609 641.36L373.489 620.87H377.899L383.809 641.36V644H379.159V642.02L378.409 639.38H372.979L372.229 642.02V644H367.609V641.36ZM377.089 634.76L375.709 629.96L374.329 634.76H377.089ZM417.475 620.87V625.49H416.545L412.915 632.45L416.545 639.38H417.475V644H415.135C414.715 644 414.325 643.9 413.965 643.7C413.605 643.48 413.315 643.17 413.095 642.77L408.895 634.76H408.205V644H403.585V620.87H408.205V630.11H408.895L413.095 622.1C413.315 621.7 413.605 621.4 413.965 621.2C414.325 620.98 414.715 620.87 415.135 620.87H417.475ZM422.101 641.36L427.981 620.87H432.391L438.301 641.36V644H433.651V642.02L432.901 639.38H427.471L426.721 642.02V644H422.101V641.36ZM431.581 634.76L430.201 629.96L428.821 634.76H431.581ZM452.171 644H447.551C446.911 644 446.311 643.88 445.751 643.64C445.191 643.4 444.701 643.07 444.281 642.65C443.861 642.23 443.531 641.74 443.291 641.18C443.051 640.62 442.931 640.02 442.931 639.38V625.49C442.931 624.85 443.051 624.25 443.291 623.69C443.531 623.13 443.861 622.64 444.281 622.22C444.701 621.8 445.191 621.47 445.751 621.23C446.311 620.99 446.911 620.87 447.551 620.87H452.171C452.791 620.87 453.381 620.99 453.941 621.23C454.521 621.47 455.021 621.8 455.441 622.22C455.861 622.64 456.191 623.13 456.431 623.69C456.691 624.25 456.821 624.85 456.821 625.49V627.8H452.171V625.49H447.551V639.38H452.171V637.07H456.821V639.38C456.821 640.02 456.691 640.62 456.431 641.18C456.191 641.74 455.861 642.23 455.441 642.65C455.021 643.07 454.521 643.4 453.941 643.64C453.381 643.88 452.791 644 452.171 644ZM470.687 644H466.067C465.427 644 464.827 643.88 464.267 643.64C463.707 643.4 463.217 643.07 462.797 642.65C462.377 642.23 462.047 641.74 461.807 641.18C461.567 640.62 461.447 640.02 461.447 639.38V625.49C461.447 624.85 461.567 624.25 461.807 623.69C462.047 623.13 462.377 622.64 462.797 622.22C463.217 621.8 463.707 621.47 464.267 621.23C464.827 620.99 465.427 620.87 466.067 620.87H470.687C471.307 620.87 471.897 620.99 472.457 621.23C473.037 621.47 473.537 621.8 473.957 622.22C474.377 622.64 474.707 623.13 474.947 623.69C475.207 624.25 475.337 624.85 475.337 625.49V627.8H470.687V625.49H466.067V639.38H470.687V637.07H475.337V639.38C475.337 640.02 475.207 640.62 474.947 641.18C474.707 641.74 474.377 642.23 473.957 642.65C473.537 643.07 473.037 643.4 472.457 643.64C471.897 643.88 471.307 644 470.687 644ZM479.992 620.87H491.542V625.49H484.612V630.11H490.402V634.76H484.612V639.38H491.542V644H479.992V620.87ZM515.93 620.87H520.55C521.17 620.87 521.76 620.99 522.32 621.23C522.9 621.47 523.4 621.8 523.82 622.22C524.24 622.64 524.57 623.13 524.81 623.69C525.07 624.25 525.2 624.85 525.2 625.49V639.38C525.2 640.02 525.07 640.62 524.81 641.18C524.57 641.74 524.24 642.23 523.82 642.65C523.4 643.07 522.9 643.4 522.32 643.64C521.76 643.88 521.17 644 520.55 644H515.93C515.29 644 514.69 643.88 514.13 643.64C513.57 643.4 513.08 643.07 512.66 642.65C512.24 642.23 511.91 641.74 511.67 641.18C511.43 640.62 511.31 640.02 511.31 639.38V637.07H515.93V639.38H520.55V634.76H515.93V630.11H520.55V625.49H515.93V627.8H511.31V625.49C511.31 624.85 511.43 624.25 511.67 623.69C511.91 623.13 512.24 622.64 512.66 622.22C513.08 621.8 513.57 621.47 514.13 621.23C514.69 620.99 515.29 620.87 515.93 620.87ZM529.826 625.49V620.87H543.716V625.49H539.066V644H534.446V625.49H529.826ZM557.581 644H552.961C552.321 644 551.721 643.88 551.161 643.64C550.601 643.4 550.111 643.07 549.691 642.65C549.271 642.23 548.941 641.74 548.701 641.18C548.461 640.62 548.341 640.02 548.341 639.38V625.49C548.341 624.85 548.461 624.25 548.701 623.69C548.941 623.13 549.271 622.64 549.691 622.22C550.111 621.8 550.601 621.47 551.161 621.23C551.721 620.99 552.321 620.87 552.961 620.87H557.581C558.201 620.87 558.791 620.99 559.351 621.23C559.931 621.47 560.431 621.8 560.851 622.22C561.271 622.64 561.601 623.13 561.841 623.69C562.101 624.25 562.231 624.85 562.231 625.49V639.38C562.231 640.02 562.101 640.62 561.841 641.18C561.601 641.74 561.271 642.23 560.851 642.65C560.431 643.07 559.931 643.4 559.351 643.64C558.791 643.88 558.201 644 557.581 644ZM557.581 625.49H552.961V639.38H557.581V625.49ZM566.857 625.49V620.87H580.747V625.49H576.097V644H571.477V625.49H566.857ZM605.139 620.87H609.759C610.379 620.87 610.969 620.99 611.529 621.23C612.109 621.47 612.609 621.8 613.029 622.22C613.449 622.64 613.779 623.13 614.019 623.69C614.279 624.25 614.409 624.85 614.409 625.49V639.38C614.409 640.02 614.279 640.62 614.019 641.18C613.779 641.74 613.449 642.23 613.029 642.65C612.609 643.07 612.109 643.4 611.529 643.64C610.969 643.88 610.379 644 609.759 644H605.139C604.499 644 603.899 643.88 603.339 643.64C602.779 643.4 602.289 643.07 601.869 642.65C601.449 642.23 601.119 641.74 600.879 641.18C600.639 640.62 600.519 640.02 600.519 639.38V637.07H605.139V639.38H609.759V634.76H605.139V630.11H609.759V625.49H605.139V627.8H600.519V625.49C600.519 624.85 600.639 624.25 600.879 623.69C601.119 623.13 601.449 622.64 601.869 622.22C602.289 621.8 602.779 621.47 603.339 621.23C603.899 620.99 604.499 620.87 605.139 620.87ZM632.925 620.87V625.49H631.995L628.365 632.45L631.995 639.38H632.925V644H630.585C630.165 644 629.775 643.9 629.415 643.7C629.055 643.48 628.765 643.17 628.545 642.77L624.345 634.76H623.655V644H619.035V620.87H623.655V630.11H624.345L628.545 622.1C628.765 621.7 629.055 621.4 629.415 621.2C629.775 620.98 630.165 620.87 630.585 620.87H632.925ZM646.79 637.07H642.17V644H637.55V620.87H646.79C647.41 620.87 648 620.99 648.56 621.23C649.14 621.47 649.64 621.8 650.06 622.22C650.48 622.64 650.81 623.13 651.05 623.69C651.31 624.25 651.44 624.85 651.44 625.49V632.45C651.44 633.09 651.31 633.69 651.05 634.25C650.81 634.81 650.48 635.3 650.06 635.72C649.64 636.14 649.14 636.47 648.56 636.71C648 636.95 647.41 637.07 646.79 637.07ZM646.79 625.49H642.17V632.45H646.79V625.49ZM656.066 641.36L661.946 620.87H666.356L672.266 641.36V644H667.616V642.02L666.866 639.38H661.436L660.686 642.02V644H656.066V641.36ZM665.546 634.76L664.166 629.96L662.786 634.76H665.546ZM681.516 630.11H686.136V620.87H690.786V644H686.136V634.76H681.516V644H676.896V620.87H681.516V630.11ZM715.178 633.26L719.798 622.7V620.87H724.448V644H719.798V634.25L715.538 644H710.558V620.87H715.178V633.26ZM744.22 620.87H758.11V644H753.46V625.49H748.84V644H744.22V620.87ZM771.976 644H767.356C766.716 644 766.116 643.88 765.556 643.64C764.996 643.4 764.506 643.07 764.086 642.65C763.666 642.23 763.336 641.74 763.096 641.18C762.856 640.62 762.736 640.02 762.736 639.38V625.49C762.736 624.85 762.856 624.25 763.096 623.69C763.336 623.13 763.666 622.64 764.086 622.22C764.506 621.8 764.996 621.47 765.556 621.23C766.116 620.99 766.716 620.87 767.356 620.87H771.976C772.596 620.87 773.186 620.99 773.746 621.23C774.326 621.47 774.826 621.8 775.246 622.22C775.666 622.64 775.996 623.13 776.236 623.69C776.496 624.25 776.626 624.85 776.626 625.49V639.38C776.626 640.02 776.496 640.62 776.236 641.18C775.996 641.74 775.666 642.23 775.246 642.65C774.826 643.07 774.326 643.4 773.746 643.64C773.186 643.88 772.596 644 771.976 644ZM771.976 625.49H767.356V639.38H771.976V625.49ZM787.041 620.87H796.311V644H791.661V625.49H787.041V639.38C787.041 640.02 786.921 640.62 786.681 641.18C786.441 641.74 786.111 642.23 785.691 642.65C785.271 643.07 784.781 643.4 784.221 643.64C783.661 643.88 783.061 644 782.421 644H780.111V639.38H782.421V625.49C782.421 624.85 782.541 624.25 782.781 623.69C783.021 623.13 783.351 622.64 783.771 622.22C784.191 621.8 784.681 621.47 785.241 621.23C785.801 620.99 786.401 620.87 787.041 620.87ZM813.657 620.87V630.11V639.38C813.657 640.02 813.527 640.62 813.267 641.18C813.027 641.74 812.697 642.23 812.277 642.65C811.857 643.07 811.357 643.4 810.777 643.64C810.217 643.88 809.627 644 809.007 644H804.387C803.747 644 803.147 643.88 802.587 643.64C802.027 643.4 801.537 643.07 801.117 642.65C800.697 642.23 800.367 641.74 800.127 641.18C799.887 640.62 799.767 640.02 799.767 639.38V637.07H804.387V639.38H809.007V634.76H804.387C803.747 634.76 803.147 634.64 802.587 634.4C802.027 634.14 801.537 633.8 801.117 633.38C800.697 632.96 800.367 632.47 800.127 631.91C799.887 631.35 799.767 630.75 799.767 630.11V620.87H804.387V630.11H809.007V620.87H813.657ZM827.523 632.45V620.87H832.173V644H827.523V637.07H822.903C822.263 637.07 821.663 636.95 821.103 636.71C820.543 636.47 820.053 636.14 819.633 635.72C819.213 635.3 818.883 634.81 818.643 634.25C818.403 633.69 818.283 633.09 818.283 632.45V620.87H822.903V632.45H827.523ZM841.418 633.26L846.038 622.7V620.87H850.688V644H846.038V634.25L841.778 644H836.798V620.87H841.418V633.26ZM879.7 644H875.08C874.44 644 873.84 643.88 873.28 643.64C872.72 643.4 872.23 643.07 871.81 642.65C871.39 642.23 871.06 641.74 870.82 641.18C870.58 640.62 870.46 640.02 870.46 639.38V625.49C870.46 624.85 870.58 624.25 870.82 623.69C871.06 623.13 871.39 622.64 871.81 622.22C872.23 621.8 872.72 621.47 873.28 621.23C873.84 620.99 874.44 620.87 875.08 620.87H879.7C880.32 620.87 880.91 620.99 881.47 621.23C882.05 621.47 882.55 621.8 882.97 622.22C883.39 622.64 883.72 623.13 883.96 623.69C884.22 624.25 884.35 624.85 884.35 625.49V627.8H879.7V625.49H875.08V639.38H879.7V637.07H884.35V639.38C884.35 640.02 884.22 640.62 883.96 641.18C883.72 641.74 883.39 642.23 882.97 642.65C882.55 643.07 882.05 643.4 881.47 643.64C880.91 643.88 880.32 644 879.7 644ZM898.216 644H888.976V620.87H897.076C897.716 620.87 898.316 620.99 898.876 621.23C899.436 621.47 899.926 621.8 900.346 622.22C900.766 622.64 901.096 623.13 901.336 623.69C901.576 624.25 901.696 624.85 901.696 625.49V630.11C901.696 630.67 901.626 631.13 901.486 631.49C901.906 631.91 902.236 632.4 902.476 632.96C902.736 633.52 902.866 634.12 902.866 634.76V639.38C902.866 640.02 902.736 640.62 902.476 641.18C902.236 641.74 901.906 642.23 901.486 642.65C901.066 643.07 900.566 643.4 899.986 643.64C899.426 643.88 898.836 644 898.216 644ZM898.216 639.38V634.76H893.596V639.38H898.216ZM897.076 625.49H893.596V630.11H897.076V625.49ZM916.732 644H912.112C911.472 644 910.872 643.88 910.312 643.64C909.752 643.4 909.262 643.07 908.842 642.65C908.422 642.23 908.092 641.74 907.852 641.18C907.612 640.62 907.492 640.02 907.492 639.38V625.49C907.492 624.85 907.612 624.25 907.852 623.69C908.092 623.13 908.422 622.64 908.842 622.22C909.262 621.8 909.752 621.47 910.312 621.23C910.872 620.99 911.472 620.87 912.112 620.87H916.732C917.352 620.87 917.942 620.99 918.502 621.23C919.082 621.47 919.582 621.8 920.002 622.22C920.422 622.64 920.752 623.13 920.992 623.69C921.252 624.25 921.382 624.85 921.382 625.49V639.38C921.382 640.02 921.252 640.62 920.992 641.18C920.752 641.74 920.422 642.23 920.002 642.65C919.582 643.07 919.082 643.4 918.502 643.64C917.942 643.88 917.352 644 916.732 644ZM916.732 625.49H912.112V639.38H916.732V625.49ZM939.897 644H935.247V634.25L930.987 644H926.007V620.87H930.627V633.26L935.247 622.7V620.87H939.897V644ZM932.937 619.7C933.577 619.7 934.177 619.58 934.737 619.34C935.297 619.1 935.787 618.77 936.207 618.35C936.627 617.93 936.957 617.44 937.197 616.88C937.437 616.32 937.557 615.72 937.557 615.08H935.247C935.247 615.72 935.017 616.27 934.557 616.73C934.117 617.17 933.577 617.39 932.937 617.39C932.297 617.39 931.747 617.17 931.287 616.73C930.847 616.27 930.627 615.72 930.627 615.08H928.317C928.317 615.72 928.437 616.32 928.677 616.88C928.917 617.44 929.247 617.93 929.667 618.35C930.087 618.77 930.577 619.1 931.137 619.34C931.697 619.58 932.297 619.7 932.937 619.7ZM959.669 620.87H973.559V644H968.909V625.49H964.289V644H959.669V620.87ZM987.425 637.07H982.805V644H978.185V620.87H987.425C988.045 620.87 988.635 620.99 989.195 621.23C989.775 621.47 990.275 621.8 990.695 622.22C991.115 622.64 991.445 623.13 991.685 623.69C991.945 624.25 992.075 624.85 992.075 625.49V632.45C992.075 633.09 991.945 633.69 991.685 634.25C991.445 634.81 991.115 635.3 990.695 635.72C990.275 636.14 989.775 636.47 989.195 636.71C988.635 636.95 988.045 637.07 987.425 637.07ZM987.425 625.49H982.805V632.45H987.425V625.49ZM1001.32 633.26L1005.94 622.7V620.87H1010.59V644H1005.94V634.25L1001.68 644H996.701V620.87H1001.32V633.26ZM1029.11 625.49V630.11C1029.11 630.55 1029.05 630.97 1028.93 631.37C1028.83 631.75 1028.68 632.11 1028.48 632.45C1028.68 632.79 1028.83 633.16 1028.93 633.56C1029.05 633.94 1029.11 634.34 1029.11 634.76V639.38C1029.11 640.02 1028.98 640.62 1028.72 641.18C1028.48 641.74 1028.15 642.23 1027.73 642.65C1027.31 643.07 1026.81 643.4 1026.23 643.64C1025.67 643.88 1025.08 644 1024.46 644H1015.22V639.38H1024.46V634.76H1016.6V630.11H1024.46V625.49H1015.22V620.87H1024.46C1025.08 620.87 1025.67 620.99 1026.23 621.23C1026.81 621.47 1027.31 621.8 1027.73 622.22C1028.15 622.64 1028.48 623.13 1028.72 623.69C1028.98 624.25 1029.11 624.85 1029.11 625.49ZM1033.73 620.87H1038.35V637.07H1033.73V620.87ZM1033.73 639.38H1038.35V644H1033.73V639.38Z" fill="#353A53"/>
<rect x="0.234375" y="761.699" width="1250" height="68" fill="#353A53"/>
<circle cx="69.3589" cy="776.359" r="75.3589" fill="#353A53"/>
<circle cx="220.076" cy="776.359" r="75.3589" fill="#353A53"/>
<circle cx="370.794" cy="776.359" r="75.3589" fill="#353A53"/>
<circle cx="521.511" cy="776.359" r="75.3589" fill="#353A53"/>
<circle cx="672.23" cy="776.359" r="75.3589" fill="#353A53"/>
<circle cx="822.947" cy="776.359" r="75.3589" fill="#353A53"/>
<circle cx="973.666" cy="776.359" r="75.3589" fill="#353A53"/>
<circle cx="1124.38" cy="776.359" r="75.3589" fill="#353A53"/>
<path d="M1275.1 701C1255.11 701 1235.95 708.94 1221.81 723.072C1207.68 737.205 1199.74 756.372 1199.74 776.359C1199.74 796.345 1207.68 815.513 1221.81 829.646C1235.95 843.778 1255.11 851.718 1275.1 851.718L1275.1 776.359V701Z" fill="#353A53"/>
<circle cx="1200.1" cy="-15.6401" r="75.3589" transform="rotate(-180 1200.1 -15.6401)" fill="#353A53"/>
<circle cx="1049.38" cy="-15.6401" r="75.3589" transform="rotate(-180 1049.38 -15.6401)" fill="#353A53"/>
<circle cx="898.665" cy="-15.6401" r="75.3589" transform="rotate(-180 898.665 -15.6401)" fill="#353A53"/>
<circle cx="747.948" cy="-15.6401" r="75.3589" transform="rotate(-180 747.948 -15.6401)" fill="#353A53"/>
<circle cx="597.229" cy="-15.6401" r="75.3589" transform="rotate(-180 597.229 -15.6401)" fill="#353A53"/>
<circle cx="446.512" cy="-15.6401" r="75.3589" transform="rotate(-180 446.512 -15.6401)" fill="#353A53"/>
<circle cx="295.793" cy="-15.6401" r="75.3589" transform="rotate(-180 295.793 -15.6401)" fill="#353A53"/>
<circle cx="145.075" cy="-15.6401" r="75.3589" transform="rotate(-180 145.075 -15.6401)" fill="#353A53"/>
<path d="M-5.6421 59.7187C14.3443 59.7188 33.5121 51.7792 47.6447 37.6466C61.7772 23.5141 69.7168 4.34628 69.7168 -15.6401C69.7168 -35.6266 61.7772 -54.7944 47.6447 -68.9269C33.5122 -83.0595 14.3443 -90.999 -5.64208 -90.999L-5.6421 -15.6401L-5.6421 59.7187Z" fill="#353A53"/>
</g>
<defs>
<clipPath id="clip0_5122_13905">
<rect width="1250" height="765" fill="white"/>
</clipPath>
</defs>
</svg>
