<svg width="527" height="191" viewBox="0 0 527 191" fill="none" xmlns="http://www.w3.org/2000/svg">
<g filter="url(#filter0_dd_5350_3)">
<rect x="53" y="53" width="431" height="95" rx="47.5" fill="#EBF3FA"/>
<rect x="53" y="53" width="431" height="95" rx="47.5" fill="url(#paint0_linear_5350_3)" fill-opacity="0.2"/>
</g>
<path d="M101.021 97.48H107.181V85.16H113.381V116H107.181V103.68H101.021V116H94.8613V85.16H101.021V97.48ZM119.549 112.48L127.389 85.16H133.269L141.149 112.48V116H134.949V113.36L133.949 109.84H126.709L125.709 113.36V116H119.549V112.48ZM132.189 103.68L130.349 97.28L128.509 103.68H132.189ZM159.642 116H147.322V85.16H164.282V91.32H153.482V94.4H159.642C160.469 94.4 161.256 94.5733 162.002 94.92C162.776 95.24 163.442 95.68 164.002 96.24C164.562 96.8 165.002 97.4667 165.322 98.24C165.669 98.9867 165.842 99.7733 165.842 100.6V109.84C165.842 110.693 165.669 111.493 165.322 112.24C165.002 112.987 164.562 113.64 164.002 114.2C163.442 114.76 162.776 115.2 162.002 115.52C161.256 115.84 160.469 116 159.642 116ZM159.642 109.84V100.6H153.482V109.84H159.642ZM172.05 85.16H187.45V91.32H178.21V97.48H185.93V103.68H178.21V109.84H187.45V116H172.05V85.16ZM205.931 106.76H199.771V116H193.611V85.16H205.931C206.758 85.16 207.545 85.32 208.291 85.64C209.065 85.96 209.731 86.4 210.291 86.96C210.851 87.52 211.291 88.1733 211.611 88.92C211.958 89.6667 212.131 90.4667 212.131 91.32V100.6C212.131 101.453 211.958 102.253 211.611 103C211.291 103.747 210.851 104.4 210.291 104.96C209.731 105.52 209.065 105.96 208.291 106.28C207.545 106.6 206.758 106.76 205.931 106.76ZM205.931 91.32H199.771V100.6H205.931V91.32ZM218.339 85.16H233.739V91.32H224.499V97.48H232.219V103.68H224.499V109.84H233.739V116H218.339V85.16ZM270.74 85.16V91.32H269.5L264.66 100.6L269.5 109.84H270.74V116H267.66C267.074 116 266.54 115.853 266.06 115.56C265.58 115.267 265.207 114.867 264.94 114.36L259.3 103.68H258.42V116H252.22V103.68H251.34L245.7 114.36C245.434 114.867 245.06 115.267 244.58 115.56C244.1 115.853 243.567 116 242.98 116H239.9V109.84H241.1L245.98 100.6L241.1 91.32H239.9V85.16H242.98C243.567 85.16 244.1 85.3067 244.58 85.6C245.06 85.8933 245.434 86.2933 245.7 86.8L251.34 97.48H252.22V85.16H258.42V97.48H259.3L264.94 86.8C265.207 86.2933 265.58 85.8933 266.06 85.6C266.54 85.3067 267.074 85.16 267.66 85.16H270.74ZM283.053 97.48H289.213V85.16H295.413V116H289.213V103.68H283.053V116H276.893V85.16H283.053V97.48ZM301.58 112.48L309.42 85.16H315.3L323.18 112.48V116H316.98V113.36L315.98 109.84H308.74L307.74 113.36V116H301.58V112.48ZM314.22 103.68L312.38 97.28L310.54 103.68H314.22ZM335.513 85.16H347.873V116H341.673V106.76H339.513L335.513 115.16V116H329.353V113.76L332.953 106.2C331.887 105.693 331.02 104.96 330.353 104C329.687 103.013 329.353 101.88 329.353 100.6V91.32C329.353 90.4667 329.513 89.6667 329.833 88.92C330.153 88.1733 330.593 87.52 331.153 86.96C331.713 86.4 332.367 85.96 333.113 85.64C333.86 85.32 334.66 85.16 335.513 85.16ZM335.513 100.6H341.673V91.32H335.513V100.6ZM386.556 100.6V85.16H392.756V116H386.556V106.76H380.396C379.543 106.76 378.743 106.6 377.996 106.28C377.25 105.96 376.596 105.52 376.036 104.96C375.476 104.4 375.036 103.747 374.716 103C374.396 102.253 374.236 101.453 374.236 100.6V85.16H380.396V100.6H386.556ZM398.924 85.16H417.444V116H411.244V91.32H405.084V116H398.924V85.16ZM435.931 86.92V85.16H442.131V88.32L436.291 100.6L442.131 112.84V116H435.931V114.24L432.851 107.76L429.771 114.24V116H423.611V112.84L429.451 100.6L423.611 88.32V85.16H429.771V86.92L432.851 93.4L435.931 86.92Z" fill="#353A53"/>
<defs>
<filter id="filter0_dd_5350_3" x="0.0999985" y="0.0999985" width="526.8" height="190.8" filterUnits="userSpaceOnUse" color-interpolation-filters="sRGB">
<feFlood flood-opacity="0" result="BackgroundImageFix"/>
<feColorMatrix in="SourceAlpha" type="matrix" values="0 0 0 0 0 0 0 0 0 0 0 0 0 0 0 0 0 0 127 0" result="hardAlpha"/>
<feOffset dx="5" dy="5"/>
<feGaussianBlur stdDeviation="17.35"/>
<feComposite in2="hardAlpha" operator="out"/>
<feColorMatrix type="matrix" values="0 0 0 0 0.54874 0 0 0 0 0.652025 0 0 0 0 0.742399 0 0 0 0.78 0"/>
<feBlend mode="normal" in2="BackgroundImageFix" result="effect1_dropShadow_5350_3"/>
<feColorMatrix in="SourceAlpha" type="matrix" values="0 0 0 0 0 0 0 0 0 0 0 0 0 0 0 0 0 0 127 0" result="hardAlpha"/>
<feOffset dx="-5" dy="-5"/>
<feGaussianBlur stdDeviation="23.95"/>
<feComposite in2="hardAlpha" operator="out"/>
<feColorMatrix type="matrix" values="0 0 0 0 1 0 0 0 0 1 0 0 0 0 1 0 0 0 1 0"/>
<feBlend mode="normal" in2="effect1_dropShadow_5350_3" result="effect2_dropShadow_5350_3"/>
<feBlend mode="normal" in="SourceGraphic" in2="effect2_dropShadow_5350_3" result="shape"/>
</filter>
<linearGradient id="paint0_linear_5350_3" x1="53" y1="53" x2="209.651" y2="86.623" gradientUnits="userSpaceOnUse">
<stop stop-color="white"/>
<stop offset="1" stop-color="#EBF3FA"/>
</linearGradient>
</defs>
</svg>
