<svg width="527" height="191" viewBox="0 0 527 191" fill="none" xmlns="http://www.w3.org/2000/svg">
<g filter="url(#filter0_dd_5350_2)">
<rect x="53" y="53" width="431" height="95" rx="47.5" fill="#FBBA00"/>
<rect x="53" y="53" width="431" height="95" rx="47.5" fill="url(#paint0_linear_5350_2)" fill-opacity="0.2"/>
</g>
<path d="M183.824 116.481L179 85.7598H183.824L187.378 110.895L191.441 85.7598H195.757L190.933 116.481H183.824Z" fill="black"/>
<path d="M198.296 110.387L198.55 91.5993C198.55 82.9668 213.022 82.967 213.022 91.5993V110.387C213.022 119.274 198.296 118.766 198.296 110.387Z" fill="black"/>
<path d="M217.084 85.7598V116.227H221.908V100.739L228.001 116.481H233.079L226.224 99.2161L233.079 85.7598H228.255L221.908 98.9622V85.7598H217.084Z" fill="black"/>
<path d="M235.618 85.7598V89.8221H244.25L235.11 111.657V116.227H249.074V112.165H239.934L249.074 89.8221V85.7598H235.618Z" fill="black"/>
<path d="M256.183 85.7598L251.359 116.227H255.676L256.945 107.848H262.531L263.546 116.227H268.624L263.546 85.7598H256.183Z" fill="black"/>
<path d="M276.241 85.7598H271.417V116.227H284.112V111.911H276.241V85.7598Z" fill="black"/>
<path d="M295.283 91.0915V86.5215L303.407 85.5059V111.911H307.216V116.227H295.283V111.911H298.583V90.5837L295.283 91.0915Z" fill="black"/>
<path d="M328.035 85.7598L327.019 103.532H331.843V101.501C331.843 98.7083 336.667 98.9622 336.667 101.501V110.387C336.667 112.622 331.843 113.18 331.843 110.387V106.579H327.019V110.387C327.019 117.75 340.222 120.543 341.491 110.387V99.9778C339.714 93.1227 333.621 94.646 331.843 97.1849L332.351 90.0759H340.73V85.7598H328.035Z" fill="black"/>
<path d="M357.74 85.7598H344.284V90.0759H351.901L344.792 98.7083L348.092 101.501C350.936 98.4544 353.932 99.7239 353.932 101.501V110.133C353.932 112.926 348.854 112.926 348.854 110.133V106.579H344.284V110.641C344.284 119.02 358.756 118.512 358.756 110.641V99.9778C358.756 96.6772 355.201 94.3921 352.916 95.6616L357.74 90.3298V85.7598Z" fill="black"/>
<path d="M183.824 116.481L179 85.7598H183.824L187.378 110.895L191.441 85.7598H195.757L190.933 116.481H183.824Z" stroke="black"/>
<path d="M198.296 110.387L198.55 91.5993C198.55 82.9668 213.022 82.967 213.022 91.5993V110.387C213.022 119.274 198.296 118.766 198.296 110.387Z" stroke="black"/>
<path d="M217.084 85.7598V116.227H221.908V100.739L228.001 116.481H233.079L226.224 99.2161L233.079 85.7598H228.255L221.908 98.9622V85.7598H217.084Z" stroke="black"/>
<path d="M235.618 85.7598V89.8221H244.25L235.11 111.657V116.227H249.074V112.165H239.934L249.074 89.8221V85.7598H235.618Z" stroke="black"/>
<path d="M256.183 85.7598L251.359 116.227H255.676L256.945 107.848H262.531L263.546 116.227H268.624L263.546 85.7598H256.183Z" stroke="black"/>
<path d="M276.241 85.7598H271.417V116.227H284.112V111.911H276.241V85.7598Z" stroke="black"/>
<path d="M295.283 91.0915V86.5215L303.407 85.5059V111.911H307.216V116.227H295.283V111.911H298.583V90.5837L295.283 91.0915Z" stroke="black"/>
<path d="M328.035 85.7598L327.019 103.532H331.843V101.501C331.843 98.7083 336.667 98.9622 336.667 101.501V110.387C336.667 112.622 331.843 113.18 331.843 110.387V106.579H327.019V110.387C327.019 117.75 340.222 120.543 341.491 110.387V99.9778C339.714 93.1227 333.621 94.646 331.843 97.1849L332.351 90.0759H340.73V85.7598H328.035Z" stroke="black"/>
<path d="M357.74 85.7598H344.284V90.0759H351.901L344.792 98.7083L348.092 101.501C350.936 98.4544 353.932 99.7239 353.932 101.501V110.133C353.932 112.926 348.854 112.926 348.854 110.133V106.579H344.284V110.641C344.284 119.02 358.756 118.512 358.756 110.641V99.9778C358.756 96.6772 355.201 94.3921 352.916 95.6616L357.74 90.3298V85.7598Z" stroke="black"/>
<ellipse cx="316.002" cy="91.8551" rx="7.10899" ry="6.8551" fill="black"/>
<path d="M308.484 106.581C308.484 115.975 311.895 116.991 316.101 116.991C320.308 116.991 323.718 115.975 323.718 106.581C323.718 98.9647 321.687 96.1719 316.101 96.1719C310.516 96.1719 308.484 98.9647 308.484 106.581Z" fill="black"/>
<path d="M315.848 89.5703C312.547 89.5703 312.547 95.1559 315.848 95.1559C319.148 95.1559 319.148 89.5703 315.848 89.5703Z" fill="#FBBA00"/>
<path d="M318.64 102.265C318.64 98.7104 313.309 98.7104 313.309 102.265V109.628C313.309 113.182 318.64 113.182 318.64 109.628V102.265Z" fill="#FBBA00"/>
<path d="M261.768 103.788H257.706L259.737 90.5859L261.768 103.788Z" fill="#FBBA00"/>
<path d="M208.197 92.1092C208.197 89.0625 203.119 89.0625 203.119 92.1092V109.882C203.119 112.928 208.197 112.928 208.197 109.882V92.1092Z" fill="#FBBA00"/>
<path d="M315.848 89.5703C312.547 89.5703 312.547 95.1559 315.848 95.1559C319.148 95.1559 319.148 89.5703 315.848 89.5703Z" stroke="black"/>
<path d="M318.64 102.265C318.64 98.7104 313.309 98.7104 313.309 102.265V109.628C313.309 113.182 318.64 113.182 318.64 109.628V102.265Z" stroke="black"/>
<path d="M261.768 103.788H257.706L259.737 90.5859L261.768 103.788Z" stroke="black"/>
<path d="M208.197 92.1092C208.197 89.0625 203.119 89.0625 203.119 92.1092V109.882C203.119 112.928 208.197 112.928 208.197 109.882V92.1092Z" stroke="black"/>
<defs>
<filter id="filter0_dd_5350_2" x="0.0999985" y="0.0999985" width="526.8" height="190.8" filterUnits="userSpaceOnUse" color-interpolation-filters="sRGB">
<feFlood flood-opacity="0" result="BackgroundImageFix"/>
<feColorMatrix in="SourceAlpha" type="matrix" values="0 0 0 0 0 0 0 0 0 0 0 0 0 0 0 0 0 0 127 0" result="hardAlpha"/>
<feOffset dx="5" dy="5"/>
<feGaussianBlur stdDeviation="17.35"/>
<feComposite in2="hardAlpha" operator="out"/>
<feColorMatrix type="matrix" values="0 0 0 0 0.54874 0 0 0 0 0.652025 0 0 0 0 0.742399 0 0 0 0.78 0"/>
<feBlend mode="normal" in2="BackgroundImageFix" result="effect1_dropShadow_5350_2"/>
<feColorMatrix in="SourceAlpha" type="matrix" values="0 0 0 0 0 0 0 0 0 0 0 0 0 0 0 0 0 0 127 0" result="hardAlpha"/>
<feOffset dx="-5" dy="-5"/>
<feGaussianBlur stdDeviation="23.95"/>
<feComposite in2="hardAlpha" operator="out"/>
<feColorMatrix type="matrix" values="0 0 0 0 1 0 0 0 0 1 0 0 0 0 1 0 0 0 1 0"/>
<feBlend mode="normal" in2="effect1_dropShadow_5350_2" result="effect2_dropShadow_5350_2"/>
<feBlend mode="normal" in="SourceGraphic" in2="effect2_dropShadow_5350_2" result="shape"/>
</filter>
<linearGradient id="paint0_linear_5350_2" x1="53" y1="53" x2="209.651" y2="86.623" gradientUnits="userSpaceOnUse">
<stop stop-color="white"/>
<stop offset="1" stop-color="#FBBA00"/>
</linearGradient>
</defs>
</svg>
