<svg width="60" height="60" viewBox="0 0 60 60" fill="none" xmlns="http://www.w3.org/2000/svg">
<g clip-path="url(#clip0_3202_8008)">
<circle cx="30" cy="30" r="30" fill="url(#paint0_radial_3202_8008)"/>
<path d="M46.7365 23.2756L46.8057 23.6066L5.67769 38.0151L5.50949 38.3086C5.50949 38.3086 5.50949 38.3086 5.50949 38.3086C14.2783 43.335 25.5364 44.4461 35.2719 43.3293C40.1432 42.7704 44.648 41.6523 48.2859 40.1772C51.9124 38.7066 54.7214 36.8635 56.1472 34.8267C57.8774 32.355 58.4615 30.3098 58.2266 28.6362C57.9903 26.953 56.9372 25.7245 55.5713 24.8677C54.2093 24.0134 52.5127 23.5112 50.9144 23.2734C49.3174 23.0357 47.7839 23.0568 46.7365 23.2756Z" fill="#17272E" stroke="black" stroke-width="0.676448"/>
<mask id="path-3-outside-1_3202_8008" maskUnits="userSpaceOnUse" x="13.5254" y="15.7754" width="28" height="19" fill="black">
<rect fill="white" x="13.5254" y="15.7754" width="28" height="19"/>
<path d="M22.048 17.7224C17.9352 19.8329 14.2689 29.8844 14.5395 30.1014C21.3716 35.5806 31.5182 34.7689 40.1091 26.5839C40.3221 26.3809 32.6682 16.7754 30.5036 16.7754C28.7719 16.7754 26.8057 18.7145 26.039 19.6841C24.632 18.8183 22.8389 17.3165 22.048 17.7224Z"/>
</mask>
<path d="M22.048 17.7224C17.9352 19.8329 14.2689 29.8844 14.5395 30.1014C21.3716 35.5806 31.5182 34.7689 40.1091 26.5839C40.3221 26.3809 32.6682 16.7754 30.5036 16.7754C28.7719 16.7754 26.8057 18.7145 26.039 19.6841C24.632 18.8183 22.8389 17.3165 22.048 17.7224Z" fill="#17252B"/>
<path d="M14.5395 30.1014L14.9627 29.5737L14.9627 29.5737L14.5395 30.1014ZM22.048 17.7224L21.7392 17.1206V17.1206L22.048 17.7224ZM26.039 19.6841L25.6845 20.2602L26.1967 20.5754L26.5696 20.1037L26.039 19.6841ZM40.1091 26.5839L39.6425 26.0941L40.1091 26.5839ZM14.9627 29.5737C15.1145 29.6954 15.1645 29.8437 15.1801 29.8984C15.1986 29.963 15.201 30.0126 15.2016 30.0296C15.2028 30.065 15.1988 30.0777 15.2029 30.0508C15.21 30.0038 15.2294 29.9135 15.268 29.773C15.3435 29.4983 15.4737 29.099 15.655 28.6059C16.0167 27.6225 16.5684 26.3025 17.2554 24.9236C17.9433 23.5429 18.7589 22.1189 19.6457 20.9184C20.542 19.7052 21.4672 18.7808 22.3568 18.3242L21.7392 17.1206C20.5724 17.7193 19.497 18.8428 18.5575 20.1146C17.6086 21.3991 16.7535 22.8973 16.0445 24.3203C15.3346 25.7452 14.7634 27.1108 14.3853 28.1389C14.1967 28.6517 14.0527 29.0897 13.9635 29.4145C13.9197 29.5738 13.884 29.7237 13.8652 29.8488C13.8562 29.908 13.8465 29.9897 13.8495 30.076C13.851 30.1184 13.8561 30.1889 13.8792 30.2698C13.8995 30.3408 13.9561 30.5006 14.1163 30.6291L14.9627 29.5737ZM22.3568 18.3242C22.311 18.3478 22.3518 18.2997 22.5996 18.3797C22.8272 18.4531 23.1171 18.5985 23.465 18.8067C23.8079 19.0121 24.1736 19.2579 24.5538 19.5153C24.9274 19.7683 25.3173 20.0342 25.6845 20.2602L26.3936 19.108C26.0573 18.9011 25.6954 18.6546 25.3124 18.3951C24.9359 18.1402 24.5401 17.8736 24.16 17.646C23.7848 17.4213 23.3903 17.2132 23.0152 17.0922C22.6604 16.9777 22.1804 16.8941 21.7392 17.1206L22.3568 18.3242ZM26.5696 20.1037C26.9229 19.6569 27.5658 18.9723 28.3166 18.4063C29.0883 17.8245 29.8641 17.4518 30.5036 17.4518V16.0989C29.4114 16.0989 28.3382 16.6958 27.5022 17.326C26.6453 17.972 25.9218 18.7418 25.5084 19.2646L26.5696 20.1037ZM30.5036 17.4518C30.5682 17.4518 30.7835 17.5064 31.185 17.7603C31.5576 17.9958 32.0026 18.3453 32.4987 18.7854C33.4886 19.6636 34.6214 20.8483 35.6924 22.053C36.7612 23.2552 37.756 24.4634 38.4682 25.3806C38.8252 25.8403 39.1059 26.2202 39.2882 26.4863C39.3811 26.622 39.4387 26.7142 39.4676 26.7666C39.4844 26.7971 39.4776 26.7894 39.4668 26.758C39.4625 26.7456 39.443 26.689 39.4382 26.6081C39.4347 26.5509 39.4266 26.2998 39.6425 26.0941L40.5757 27.0736C40.7982 26.8616 40.793 26.5996 40.7886 26.527C40.7828 26.4307 40.7587 26.3543 40.7461 26.3178C40.7187 26.2381 40.6808 26.165 40.6526 26.114C40.5917 26.0034 40.5047 25.8684 40.4045 25.722C40.2004 25.424 39.9012 25.0202 39.5368 24.5508C38.8061 23.6099 37.7921 22.3786 36.7035 21.1541C35.6171 19.932 34.4439 18.7026 33.3965 17.7734C32.874 17.3098 32.3676 16.9073 31.9081 16.6168C31.4776 16.3446 30.9802 16.0989 30.5036 16.0989V17.4518ZM39.6425 26.0941C31.2263 34.1127 21.461 34.7852 14.9627 29.5737L14.1163 30.6291C21.2822 36.3761 31.8102 35.4251 40.5757 27.0736L39.6425 26.0941Z" fill="black" mask="url(#path-3-outside-1_3202_8008)"/>
</g>
<defs>
<radialGradient id="paint0_radial_3202_8008" cx="0" cy="0" r="1" gradientUnits="userSpaceOnUse" gradientTransform="translate(30 30) rotate(90) scale(30)">
<stop offset="0.67" stop-color="#FFDB1D"/>
<stop offset="1" stop-color="#AB9628" stop-opacity="0.8"/>
</radialGradient>
<clipPath id="clip0_3202_8008">
<rect width="60" height="60" fill="white"/>
</clipPath>
</defs>
</svg>
