<svg width="60" height="60" viewBox="0 0 60 60" fill="none" xmlns="http://www.w3.org/2000/svg">
<g clip-path="url(#clip0_3202_8174)">
<circle cx="30" cy="30" r="30" fill="url(#paint0_radial_3202_8174)"/>
<circle cx="19.1806" cy="16.1377" r="0.672811" fill="#F98568"/>
<circle cx="19.1806" cy="16.1377" r="0.672811" fill="#F98568"/>
<circle cx="19.1806" cy="16.1377" r="0.672811" fill="#F98568"/>
<circle cx="22.4091" cy="16.2724" r="0.672811" fill="#F98568"/>
<circle cx="22.4091" cy="16.2724" r="0.672811" fill="#F98568"/>
<circle cx="22.4091" cy="16.2724" r="0.672811" fill="#F98568"/>
<circle cx="25.6396" cy="16.4072" r="0.672811" fill="#F98568"/>
<circle cx="25.6396" cy="16.4072" r="0.672811" fill="#F98568"/>
<circle cx="25.6396" cy="16.4072" r="0.672811" fill="#F98568"/>
<circle cx="25.9072" cy="13.0439" r="0.672811" fill="#F98568"/>
<circle cx="25.9072" cy="13.0439" r="0.672811" fill="#F98568"/>
<circle cx="25.9072" cy="13.0439" r="0.672811" fill="#F98568"/>
<circle cx="29.1377" cy="13.3115" r="0.672811" fill="#F98568"/>
<circle cx="29.1377" cy="13.3115" r="0.672811" fill="#F98568"/>
<circle cx="29.1377" cy="13.3115" r="0.672811" fill="#F98568"/>
<circle cx="32.3681" cy="13.4462" r="0.672811" fill="#F98568"/>
<circle cx="32.3681" cy="13.4462" r="0.672811" fill="#F98568"/>
<circle cx="32.3681" cy="13.4462" r="0.672811" fill="#F98568"/>
<circle cx="35.5966" cy="13.581" r="0.672811" fill="#F98568"/>
<circle cx="35.5966" cy="13.581" r="0.672811" fill="#F98568"/>
<circle cx="35.5966" cy="13.581" r="0.672811" fill="#F98568"/>
<circle cx="35.8662" cy="10.2177" r="0.672811" fill="#F98568"/>
<circle cx="35.8662" cy="10.2177" r="0.672811" fill="#F98568"/>
<circle cx="35.8662" cy="10.2177" r="0.672811" fill="#F98568"/>
<circle cx="39.0947" cy="10.3525" r="0.672811" fill="#F98568"/>
<circle cx="39.0947" cy="10.3525" r="0.672811" fill="#F98568"/>
<circle cx="39.0947" cy="10.3525" r="0.672811" fill="#F98568"/>
<circle cx="42.4599" cy="10.622" r="0.672811" fill="#F98568"/>
<circle cx="42.4599" cy="10.622" r="0.672811" fill="#F98568"/>
<circle cx="42.4599" cy="10.622" r="0.672811" fill="#F98568"/>
<circle cx="38.9599" cy="13.7158" r="0.672811" fill="#F98568"/>
<circle cx="38.9599" cy="13.7158" r="0.672811" fill="#F98568"/>
<circle cx="38.9599" cy="13.7158" r="0.672811" fill="#F98568"/>
<circle cx="42.1904" cy="13.8505" r="0.672811" fill="#F98568"/>
<circle cx="42.1904" cy="13.8505" r="0.672811" fill="#F98568"/>
<circle cx="42.1904" cy="13.8505" r="0.672811" fill="#F98568"/>
<circle cx="45.5537" cy="13.9853" r="0.672811" fill="#F98568"/>
<circle cx="45.5537" cy="13.9853" r="0.672811" fill="#F98568"/>
<circle cx="45.5537" cy="13.9853" r="0.672811" fill="#F98568"/>
<path d="M48.2578 13.6987C48.2026 13.7677 48.1615 13.8469 48.137 13.9318C48.1124 14.0167 48.1048 14.1056 48.1145 14.1934C48.1243 14.2812 48.1513 14.3662 48.1939 14.4436C48.2365 14.521 48.294 14.5892 48.363 14.6444C48.432 14.6996 48.5112 14.7406 48.596 14.7652C48.6809 14.7898 48.7698 14.7974 48.8576 14.7877C48.9454 14.7779 49.0304 14.7509 49.1078 14.7083C49.1852 14.6657 49.2535 14.6082 49.3086 14.5392L49.3888 14.4435C48.8063 13.954 48.6061 13.8189 48.3123 13.6481L48.2578 13.6987Z" fill="#F98568"/>
<path d="M48.2578 13.6987C48.2026 13.7677 48.1615 13.8469 48.137 13.9318C48.1124 14.0167 48.1048 14.1056 48.1145 14.1934C48.1243 14.2812 48.1513 14.3662 48.1939 14.4436C48.2365 14.521 48.294 14.5892 48.363 14.6444C48.432 14.6996 48.5112 14.7406 48.596 14.7652C48.6809 14.7898 48.7698 14.7974 48.8576 14.7877C48.9454 14.7779 49.0304 14.7509 49.1078 14.7083C49.1852 14.6657 49.2535 14.6082 49.3086 14.5392L49.3888 14.4435C48.8063 13.954 48.6061 13.8189 48.3123 13.6481L48.2578 13.6987Z" fill="#F98568"/>
<path d="M48.2578 13.6987C48.2026 13.7677 48.1615 13.8469 48.137 13.9318C48.1124 14.0167 48.1048 14.1056 48.1145 14.1934C48.1243 14.2812 48.1513 14.3662 48.1939 14.4436C48.2365 14.521 48.294 14.5892 48.363 14.6444C48.432 14.6996 48.5112 14.7406 48.596 14.7652C48.6809 14.7898 48.7698 14.7974 48.8576 14.7877C48.9454 14.7779 49.0304 14.7509 49.1078 14.7083C49.1852 14.6657 49.2535 14.6082 49.3086 14.5392L49.3888 14.4435C48.8063 13.954 48.6061 13.8189 48.3123 13.6481L48.2578 13.6987Z" fill="#F98568"/>
<circle cx="48.6494" cy="17.4834" r="0.672811" fill="#F98568"/>
<circle cx="48.6494" cy="17.4834" r="0.672811" fill="#F98568"/>
<circle cx="48.6494" cy="17.4834" r="0.672811" fill="#F98568"/>
<circle cx="45.2841" cy="17.3486" r="0.672811" fill="#F98568"/>
<circle cx="45.2841" cy="17.3486" r="0.672811" fill="#F98568"/>
<circle cx="45.2841" cy="17.3486" r="0.672811" fill="#F98568"/>
<circle cx="42.0556" cy="17.2138" r="0.672811" fill="#F98568"/>
<circle cx="42.0556" cy="17.2138" r="0.672811" fill="#F98568"/>
<circle cx="42.0556" cy="17.2138" r="0.672811" fill="#F98568"/>
<circle cx="38.8252" cy="17.0791" r="0.672811" fill="#F98568"/>
<circle cx="38.8252" cy="17.0791" r="0.672811" fill="#F98568"/>
<circle cx="38.8252" cy="17.0791" r="0.672811" fill="#F98568"/>
<circle cx="35.5966" cy="16.8115" r="0.672811" fill="#F98568"/>
<circle cx="35.5966" cy="16.8115" r="0.672811" fill="#F98568"/>
<circle cx="35.5966" cy="16.8115" r="0.672811" fill="#F98568"/>
<circle cx="32.2334" cy="16.6767" r="0.672811" fill="#F98568"/>
<circle cx="32.2334" cy="16.6767" r="0.672811" fill="#F98568"/>
<circle cx="32.2334" cy="16.6767" r="0.672811" fill="#F98568"/>
<circle cx="29.0029" cy="16.542" r="0.672811" fill="#F98568"/>
<circle cx="29.0029" cy="16.542" r="0.672811" fill="#F98568"/>
<circle cx="29.0029" cy="16.542" r="0.672811" fill="#F98568"/>
<circle cx="19.0459" cy="19.5029" r="0.672811" fill="#F98568"/>
<circle cx="19.0459" cy="19.5029" r="0.672811" fill="#F98568"/>
<circle cx="19.0459" cy="19.5029" r="0.672811" fill="#F98568"/>
<path d="M15.6135 19.8987C15.6989 19.9215 15.6812 19.9102 15.7688 19.8987C15.8564 19.8871 15.9408 19.8584 16.0173 19.8142C16.0938 19.7701 16.1609 19.7112 16.2147 19.6411C16.2684 19.571 16.3079 19.491 16.3307 19.4057C16.3536 19.3203 16.3594 19.2313 16.3478 19.1437C16.3363 19.0561 16.3076 18.9716 16.2634 18.8951C16.2192 18.8186 16.1604 18.7516 16.0903 18.6978C16.0202 18.644 16.0353 18.649 15.9499 18.6262L15.7688 19.2317L15.6135 19.8987Z" fill="#F98568"/>
<path d="M15.6135 19.8987C15.6989 19.9215 15.6812 19.9102 15.7688 19.8987C15.8564 19.8871 15.9408 19.8584 16.0173 19.8142C16.0938 19.7701 16.1609 19.7112 16.2147 19.6411C16.2684 19.571 16.3079 19.491 16.3307 19.4057C16.3536 19.3203 16.3594 19.2313 16.3478 19.1437C16.3363 19.0561 16.3076 18.9716 16.2634 18.8951C16.2192 18.8186 16.1604 18.7516 16.0903 18.6978C16.0202 18.644 16.0353 18.649 15.9499 18.6262L15.7688 19.2317L15.6135 19.8987Z" fill="#F98568"/>
<path d="M15.6135 19.8987C15.6989 19.9215 15.6812 19.9102 15.7688 19.8987C15.8564 19.8871 15.9408 19.8584 16.0173 19.8142C16.0938 19.7701 16.1609 19.7112 16.2147 19.6411C16.2684 19.571 16.3079 19.491 16.3307 19.4057C16.3536 19.3203 16.3594 19.2313 16.3478 19.1437C16.3363 19.0561 16.3076 18.9716 16.2634 18.8951C16.2192 18.8186 16.1604 18.7516 16.0903 18.6978C16.0202 18.644 16.0353 18.649 15.9499 18.6262L15.7688 19.2317L15.6135 19.8987Z" fill="#F98568"/>
<circle cx="22.4091" cy="19.7705" r="0.672811" fill="#F98568"/>
<circle cx="22.4091" cy="19.7705" r="0.672811" fill="#F98568"/>
<circle cx="22.4091" cy="19.7705" r="0.672811" fill="#F98568"/>
<circle cx="25.6396" cy="19.9052" r="0.672811" fill="#F98568"/>
<circle cx="25.6396" cy="19.9052" r="0.672811" fill="#F98568"/>
<circle cx="25.6396" cy="19.9052" r="0.672811" fill="#F98568"/>
<circle cx="48.6494" cy="20.9814" r="0.672811" fill="#F98568"/>
<circle cx="48.6494" cy="20.9814" r="0.672811" fill="#F98568"/>
<circle cx="48.6494" cy="20.9814" r="0.672811" fill="#F98568"/>
<circle cx="45.2841" cy="20.8466" r="0.672811" fill="#F98568"/>
<circle cx="45.2841" cy="20.8466" r="0.672811" fill="#F98568"/>
<circle cx="45.2841" cy="20.8466" r="0.672811" fill="#F98568"/>
<circle cx="42.0556" cy="20.7138" r="0.672811" fill="#F98568"/>
<circle cx="42.0556" cy="20.7138" r="0.672811" fill="#F98568"/>
<circle cx="42.0556" cy="20.7138" r="0.672811" fill="#F98568"/>
<circle cx="38.8252" cy="20.5791" r="0.672811" fill="#F98568"/>
<circle cx="38.8252" cy="20.5791" r="0.672811" fill="#F98568"/>
<circle cx="38.8252" cy="20.5791" r="0.672811" fill="#F98568"/>
<circle cx="35.5966" cy="20.3095" r="0.672811" fill="#F98568"/>
<circle cx="35.5966" cy="20.3095" r="0.672811" fill="#F98568"/>
<circle cx="35.5966" cy="20.3095" r="0.672811" fill="#F98568"/>
<circle cx="32.2334" cy="20.1748" r="0.672811" fill="#F98568"/>
<circle cx="32.2334" cy="20.1748" r="0.672811" fill="#F98568"/>
<circle cx="32.2334" cy="20.1748" r="0.672811" fill="#F98568"/>
<circle cx="29.0029" cy="20.04" r="0.672811" fill="#F98568"/>
<circle cx="29.0029" cy="20.04" r="0.672811" fill="#F98568"/>
<circle cx="29.0029" cy="20.04" r="0.672811" fill="#F98568"/>
<circle cx="18.9111" cy="22.8662" r="0.672811" fill="#F98568"/>
<circle cx="18.9111" cy="22.8662" r="0.672811" fill="#F98568"/>
<circle cx="18.9111" cy="22.8662" r="0.672811" fill="#F98568"/>
<circle cx="22.1396" cy="23.0009" r="0.672811" fill="#F98568"/>
<circle cx="22.1396" cy="23.0009" r="0.672811" fill="#F98568"/>
<circle cx="22.1396" cy="23.0009" r="0.672811" fill="#F98568"/>
<circle cx="25.3701" cy="23.1357" r="0.672811" fill="#F98568"/>
<circle cx="25.3701" cy="23.1357" r="0.672811" fill="#F98568"/>
<circle cx="25.3701" cy="23.1357" r="0.672811" fill="#F98568"/>
<circle cx="48.3798" cy="24.2119" r="0.672811" fill="#F98568"/>
<circle cx="48.3798" cy="24.2119" r="0.672811" fill="#F98568"/>
<circle cx="48.3798" cy="24.2119" r="0.672811" fill="#F98568"/>
<circle cx="45.0166" cy="24.0771" r="0.672811" fill="#F98568"/>
<circle cx="45.0166" cy="24.0771" r="0.672811" fill="#F98568"/>
<circle cx="45.0166" cy="24.0771" r="0.672811" fill="#F98568"/>
<circle cx="41.7861" cy="23.9423" r="0.672811" fill="#F98568"/>
<circle cx="41.7861" cy="23.9423" r="0.672811" fill="#F98568"/>
<circle cx="41.7861" cy="23.9423" r="0.672811" fill="#F98568"/>
<circle cx="38.5576" cy="23.8076" r="0.672811" fill="#F98568"/>
<circle cx="38.5576" cy="23.8076" r="0.672811" fill="#F98568"/>
<circle cx="38.5576" cy="23.8076" r="0.672811" fill="#F98568"/>
<circle cx="35.3271" cy="23.538" r="0.672811" fill="#F98568"/>
<circle cx="35.3271" cy="23.538" r="0.672811" fill="#F98568"/>
<circle cx="35.3271" cy="23.538" r="0.672811" fill="#F98568"/>
<circle cx="31.9638" cy="23.4033" r="0.672811" fill="#F98568"/>
<circle cx="31.9638" cy="23.4033" r="0.672811" fill="#F98568"/>
<circle cx="31.9638" cy="23.4033" r="0.672811" fill="#F98568"/>
<circle cx="28.7334" cy="23.2705" r="0.672811" fill="#F98568"/>
<circle cx="28.7334" cy="23.2705" r="0.672811" fill="#F98568"/>
<circle cx="28.7334" cy="23.2705" r="0.672811" fill="#F98568"/>
<circle cx="18.9111" cy="26.0947" r="0.672811" fill="#F98568"/>
<circle cx="18.9111" cy="26.0947" r="0.672811" fill="#F98568"/>
<circle cx="18.9111" cy="26.0947" r="0.672811" fill="#F98568"/>
<circle cx="22.1396" cy="26.2295" r="0.672811" fill="#F98568"/>
<circle cx="22.1396" cy="26.2295" r="0.672811" fill="#F98568"/>
<circle cx="22.1396" cy="26.2295" r="0.672811" fill="#F98568"/>
<circle cx="25.3701" cy="26.3642" r="0.672811" fill="#F98568"/>
<circle cx="25.3701" cy="26.3642" r="0.672811" fill="#F98568"/>
<circle cx="25.3701" cy="26.3642" r="0.672811" fill="#F98568"/>
<circle cx="48.3798" cy="27.4404" r="0.672811" fill="#F98568"/>
<circle cx="48.3798" cy="27.4404" r="0.672811" fill="#F98568"/>
<circle cx="48.3798" cy="27.4404" r="0.672811" fill="#F98568"/>
<circle cx="45.0166" cy="27.3056" r="0.672811" fill="#F98568"/>
<circle cx="45.0166" cy="27.3056" r="0.672811" fill="#F98568"/>
<circle cx="45.0166" cy="27.3056" r="0.672811" fill="#F98568"/>
<circle cx="41.7861" cy="27.1709" r="0.672811" fill="#F98568"/>
<circle cx="41.7861" cy="27.1709" r="0.672811" fill="#F98568"/>
<circle cx="41.7861" cy="27.1709" r="0.672811" fill="#F98568"/>
<circle cx="38.5576" cy="27.038" r="0.672811" fill="#F98568"/>
<circle cx="38.5576" cy="27.038" r="0.672811" fill="#F98568"/>
<circle cx="38.5576" cy="27.038" r="0.672811" fill="#F98568"/>
<circle cx="35.3271" cy="26.7685" r="0.672811" fill="#F98568"/>
<circle cx="35.3271" cy="26.7685" r="0.672811" fill="#F98568"/>
<circle cx="35.3271" cy="26.7685" r="0.672811" fill="#F98568"/>
<circle cx="31.9638" cy="26.6337" r="0.672811" fill="#F98568"/>
<circle cx="31.9638" cy="26.6337" r="0.672811" fill="#F98568"/>
<circle cx="31.9638" cy="26.6337" r="0.672811" fill="#F98568"/>
<circle cx="28.7334" cy="26.499" r="0.672811" fill="#F98568"/>
<circle cx="28.7334" cy="26.499" r="0.672811" fill="#F98568"/>
<circle cx="28.7334" cy="26.499" r="0.672811" fill="#F98568"/>
<circle cx="18.5068" cy="29.4599" r="0.672811" fill="#F98568"/>
<circle cx="18.5068" cy="29.4599" r="0.672811" fill="#F98568"/>
<circle cx="18.5068" cy="29.4599" r="0.672811" fill="#F98568"/>
<circle cx="21.7373" cy="29.5947" r="0.672811" fill="#F98568"/>
<circle cx="21.7373" cy="29.5947" r="0.672811" fill="#F98568"/>
<circle cx="21.7373" cy="29.5947" r="0.672811" fill="#F98568"/>
<circle cx="24.9658" cy="29.7275" r="0.672811" fill="#F98568"/>
<circle cx="24.9658" cy="29.7275" r="0.672811" fill="#F98568"/>
<circle cx="24.9658" cy="29.7275" r="0.672811" fill="#F98568"/>
<circle cx="47.9755" cy="30.8056" r="0.672811" fill="#F98568"/>
<circle cx="47.9755" cy="30.8056" r="0.672811" fill="#F98568"/>
<circle cx="47.9755" cy="30.8056" r="0.672811" fill="#F98568"/>
<circle cx="44.6123" cy="30.6709" r="0.672811" fill="#F98568"/>
<circle cx="44.6123" cy="30.6709" r="0.672811" fill="#F98568"/>
<circle cx="44.6123" cy="30.6709" r="0.672811" fill="#F98568"/>
<circle cx="41.3818" cy="30.5361" r="0.672811" fill="#F98568"/>
<circle cx="41.3818" cy="30.5361" r="0.672811" fill="#F98568"/>
<circle cx="41.3818" cy="30.5361" r="0.672811" fill="#F98568"/>
<circle cx="38.1533" cy="30.4013" r="0.672811" fill="#F98568"/>
<circle cx="38.1533" cy="30.4013" r="0.672811" fill="#F98568"/>
<circle cx="38.1533" cy="30.4013" r="0.672811" fill="#F98568"/>
<circle cx="34.9248" cy="30.1318" r="0.672811" fill="#F98568"/>
<circle cx="34.9248" cy="30.1318" r="0.672811" fill="#F98568"/>
<circle cx="34.9248" cy="30.1318" r="0.672811" fill="#F98568"/>
<circle cx="31.5595" cy="29.997" r="0.672811" fill="#F98568"/>
<circle cx="31.5595" cy="29.997" r="0.672811" fill="#F98568"/>
<circle cx="31.5595" cy="29.997" r="0.672811" fill="#F98568"/>
<circle cx="28.3291" cy="29.8623" r="0.672811" fill="#F98568"/>
<circle cx="28.3291" cy="29.8623" r="0.672811" fill="#F98568"/>
<circle cx="28.3291" cy="29.8623" r="0.672811" fill="#F98568"/>
<circle cx="15.1435" cy="32.6884" r="0.672811" fill="#F98568"/>
<circle cx="15.1435" cy="32.6884" r="0.672811" fill="#F98568"/>
<circle cx="15.1435" cy="32.6884" r="0.672811" fill="#F98568"/>
<circle cx="12.0478" cy="25.8271" r="0.672811" fill="#F98568"/>
<circle cx="12.0478" cy="25.8271" r="0.672811" fill="#F98568"/>
<circle cx="12.0478" cy="25.8271" r="0.672811" fill="#F98568"/>
<circle cx="15.413" cy="25.9599" r="0.672811" fill="#F98568"/>
<circle cx="15.413" cy="25.9599" r="0.672811" fill="#F98568"/>
<circle cx="15.413" cy="25.9599" r="0.672811" fill="#F98568"/>
<circle cx="15.1435" cy="29.1904" r="0.672811" fill="#F98568"/>
<circle cx="15.1435" cy="29.1904" r="0.672811" fill="#F98568"/>
<circle cx="15.1435" cy="29.1904" r="0.672811" fill="#F98568"/>
<circle cx="15.5478" cy="22.5966" r="0.672811" fill="#F98568"/>
<circle cx="15.5478" cy="22.5966" r="0.672811" fill="#F98568"/>
<circle cx="15.5478" cy="22.5966" r="0.672811" fill="#F98568"/>
<circle cx="8.415" cy="35.6494" r="0.672811" fill="#F98568"/>
<circle cx="8.415" cy="35.6494" r="0.672811" fill="#F98568"/>
<circle cx="8.415" cy="35.6494" r="0.672811" fill="#F98568"/>
<path d="M8.53149 39.5034C8.6135 39.4705 8.68823 39.4218 8.75141 39.36C8.81459 39.2982 8.86498 39.2246 8.89972 39.1434C8.93445 39.0622 8.95284 38.9749 8.95384 38.8865C8.95484 38.7982 8.93843 38.7105 8.90554 38.6285C8.87266 38.5465 8.82394 38.4718 8.76218 38.4086C8.70041 38.3454 8.62681 38.295 8.54557 38.2603C8.46433 38.2255 8.37704 38.2071 8.28869 38.2061C8.20034 38.2051 8.11266 38.2216 8.03065 38.2544L7.81013 38.3405C7.87741 38.6769 8.06216 39.1139 8.28118 39.619L8.53149 39.5034Z" fill="#F98568"/>
<path d="M8.53149 39.5034C8.6135 39.4705 8.68823 39.4218 8.75141 39.36C8.81459 39.2982 8.86498 39.2246 8.89972 39.1434C8.93445 39.0622 8.95284 38.9749 8.95384 38.8865C8.95484 38.7982 8.93843 38.7105 8.90554 38.6285C8.87266 38.5465 8.82394 38.4718 8.76218 38.4086C8.70041 38.3454 8.62681 38.295 8.54557 38.2603C8.46433 38.2255 8.37704 38.2071 8.28869 38.2061C8.20034 38.2051 8.11266 38.2216 8.03065 38.2544L7.81013 38.3405C7.87741 38.6769 8.06216 39.1139 8.28118 39.619L8.53149 39.5034Z" fill="#F98568"/>
<path d="M8.53149 39.5034C8.6135 39.4705 8.68823 39.4218 8.75141 39.36C8.81459 39.2982 8.86498 39.2246 8.89972 39.1434C8.93445 39.0622 8.95284 38.9749 8.95384 38.8865C8.95484 38.7982 8.93843 38.7105 8.90554 38.6285C8.87266 38.5465 8.82394 38.4718 8.76218 38.4086C8.70041 38.3454 8.62681 38.295 8.54557 38.2603C8.46433 38.2255 8.37704 38.2071 8.28869 38.2061C8.20034 38.2051 8.11266 38.2216 8.03065 38.2544L7.81013 38.3405C7.87741 38.6769 8.06216 39.1139 8.28118 39.619L8.53149 39.5034Z" fill="#F98568"/>
<path d="M11.2594 46.2862C11.3478 46.2873 11.4355 46.271 11.5175 46.2383C11.5996 46.2055 11.6744 46.1569 11.7376 46.0952C11.8009 46.0335 11.8514 45.96 11.8862 45.8788C11.9211 45.7976 11.9396 45.7103 11.9407 45.622C11.9418 45.5336 11.9255 45.4459 11.8927 45.3639C11.86 45.2818 11.8114 45.207 11.7497 45.1438C11.688 45.0805 11.6145 45.03 11.5333 44.9952C11.4521 44.9603 11.3648 44.9418 11.2765 44.9407L10.9056 44.9406C10.9729 45.2039 10.9729 45.7421 11.0401 46.2862L11.2594 46.2862Z" fill="#F98568"/>
<path d="M11.2594 46.2862C11.3478 46.2873 11.4355 46.271 11.5175 46.2383C11.5996 46.2055 11.6744 46.1569 11.7376 46.0952C11.8009 46.0335 11.8514 45.96 11.8862 45.8788C11.9211 45.7976 11.9396 45.7103 11.9407 45.622C11.9418 45.5336 11.9255 45.4459 11.8927 45.3639C11.86 45.2818 11.8114 45.207 11.7497 45.1438C11.688 45.0805 11.6145 45.03 11.5333 44.9952C11.4521 44.9603 11.3648 44.9418 11.2765 44.9407L10.9056 44.9406C10.9729 45.2039 10.9729 45.7421 11.0401 46.2862L11.2594 46.2862Z" fill="#F98568"/>
<path d="M11.2594 46.2862C11.3478 46.2873 11.4355 46.271 11.5175 46.2383C11.5996 46.2055 11.6744 46.1569 11.7376 46.0952C11.8009 46.0335 11.8514 45.96 11.8862 45.8788C11.9211 45.7976 11.9396 45.7103 11.9407 45.622C11.9418 45.5336 11.9255 45.4459 11.8927 45.3639C11.86 45.2818 11.8114 45.207 11.7497 45.1438C11.688 45.0805 11.6145 45.03 11.5333 44.9952C11.4521 44.9603 11.3648 44.9418 11.2765 44.9407L10.9056 44.9406C10.9729 45.2039 10.9729 45.7421 11.0401 46.2862L11.2594 46.2862Z" fill="#F98568"/>
<circle cx="51.4755" cy="27.4404" r="0.672811" fill="#F98568"/>
<circle cx="51.4755" cy="27.4404" r="0.672811" fill="#F98568"/>
<circle cx="51.4755" cy="27.4404" r="0.672811" fill="#F98568"/>
<circle cx="18.372" cy="32.8232" r="0.672811" fill="#F98568"/>
<circle cx="18.372" cy="32.8232" r="0.672811" fill="#F98568"/>
<circle cx="18.372" cy="32.8232" r="0.672811" fill="#F98568"/>
<circle cx="21.6025" cy="32.958" r="0.672811" fill="#F98568"/>
<circle cx="21.6025" cy="32.958" r="0.672811" fill="#F98568"/>
<circle cx="21.6025" cy="32.958" r="0.672811" fill="#F98568"/>
<circle cx="44.6123" cy="34.0341" r="0.672811" fill="#F98568"/>
<circle cx="44.6123" cy="34.0341" r="0.672811" fill="#F98568"/>
<circle cx="44.6123" cy="34.0341" r="0.672811" fill="#F98568"/>
<path d="M48.313 33.4959C48.2429 33.4421 48.2361 33.407 48.1507 33.3842C48.0654 33.3613 47.9764 33.3555 47.8888 33.367C47.8012 33.3786 47.7167 33.4073 47.6402 33.4515C47.5637 33.4957 47.4966 33.5545 47.4429 33.6246C47.3891 33.6947 47.3496 33.7747 47.3268 33.86C47.3039 33.9454 47.2981 34.0344 47.3097 34.122C47.3212 34.2096 47.3499 34.2941 47.3941 34.3706C47.4383 34.4471 47.4357 34.4512 47.5058 34.505L47.9094 33.9668L48.313 33.4959Z" fill="#F98568"/>
<path d="M48.313 33.4959C48.2429 33.4421 48.2361 33.407 48.1507 33.3842C48.0654 33.3613 47.9764 33.3555 47.8888 33.367C47.8012 33.3786 47.7167 33.4073 47.6402 33.4515C47.5637 33.4957 47.4966 33.5545 47.4429 33.6246C47.3891 33.6947 47.3496 33.7747 47.3268 33.86C47.3039 33.9454 47.2981 34.0344 47.3097 34.122C47.3212 34.2096 47.3499 34.2941 47.3941 34.3706C47.4383 34.4471 47.4357 34.4512 47.5058 34.505L47.9094 33.9668L48.313 33.4959Z" fill="#F98568"/>
<path d="M48.313 33.4959C48.2429 33.4421 48.2361 33.407 48.1507 33.3842C48.0654 33.3613 47.9764 33.3555 47.8888 33.367C47.8012 33.3786 47.7167 33.4073 47.6402 33.4515C47.5637 33.4957 47.4966 33.5545 47.4429 33.6246C47.3891 33.6947 47.3496 33.7747 47.3268 33.86C47.3039 33.9454 47.2981 34.0344 47.3097 34.122C47.3212 34.2096 47.3499 34.2941 47.3941 34.3706C47.4383 34.4471 47.4357 34.4512 47.5058 34.505L47.9094 33.9668L48.313 33.4959Z" fill="#F98568"/>
<circle cx="41.249" cy="33.8994" r="0.672811" fill="#F98568"/>
<circle cx="41.249" cy="33.8994" r="0.672811" fill="#F98568"/>
<circle cx="41.249" cy="33.8994" r="0.672811" fill="#F98568"/>
<circle cx="38.0185" cy="33.7646" r="0.672811" fill="#F98568"/>
<circle cx="38.0185" cy="33.7646" r="0.672811" fill="#F98568"/>
<circle cx="38.0185" cy="33.7646" r="0.672811" fill="#F98568"/>
<circle cx="34.79" cy="33.6298" r="0.672811" fill="#F98568"/>
<circle cx="34.79" cy="33.6298" r="0.672811" fill="#F98568"/>
<circle cx="34.79" cy="33.6298" r="0.672811" fill="#F98568"/>
<circle cx="31.5595" cy="33.3623" r="0.672811" fill="#F98568"/>
<circle cx="31.5595" cy="33.3623" r="0.672811" fill="#F98568"/>
<circle cx="31.5595" cy="33.3623" r="0.672811" fill="#F98568"/>
<circle cx="28.1962" cy="33.2275" r="0.672811" fill="#F98568"/>
<circle cx="28.1962" cy="33.2275" r="0.672811" fill="#F98568"/>
<circle cx="28.1962" cy="33.2275" r="0.672811" fill="#F98568"/>
<circle cx="24.9658" cy="33.0927" r="0.672811" fill="#F98568"/>
<circle cx="24.9658" cy="33.0927" r="0.672811" fill="#F98568"/>
<circle cx="24.9658" cy="33.0927" r="0.672811" fill="#F98568"/>
<circle cx="15.0087" cy="35.9189" r="0.672811" fill="#F98568"/>
<circle cx="15.0087" cy="35.9189" r="0.672811" fill="#F98568"/>
<circle cx="15.0087" cy="35.9189" r="0.672811" fill="#F98568"/>
<circle cx="18.2373" cy="36.0537" r="0.672811" fill="#F98568"/>
<circle cx="18.2373" cy="36.0537" r="0.672811" fill="#F98568"/>
<circle cx="18.2373" cy="36.0537" r="0.672811" fill="#F98568"/>
<circle cx="21.4677" cy="36.1865" r="0.672811" fill="#F98568"/>
<circle cx="21.4677" cy="36.1865" r="0.672811" fill="#F98568"/>
<circle cx="21.4677" cy="36.1865" r="0.672811" fill="#F98568"/>
<circle cx="44.4775" cy="37.2646" r="0.672811" fill="#F98568"/>
<circle cx="44.4775" cy="37.2646" r="0.672811" fill="#F98568"/>
<circle cx="44.4775" cy="37.2646" r="0.672811" fill="#F98568"/>
<circle cx="41.1142" cy="37.1298" r="0.672811" fill="#F98568"/>
<circle cx="41.1142" cy="37.1298" r="0.672811" fill="#F98568"/>
<circle cx="41.1142" cy="37.1298" r="0.672811" fill="#F98568"/>
<circle cx="37.8837" cy="36.9951" r="0.672811" fill="#F98568"/>
<circle cx="37.8837" cy="36.9951" r="0.672811" fill="#F98568"/>
<circle cx="37.8837" cy="36.9951" r="0.672811" fill="#F98568"/>
<circle cx="34.6552" cy="36.8603" r="0.672811" fill="#F98568"/>
<circle cx="34.6552" cy="36.8603" r="0.672811" fill="#F98568"/>
<circle cx="34.6552" cy="36.8603" r="0.672811" fill="#F98568"/>
<circle cx="31.4248" cy="36.5908" r="0.672811" fill="#F98568"/>
<circle cx="31.4248" cy="36.5908" r="0.672811" fill="#F98568"/>
<circle cx="31.4248" cy="36.5908" r="0.672811" fill="#F98568"/>
<circle cx="28.0615" cy="36.456" r="0.672811" fill="#F98568"/>
<circle cx="28.0615" cy="36.456" r="0.672811" fill="#F98568"/>
<circle cx="28.0615" cy="36.456" r="0.672811" fill="#F98568"/>
<circle cx="24.831" cy="36.3212" r="0.672811" fill="#F98568"/>
<circle cx="24.831" cy="36.3212" r="0.672811" fill="#F98568"/>
<circle cx="24.831" cy="36.3212" r="0.672811" fill="#F98568"/>
<circle cx="14.7392" cy="39.1474" r="0.672811" fill="#F98568"/>
<circle cx="14.7392" cy="39.1474" r="0.672811" fill="#F98568"/>
<circle cx="14.7392" cy="39.1474" r="0.672811" fill="#F98568"/>
<circle cx="17.9697" cy="39.2822" r="0.672811" fill="#F98568"/>
<circle cx="17.9697" cy="39.2822" r="0.672811" fill="#F98568"/>
<circle cx="17.9697" cy="39.2822" r="0.672811" fill="#F98568"/>
<circle cx="21.1982" cy="39.417" r="0.672811" fill="#F98568"/>
<circle cx="21.1982" cy="39.417" r="0.672811" fill="#F98568"/>
<circle cx="21.1982" cy="39.417" r="0.672811" fill="#F98568"/>
<circle cx="44.208" cy="40.4931" r="0.672811" fill="#F98568"/>
<circle cx="44.208" cy="40.4931" r="0.672811" fill="#F98568"/>
<circle cx="44.208" cy="40.4931" r="0.672811" fill="#F98568"/>
<circle cx="40.8447" cy="40.3584" r="0.672811" fill="#F98568"/>
<circle cx="40.8447" cy="40.3584" r="0.672811" fill="#F98568"/>
<circle cx="40.8447" cy="40.3584" r="0.672811" fill="#F98568"/>
<circle cx="37.6142" cy="40.2236" r="0.672811" fill="#F98568"/>
<circle cx="37.6142" cy="40.2236" r="0.672811" fill="#F98568"/>
<circle cx="37.6142" cy="40.2236" r="0.672811" fill="#F98568"/>
<circle cx="34.3857" cy="40.0888" r="0.672811" fill="#F98568"/>
<circle cx="34.3857" cy="40.0888" r="0.672811" fill="#F98568"/>
<circle cx="34.3857" cy="40.0888" r="0.672811" fill="#F98568"/>
<circle cx="31.1572" cy="39.8212" r="0.672811" fill="#F98568"/>
<circle cx="31.1572" cy="39.8212" r="0.672811" fill="#F98568"/>
<circle cx="31.1572" cy="39.8212" r="0.672811" fill="#F98568"/>
<circle cx="27.792" cy="39.6865" r="0.672811" fill="#F98568"/>
<circle cx="27.792" cy="39.6865" r="0.672811" fill="#F98568"/>
<circle cx="27.792" cy="39.6865" r="0.672811" fill="#F98568"/>
<circle cx="24.5615" cy="39.5517" r="0.672811" fill="#F98568"/>
<circle cx="24.5615" cy="39.5517" r="0.672811" fill="#F98568"/>
<circle cx="24.5615" cy="39.5517" r="0.672811" fill="#F98568"/>
<circle cx="11.5107" cy="42.3779" r="0.672811" fill="#F98568"/>
<circle cx="11.5107" cy="42.3779" r="0.672811" fill="#F98568"/>
<circle cx="11.5107" cy="42.3779" r="0.672811" fill="#F98568"/>
<circle cx="14.7392" cy="42.5107" r="0.672811" fill="#F98568"/>
<circle cx="14.7392" cy="42.5107" r="0.672811" fill="#F98568"/>
<circle cx="14.7392" cy="42.5107" r="0.672811" fill="#F98568"/>
<circle cx="17.9697" cy="42.6455" r="0.672811" fill="#F98568"/>
<circle cx="17.9697" cy="42.6455" r="0.672811" fill="#F98568"/>
<circle cx="17.9697" cy="42.6455" r="0.672811" fill="#F98568"/>
<circle cx="40.9795" cy="43.7216" r="0.672811" fill="#F98568"/>
<circle cx="40.9795" cy="43.7216" r="0.672811" fill="#F98568"/>
<circle cx="40.9795" cy="43.7216" r="0.672811" fill="#F98568"/>
<circle cx="37.6142" cy="43.5888" r="0.672811" fill="#F98568"/>
<circle cx="37.6142" cy="43.5888" r="0.672811" fill="#F98568"/>
<circle cx="37.6142" cy="43.5888" r="0.672811" fill="#F98568"/>
<circle cx="34.3857" cy="43.4541" r="0.672811" fill="#F98568"/>
<circle cx="34.3857" cy="43.4541" r="0.672811" fill="#F98568"/>
<circle cx="34.3857" cy="43.4541" r="0.672811" fill="#F98568"/>
<circle cx="31.1572" cy="43.3193" r="0.672811" fill="#F98568"/>
<circle cx="31.1572" cy="43.3193" r="0.672811" fill="#F98568"/>
<circle cx="31.1572" cy="43.3193" r="0.672811" fill="#F98568"/>
<circle cx="27.9267" cy="43.0498" r="0.672811" fill="#F98568"/>
<circle cx="27.9267" cy="43.0498" r="0.672811" fill="#F98568"/>
<circle cx="27.9267" cy="43.0498" r="0.672811" fill="#F98568"/>
<circle cx="24.5615" cy="42.915" r="0.672811" fill="#F98568"/>
<circle cx="24.5615" cy="42.915" r="0.672811" fill="#F98568"/>
<circle cx="24.5615" cy="42.915" r="0.672811" fill="#F98568"/>
<circle cx="21.333" cy="42.7802" r="0.672811" fill="#F98568"/>
<circle cx="21.333" cy="42.7802" r="0.672811" fill="#F98568"/>
<circle cx="21.333" cy="42.7802" r="0.672811" fill="#F98568"/>
<circle cx="14.6045" cy="45.8759" r="0.672811" fill="#F98568"/>
<circle cx="14.6045" cy="45.8759" r="0.672811" fill="#F98568"/>
<circle cx="14.6045" cy="45.8759" r="0.672811" fill="#F98568"/>
<circle cx="17.8349" cy="46.0107" r="0.672811" fill="#F98568"/>
<circle cx="17.8349" cy="46.0107" r="0.672811" fill="#F98568"/>
<circle cx="17.8349" cy="46.0107" r="0.672811" fill="#F98568"/>
<circle cx="37.4814" cy="46.9521" r="0.672811" fill="#F98568"/>
<circle cx="37.4814" cy="46.9521" r="0.672811" fill="#F98568"/>
<circle cx="37.4814" cy="46.9521" r="0.672811" fill="#F98568"/>
<circle cx="34.2509" cy="46.8193" r="0.672811" fill="#F98568"/>
<circle cx="34.2509" cy="46.8193" r="0.672811" fill="#F98568"/>
<circle cx="34.2509" cy="46.8193" r="0.672811" fill="#F98568"/>
<circle cx="31.0224" cy="46.6826" r="0.672811" fill="#F98568"/>
<circle cx="31.0224" cy="46.6826" r="0.672811" fill="#F98568"/>
<circle cx="31.0224" cy="46.6826" r="0.672811" fill="#F98568"/>
<circle cx="27.792" cy="46.413" r="0.672811" fill="#F98568"/>
<circle cx="27.792" cy="46.413" r="0.672811" fill="#F98568"/>
<circle cx="27.792" cy="46.413" r="0.672811" fill="#F98568"/>
<circle cx="24.4287" cy="46.2783" r="0.672811" fill="#F98568"/>
<circle cx="24.4287" cy="46.2783" r="0.672811" fill="#F98568"/>
<circle cx="24.4287" cy="46.2783" r="0.672811" fill="#F98568"/>
<circle cx="33.9814" cy="50.0478" r="0.672811" fill="#F98568"/>
<circle cx="33.9814" cy="50.0478" r="0.672811" fill="#F98568"/>
<circle cx="33.9814" cy="50.0478" r="0.672811" fill="#F98568"/>
<path d="M37.7675 49.5224C37.6986 49.4671 37.6195 49.4259 37.5347 49.4011C37.4499 49.3764 37.361 49.3686 37.2732 49.3782C37.1853 49.3878 37.1003 49.4146 37.0228 49.4571C36.9453 49.4996 36.877 49.5569 36.8216 49.6258C36.7663 49.6947 36.7251 49.7738 36.7004 49.8586C36.6756 49.9434 36.6678 50.0323 36.6774 50.1201C36.687 50.2079 36.7138 50.293 36.7563 50.3705C36.7988 50.448 36.8561 50.5163 36.925 50.5716L37.1442 50.7202C37.346 50.5183 37.6397 50.1346 37.9515 49.711L37.7675 49.5224Z" fill="#F98568"/>
<path d="M37.7675 49.5224C37.6986 49.4671 37.6195 49.4259 37.5347 49.4011C37.4499 49.3764 37.361 49.3686 37.2732 49.3782C37.1853 49.3878 37.1003 49.4146 37.0228 49.4571C36.9453 49.4996 36.877 49.5569 36.8216 49.6258C36.7663 49.6947 36.7251 49.7738 36.7004 49.8586C36.6756 49.9434 36.6678 50.0323 36.6774 50.1201C36.687 50.2079 36.7138 50.293 36.7563 50.3705C36.7988 50.448 36.8561 50.5163 36.925 50.5716L37.1442 50.7202C37.346 50.5183 37.6397 50.1346 37.9515 49.711L37.7675 49.5224Z" fill="#F98568"/>
<path d="M37.7675 49.5224C37.6986 49.4671 37.6195 49.4259 37.5347 49.4011C37.4499 49.3764 37.361 49.3686 37.2732 49.3782C37.1853 49.3878 37.1003 49.4146 37.0228 49.4571C36.9453 49.4996 36.877 49.5569 36.8216 49.6258C36.7663 49.6947 36.7251 49.7738 36.7004 49.8586C36.6756 49.9434 36.6678 50.0323 36.6774 50.1201C36.687 50.2079 36.7138 50.293 36.7563 50.3705C36.7988 50.448 36.8561 50.5163 36.925 50.5716L37.1442 50.7202C37.346 50.5183 37.6397 50.1346 37.9515 49.711L37.7675 49.5224Z" fill="#F98568"/>
<circle cx="30.7529" cy="49.913" r="0.672811" fill="#F98568"/>
<circle cx="30.7529" cy="49.913" r="0.672811" fill="#F98568"/>
<circle cx="30.7529" cy="49.913" r="0.672811" fill="#F98568"/>
<circle cx="27.5224" cy="49.7783" r="0.672811" fill="#F98568"/>
<circle cx="27.5224" cy="49.7783" r="0.672811" fill="#F98568"/>
<circle cx="27.5224" cy="49.7783" r="0.672811" fill="#F98568"/>
<circle cx="24.2939" cy="49.5087" r="0.672811" fill="#F98568"/>
<circle cx="24.2939" cy="49.5087" r="0.672811" fill="#F98568"/>
<circle cx="24.2939" cy="49.5087" r="0.672811" fill="#F98568"/>
<circle cx="20.9287" cy="49.3759" r="0.672811" fill="#F98568"/>
<circle cx="20.9287" cy="49.3759" r="0.672811" fill="#F98568"/>
<circle cx="20.9287" cy="49.3759" r="0.672811" fill="#F98568"/>
<circle cx="27.3877" cy="52.874" r="0.672811" fill="#F98568"/>
<circle cx="27.3877" cy="52.874" r="0.672811" fill="#F98568"/>
<circle cx="27.3877" cy="52.874" r="0.672811" fill="#F98568"/>
<circle cx="24.1591" cy="52.7373" r="0.672811" fill="#F98568"/>
<circle cx="24.1591" cy="52.7373" r="0.672811" fill="#F98568"/>
<circle cx="24.1591" cy="52.7373" r="0.672811" fill="#F98568"/>
<circle cx="20.9287" cy="52.4697" r="0.672811" fill="#F98568"/>
<circle cx="20.9287" cy="52.4697" r="0.672811" fill="#F98568"/>
<circle cx="20.9287" cy="52.4697" r="0.672811" fill="#F98568"/>
<circle cx="17.5654" cy="52.3349" r="0.672811" fill="#F98568"/>
<circle cx="17.5654" cy="52.3349" r="0.672811" fill="#F98568"/>
<circle cx="17.5654" cy="52.3349" r="0.672811" fill="#F98568"/>
<circle cx="17.5654" cy="49.1045" r="0.672811" fill="#F98568"/>
<circle cx="17.5654" cy="49.1045" r="0.672811" fill="#F98568"/>
<circle cx="17.5654" cy="49.1045" r="0.672811" fill="#F98568"/>
<circle cx="14.2021" cy="48.9697" r="0.672811" fill="#F98568"/>
<circle cx="14.2021" cy="48.9697" r="0.672811" fill="#F98568"/>
<circle cx="14.2021" cy="48.9697" r="0.672811" fill="#F98568"/>
<circle cx="11.913" cy="29.1904" r="0.672811" fill="#F98568"/>
<circle cx="11.913" cy="29.1904" r="0.672811" fill="#F98568"/>
<circle cx="11.913" cy="29.1904" r="0.672811" fill="#F98568"/>
<circle cx="11.913" cy="32.5537" r="0.672811" fill="#F98568"/>
<circle cx="11.913" cy="32.5537" r="0.672811" fill="#F98568"/>
<circle cx="11.913" cy="32.5537" r="0.672811" fill="#F98568"/>
<circle cx="11.7783" cy="35.9189" r="0.672811" fill="#F98568"/>
<circle cx="11.7783" cy="35.9189" r="0.672811" fill="#F98568"/>
<circle cx="11.7783" cy="35.9189" r="0.672811" fill="#F98568"/>
<circle cx="11.3759" cy="39.0127" r="0.672811" fill="#F98568"/>
<circle cx="11.3759" cy="39.0127" r="0.672811" fill="#F98568"/>
<circle cx="11.3759" cy="39.0127" r="0.672811" fill="#F98568"/>
<circle cx="21.1982" cy="46.1455" r="0.672811" fill="#F98568"/>
<circle cx="21.1982" cy="46.1455" r="0.672811" fill="#F98568"/>
<circle cx="21.1982" cy="46.1455" r="0.672811" fill="#F98568"/>
<circle cx="39.2295" cy="7.12203" r="0.672811" fill="#F98568"/>
<circle cx="39.2295" cy="7.12203" r="0.672811" fill="#F98568"/>
<circle cx="39.2295" cy="7.12203" r="0.672811" fill="#F98568"/>
<path d="M41.9701 6.79483C41.8477 6.9246 41.7818 7.09771 41.7869 7.27608C41.7921 7.45445 41.8679 7.62345 41.9977 7.74592C42.1275 7.8684 42.3006 7.9343 42.4789 7.92913C42.6573 7.92397 42.8263 7.84816 42.9488 7.71838L43.1322 7.5931C42.7877 7.09708 42.5756 6.89453 42.1903 6.58376L41.9701 6.79483Z" fill="#F98568"/>
<path d="M41.9701 6.79483C41.8477 6.9246 41.7818 7.09771 41.7869 7.27608C41.7921 7.45445 41.8679 7.62345 41.9977 7.74592C42.1275 7.8684 42.3006 7.9343 42.4789 7.92913C42.6573 7.92397 42.8263 7.84816 42.9488 7.71838L43.1322 7.5931C42.7877 7.09708 42.5756 6.89453 42.1903 6.58376L41.9701 6.79483Z" fill="#F98568"/>
<path d="M41.9701 6.79483C41.8477 6.9246 41.7818 7.09771 41.7869 7.27608C41.7921 7.45445 41.8679 7.62345 41.9977 7.74592C42.1275 7.8684 42.3006 7.9343 42.4789 7.92913C42.6573 7.92397 42.8263 7.84816 42.9488 7.71838L43.1322 7.5931C42.7877 7.09708 42.5756 6.89453 42.1903 6.58376L41.9701 6.79483Z" fill="#F98568"/>
</g>
<defs>
<radialGradient id="paint0_radial_3202_8174" cx="0" cy="0" r="1" gradientUnits="userSpaceOnUse" gradientTransform="translate(30 30) rotate(90) scale(30)">
<stop offset="0.67" stop-color="#FFDB1D"/>
<stop offset="1" stop-color="#AB9628" stop-opacity="0.8"/>
</radialGradient>
<clipPath id="clip0_3202_8174">
<rect width="60" height="60" fill="white"/>
</clipPath>
</defs>
</svg>
