<svg width="60" height="60" viewBox="0 0 60 60" fill="none" xmlns="http://www.w3.org/2000/svg">
<g clip-path="url(#clip0_3202_8458)">
<circle cx="30" cy="30" r="30" fill="url(#paint0_radial_3202_8458)"/>
<path d="M9.98787 21.1905L11.3052 18.9947L12.9155 17.3844L15.4041 15.9205L18.0391 15.0422L21.1133 14.603L25.2122 14.1639L29.4575 13.8711L34.1419 14.603L36.6305 15.0422L39.1192 16.7989L41.1686 18.7019L43.5108 18.2628H45.4139H48.1953L52.1478 19.1411L55.222 21.3369L51.4158 23.9719L49.22 22.9472L46.7314 22.6544L43.8036 23.3864L41.7542 24.2647L36.9233 23.9719V22.6544L35.8986 20.4586L34.1419 19.5803L31.5069 19.2875H25.2122L21.1133 19.5803L17.6 20.4586L14.965 21.9225L14.3794 24.2647V27.1925L14.6722 30.8522L15.4041 34.9511L16.7216 38.1717L17.6 39.6356L20.0886 41.3922H25.505L31.0678 40.8067L34.4347 39.782L35.8986 38.1717L36.6305 35.6831L36.9233 31.877V23.9719L41.7542 24.2647L41.4614 33.0481L41.1686 36.415L40.2903 40.6603L38.3872 42.7097L34.4347 44.7592L30.3358 45.4911L24.6266 45.9303H20.0886L17.6 45.4911L14.965 44.0273L12.9155 41.0995L10.8661 35.9758L9.98787 32.6089H5.4498C3.96783 31.0996 4.47106 30.0154 5.4498 28.0708H9.98787V21.1905Z" fill="#F4B63A"/>
<path d="M5.59635 28.2166H9.8416L9.98799 21.6288C10.3296 19.677 12.8865 15.5392 20.3816 14.6023C29.7505 13.4312 33.0502 14.1742 35.7525 14.8951C37.9485 15.481 40.1929 17.6279 41.0225 18.8479C49.4545 16.857 54.0023 19.6774 55.2222 21.3365L51.4161 24.1177C48.9568 21.7755 43.8527 23.1418 41.608 24.1177C42.1936 28.2166 41.3153 37.1463 40.4369 39.9277C39.5586 42.7091 35.9521 44.1527 33.9958 44.9049C32.0929 45.6366 22.4311 46.076 18.9177 45.7833C16.1071 45.549 14.3586 43.148 13.9405 42.5627C11.5983 39.2836 10.3296 34.5601 9.98799 32.6082H5.59635C4.0739 32.6082 4.42532 28.2166 5.59635 28.2166Z" stroke="#F4B63A" stroke-width="0.585556"/>
</g>
<defs>
<radialGradient id="paint0_radial_3202_8458" cx="0" cy="0" r="1" gradientUnits="userSpaceOnUse" gradientTransform="translate(30 30) rotate(90) scale(30)">
<stop offset="0.67" stop-color="#FFDB1D"/>
<stop offset="1" stop-color="#AB9628" stop-opacity="0.8"/>
</radialGradient>
<clipPath id="clip0_3202_8458">
<rect width="60" height="60" fill="white"/>
</clipPath>
</defs>
</svg>
