<svg width="60" height="60" viewBox="0 0 60 60" fill="none" xmlns="http://www.w3.org/2000/svg">
<g clip-path="url(#clip0_3202_8164)">
<circle cx="30" cy="30" r="30" fill="url(#paint0_radial_3202_8164)"/>
<path d="M14.9004 21.7355C11.5456 23.3605 11.9519 26.6499 12.2795 28.3534C12.3711 28.8296 10.7844 30.7778 9.92071 31.4986C7.14251 34.0148 8.76312 38.051 9.92071 39.7546C10.707 40.8029 11.3841 42.2881 11.6243 42.8997C11.9589 43.7514 11.9094 46.1758 12.1485 47.1587C13.092 51.0377 16.9972 51.3959 18.8319 51.0901C20.6666 50.7756 21.134 51.9419 21.3873 52.4006C23.3268 55.9127 26.4763 53.5145 27.8086 51.8764C28.6473 50.5659 30.9538 50.6752 32.0021 50.8936C36.3529 52.4661 39.0568 47.1806 39.865 44.3412C40.2843 43.3977 40.957 43.1618 41.241 43.1618C46.6401 42.3231 46.9415 37.3084 46.4173 34.9058C46.3458 34.5781 48.5319 31.8917 49.759 30.6468C54.2801 26.0602 50.2177 22.8495 49.5624 21.9322C49.0383 21.1983 49.2567 20.2286 49.4314 19.8354C51.0564 16.1661 50.2176 13.8072 45.5 12.3657C44.4516 11.894 44.0752 9.54814 43.7308 8.82733C40.9133 2.93021 36.1956 6.7963 33.7713 10.8586C33.1847 11.8415 32.1594 12.6277 29.9054 11.3173C27.6514 10.0068 24.8601 12.038 23.7462 13.2175C23.4367 13.5452 21.8853 13.7548 20.47 13.8072C18.2421 13.8897 16.7351 17.3455 16.4731 19.1146C16.211 20.8836 15.4246 21.4816 14.9004 21.7355Z" fill="#F24A41" stroke="#F24A41" stroke-width="0.262094"/>
</g>
<defs>
<radialGradient id="paint0_radial_3202_8164" cx="0" cy="0" r="1" gradientUnits="userSpaceOnUse" gradientTransform="translate(30 30) rotate(90) scale(30)">
<stop offset="0.67" stop-color="#FFDB1D"/>
<stop offset="1" stop-color="#AB9628" stop-opacity="0.8"/>
</radialGradient>
<clipPath id="clip0_3202_8164">
<rect width="60" height="60" fill="white"/>
</clipPath>
</defs>
</svg>
