<svg width="60" height="60" viewBox="0 0 60 60" fill="none" xmlns="http://www.w3.org/2000/svg">
<circle cx="30" cy="30" r="30" fill="url(#paint0_radial_5294_3)"/>
<circle cx="6.71995" cy="14.4563" r="1.71995" fill="#F98568"/>
<circle cx="6.71995" cy="14.4563" r="1.71995" fill="#F98568"/>
<circle cx="6.71995" cy="14.4563" r="1.71995" fill="#F98568"/>
<circle cx="14.7199" cy="6.54221" r="1.71995" fill="#F98568"/>
<circle cx="14.7199" cy="6.54221" r="1.71995" fill="#F98568"/>
<circle cx="14.7199" cy="6.54221" r="1.71995" fill="#F98568"/>
<circle cx="21.9524" cy="6.88596" r="1.71995" fill="#F98568"/>
<circle cx="21.9524" cy="6.88596" r="1.71995" fill="#F98568"/>
<circle cx="21.9524" cy="6.88596" r="1.71995" fill="#F98568"/>
<circle cx="30.2063" cy="7.23167" r="1.71995" fill="#F98568"/>
<circle cx="30.2063" cy="7.23167" r="1.71995" fill="#F98568"/>
<circle cx="30.2063" cy="7.23167" r="1.71995" fill="#F98568"/>
<circle cx="38.8039" cy="7.57542" r="1.71995" fill="#F98568"/>
<circle cx="38.8039" cy="7.57542" r="1.71995" fill="#F98568"/>
<circle cx="38.8039" cy="7.57542" r="1.71995" fill="#F98568"/>
<circle cx="47.0617" cy="7.92112" r="1.71995" fill="#F98568"/>
<circle cx="47.0617" cy="7.92112" r="1.71995" fill="#F98568"/>
<circle cx="47.0617" cy="7.92112" r="1.71995" fill="#F98568"/>
<circle cx="54.9699" cy="16.8625" r="1.71995" fill="#F98568"/>
<circle cx="54.9699" cy="16.8625" r="1.71995" fill="#F98568"/>
<circle cx="54.9699" cy="16.8625" r="1.71995" fill="#F98568"/>
<circle cx="46.718" cy="16.5188" r="1.71995" fill="#F98568"/>
<circle cx="46.718" cy="16.5188" r="1.71995" fill="#F98568"/>
<circle cx="46.718" cy="16.5188" r="1.71995" fill="#F98568"/>
<circle cx="38.4602" cy="16.1731" r="1.71995" fill="#F98568"/>
<circle cx="38.4602" cy="16.1731" r="1.71995" fill="#F98568"/>
<circle cx="38.4602" cy="16.1731" r="1.71995" fill="#F98568"/>
<circle cx="30.2063" cy="15.4895" r="1.71995" fill="#F98568"/>
<circle cx="30.2063" cy="15.4895" r="1.71995" fill="#F98568"/>
<circle cx="30.2063" cy="15.4895" r="1.71995" fill="#F98568"/>
<circle cx="21.6086" cy="15.1457" r="1.71995" fill="#F98568"/>
<circle cx="21.6086" cy="15.1457" r="1.71995" fill="#F98568"/>
<circle cx="21.6086" cy="15.1457" r="1.71995" fill="#F98568"/>
<circle cx="13.3508" cy="14.8" r="1.71995" fill="#F98568"/>
<circle cx="13.3508" cy="14.8" r="1.71995" fill="#F98568"/>
<circle cx="13.3508" cy="14.8" r="1.71995" fill="#F98568"/>
<circle cx="4.75315" cy="23.3977" r="1.71995" fill="#F98568"/>
<circle cx="4.75315" cy="23.3977" r="1.71995" fill="#F98568"/>
<circle cx="4.75315" cy="23.3977" r="1.71995" fill="#F98568"/>
<circle cx="54.9699" cy="25.8059" r="1.71995" fill="#F98568"/>
<circle cx="54.9699" cy="25.8059" r="1.71995" fill="#F98568"/>
<circle cx="54.9699" cy="25.8059" r="1.71995" fill="#F98568"/>
<circle cx="46.718" cy="25.466" r="1.71995" fill="#F98568"/>
<circle cx="46.718" cy="25.466" r="1.71995" fill="#F98568"/>
<circle cx="46.718" cy="25.466" r="1.71995" fill="#F98568"/>
<circle cx="38.4602" cy="25.1203" r="1.71995" fill="#F98568"/>
<circle cx="38.4602" cy="25.1203" r="1.71995" fill="#F98568"/>
<circle cx="38.4602" cy="25.1203" r="1.71995" fill="#F98568"/>
<circle cx="30.2063" cy="24.4328" r="1.71995" fill="#F98568"/>
<circle cx="30.2063" cy="24.4328" r="1.71995" fill="#F98568"/>
<circle cx="30.2063" cy="24.4328" r="1.71995" fill="#F98568"/>
<circle cx="21.6086" cy="24.0871" r="1.71995" fill="#F98568"/>
<circle cx="21.6086" cy="24.0871" r="1.71995" fill="#F98568"/>
<circle cx="21.6086" cy="24.0871" r="1.71995" fill="#F98568"/>
<circle cx="13.3508" cy="23.7434" r="1.71995" fill="#F98568"/>
<circle cx="13.3508" cy="23.7434" r="1.71995" fill="#F98568"/>
<circle cx="13.3508" cy="23.7434" r="1.71995" fill="#F98568"/>
<circle cx="4.0637" cy="31.6574" r="1.71995" fill="#F98568"/>
<circle cx="4.0637" cy="31.6574" r="1.71995" fill="#F98568"/>
<circle cx="4.0637" cy="31.6574" r="1.71995" fill="#F98568"/>
<circle cx="54.2864" cy="34.0637" r="1.71995" fill="#F98568"/>
<circle cx="54.2864" cy="34.0637" r="1.71995" fill="#F98568"/>
<circle cx="54.2864" cy="34.0637" r="1.71995" fill="#F98568"/>
<circle cx="46.0285" cy="33.718" r="1.71995" fill="#F98568"/>
<circle cx="46.0285" cy="33.718" r="1.71995" fill="#F98568"/>
<circle cx="46.0285" cy="33.718" r="1.71995" fill="#F98568"/>
<circle cx="37.7746" cy="33.3742" r="1.71995" fill="#F98568"/>
<circle cx="37.7746" cy="33.3742" r="1.71995" fill="#F98568"/>
<circle cx="37.7746" cy="33.3742" r="1.71995" fill="#F98568"/>
<circle cx="29.5168" cy="32.6848" r="1.71995" fill="#F98568"/>
<circle cx="29.5168" cy="32.6848" r="1.71995" fill="#F98568"/>
<circle cx="29.5168" cy="32.6848" r="1.71995" fill="#F98568"/>
<circle cx="20.9192" cy="32.341" r="1.71995" fill="#F98568"/>
<circle cx="20.9192" cy="32.341" r="1.71995" fill="#F98568"/>
<circle cx="20.9192" cy="32.341" r="1.71995" fill="#F98568"/>
<circle cx="12.6614" cy="32.0012" r="1.71995" fill="#F98568"/>
<circle cx="12.6614" cy="32.0012" r="1.71995" fill="#F98568"/>
<circle cx="12.6614" cy="32.0012" r="1.71995" fill="#F98568"/>
<circle cx="4.0637" cy="39.9094" r="1.71995" fill="#F98568"/>
<circle cx="4.0637" cy="39.9094" r="1.71995" fill="#F98568"/>
<circle cx="4.0637" cy="39.9094" r="1.71995" fill="#F98568"/>
<circle cx="54.2864" cy="42.3157" r="1.71995" fill="#F98568"/>
<circle cx="54.2864" cy="42.3157" r="1.71995" fill="#F98568"/>
<circle cx="54.2864" cy="42.3157" r="1.71995" fill="#F98568"/>
<circle cx="46.0285" cy="41.9719" r="1.71995" fill="#F98568"/>
<circle cx="46.0285" cy="41.9719" r="1.71995" fill="#F98568"/>
<circle cx="46.0285" cy="41.9719" r="1.71995" fill="#F98568"/>
<circle cx="37.7746" cy="41.6321" r="1.71995" fill="#F98568"/>
<circle cx="37.7746" cy="41.6321" r="1.71995" fill="#F98568"/>
<circle cx="37.7746" cy="41.6321" r="1.71995" fill="#F98568"/>
<circle cx="29.5168" cy="40.9426" r="1.71995" fill="#F98568"/>
<circle cx="29.5168" cy="40.9426" r="1.71995" fill="#F98568"/>
<circle cx="29.5168" cy="40.9426" r="1.71995" fill="#F98568"/>
<circle cx="20.9192" cy="40.5989" r="1.71995" fill="#F98568"/>
<circle cx="20.9192" cy="40.5989" r="1.71995" fill="#F98568"/>
<circle cx="20.9192" cy="40.5989" r="1.71995" fill="#F98568"/>
<circle cx="12.6614" cy="40.2551" r="1.71995" fill="#F98568"/>
<circle cx="12.6614" cy="40.2551" r="1.71995" fill="#F98568"/>
<circle cx="12.6614" cy="40.2551" r="1.71995" fill="#F98568"/>
<circle cx="44.9953" cy="50.5754" r="1.71995" fill="#F98568"/>
<circle cx="44.9953" cy="50.5754" r="1.71995" fill="#F98568"/>
<circle cx="44.9953" cy="50.5754" r="1.71995" fill="#F98568"/>
<circle cx="36.7414" cy="50.2297" r="1.71995" fill="#F98568"/>
<circle cx="36.7414" cy="50.2297" r="1.71995" fill="#F98568"/>
<circle cx="36.7414" cy="50.2297" r="1.71995" fill="#F98568"/>
<circle cx="28.4875" cy="49.5403" r="1.71995" fill="#F98568"/>
<circle cx="28.4875" cy="49.5403" r="1.71995" fill="#F98568"/>
<circle cx="28.4875" cy="49.5403" r="1.71995" fill="#F98568"/>
<circle cx="19.886" cy="49.1965" r="1.71995" fill="#F98568"/>
<circle cx="19.886" cy="49.1965" r="1.71995" fill="#F98568"/>
<circle cx="19.886" cy="49.1965" r="1.71995" fill="#F98568"/>
<circle cx="11.6282" cy="48.8528" r="1.71995" fill="#F98568"/>
<circle cx="11.6282" cy="48.8528" r="1.71995" fill="#F98568"/>
<circle cx="11.6282" cy="48.8528" r="1.71995" fill="#F98568"/>
<circle cx="36.3977" cy="56.8352" r="1.71995" fill="#F98568"/>
<circle cx="36.3977" cy="56.8352" r="1.71995" fill="#F98568"/>
<circle cx="36.3977" cy="56.8352" r="1.71995" fill="#F98568"/>
<circle cx="28.1438" cy="56.4914" r="1.71995" fill="#F98568"/>
<circle cx="28.1438" cy="56.4914" r="1.71995" fill="#F98568"/>
<circle cx="28.1438" cy="56.4914" r="1.71995" fill="#F98568"/>
<circle cx="19.886" cy="55.8078" r="1.71995" fill="#F98568"/>
<circle cx="19.886" cy="55.8078" r="1.71995" fill="#F98568"/>
<circle cx="19.886" cy="55.8078" r="1.71995" fill="#F98568"/>
<defs>
<radialGradient id="paint0_radial_5294_3" cx="0" cy="0" r="1" gradientUnits="userSpaceOnUse" gradientTransform="translate(30 30) rotate(90) scale(30)">
<stop offset="0.67" stop-color="#FFDB1D"/>
<stop offset="1" stop-color="#AB9628" stop-opacity="0.8"/>
</radialGradient>
</defs>
</svg>
