<svg width="60" height="60" viewBox="0 0 60 60" fill="none" xmlns="http://www.w3.org/2000/svg">
<g clip-path="url(#clip0_3202_8466)">
<circle cx="30" cy="30" r="30" fill="url(#paint0_radial_3202_8466)"/>
<path d="M8.47863 31.448H10.8453H10.906V30.2343H8.47863C8.11449 29.3848 7.72013 29.142 8.20555 28.3532L8.84278 27.807L8.20555 26.7754C5.92992 28.1104 6.99188 29.9916 7.23461 30.4467C7.4288 30.8108 7.31553 31.266 7.23461 31.448L6.84017 32.3279L7.90213 32.9044C8.07205 32.8073 8.35726 31.893 8.47863 31.448Z" fill="#653905" stroke="black" stroke-width="0.121367"/>
<path d="M10.9062 30.2637C10.9062 29.9603 11.3411 30.1423 11.5131 30.2637C11.2218 30.7492 11.3917 31.2549 11.5131 31.447C11.5131 31.5684 10.9062 31.715 10.9062 31.5381V30.2637Z" fill="#A9A9A9" stroke="black" stroke-width="0.121367"/>
<path d="M51.5337 30.2637H11.5129C11.2944 30.385 11.2702 31.2953 11.5129 31.4167H51.5337C51.388 31.2467 51.3819 30.4154 51.5337 30.2637Z" fill="url(#paint1_linear_3202_8466)" stroke="black" stroke-width="0.121367"/>
<path d="M52.2928 29.8105C51.8316 29.8105 51.5747 30.1443 51.5039 30.296V31.3883C51.5747 31.54 51.8316 31.8738 52.2928 31.8738H53.203V29.8105H52.2928Z" fill="black"/>
<path d="M52.2928 29.8105C51.8316 29.8105 51.5747 30.1443 51.5039 30.296V31.3883C51.5747 31.54 51.8316 31.8738 52.2928 31.8738H53.203V29.8105M52.2928 29.8105C52.754 29.8105 53.0918 29.8105 53.203 29.8105M52.2928 29.8105H53.203" stroke="black" stroke-width="0.121367"/>
</g>
<defs>
<radialGradient id="paint0_radial_3202_8466" cx="0" cy="0" r="1" gradientUnits="userSpaceOnUse" gradientTransform="translate(30 30) rotate(90) scale(30)">
<stop offset="0.67" stop-color="#FFDB1D"/>
<stop offset="1" stop-color="#AB9628" stop-opacity="0.8"/>
</radialGradient>
<linearGradient id="paint1_linear_3202_8466" x1="31.4171" y1="30.2637" x2="31.4171" y2="33.1461" gradientUnits="userSpaceOnUse">
<stop stop-color="#EDB97C"/>
<stop offset="0.48" stop-color="#B99061"/>
</linearGradient>
<clipPath id="clip0_3202_8466">
<rect width="60" height="60" fill="white"/>
</clipPath>
</defs>
</svg>
