<svg width="60" height="60" viewBox="0 0 60 60" fill="none" xmlns="http://www.w3.org/2000/svg">
<g clip-path="url(#clip0_3202_8466)">
<circle cx="30" cy="30" r="30" fill="url(#paint0_radial_3202_8466)"/>
<path d="M17.8685 34.8429H27.4123H27.6572V29.9486H17.8685C16.4 26.5227 14.8098 25.5438 16.7673 22.3625L19.337 20.1601L16.7673 16C7.59055 21.3837 11.873 28.9698 12.8519 30.8051C13.635 32.2734 13.1782 34.1087 12.8519 34.8429L11.2612 38.3912L15.5437 40.716C16.2289 40.3245 17.3791 36.6374 17.8685 34.8429Z" fill="#653905" stroke="black" stroke-width="0.489426"/>
<path d="M27.6582 30.0661C27.658 28.8425 29.412 29.5767 30.1053 30.0661C28.9307 32.0238 29.6159 34.0631 30.1053 34.838C30.1053 35.3274 27.6581 35.9185 27.6582 35.2051C27.6584 34.3486 27.6584 31.5795 27.6582 30.0661Z" fill="#A9A9A9" stroke="black" stroke-width="0.489426"/>
<path d="M54 30H29.1076C28.9718 30.5263 28.9567 34.4737 29.1076 35H54C53.9094 34.2632 53.9056 30.6579 54 30Z" fill="url(#paint1_linear_3202_8466)" stroke="black" stroke-width="0.489426"/>
</g>
<defs>
<radialGradient id="paint0_radial_3202_8466" cx="0" cy="0" r="1" gradientUnits="userSpaceOnUse" gradientTransform="translate(30 30) rotate(90) scale(30)">
<stop offset="0.67" stop-color="#FFDB1D"/>
<stop offset="1" stop-color="#AB9628" stop-opacity="0.8"/>
</radialGradient>
<linearGradient id="paint1_linear_3202_8466" x1="41.4878" y1="30" x2="41.4878" y2="42.5" gradientUnits="userSpaceOnUse">
<stop stop-color="#EDB97C"/>
<stop offset="0.48" stop-color="#B99061"/>
</linearGradient>
<clipPath id="clip0_3202_8466">
<rect width="60" height="60" fill="white"/>
</clipPath>
</defs>
</svg>
