<svg width="275" height="98" viewBox="0 0 275 98" fill="none" xmlns="http://www.w3.org/2000/svg">
<path d="M72.1117 34.8622C70.5007 35.1988 64.7145 35.7618 57.9373 36.2949C51.1723 36.827 43.4533 37.3269 37.9988 37.5402C35.8934 37.6226 34.3687 38.1835 33.3417 39.0488C32.3113 39.917 31.8101 41.0681 31.7128 42.2701C31.5203 44.6494 32.9062 47.2593 34.9308 48.4198C42.839 52.9529 52.9922 53.955 61.7722 52.9477C66.1655 52.4438 70.2281 51.4354 73.509 50.105C76.7796 48.7788 79.3129 47.1166 80.5988 45.2797C82.1592 43.0505 82.6859 41.206 82.4741 39.6967C82.2609 38.1787 81.3112 37.0707 80.0793 36.298C78.8511 35.5276 77.321 35.0747 75.8795 34.8602C74.4393 34.6458 73.0562 34.6648 72.1117 34.8622L72.1741 35.1607L72.1117 34.8622Z" fill="#17272E" stroke="black" stroke-width="0.610059"/>
<mask id="path-2-outside-1_3184_7508" maskUnits="userSpaceOnUse" x="42.0605" y="28" width="25" height="17" fill="black">
<rect fill="white" x="42.0605" y="28" width="25" height="17"/>
<path d="M49.8449 29.8541C46.1357 31.7575 42.8292 40.8225 43.0733 41.0182C49.2349 45.9596 58.3856 45.2276 66.1334 37.8459C66.3255 37.6628 59.4228 29 57.4706 29C55.9088 29 54.1356 30.7488 53.4442 31.6233C52.1753 30.8424 50.5582 29.488 49.8449 29.8541Z"/>
</mask>
<path d="M49.8449 29.8541C46.1357 31.7575 42.8292 40.8225 43.0733 41.0182C49.2349 45.9596 58.3856 45.2276 66.1334 37.8459C66.3255 37.6628 59.4228 29 57.4706 29C55.9088 29 54.1356 30.7488 53.4442 31.6233C52.1753 30.8424 50.5582 29.488 49.8449 29.8541Z" fill="#17252B"/>
<path d="M43.0733 41.0182L43.4549 40.5422L43.4549 40.5422L43.0733 41.0182ZM49.8449 29.8541L50.1234 30.3968L49.8449 29.8541ZM53.4442 31.6233L53.1245 32.1428L53.5864 32.4271L53.9227 32.0016L53.4442 31.6233ZM66.1334 37.8459L66.5542 38.2875L66.5542 38.2875L66.1334 37.8459ZM43.4549 40.5422C43.5918 40.652 43.6369 40.7857 43.651 40.8351C43.6677 40.8933 43.6699 40.9381 43.6704 40.9534C43.6715 40.9853 43.6679 40.9968 43.6716 40.9725C43.678 40.9301 43.6955 40.8487 43.7303 40.722C43.7984 40.4743 43.9158 40.1142 44.0793 39.6695C44.4055 38.7825 44.9031 37.5921 45.5226 36.3485C46.143 35.1033 46.8786 33.8191 47.6784 32.7364C48.4867 31.6422 49.3211 30.8086 50.1234 30.3968L49.5663 29.3113C48.5141 29.8513 47.5442 30.8645 46.697 32.0115C45.8412 33.17 45.0699 34.5211 44.4306 35.8045C43.7903 37.0895 43.2752 38.321 42.9342 39.2483C42.7641 39.7107 42.6343 40.1058 42.5538 40.3987C42.5143 40.5423 42.4821 40.6776 42.4651 40.7904C42.4571 40.8437 42.4483 40.9174 42.451 40.9953C42.4523 41.0335 42.457 41.0971 42.4778 41.17C42.4961 41.234 42.5471 41.3782 42.6916 41.4941L43.4549 40.5422ZM50.1234 30.3968C50.0821 30.4181 50.1188 30.3747 50.3424 30.4469C50.5476 30.5131 50.8091 30.6442 51.1228 30.832C51.432 31.0171 51.7618 31.2388 52.1047 31.471C52.4416 31.6992 52.7933 31.939 53.1245 32.1428L53.7639 31.1037C53.4606 30.9171 53.1343 30.6947 52.7889 30.4608C52.4494 30.2309 52.0924 29.9904 51.7496 29.7852C51.4112 29.5826 51.0554 29.3949 50.7171 29.2857C50.3971 29.1825 49.9643 29.1071 49.5663 29.3113L50.1234 30.3968ZM53.9227 32.0016C54.2414 31.5987 54.8211 30.9813 55.4983 30.4709C56.1942 29.9462 56.8939 29.6101 57.4706 29.6101V28.3899C56.4856 28.3899 55.5177 28.9282 54.7638 29.4966C53.991 30.0791 53.3385 30.7734 52.9657 31.2449L53.9227 32.0016ZM57.4706 29.6101C57.5288 29.6101 57.723 29.6592 58.0852 29.8882C58.4211 30.1006 58.8225 30.4159 59.2699 30.8128C60.1626 31.6048 61.1843 32.6732 62.1502 33.7596C63.1141 34.8439 64.0113 35.9335 64.6536 36.7606C64.9755 37.1752 65.2287 37.5178 65.393 37.7579C65.4768 37.8803 65.5288 37.9634 65.5548 38.0107C65.57 38.0381 65.5639 38.0312 65.5541 38.0029C65.5503 37.9917 65.5327 37.9407 65.5283 37.8677C65.5252 37.8161 65.5179 37.5896 65.7126 37.4042L66.5542 38.2875C66.7549 38.0964 66.7501 37.86 66.7462 37.7945C66.741 37.7077 66.7192 37.6388 66.7079 37.6059C66.6831 37.534 66.6489 37.4681 66.6236 37.422C66.5687 37.3223 66.4901 37.2006 66.3998 37.0686C66.2158 36.7998 65.9459 36.4356 65.6172 36.0123C64.9583 35.1637 64.0438 34.0533 63.062 32.949C62.0822 31.8468 61.0242 30.7381 60.0796 29.9001C59.6084 29.482 59.1517 29.119 58.7372 28.857C58.349 28.6115 57.9004 28.3899 57.4706 28.3899V29.6101ZM65.7126 37.4042C58.1223 44.6358 49.3154 45.2423 43.4549 40.5422L42.6916 41.4941C49.1543 46.677 58.6489 45.8193 66.5542 38.2875L65.7126 37.4042Z" fill="black" mask="url(#path-2-outside-1_3184_7508)"/>
</svg>
