<svg width="275" height="98" viewBox="0 0 275 98" fill="none" xmlns="http://www.w3.org/2000/svg">
<path d="M48 66.5021C47.8989 59.9821 37.3018 60.5844 32.0159 61.7005C31.7 61.7672 36.1858 64.8844 36.5016 64.8595C44.8411 64.2025 47.6211 65.5545 48 66.5021Z" fill="#9A5B3D" stroke="black" stroke-width="0.252713"/>
<path d="M33.6589 61.3849L33.5957 63.0276M34.7961 61.2586V63.7857M36.5019 61.069C36.5019 61.9325 36.6156 63.8868 37.0705 64.7966M37.8286 61.069L39.029 64.7334M38.8395 61.0059L41.3666 64.7334M40.1031 61.069C41.0086 61.7851 42.8955 63.533 43.1988 64.7966M41.7457 61.1954C42.7776 61.8482 44.9299 63.533 45.2837 65.0493" stroke="black" stroke-width="0.252713"/>
</svg>
