<svg width="275" height="98" viewBox="0 0 275 98" fill="none" xmlns="http://www.w3.org/2000/svg">
<path d="M135.792 55.242L138.581 50.1719C138.971 49.4621 138.771 48.8409 138.581 48.6507L136.679 46.8763C135.855 46.0525 136.743 45.0494 137.376 45.4186C142.383 48.334 142.954 49.6015 143.777 50.6789C144.437 51.5408 143.461 51.9465 143.08 51.7563C142.742 51.5873 141.927 51.1479 141.369 50.7423C140.811 50.3367 140.609 50.8056 140.418 51.0592L137.186 55.9392C136.489 56.8898 135.412 55.8757 135.792 55.242Z" fill="#316F96" stroke="black" stroke-width="0.253507"/>
<path d="M107.335 50.1083C106.777 48.2323 108.92 46.5803 110.06 45.9888C112.089 45.0382 111.109 47.193 110.06 48.1436C108.438 49.6139 109.258 50.5308 109.87 50.8054C110.06 50.8906 110.884 50.2985 111.645 49.9182C112.912 49.3478 112.659 50.7421 112.342 50.9956C112.179 51.1261 111.391 51.8406 110.948 52.1363C109.744 53.0237 110.758 54.7137 111.455 55.1785C111.645 55.3053 112.71 54.532 113.419 54.4813C114.307 54.4179 114.814 55.4319 114.053 56.0657C113.293 56.6995 112.342 57.2699 110.948 56.7628C109.553 56.2558 108.032 52.4532 107.335 50.1083Z" fill="#316F96"/>
<path d="M110.06 45.9888L110.006 45.8739L110.002 45.8763L110.06 45.9888ZM107.335 50.1083L107.214 50.1444L107.335 50.1083ZM110.948 56.7628L110.991 56.6437L110.948 56.7628ZM114.053 56.0657L114.134 56.1631L114.053 56.0657ZM113.419 54.4813L113.428 54.6077L113.419 54.4813ZM111.455 55.1785L111.384 55.284V55.284L111.455 55.1785ZM110.948 52.1363L110.877 52.0308L110.873 52.0343L110.948 52.1363ZM112.342 50.9956L112.421 51.0945L112.342 50.9956ZM111.645 49.9182L111.593 49.8025L111.588 49.8048L111.645 49.9182ZM109.87 50.8054L109.818 50.9211H109.818L109.87 50.8054ZM110.06 48.1436L109.975 48.0497L109.975 48.0497L110.06 48.1436ZM110.002 45.8763C109.421 46.1775 108.586 46.7479 107.964 47.4852C107.343 48.2213 106.917 49.1472 107.214 50.1444L107.457 50.0722C107.195 49.1934 107.562 48.3553 108.158 47.6486C108.753 46.943 109.559 46.3916 110.119 46.1013L110.002 45.8763ZM107.214 50.1444C107.564 51.3217 108.121 52.8656 108.766 54.1806C109.089 54.838 109.436 55.4419 109.792 55.9152C110.145 56.3845 110.52 56.7422 110.904 56.882L110.991 56.6437C110.678 56.53 110.34 56.2222 109.994 55.7627C109.651 55.3071 109.313 54.7187 108.994 54.0689C108.356 52.7697 107.804 51.2398 107.457 50.0722L107.214 50.1444ZM110.904 56.882C111.627 57.1447 112.242 57.13 112.776 56.963C113.307 56.7972 113.75 56.4837 114.134 56.1631L113.972 55.9683C113.596 56.2815 113.184 56.57 112.7 56.7211C112.22 56.871 111.663 56.888 110.991 56.6437L110.904 56.882ZM114.134 56.1631C114.556 55.8118 114.637 55.34 114.47 54.9611C114.306 54.5866 113.907 54.3194 113.41 54.3548L113.428 54.6077C113.819 54.5798 114.117 54.7879 114.238 55.063C114.357 55.3337 114.311 55.6859 113.972 55.9683L114.134 56.1631ZM113.41 54.3548C113.215 54.3688 113.001 54.4317 112.794 54.5111C112.586 54.5908 112.376 54.6904 112.187 54.7824C111.995 54.8757 111.827 54.9593 111.695 55.0126C111.628 55.0393 111.578 55.0556 111.541 55.0624C111.498 55.0706 111.505 55.0594 111.525 55.073L111.384 55.284C111.452 55.3293 111.534 55.3217 111.588 55.3116C111.649 55.3002 111.718 55.2765 111.789 55.2477C111.932 55.1902 112.111 55.101 112.298 55.0105C112.487 54.9186 112.688 54.8233 112.885 54.7478C113.083 54.6719 113.269 54.6191 113.428 54.6077L113.41 54.3548ZM111.525 55.073C111.202 54.8579 110.791 54.3438 110.609 53.7771C110.519 53.496 110.487 53.2104 110.545 52.9477C110.601 52.6878 110.746 52.4423 111.023 52.2384L110.873 52.0343C110.547 52.2741 110.367 52.5726 110.297 52.8937C110.228 53.2119 110.268 53.5443 110.368 53.8547C110.566 54.471 111.01 55.0343 111.384 55.284L111.525 55.073ZM111.018 52.2418C111.247 52.0893 111.56 51.8321 111.832 51.6006C112.11 51.3645 112.341 51.1586 112.421 51.0945L112.263 50.8966C112.18 50.9631 111.936 51.1797 111.668 51.4074C111.395 51.6397 111.092 51.8877 110.877 52.0309L111.018 52.2418ZM112.421 51.0945C112.53 51.0075 112.615 50.8436 112.666 50.6774C112.719 50.5068 112.745 50.3055 112.712 50.1256C112.68 49.9433 112.582 49.7661 112.376 49.6912C112.181 49.6198 111.921 49.6551 111.593 49.8026L111.697 50.0337C112.003 49.8961 112.187 49.8918 112.29 49.9294C112.383 49.9633 112.44 50.0436 112.463 50.1703C112.486 50.2994 112.468 50.4585 112.424 50.6028C112.378 50.7514 112.312 50.8569 112.263 50.8966L112.421 51.0945ZM111.588 49.8048C111.204 49.997 110.8 50.2443 110.481 50.4262C110.319 50.5186 110.18 50.5933 110.071 50.6397C110.017 50.6629 109.975 50.6769 109.944 50.6833C109.91 50.6905 109.909 50.6837 109.922 50.6898L109.818 50.9211C109.879 50.9484 109.946 50.9418 109.996 50.9315C110.05 50.9202 110.109 50.899 110.171 50.8728C110.294 50.8202 110.444 50.7391 110.606 50.6465C110.937 50.4586 111.325 50.2197 111.702 50.0315L111.588 49.8048ZM109.922 50.6898C109.637 50.5621 109.321 50.2915 109.252 49.9009C109.184 49.516 109.348 48.9599 110.145 48.2375L109.975 48.0497C109.15 48.7977 108.913 49.4351 109.002 49.9449C109.091 50.4489 109.491 50.7741 109.818 50.9211L109.922 50.6898ZM110.145 48.2375C110.417 47.9914 110.682 47.6696 110.894 47.3411C111.106 47.0139 111.272 46.671 111.338 46.3814C111.371 46.237 111.381 46.0956 111.351 45.9726C111.321 45.8444 111.246 45.7364 111.117 45.6761C110.995 45.6187 110.841 45.6122 110.663 45.6448C110.483 45.6776 110.266 45.7526 110.007 45.874L110.114 46.1036C110.362 45.9873 110.558 45.9217 110.708 45.8942C110.861 45.8664 110.955 45.8797 111.01 45.9055C111.058 45.9284 111.089 45.9669 111.105 46.0319C111.122 46.102 111.119 46.2002 111.091 46.3252C111.034 46.5743 110.885 46.8888 110.682 47.2034C110.479 47.5165 110.228 47.8206 109.975 48.0497L110.145 48.2375Z" fill="black"/>
<path d="M105.624 53.5939C106.385 49.5378 101.885 51.8193 101.061 54.4178C100.753 55.0769 101.695 55.3582 101.948 55.0515C102.35 54.5656 102.987 53.9044 103.153 53.784C103.85 53.2769 104.42 54.1642 103.976 54.7346L102.836 56.1923C102.329 56.9021 103.406 57.4598 103.786 57.1429C104.43 56.5984 104.864 55.418 105.434 55.7486C108.933 57.7767 106.005 59.847 104.103 60.6286C102.646 61.2624 103.85 62.4274 104.61 62.2131C111.582 60.2484 108.793 54.0375 106.131 54.2276C105.346 54.2837 105.557 53.9533 105.624 53.5939Z" fill="#316F96" stroke="black" stroke-width="0.253507"/>
<path d="M116.208 53.3411L113.483 44.912C113.039 43.4544 114.687 43.2642 115.637 44.1515C116.651 45.0979 116.398 46.8767 116.651 47.4471C117.271 48.8414 120.074 47.257 119.757 45.9261L119.313 43.8346C118.996 41.9333 120.758 41.9968 121.215 43.2642C121.671 44.5318 122.63 49.5385 123.052 51.8835C123.361 53.5947 121.975 53.5947 121.595 52.5806L120.771 50.0455C120.327 48.588 117.158 49.9189 117.539 51.123L118.109 52.8341C118.679 54.6087 116.651 54.7989 116.208 53.3411Z" fill="#316F96" stroke="black" stroke-width="0.253507"/>
<path d="M124.764 51.5019C124.612 48.5612 125.757 44.4459 126.348 42.7559C126.773 41.3869 127.877 42.1855 128.376 42.7559C128.764 43.1995 128.82 43.96 128.693 44.467L126.919 49.6006C126.729 50.2343 127.109 50.8047 127.362 50.8047C129.137 50.7033 129.644 50.1075 129.961 49.8541C130.468 49.4485 131.732 45.8613 132.813 44.2769C133.573 43.1615 134.186 44.1502 134.397 44.7839C134.904 47.0148 132.707 51.7976 131.545 53.9102C130.911 54.9242 130.151 54.227 130.151 53.6567V52.1356C130.151 51.5779 129.707 51.7553 129.454 51.8821L127.362 52.8328C125.334 53.8975 124.785 52.3891 124.764 51.5019Z" fill="#316F96" stroke="black" stroke-width="0.253507"/>
</svg>
