<svg width="275" height="98" viewBox="0 0 275 98" fill="none" xmlns="http://www.w3.org/2000/svg">
<path d="M64.2832 52.6582C69.5795 52.6582 73.8986 51.8536 79.6617 47.8086C80.5138 50.9232 80.7684 52.6704 80.3636 55.785C75.1179 57.8353 72.1985 58.2664 67.0271 58.2098C66.2238 56.0843 65.5685 54.859 64.2832 52.6582Z" fill="#80CED1"/>
<path d="M165.682 52.275C166.958 51.6369 167.851 50.7436 168.489 50.2969C171.935 52.4026 175.636 52.7217 178.763 56.3589C175.317 59.9962 174.998 61.2724 170.085 64.0163C169.281 61.8908 166.967 54.4757 165.682 52.275Z" fill="#80CED1"/>
<path d="M160.733 53.7462C162.158 53.8096 164.328 52.7358 165.103 52.656C167.089 56.1722 168.102 60.2497 168.102 65.0993C163.322 66.6007 163.584 67.2621 157.956 67.2689C158.288 65.0211 160.785 56.2943 160.733 53.7462Z" fill="#F2F2EF"/>
<path d="M147.493 49.7223C148.833 50.4242 151.641 52.6578 152.534 52.8491C153.236 56.9331 150.748 61.9742 147.94 64.6543C145.962 64.2714 146.025 63.7609 143.345 61.9742C143.678 59.7264 147.546 52.2703 147.493 49.7223Z" fill="#F7F6F6"/>
<path d="M95.7428 57.442C94.7154 58.5522 93.3819 62.0366 93.3819 62.4832C94.7858 66.5033 96.7639 68.5453 101.55 71.7997C103.081 70.2682 103.4 70.2682 105.315 68.1624C103.273 66.8862 97.4658 63.3128 95.7428 57.442Z" fill="#F7F6F6"/>
<path d="M88.7859 71.2876C87.7584 72.3978 86.1069 73.9039 85.4049 74.4782C85.9155 76.2651 87.1279 77.0947 87.3831 77.3499C88.9146 77.0947 90.1908 77.4775 92.9347 75.8185C90.8927 74.5422 89.4251 72.5003 88.7859 71.2876Z" fill="#F7F6F6"/>
<path d="M67.9246 66.9519C69.4368 66.9905 75.5819 66.8244 77.3686 66.0585C77.6877 63.8253 78.7087 59.5499 79.1553 58.2098C77.8153 58.4012 70.158 60.0603 67.2227 60.0603C67.6124 62.4366 67.9246 65.7395 67.9246 66.9519Z" fill="#F7F6F6"/>
<path d="M70.4763 74.7374C71.9885 74.7761 75.3897 74.4182 77.4317 73.3336C76.4745 72.3128 77.0488 70.0154 77.0488 68.3563C75.7088 68.5478 70.8591 68.6754 67.9238 68.6754C67.9238 71.5467 68.8172 73.6525 70.4763 74.7374Z" fill="#1D7FAE"/>
<path d="M78.1963 74.6068C77.1688 75.717 74.1122 75.6915 73.4102 76.2659C75.8352 78.3078 84.2583 77.2868 84.7051 77.4784C84.3859 76.2658 84.0668 76.9039 83.5564 75.5003C80.6848 76.6487 78.8355 75.8194 78.1963 74.6068Z" fill="#F7F6F6"/>
<path d="M154.131 53.5514C155.662 53.998 158.525 54.0778 159.299 53.998C161.285 57.5142 158.534 62.2935 156.3 67.1431C153.556 67.1431 153.301 66.6326 149.472 65.5478C149.805 63.3001 154.183 56.0994 154.131 53.5514Z" fill="#267BA7"/>
<path d="M89.6475 70.0227C90.8056 68.9255 92.2302 65.2984 92.552 64.5891C94.658 68.2265 96.5086 70.2046 99.8906 72.8847C96.8914 74.3523 96.381 74.5438 94.3389 75.3095C92.2332 73.8418 90.7016 72.0552 89.6475 70.0227Z" fill="#267BA7"/>
<path d="M96.5742 55.9757C118.717 26.9417 140.54 44.1069 145.517 48.3183C146.37 51.4329 146.411 58.2729 141.88 61.0168C126.821 51.2537 111.506 56.7414 106.529 66.5045C98.4886 64.0159 97.8595 58.1764 96.5742 55.9757Z" fill="#80CED1"/>
<path d="M106.521 66.4331C104.606 65.6209 102.681 64.757 100.965 63.2179C99.2473 61.6766 97.7467 59.4654 96.6621 55.9684L95.7567 57.4598C97.1832 61.5488 99.2005 63.8753 101.048 65.3536C101.978 66.0971 102.866 66.6276 103.621 67.0615C103.712 67.1136 103.801 67.1645 103.888 67.2142C104.459 67.5398 104.949 67.8195 105.295 68.1056L106.521 66.4331Z" fill="#F4F5EF" stroke="black" stroke-width="0.25524"/>
<path d="M93.3188 62.3501L92.5627 64.5105C94.1414 67.2796 95.5762 69.027 96.8277 70.2548C97.7275 71.1377 98.5295 71.75 99.2318 72.2862C99.4871 72.4812 99.7293 72.666 99.9582 72.8502L101.476 71.7822C101.085 71.4173 100.575 71.0632 99.9908 70.6583C98.0064 69.2818 95.1755 67.3182 93.3188 62.3501Z" fill="#F4F5EF" stroke="black" stroke-width="0.25524"/>
<path d="M89.7231 69.9524L88.8073 71.2991C89.5829 72.6843 90.2194 73.4869 90.8677 74.1121C91.3012 74.53 91.7371 74.867 92.2295 75.2477C92.4759 75.4381 92.7364 75.6395 93.0179 75.8674L94.3015 75.3326C93.9032 74.9466 93.5219 74.6291 93.1487 74.3183C92.0171 73.3761 90.9595 72.4954 89.7231 69.9524Z" fill="#F4F5EF" stroke="black" stroke-width="0.25524"/>
<path d="M83.5319 75.4848C83.8203 76.0596 84.0819 76.5484 84.8253 77.4127L87.2833 77.3009C86.5562 76.5641 86.1784 76.121 85.9221 75.7215C85.7156 75.3996 85.5883 75.1053 85.4208 74.718C85.3791 74.6216 85.3349 74.5194 85.2864 74.4096L83.5319 75.4848Z" fill="#F4F5EF" stroke="black" stroke-width="0.25524"/>
<path d="M78.1965 74.6752L77.3347 73.3283C77.0027 73.5735 76.5503 73.7706 76.033 73.9316C75.4514 74.1126 74.7766 74.2514 74.0752 74.3596C72.8222 74.5529 71.4746 74.6501 70.4054 74.7141C71.0222 75.1332 71.3002 75.2721 71.8376 75.5408C72.1432 75.6935 72.5326 75.8882 73.1158 76.2001C75.2979 75.9475 76.4785 75.4263 77.5248 74.9644C77.7521 74.8641 77.973 74.7665 78.1965 74.6752Z" fill="url(#paint0_linear_3184_7515)" stroke="black" stroke-width="0.25524"/>
<path d="M77.1214 68.3101L77.3451 66.0183C76.948 66.1916 76.367 66.3411 75.6899 66.4675C74.8744 66.6197 73.903 66.7411 72.9095 66.8274C71.0176 66.9916 69.0311 67.0295 67.8769 66.9052C67.9536 67.5893 67.9415 68.0095 67.9302 68.3995C67.9275 68.4945 67.9248 68.5877 67.9235 68.6825C69.3179 68.7763 71.268 68.7455 73.052 68.6589C74.8094 68.5736 76.394 68.4348 77.1214 68.3101Z" fill="#F5F1E5" stroke="black" stroke-width="0.25524"/>
<path d="M79.3085 58.0408C79.5833 57.2067 79.9022 56.5019 80.3479 55.722C79.8646 55.9439 79.1444 56.1953 78.2871 56.4501C77.1325 56.7932 75.713 57.147 74.2502 57.4468C72.7876 57.7465 71.2793 57.9926 69.9474 58.1198C68.719 58.2371 67.6287 58.2545 66.8614 58.1135C66.9186 58.5075 66.9931 58.8419 67.0599 59.1415C67.0649 59.164 67.0698 59.1862 67.0747 59.2083C67.1432 59.5165 67.2029 59.7951 67.2178 60.061C69.2591 60.1063 71.8547 59.7316 74.1601 59.2784C76.4514 58.8279 78.4463 58.3018 79.3085 58.0408Z" fill="url(#paint1_linear_3184_7515)" stroke="black" stroke-width="0.25524"/>
<path d="M171.616 45.8301C177.668 47.3989 180.15 48.4533 182.656 50.6797L179.401 55.5932L169 49.7864C170.249 48.4195 170.785 47.525 171.616 45.8301Z" fill="#366586"/>
<path d="M182.715 50.6771C182.817 50.7791 180.545 53.9952 179.396 55.5905L178.056 54.4419C179.476 52.9575 180.223 51.9503 181.375 49.5284L180.354 48.8683C179.022 51.2138 178.231 52.1909 176.78 53.6124L175.249 52.7828C176.674 51.0622 177.255 49.9399 178.248 47.9405L176.206 47.1854C175.108 49.3631 174.385 50.2485 173.015 51.5704L170.846 50.5494C172.142 49.2166 172.709 48.2693 173.526 46.3379C174.352 46.5704 175.281 46.865 176.206 47.1854C176.905 47.4276 177.601 47.6846 178.248 47.9405C179.059 48.2617 179.792 48.5814 180.354 48.8683C180.848 49.1207 181.209 49.3478 181.375 49.5284C181.842 49.8475 182.612 50.575 182.715 50.6771Z" fill="#23405A"/>
<path d="M181.375 49.5284C181.842 49.8475 182.612 50.575 182.715 50.6771C182.817 50.7791 180.545 53.9952 179.396 55.5905L178.056 54.4419C179.476 52.9575 180.223 51.9503 181.375 49.5284ZM181.375 49.5284C180.673 48.7627 176.451 47.1613 173.526 46.3379C172.709 48.2693 172.142 49.2166 170.846 50.5494L173.015 51.5704C174.385 50.2485 175.108 49.3631 176.206 47.1854L178.248 47.9405C177.255 49.9399 176.674 51.0622 175.249 52.7828L176.78 53.6124C178.231 52.1909 179.022 51.2138 180.354 48.8683L181.375 49.5284Z" stroke="black" stroke-width="0.25524"/>
<path d="M64.6047 48.191C69.57 44.3919 72.5809 42.3205 75.8826 41.9911L78.1963 48.7654C73.7288 51.4337 71.0834 52.2073 66.2 52.7217C65.8931 50.896 65.4274 49.8899 64.6047 48.191Z" fill="#366586"/>
<path d="M76.8561 41.6815C76.9994 41.664 79.1153 45.6644 79.6638 47.5521C79.7193 47.8168 79.1321 48.2352 77.2389 49.3388C76.9448 47.3061 75.9478 44.4637 74.7503 42.0643L73.0274 42.7295C74.1765 44.9587 75.6734 48.1104 75.8989 50.1287C75.0351 50.5171 74.56 50.7204 73.7293 50.9979C73.2526 48.8152 72.0119 45.8127 71.0492 43.7986L70.0848 44.368C69.7782 44.5532 69.4716 44.7425 69.1698 44.9329C70.2043 47.1368 71.1082 49.9396 71.3045 51.8274L68.8159 52.4017C68.5654 50.5591 67.8591 48.3356 66.8416 46.5019C66.2767 46.8793 65.43 47.5329 64.6681 48.1651C65.4849 48.8598 66.072 51.4491 66.2634 52.657L64.2214 52.7209C63.6897 51.9339 62.6901 50.245 62.9453 49.7855C63.0797 49.5437 63.8216 48.8676 64.6681 48.1651C65.43 47.5329 66.2767 46.8793 66.8416 46.5019C67.5079 46.0137 68.3198 45.469 69.1698 44.9329C69.1667 44.9265 69.1637 44.92 69.1607 44.9136L70.0848 44.368C70.4082 44.1726 70.7316 43.9817 71.0492 43.7986C71.7578 43.3903 72.4381 43.0213 73.0274 42.7295C73.8129 42.3405 74.4368 42.0888 74.7503 42.0643C75.2899 41.8924 76.7127 41.699 76.8561 41.6815Z" fill="#23405A"/>
<path d="M74.7503 42.0643C75.2899 41.8924 76.7127 41.699 76.8561 41.6815C76.9994 41.664 79.1153 45.6644 79.6638 47.5521C79.7193 47.8168 79.1321 48.2352 77.2389 49.3388C76.9448 47.3061 75.9478 44.4637 74.7503 42.0643ZM74.7503 42.0643C73.7147 42.1451 69.2926 44.7059 66.8416 46.5019M74.7503 42.0643L73.0274 42.7295C74.1765 44.9587 75.6734 48.1104 75.8989 50.1287C75.0351 50.5171 74.56 50.7204 73.7293 50.9979C73.2526 48.8152 72.0119 45.8127 71.0492 43.7986L69.1607 44.9136C70.1991 47.1204 71.1076 49.9341 71.3045 51.8274L68.8159 52.4017C68.5654 50.5591 67.8591 48.3356 66.8416 46.5019M66.8416 46.5019C66.2767 46.8793 65.43 47.5329 64.6681 48.1651M64.6681 48.1651C63.8216 48.8676 63.0797 49.5437 62.9453 49.7855C62.6901 50.245 63.6897 51.9339 64.2214 52.7209L66.2634 52.657C66.072 51.4491 65.4849 48.8598 64.6681 48.1651Z" stroke="black" stroke-width="0.25524"/>
<path d="M168.347 50.4269L168.909 49.8654C169.698 50.0919 171.915 51.0205 174.142 52.1418C175.289 52.719 176.433 53.345 177.381 53.9491C178.283 54.5236 178.994 55.0698 179.365 55.5283L178.757 56.2888C178.258 55.7463 177.477 55.1504 176.565 54.5542C175.587 53.9141 174.448 53.268 173.325 52.6805C172.202 52.0929 171.093 51.5633 170.172 51.1563C169.402 50.816 168.758 50.559 168.347 50.4269Z" fill="#E1DFD2" stroke="black" stroke-width="0.25524"/>
<path d="M165.649 52.2416C167.908 54.91 170.432 59.5803 170.026 64.0603L167.99 65.1349C168.357 58.3504 165.84 54.0292 164.908 52.637L165.649 52.2416Z" fill="#E1DFD2" stroke="black" stroke-width="0.25524"/>
<path d="M159.232 54.053L160.941 53.9399C161.293 54.7478 161.352 55.8677 161.216 57.1373C161.077 58.4445 160.734 59.8919 160.316 61.2838C159.507 63.9812 158.422 66.4538 158.01 67.2661L156.196 67.1561C158.421 63.3788 159.189 60.7014 159.394 58.653C159.498 57.6132 159.457 56.739 159.39 55.9709C159.37 55.745 159.348 55.5297 159.327 55.3228C159.281 54.867 159.24 54.4517 159.232 54.053Z" fill="url(#paint2_linear_3184_7515)" stroke="black" stroke-width="0.25524"/>
<path d="M152.588 52.959L154.136 53.5122C154.27 56.0707 153.394 58.7097 152.333 60.9026C151.299 63.0402 150.094 64.742 149.499 65.5134L147.747 64.6924C151.127 62.2222 152.258 57.4895 152.588 52.959Z" fill="url(#paint3_linear_3184_7515)" stroke="black" stroke-width="0.25524"/>
<path d="M145.535 48.3274L147.374 49.6644C147.963 53.8537 147.234 56.5861 146.224 58.4498C145.716 59.3871 145.134 60.1085 144.607 60.6881C144.387 60.9302 144.177 61.1469 143.984 61.3453C143.946 61.3848 143.909 61.4236 143.872 61.4617C143.686 61.6539 143.518 61.8304 143.381 61.9946L141.85 61.0105C143.536 59.8054 144.593 58.3715 145.158 56.3678C145.724 54.3637 145.798 51.7955 145.535 48.3274Z" fill="#F4F5EF" stroke="black" stroke-width="0.25524"/>
<path d="M81.958 76.009C88.4921 73.9671 91.9549 66.7778 92.8695 63.4384C96.1238 54.7602 99.5111 52.4631 103.462 48.4429C118.011 33.639 135.473 40.6793 142.514 45.9542C145.513 48.2013 151.766 53.1461 154.765 53.6754C165.179 55.5131 170.292 49.1661 171.547 45.7629C174.61 46.5286 181.132 48.5961 182.714 50.7401C170.399 71.0956 154.765 68.8623 146.023 63.8851C122.095 45.9542 108.249 62.7365 106.589 66.3737C105.517 68.7219 100.654 72.5575 99.8248 73.0099C99.1229 73.3928 91.9761 76.3243 90.9552 76.7747C89.2195 77.5404 81.1709 77.5617 77.3636 77.4766C76.8176 77.4192 76.2833 77.3199 75.7684 77.1919M81.958 76.009C80.8094 76.3679 78.0017 75.9962 76.9808 72.1166C76.6282 70.7766 77.721 59.7502 80.4265 55.7174C80.8118 55.1431 80.4266 49.8341 79.6609 47.7411C77.4914 49.5278 71.3656 53.0118 64.2189 52.6545C63.8359 52.6545 66.6947 55.9088 66.8989 58.4612C66.8989 59.0355 67.958 62.9152 67.8559 68.7347C67.829 70.2661 68.1367 73.3035 70.7912 74.988C71.6724 75.5473 73.539 76.6381 75.7684 77.1919M81.958 76.009C80.469 76.4573 77.1467 77.3215 75.7684 77.1919" stroke="black" stroke-width="0.382861"/>
<defs>
<linearGradient id="paint0_linear_3184_7515" x1="76.1329" y1="72.1037" x2="72.3697" y2="76.5782" gradientUnits="userSpaceOnUse">
<stop stop-color="#A19DA4"/>
<stop offset="1" stop-color="#71767F"/>
</linearGradient>
<linearGradient id="paint1_linear_3184_7515" x1="76.2672" y1="60.7068" x2="71.0991" y2="54.3719" gradientUnits="userSpaceOnUse">
<stop stop-color="#B3B1AC"/>
<stop offset="1" stop-color="#8A8783"/>
</linearGradient>
<linearGradient id="paint2_linear_3184_7515" x1="164.173" y1="56.9922" x2="158.535" y2="63.4885" gradientUnits="userSpaceOnUse">
<stop stop-color="#D4D2CE"/>
<stop offset="1" stop-color="#B09685"/>
</linearGradient>
<linearGradient id="paint3_linear_3184_7515" x1="157.446" y1="56.4797" x2="151.808" y2="62.9759" gradientUnits="userSpaceOnUse">
<stop stop-color="#D4D2CE"/>
<stop offset="1" stop-color="#B09685"/>
</linearGradient>
</defs>
</svg>
