<svg width="318" height="321" viewBox="0 0 318 321" fill="none" xmlns="http://www.w3.org/2000/svg">
<rect width="6" height="321" fill="black"/>
<rect x="43" width="6" height="321" fill="black"/>
<rect x="51" width="4" height="321" fill="black"/>
<rect x="10" width="13" height="321" fill="black"/>
<rect x="26" width="13" height="321" fill="black"/>
<rect x="75" width="2" height="321" fill="black"/>
<rect x="58" width="13" height="321" fill="black"/>
<rect x="85" width="13" height="321" fill="black"/>
<rect x="110" width="6" height="321" fill="black"/>
<rect x="153" width="6" height="321" fill="black"/>
<rect x="161" width="4" height="321" fill="black"/>
<rect x="120" width="13" height="321" fill="black"/>
<rect x="136" width="13" height="321" fill="black"/>
<rect x="185" width="2" height="321" fill="black"/>
<rect x="168" width="13" height="321" fill="black"/>
<rect x="195" width="13" height="321" fill="black"/>
<rect x="220" width="6" height="321" fill="black"/>
<rect x="263" width="6" height="321" fill="black"/>
<rect x="271" width="4" height="321" fill="black"/>
<rect x="230" width="13" height="321" fill="black"/>
<rect x="246" width="13" height="321" fill="black"/>
<rect x="295" width="2" height="321" fill="black"/>
<rect x="278" width="13" height="321" fill="black"/>
<rect x="305" width="13" height="321" fill="black"/>
</svg>
