<svg width="60" height="60" viewBox="0 0 60 60" fill="none" xmlns="http://www.w3.org/2000/svg">
<g clip-path="url(#clip0_3202_8485)">
<circle cx="30" cy="30" r="30" fill="url(#paint0_radial_3202_8485)"/>
<path d="M47.0978 31.171C47.0978 26.7782 45.407 22.5539 42.376 19.3743C39.345 16.1947 35.2064 14.3038 30.8186 14.0938C26.4308 13.8837 22.1305 15.3707 18.8096 18.2462C15.4887 21.1217 13.4021 25.1651 12.9825 29.5378C12.5629 33.9106 13.8425 38.277 16.5559 41.7316C19.2693 45.1862 23.2084 47.4638 27.556 48.092C31.9037 48.7203 36.3263 47.6509 39.9067 45.1058C43.4871 42.5606 45.9504 38.735 46.7858 34.4224L43.0531 33.6993C42.4035 37.0529 40.488 40.0277 37.7038 42.0068C34.9197 43.986 31.4806 44.8175 28.0998 44.329C24.719 43.8405 21.6559 42.0694 19.5459 39.3831C17.436 36.6967 16.4409 33.3013 16.7672 29.901C17.0935 26.5008 18.7161 23.3565 21.2985 21.1205C23.8808 18.8845 27.2248 17.7282 30.6368 17.8916C34.0488 18.0549 37.267 19.5253 39.6239 21.9978C41.9809 24.4703 43.2957 27.7551 43.2957 31.171H47.0978Z" fill="black"/>
<path d="M46.0361 37.102C47.56 32.982 47.4396 28.4335 45.6998 24.3998C43.9601 20.3662 40.7345 17.157 36.692 15.4379C32.6496 13.7187 28.1005 13.6215 23.9883 15.1664C19.8761 16.7113 16.5164 19.7798 14.6059 23.7354C12.6954 27.691 12.3808 32.2302 13.7273 36.4116C15.0738 40.5929 17.9781 44.0956 21.8378 46.193C25.6976 48.2905 30.2165 48.8218 34.4575 47.6768C38.6985 46.5317 42.336 43.7982 44.6156 40.0432L41.3655 38.0701C39.5928 40.9901 36.7643 43.1157 33.4664 44.0061C30.1686 44.8964 26.6546 44.4833 23.6532 42.8523C20.6519 41.2213 18.3934 38.4976 17.3464 35.2461C16.2993 31.9947 16.544 28.4649 18.0296 25.389C19.5152 22.3131 22.1278 19.927 25.3255 18.7256C28.5232 17.5243 32.0606 17.5999 35.204 18.9367C38.3475 20.2736 40.8557 22.7691 42.2086 25.9057C43.5615 29.0423 43.6551 32.5792 42.4701 35.783L46.0361 37.102Z" fill="black"/>
<path d="M16.1104 23.9587C15.5761 21.4654 16.6447 15.5706 25.1931 11.9375" stroke="black" stroke-width="2.67137"/>
</g>
<defs>
<radialGradient id="paint0_radial_3202_8485" cx="0" cy="0" r="1" gradientUnits="userSpaceOnUse" gradientTransform="translate(30 30) rotate(90) scale(30)">
<stop offset="0.67" stop-color="#FFDB1D"/>
<stop offset="1" stop-color="#AB9628" stop-opacity="0.8"/>
</radialGradient>
<clipPath id="clip0_3202_8485">
<rect width="60" height="60" fill="white"/>
</clipPath>
</defs>
</svg>
