<svg width="60" height="60" viewBox="0 0 60 60" fill="none" xmlns="http://www.w3.org/2000/svg">
<g clip-path="url(#clip0_3202_8481)">
<circle cx="30" cy="30" r="30" fill="url(#paint0_radial_3202_8481)"/>
<path d="M49.8902 35.2837C50.3561 41.7767 47.8098 48.2314 45.5115 49.7925C25.4829 45.5146 13.5947 34.3297 9.80085 28.8292C7.18139 28.0015 4.11041 29.174 2.90234 29.8637C3.1525 26.5803 5.8041 20.4482 14.4093 22.187C21.6967 19.8109 28.9605 19.7274 33.9211 20.2649C43.1767 -5.24064 69.7762 25.1944 49.8902 35.2837Z" fill="#C4C5C5"/>
<path d="M33.9211 20.2649C35.7422 20.4622 37.2529 20.7432 38.3405 21.0251C46.4646 23.2662 49.4602 29.2913 49.8902 35.2837M33.9211 20.2649C43.1767 -5.24064 69.7762 25.1944 49.8902 35.2837M33.9211 20.2649C28.9605 19.7274 21.6967 19.8109 14.4093 22.187M49.8902 35.2837C50.3561 41.7767 47.8098 48.2314 45.5115 49.7925C25.4829 45.5146 13.5947 34.3297 9.80085 28.8292M9.80085 28.8292C9.69024 28.6688 9.58651 28.5133 9.48967 28.3629C9.48967 25.6279 10.5459 23.9435 11.074 23.4432C12.1809 22.9669 13.2954 22.5502 14.4093 22.187M9.80085 28.8292C7.18139 28.0015 4.11041 29.174 2.90234 29.8637C3.1525 26.5803 5.8041 20.4482 14.4093 22.187" stroke="black" stroke-width="0.833838"/>
</g>
<defs>
<radialGradient id="paint0_radial_3202_8481" cx="0" cy="0" r="1" gradientUnits="userSpaceOnUse" gradientTransform="translate(30 30) rotate(90) scale(30)">
<stop offset="0.67" stop-color="#FFDB1D"/>
<stop offset="1" stop-color="#AB9628" stop-opacity="0.8"/>
</radialGradient>
<clipPath id="clip0_3202_8481">
<rect width="60" height="60" fill="white"/>
</clipPath>
</defs>
</svg>
