<svg width="275" height="98" viewBox="0 0 275 98" fill="none" xmlns="http://www.w3.org/2000/svg">
<path d="M53.8035 29.1885L56.2908 28.9398C59.9221 27.348 60.1667 41.3345 59.835 48.5266C59.2961 49.2314 58.0442 50.4542 57.3478 49.7081C56.6514 48.9619 55.9384 49.2728 55.6689 49.5215C54.873 48.3774 53.8864 48.9619 53.4926 49.3972C52.3982 48.2033 51.6272 48.9826 51.3785 49.5215C48.2694 47.5939 47.7098 48.5888 44.8495 48.7754L44.2899 47.8427L42.4245 48.3401L40.6212 46.9099L39.6263 47.4074H38.6315C38.4822 45.9648 37.8646 44.8994 37.5744 44.5471C37.0769 43.204 37.45 42.2049 37.6987 41.8733C37.1018 41.7241 37.1598 41.3137 37.2635 41.1272C37.5619 40.4307 37.3878 39.8835 37.2635 39.697C36.6665 38.1052 37.222 37.2927 37.5744 37.0854C36.5795 35.4438 37.2427 34.4946 37.6987 34.2251C37.2013 33.9142 37.7402 31.0954 37.8853 31.1783C37.7361 29.9346 39.7715 29.9139 40.8078 30.059C42.9966 28.4672 43.5437 29.147 43.5437 29.6859L44.8495 29.8103C45.5957 27.7708 46.6113 28.546 47.0259 29.1885H50.2592C50.5577 28.4922 51.0883 28.8984 51.3163 29.1885L53.1196 28.9398C53.219 27.9947 53.617 28.7118 53.8035 29.1885Z" fill="white" stroke="black" stroke-width="0.497445" stroke-linejoin="round"/>
<path d="M84.2099 36.8986C81.6232 22.6219 63.7317 25.3331 55.1094 28.6286C57.5469 28.7779 57.5759 30.5977 57.2857 31.4889C58.7283 32.7822 58.7573 37.2095 58.5915 39.2615C58.89 39.6097 58.8402 41.3134 58.778 42.1218C59.176 42.9674 58.9438 45.0028 58.778 45.9148L59.3998 46.4122V48.3398L57.7831 49.7078L60.7056 70.6005C62.1358 79.8654 77.0661 77.8756 76.8726 72.7146C76.313 57.7913 77.5566 62.0817 87.5676 54.8688C87.5676 54.4708 87.0702 53.0034 86.8215 52.3194C87.8164 47.6932 86.4484 45.4173 85.5157 44.7955C85.8639 41.5124 84.7902 38.1629 84.2099 36.8986Z" fill="#17282F" stroke="black" stroke-width="0.373083" stroke-linejoin="round"/>
<path opacity="0.6" d="M82.5305 41.0012C79.4837 26.451 64.809 29.3735 57.5339 31.1767C57.4096 31.2075 58.1282 32.5086 58.2801 32.4826C72.7682 29.9953 77.7426 32.8556 80.5407 41.5609C80.9067 42.6995 80.1884 43.1154 79.7946 43.1776C73.4521 44.2969 60.6056 46.5727 59.959 46.7219C59.3371 46.8654 60.0833 48.7739 60.332 48.7117L85.7017 44.5456L85.5152 42.1205C83.0279 42.618 82.717 41.6231 82.5305 41.0012Z" fill="#356893" stroke="black" stroke-width="0.248722"/>
<path d="M61.0775 72.7759L57.8619 50.3288C57.6303 48.7122 59.2921 49.2718 59.5408 50.6397L63.0672 71.9675C64.1243 76.4445 73.8245 75.3253 74.1354 71.3457C73.4514 57.1064 77.804 60.5263 86.1362 52.5672C86.8778 51.8589 87.214 53.9559 87.2555 55.0544C76.6848 62.9514 76.1873 57.7282 76.8713 72.7759C76.6226 77.7503 62.0102 78.9318 61.0775 72.7759Z" fill="#356891" stroke="black" stroke-width="0.248722"/>
</svg>
