<svg width="225" height="73" viewBox="0 0 225 73" fill="none" xmlns="http://www.w3.org/2000/svg">
<path d="M29.4754 17.3487L31.9626 17.1C35.594 15.5082 35.8386 29.4946 35.5069 36.6868C34.968 37.3915 33.7161 38.6144 33.0197 37.8682C32.3233 37.1221 31.6103 37.433 31.3408 37.6817C30.5449 36.5376 29.5583 37.1221 29.1645 37.5573C28.0701 36.3635 27.2991 37.1428 27.0503 37.6817C23.9413 35.7541 23.3817 36.749 20.5214 36.9355L19.9618 36.0028L18.0963 36.5003L16.2931 35.0701L15.2982 35.5675H14.3033C14.1541 34.125 13.5364 33.0596 13.2463 32.7072C12.7488 31.3641 13.1219 30.3651 13.3706 30.0335C12.7737 29.8842 12.8317 29.4739 12.9353 29.2873C13.2338 28.5909 13.0597 28.0437 12.9353 27.8572C12.3384 26.2653 12.8939 25.4528 13.2463 25.2456C12.2514 23.604 12.9146 22.6547 13.3706 22.3853C12.8732 22.0744 13.4121 19.2555 13.5572 19.3384C13.408 18.0948 15.4433 18.0741 16.4797 18.2192C18.6684 16.6273 19.2156 17.3072 19.2156 17.8461L20.5214 17.9704C21.2676 15.9309 22.2832 16.7061 22.6977 17.3487H25.9311C26.2296 16.6523 26.7602 17.0585 26.9882 17.3487L28.7914 17.1C28.8909 16.1548 29.2889 16.872 29.4754 17.3487Z" fill="white" stroke="black" stroke-width="0.497445" stroke-linejoin="round"/>
<path d="M59.8818 25.0588C57.295 10.7821 39.4036 13.4932 30.7812 16.7888C33.2187 16.9381 33.2477 18.7578 32.9576 19.649C34.4002 20.9424 34.4292 25.3697 34.2634 27.4216C34.5618 27.7698 34.5121 29.4736 34.4499 30.2819C34.8479 31.1276 34.6157 33.163 34.4499 34.0749L35.0717 34.5724V36.5L33.455 37.868L36.3775 58.7606C37.8077 68.0255 52.738 66.0358 52.5445 60.8748C51.9848 45.9514 53.2284 50.2419 63.2395 43.0289C63.2395 42.631 62.7421 41.1635 62.4933 40.4795C63.4882 35.8533 62.1203 33.5775 61.1876 32.9557C61.5358 29.6726 60.4621 26.3231 59.8818 25.0588Z" fill="#17282F" stroke="black" stroke-width="0.373083" stroke-linejoin="round"/>
<path opacity="0.6" d="M58.2024 29.1614C55.1555 14.6112 40.4809 17.5337 33.2058 19.3368C33.0814 19.3677 33.8001 20.6688 33.952 20.6427C48.44 18.1555 53.4145 21.0158 56.2126 29.7211C56.5786 30.8596 55.8602 31.2756 55.4664 31.3378C49.124 32.457 36.2775 34.7328 35.6308 34.8821C35.009 35.0256 35.7552 36.934 36.0039 36.8718L61.3736 32.7057L61.187 30.2807C58.6998 30.7781 58.3889 29.7833 58.2024 29.1614Z" fill="#356893" stroke="black" stroke-width="0.248722"/>
<path d="M36.7493 60.936L33.5338 38.489C33.3022 36.8724 34.9639 37.432 35.2127 38.7999L38.7391 60.1277C39.7962 64.6047 49.4963 63.4854 49.8072 59.5059C49.1233 45.2665 53.4759 48.6865 61.8081 40.7274C62.5497 40.019 62.8859 42.1161 62.9274 43.2146C52.3567 51.1115 51.8592 45.8883 52.5432 60.936C52.2945 65.9105 37.682 67.0919 36.7493 60.936Z" fill="#356891" stroke="black" stroke-width="0.248722"/>
</svg>
