<svg width="275" height="98" viewBox="0 0 275 98" fill="none" xmlns="http://www.w3.org/2000/svg">
<rect x="207" y="32" width="50" height="21" fill="white"/>
<rect width="38" height="28" transform="matrix(1 0 0 -1 237 80)" fill="white"/>
<path fill-rule="evenodd" clip-rule="evenodd" d="M239.201 44.1367H206.184C207.511 50.2537 207.747 65.8483 205.742 68.3835H228.884C229.326 73.395 231.758 77.6696 234.853 80.4701C237.329 82.7105 240.061 81.4036 241.118 80.4701C243.019 78.6365 244.467 76.3228 245.5 73.751C246.846 70.3997 247.485 66.6103 247.5 62.8745C247.534 54.5439 244.464 46.4802 239.201 44.1367Z" fill="#F0EFEF"/>
<path fill-rule="evenodd" clip-rule="evenodd" d="M239.201 44.1367H206.184C207.511 50.2537 207.747 65.8483 205.742 68.3835H228.884C229.326 73.395 231.758 77.6696 234.853 80.4701C237.329 82.7105 240.061 81.4036 241.118 80.4701C243.019 78.6365 244.467 76.3228 245.5 73.751C246.846 70.3997 247.485 66.6103 247.5 62.8745C247.534 54.5439 244.464 46.4802 239.201 44.1367Z" stroke="black" stroke-width="0.736986" stroke-linejoin="round"/>
<path d="M214.881 54.1612L215.766 50.9922M214.881 54.1612L217.756 52.4662M214.881 54.1612L218.05 55.193M214.881 54.1612L216.355 57.404M214.881 54.1612L214.071 57.6251M214.881 54.1612L212.081 56.0774M214.881 54.1612C213.997 54.0384 212.11 53.7043 211.639 53.3505M214.881 54.1612L213.26 51.2133" stroke="black" stroke-width="0.589588" stroke-linecap="round" stroke-linejoin="round"/>
<path d="M206.112 44.0625C205.001 44.0619 205 47 205 47" stroke="black" stroke-width="0.589588" stroke-linecap="round" stroke-linejoin="round"/>
</svg>
