<svg width="225" height="73" viewBox="0 0 225 73" fill="none" xmlns="http://www.w3.org/2000/svg">
<g clip-path="url(#clip0_5096_14465)">
<rect x="192" y="20" width="33" height="19" fill="white"/>
<rect width="56" height="26" transform="matrix(1 0 0 -1 212 64)" fill="white"/>
<path fill-rule="evenodd" clip-rule="evenodd" d="M207.201 30.1367H174.184C175.511 36.2537 175.747 51.8483 173.742 54.3835H196.884C197.326 59.395 199.758 63.6696 202.853 66.4701C205.329 68.7105 208.061 67.4036 209.118 66.4701C211.019 64.6365 212.467 62.3228 213.5 59.751C214.846 56.3997 215.485 52.6103 215.5 48.8745C215.534 40.5439 212.464 32.4802 207.201 30.1367Z" fill="#F0EFEF"/>
<path fill-rule="evenodd" clip-rule="evenodd" d="M207.201 30.1367H174.184C175.511 36.2537 175.747 51.8483 173.742 54.3835H196.884C197.326 59.395 199.758 63.6696 202.853 66.4701C205.329 68.7105 208.061 67.4036 209.118 66.4701C211.019 64.6365 212.467 62.3228 213.5 59.751C214.846 56.3997 215.485 52.6103 215.5 48.8745C215.534 40.5439 212.464 32.4802 207.201 30.1367Z" stroke="black" stroke-width="0.736986" stroke-linejoin="round"/>
<path d="M182.881 40.1612L183.766 36.9922M182.881 40.1612L185.756 38.4662M182.881 40.1612L186.05 41.193M182.881 40.1612L184.355 43.404M182.881 40.1612L182.071 43.6251M182.881 40.1612L180.081 42.0774M182.881 40.1612C181.997 40.0384 180.11 39.7043 179.639 39.3505M182.881 40.1612L181.26 37.2133" stroke="black" stroke-width="0.589588" stroke-linecap="round" stroke-linejoin="round"/>
<path d="M174.112 30.0625C173.001 30.0619 173 33 173 33" stroke="black" stroke-width="0.589588" stroke-linecap="round" stroke-linejoin="round"/>
</g>
<defs>
<clipPath id="clip0_5096_14465">
<rect width="225" height="73" fill="white"/>
</clipPath>
</defs>
</svg>
