<svg width="275" height="98" viewBox="0 0 275 98" fill="none" xmlns="http://www.w3.org/2000/svg">
<rect x="209.5" y="34" width="47" height="20" fill="white"/>
<rect x="224" y="61" width="33" height="22" fill="white"/>
<path d="M236.701 47.1367H203.684C205.011 53.2537 205.247 68.8483 203.242 71.3835H226.384C226.826 76.395 229.258 80.6696 232.353 83.4701C234.829 85.7105 237.561 84.4036 238.618 83.4701C248.523 73.9188 246.135 51.3375 236.701 47.1367Z" fill="#DDDDDD" stroke="black" stroke-width="0.736986" stroke-linejoin="round"/>
<path d="M212.379 57.1612L213.264 53.9922M212.379 57.1612L215.254 55.4662M212.379 57.1612L215.548 58.193M212.379 57.1612L213.853 60.404M212.379 57.1612L211.569 60.6251M212.379 57.1612L209.579 59.0774M212.379 57.1612C211.495 57.0384 209.608 56.7043 209.137 56.3505M212.379 57.1612L210.758 54.2133" stroke="black" stroke-width="0.589588" stroke-linecap="round" stroke-linejoin="round"/>
<path d="M203.611 47.0625C203.292 47.3819 202.904 49.0524 203.022 52.5899" stroke="black" stroke-width="0.589588" stroke-linecap="round" stroke-linejoin="round"/>
</svg>
