<svg width="225" height="73" viewBox="0 0 225 73" fill="none" xmlns="http://www.w3.org/2000/svg">
<rect x="178" y="20" width="47" height="20" fill="white"/>
<rect x="192" y="47" width="33" height="19" fill="white"/>
<path d="M205.201 33.1367H172.184C173.511 39.2537 173.747 54.8483 171.742 57.3835H194.884C195.326 62.395 197.758 66.6696 200.853 69.4701C203.329 71.7105 206.061 70.4036 207.118 69.4701C217.023 59.9188 214.635 37.3375 205.201 33.1367Z" fill="#DDDDDD" stroke="black" stroke-width="0.736986" stroke-linejoin="round"/>
<path d="M180.879 43.1612L181.764 39.9922M180.879 43.1612L183.754 41.4662M180.879 43.1612L184.048 44.193M180.879 43.1612L182.353 46.404M180.879 43.1612L180.069 46.6251M180.879 43.1612L178.079 45.0774M180.879 43.1612C179.995 43.0384 178.108 42.7043 177.637 42.3505M180.879 43.1612L179.258 40.2133" stroke="black" stroke-width="0.589588" stroke-linecap="round" stroke-linejoin="round"/>
<path d="M172.111 33.0625C171.792 33.3819 171.404 35.0524 171.522 38.5899" stroke="black" stroke-width="0.589588" stroke-linecap="round" stroke-linejoin="round"/>
</svg>
