<svg width="275" height="98" viewBox="0 0 275 98" fill="none" xmlns="http://www.w3.org/2000/svg">
<path d="M163 72.7408V40.07C123.124 32.4302 84.8634 37.3993 73 40.07V73.4241C122.988 77.6974 153.828 74.7491 163 72.7408Z" fill="white" stroke="black" stroke-width="0.621118" stroke-linejoin="round"/>
<path d="M80.8887 74.0456V38.704M86.7893 74.5425V37.9587M92.4415 74.9773V37.2754M98.3421 74.9773L98.5905 36.7164M104.305 75.2257V36.3438M109.957 75.4742V36.3438M115.92 36.0332L116.168 75.4742M122.255 75.4742C122.048 62.6585 121.622 36.8282 121.572 36.0332M128.156 75.4742L127.348 36.3438M133.87 75.4742L133.249 36.3438M139.957 75.2257L139.646 36.9649M145.733 74.791L145.485 37.586M151.137 74.2941V38.145M157.597 73.4866L157.286 39.1388" stroke="black" stroke-width="1.98758" stroke-linejoin="round"/>
</svg>
