<svg width="225" height="73" viewBox="0 0 225 73" fill="none" xmlns="http://www.w3.org/2000/svg">
<path d="M138 60.7858V28.115C98.1242 20.4751 59.8634 25.4442 48 28.115V61.469C97.9876 65.7423 128.828 62.794 138 60.7858Z" fill="white" stroke="black" stroke-width="0.621118" stroke-linejoin="round"/>
<path d="M55.8887 62.0905V26.7489M61.7893 62.5874V26.0036M67.4415 63.0222V25.3204M73.3421 63.0222L73.5905 24.7614M79.3048 63.2707V24.3887M84.957 63.5191V24.3887M90.9197 24.0781L91.1682 63.5191M97.2551 63.5191C97.0481 50.7034 96.6216 24.8732 96.5719 24.0781M103.156 63.5191L102.348 24.3887M108.87 63.5191L108.249 24.3887M114.957 63.2707L114.646 25.0098M120.733 62.8359L120.485 25.6309M126.137 62.339V26.1899M132.597 61.5315L132.286 27.1837" stroke="black" stroke-width="1.98758" stroke-linejoin="round"/>
</svg>
