<svg width="275" height="98" viewBox="0 0 275 98" fill="none" xmlns="http://www.w3.org/2000/svg">
<path d="M35.4407 54.866H37.285L37.3486 52.004C37.4969 51.1561 38.6078 49.3585 41.8639 48.9515C45.9341 48.4427 47.3677 48.7655 48.5416 49.0787C49.4956 49.3332 50.4707 50.2659 50.8311 50.7959C54.4943 49.931 56.47 51.1563 57 51.877L55.3465 53.0853C54.2781 52.0677 52.0606 52.6613 51.0855 53.0853C51.3399 54.866 50.9583 58.7454 50.5767 59.9538C50.1951 61.1621 48.6284 61.7893 47.7784 62.1161C46.9517 62.4339 42.7543 62.6248 41.228 62.4976C40.0069 62.3959 39.2473 61.3528 39.0657 61.0985C38.0481 59.6739 37.4969 57.6219 37.3486 56.7739H35.4407C34.7792 56.7739 34.9319 54.866 35.4407 54.866Z" stroke="black" stroke-width="0.254388"/>
</svg>
