<svg width="275" height="98" viewBox="0 0 275 98" fill="none" xmlns="http://www.w3.org/2000/svg">
<path d="M37.3484 51.9401L37.914 50.9585L38.6053 50.2386L39.6736 49.5842L40.8048 49.1915L42.1246 48.9952L43.8843 48.7989L45.7068 48.668L47.7178 48.9952L48.7862 49.1915L49.8546 49.9768L50.7344 50.8276L51.7399 50.6313H52.5569H53.751L55.4478 51.0239L56.7676 52.0056L55.1336 53.1835L54.1909 52.7254L53.1225 52.5946L51.8656 52.9218L50.9858 53.3144L48.9119 53.1835V52.5946L48.472 51.6129L47.7178 51.2202L46.5866 51.0894H43.8843L42.1246 51.2202L40.6163 51.6129L39.4851 52.2673L39.2337 53.3144V54.6233L39.3594 56.2594L39.6736 58.0918L40.2392 59.5315L40.6163 60.1859L41.6847 60.9713H44.01L46.3981 60.7095L47.8435 60.2514L48.472 59.5315L48.7862 58.419L48.9119 56.7175V53.1835L50.9858 53.3144L50.8601 57.241L50.7344 58.7462L50.3573 60.6441L49.5403 61.5603L47.8435 62.4765L46.0839 62.8037L43.6329 63H41.6847L40.6163 62.8037L39.4851 62.1492L38.6053 60.8404L37.7254 58.5499L37.3484 57.0447H35.4002C34.764 56.37 34.98 55.8852 35.4002 55.0159H37.3484V51.9401Z" fill="#F4B63A"/>
<path d="M35.4647 55.0786H37.2872L37.3501 52.1336C37.4967 51.261 38.5944 49.4112 41.8121 48.9924C45.8342 48.4688 47.2508 48.801 48.4109 49.1233C49.3536 49.3852 50.3172 50.345 50.6733 50.8904C54.2932 50.0003 56.2456 51.2612 56.7693 52.0029L55.1353 53.2462C54.0795 52.1991 51.8883 52.8099 50.9247 53.2462C51.1761 55.0786 50.799 59.0706 50.4219 60.3141C50.0448 61.5575 48.4966 62.2028 47.6567 62.5391C46.8398 62.8662 42.6919 63.0627 41.1837 62.9318C39.977 62.8271 39.2264 61.7537 39.0469 61.492C38.0414 60.0261 37.4967 57.9145 37.3501 57.0419H35.4647C34.8112 57.0419 34.962 55.0786 35.4647 55.0786Z" stroke="#F4B63A" stroke-width="0.248675"/>
</svg>
