<svg width="275" height="98" viewBox="0 0 275 98" fill="none" xmlns="http://www.w3.org/2000/svg">
<path d="M98.9012 70.5123L95 75.5008C96.9954 76.2171 124.099 75.2023 137.402 74.6054C148.556 73.1728 160.596 70.3844 165.222 69.1692L175.775 67.5064C180.533 66.0227 189.013 62.4966 192.659 60.9191C197.571 60.9191 204.768 61.516 207.752 61.8144L214.851 64.5645C213.419 61.5458 213.359 56.0585 213.508 53.6922C218.573 46.5293 220.437 43.3315 220.735 42.628C217.614 43.3955 209.628 46.9556 206.025 48.6398C201.216 49.1002 189.269 47.3073 188.118 47.2328C185.155 47.0409 177.271 45.8258 169.443 42.5001C161.615 39.1745 139.022 37.4477 128.704 37L124.355 38.9826L122.309 41.6047L118.727 46.7851L116.873 50.1107L113.931 54.012L105.489 63.5412L98.9012 70.5123Z" fill="url(#paint0_linear_3190_7642)" stroke="black" stroke-width="0.255819"/>
<defs>
<linearGradient id="paint0_linear_3190_7642" x1="146.356" y1="41.221" x2="151.088" y2="70.1925" gradientUnits="userSpaceOnUse">
<stop stop-color="#F24841"/>
<stop offset="1" stop-color="#DC4D43"/>
</linearGradient>
</defs>
</svg>
