<svg width="275" height="98" viewBox="0 0 275 98" fill="none" xmlns="http://www.w3.org/2000/svg">
<path d="M33 50.5L62 42C71.7381 53.1974 72 62 59.5 72L49 70L39 67L30.5 61L27 55.5L33 50.5Z" fill="white"/>
<path d="M38.5731 57.9666C39.0769 57.2112 39.9417 57.6886 40.2411 57.9666C40.4977 58.3258 40.6473 57.988 40.69 57.7742H41.075C41.4342 58.0821 41.524 57.7314 41.524 57.5176H47.0412C47.4004 58.1334 47.7896 57.7742 47.9393 57.5176L49.4148 57.5817L47.4902 60.0195C47.4261 59.9554 47.2721 59.7758 47.1695 59.5705C47.0668 59.3652 46.9129 59.7843 46.8487 60.0195H45.0524C44.7445 60.0195 44.582 59.7202 44.5392 59.5705C43.8207 60.135 43.5128 59.5063 43.4486 59.1214C41.6675 59.2698 41.2536 58.9135 41.2645 58.696C41.2318 58.8409 40.9323 59.1569 40.69 58.6723C40.3821 58.0565 40.3051 58.5012 40.3051 58.8006C40.3051 60.5328 38.5731 59.7629 38.5731 58.8006C38.5731 58.544 38.3164 58.3516 38.5731 57.9666Z" fill="black" stroke="black" stroke-width="0.256611"/>
<path d="M35.4298 58.0967L34.5957 57.4551" stroke="black" stroke-width="0.641527" stroke-linecap="round"/>
<path d="M61.4123 54.6324C60.2845 52.0603 59.3532 50.7178 57.3065 48.6662L61.733 41.6094L65.3256 43.2773C69.4314 44.2396 72.8314 55.0173 66.4803 65.0892L65.3897 67.078L63.7859 68.5535L62.0538 69.9648L59.2952 72.2102L57.7556 71.9536L44.476 70.0932L35.7512 65.4742L27.0906 58.8023L26 54.6965L31.8379 50.27L61.733 41.6094L57.3065 48.6662C53.5215 45.9718 49.8006 47.1907 49.544 49.6926L47.6194 48.4096H43.642L36.0078 50.6549H34.9814L34.5965 51.4889L32.287 52.5795C30.8054 53.9856 29.9573 54.6004 28.4378 55.5305C28.0965 56.1804 28.0688 56.5354 28.4378 57.1343L30.2341 59.3797L31.5813 61.0476L33.2493 62.3948L34.2757 63.0364C35.3251 63.1103 35.6074 63.417 36.0078 64.0628L37.9965 64.9609C39.7715 66.8715 41.254 67.7353 44.8609 68.8101L57.7556 71.1838L58.9103 70.5422L59.616 70.9271L62.8878 68.6818L65.518 65.7308L66.6086 63.8062C63.5201 67.4515 62.0463 68.6499 59.8726 69.0667H52.88C45.6617 67.1667 44.8291 57.9015 53.0724 55.9154L56.665 56.172L53.8423 59.7646C53.4573 60.6627 53.5856 64.1911 57.499 63.293C60.899 62.2665 63.1844 58.674 61.4123 54.6324Z" fill="black"/>
<path d="M31.8379 50.27L61.733 41.6094L65.7746 43.4698C72.0616 46.8699 69.859 58.674 68.02 62.459L65.3256 67.2704L59.2952 72.2102L44.4118 70.0932L35.5587 65.3459L27.0906 58.8023L26 54.6965L31.8379 50.27Z" stroke="black" stroke-width="0.256611"/>
<path d="M41.1387 53.7975C44.7312 58.1599 48.3238 55.273 49.6068 52.7069C49.6363 53.0454 49.6165 53.3667 49.5547 53.6692C49.4403 54.2282 49.1819 54.7232 48.8235 55.1447C48.4946 55.5315 48.0814 55.8565 47.6181 56.1123C45.2865 57.3997 41.6829 56.9371 41.1387 53.7975Z" fill="black"/>
<path d="M49.5547 53.6692C49.6165 53.3667 49.6363 53.0454 49.6068 52.7069C48.3238 55.273 44.7312 58.1599 41.1387 53.7975C41.6829 56.9371 45.2865 57.3997 47.6181 56.1123M49.5547 53.6692C51.0689 53.883 54.2386 53.7333 54.8032 51.4238M49.5547 53.6692C49.4403 54.2282 49.1819 54.7232 48.8235 55.1447M48.8235 55.1447C50.4104 55.3371 53.8281 55.3885 54.8032 54.0541M48.8235 55.1447C48.4946 55.5315 48.0814 55.8565 47.6181 56.1123M47.6181 56.1123C48.1955 56.4313 49.5427 57.0949 50.3125 57.1976" stroke="black" stroke-width="0.256611"/>
</svg>
