<svg width="275" height="98" viewBox="0 0 275 98" fill="none" xmlns="http://www.w3.org/2000/svg">
<circle cx="84.9896" cy="41.2416" r="2.06385" fill="black"/>
<circle cx="102.681" cy="41.2416" r="2.06385" fill="black"/>
<path d="M121.139 40.2477C120.703 39.9169 120.153 39.7729 119.611 39.8474C119.069 39.9218 118.578 40.2086 118.247 40.6447C117.916 41.0808 117.772 41.6305 117.847 42.1728C117.921 42.7151 118.208 43.2055 118.644 43.5363L119.892 41.892L121.139 40.2477Z" fill="black"/>
<path d="M68.5984 44.7766C69.1121 44.5875 69.5296 44.2021 69.7591 43.7052C69.9886 43.2082 70.0112 42.6405 69.8221 42.1268C69.633 41.6132 69.2476 41.1957 68.7506 40.9662C68.2537 40.7367 67.686 40.714 67.1723 40.9031L64.9996 41.4872C66.5952 42.6155 67.3726 43.3505 68.5984 44.7766Z" fill="black"/>
<circle cx="93.8353" cy="50.2045" r="2.06385" fill="black"/>
<circle cx="111.408" cy="50.2045" r="2.06385" fill="black"/>
<circle cx="102.681" cy="59.1654" r="2.06385" fill="black"/>
<circle cx="93.8353" cy="68.1303" r="2.06385" fill="black"/>
<circle cx="84.9896" cy="77.0931" r="2.06385" fill="black"/>
<circle cx="84.9896" cy="59.1654" r="2.06385" fill="black"/>
<circle cx="76.2631" cy="50.2045" r="2.06385" fill="black"/>
<circle cx="76.1459" cy="68.1303" r="2.06385" fill="black"/>
</svg>
