<svg width="275" height="98" viewBox="0 0 275 98" fill="none" xmlns="http://www.w3.org/2000/svg">
<path d="M79.8489 36.8822L63.3162 41.3572C74.4416 48.6914 69.2208 58.8845 68.102 61.8678L65.8023 66.4671C64.0828 67.6895 60.4945 70.2212 59.8978 70.5692C59.3011 70.9173 59.6492 71.5015 59.8978 71.7501C61.837 73.3412 70.3602 76.0594 74.3794 77.2196C77.5907 81.1559 84.2493 89.3021 85.194 90.396C86.1388 91.4899 86.5821 90.8518 86.6857 90.396L94.8278 73.8633L115.276 50.8667C117.414 46.3917 121.305 41.3366 122.983 39.3685C123.729 38.1751 125.531 37.4832 126.401 37.3174C126.609 36.8616 127.284 35.7512 128.328 34.9556C129.372 34.16 128.598 34.0025 128.08 34.0232C126.339 33.7746 91.7201 35.5771 79.8489 36.8822Z" fill="white" stroke="black" stroke-width="0.248612" stroke-linejoin="round"/>
</svg>
