<svg width="60" height="60" viewBox="0 0 60 60" fill="none" xmlns="http://www.w3.org/2000/svg">
<g clip-path="url(#clip0_3202_8097)">
<circle cx="30" cy="30" r="30" fill="url(#paint0_radial_3202_8097)"/>
<path d="M19.7821 30.9875C20.3291 30.1673 21.2681 30.6857 21.5931 30.9875C21.8718 31.3775 22.0343 31.0108 22.0806 30.7786H22.4986C22.8887 31.113 22.9862 30.7322 22.9862 30.5H28.9766C29.3666 31.1687 29.7892 30.7786 29.9517 30.5L31.5538 30.5697L29.4642 33.2166C29.3945 33.1469 29.2273 32.9519 29.1159 32.729C29.0044 32.5061 28.8373 32.9612 28.7676 33.2166H26.8172C26.4829 33.2166 26.3064 32.8915 26.26 32.729C25.4798 33.342 25.1455 32.6593 25.0758 32.2414C23.1419 32.4026 22.6926 32.0156 22.7044 31.7796C22.6688 31.9368 22.3437 32.2799 22.0806 31.7538C21.7463 31.0851 21.6627 31.568 21.6627 31.893C21.6627 33.7738 19.7821 32.938 19.7821 31.893C19.7821 31.6145 19.5033 31.4055 19.7821 30.9875Z" fill="black" stroke="black" stroke-width="0.278623"/>
<path d="M16.3684 31.1262L15.4629 30.4297" stroke="black" stroke-width="0.696558" stroke-linecap="round"/>
<path d="M44.5789 27.3647C43.3544 24.572 42.3432 23.1144 40.1209 20.8867L44.9272 13.2246L48.8279 15.0357C53.2859 16.0805 56.9776 27.7827 50.0817 38.7186L48.8976 40.878L47.1562 42.48L45.2755 44.0125L42.2803 46.4504L40.6085 46.1718L26.1898 44.1518L16.7166 39.1366L7.31305 31.8924L6.12891 27.4344L12.4676 22.6281L44.9272 13.2246L40.1209 20.8867C36.0112 17.9612 31.9712 19.2847 31.6926 22.0012L29.6029 20.6081H25.2842L16.9952 23.0461H15.8807L15.4628 23.9516L12.9552 25.1357C11.3465 26.6624 10.4256 27.33 8.77583 28.3399C8.40528 29.0456 8.37516 29.431 8.77583 30.0813L10.7262 32.5193L12.189 34.3303L14 35.7931L15.1145 36.4896C16.2539 36.57 16.5604 36.903 16.9952 37.6041L19.1545 38.5793C21.0818 40.6537 22.6914 41.5916 26.6077 42.7587L40.6085 45.3359L41.8623 44.6394L42.6285 45.0573L46.181 42.6194L49.0369 39.4152L50.221 37.3255C46.8676 41.2835 45.2673 42.5847 42.9072 43.0373H35.3147C27.4772 40.9743 26.5732 30.9143 35.5236 28.7578L39.4244 29.0365L36.3595 32.9372C35.9416 33.9124 36.0809 37.7434 40.3299 36.7683C44.0216 35.6538 46.5031 31.753 44.5789 27.3647Z" fill="black"/>
<path d="M12.4676 22.6281L44.9272 13.2246L49.3155 15.2446C56.1418 18.9364 53.7502 31.753 51.7534 35.8627L48.8279 41.0869L42.2803 46.4504L26.1201 44.1518L16.5076 38.9972L7.31305 31.8924L6.12891 27.4344L12.4676 22.6281Z" stroke="black" stroke-width="0.278623"/>
<path d="M22.5684 26.4601C26.4691 31.1967 30.3698 28.0622 31.7629 25.2759C31.7949 25.6435 31.7735 25.9923 31.7063 26.3208C31.5821 26.9277 31.3015 27.4652 30.9124 27.9228C30.5553 28.3428 30.1067 28.6957 29.6036 28.9735C27.072 30.3714 23.1592 29.869 22.5684 26.4601Z" fill="black"/>
<path d="M31.7063 26.3208C31.7735 25.9923 31.7949 25.6435 31.7629 25.2759C30.3698 28.0622 26.4691 31.1967 22.5684 26.4601C23.1592 29.869 27.072 30.3714 29.6036 28.9735M31.7063 26.3208C33.3505 26.553 36.7921 26.3904 37.405 23.8828M31.7063 26.3208C31.5821 26.9277 31.3015 27.4652 30.9124 27.9228M30.9124 27.9228C32.6354 28.1318 36.3463 28.1875 37.405 26.7387M30.9124 27.9228C30.5553 28.3428 30.1067 28.6957 29.6036 28.9735M29.6036 28.9735C30.2305 29.3198 31.6933 30.0404 32.5291 30.1518" stroke="black" stroke-width="0.278623"/>
</g>
<defs>
<radialGradient id="paint0_radial_3202_8097" cx="0" cy="0" r="1" gradientUnits="userSpaceOnUse" gradientTransform="translate(30 30) rotate(90) scale(30)">
<stop offset="0.67" stop-color="#FFDB1D"/>
<stop offset="1" stop-color="#AB9628" stop-opacity="0.8"/>
</radialGradient>
<clipPath id="clip0_3202_8097">
<rect width="60" height="60" fill="white"/>
</clipPath>
</defs>
</svg>
