<svg width="275" height="98" viewBox="0 0 275 98" fill="none" xmlns="http://www.w3.org/2000/svg">
<circle cx="41" cy="57.5" r="4" fill="white"/>
<path d="M45 57.5C45 56.4722 44.6044 55.4839 43.8953 54.74C43.1861 53.9961 42.2178 53.5537 41.1913 53.5046C40.1647 53.4554 39.1586 53.8033 38.3816 54.4761C37.6047 55.1488 37.1165 56.0949 37.0183 57.1179C36.9201 58.141 37.2195 59.1625 37.8543 59.9708C38.4892 60.779 39.4108 61.3119 40.4279 61.4589C41.4451 61.6059 42.4799 61.3557 43.3175 60.7602C44.1552 60.1647 44.7315 59.2697 44.927 58.2607L44.0537 58.0915C43.9017 58.8761 43.4535 59.5721 42.8022 60.0352C42.1508 60.4982 41.3461 60.6928 40.5552 60.5785C39.7642 60.4642 39.0476 60.0498 38.5539 59.4213C38.0602 58.7928 37.8274 57.9984 37.9038 57.2029C37.9801 56.4073 38.3597 55.6717 38.9639 55.1486C39.5681 54.6254 40.3505 54.3549 41.1487 54.3931C41.947 54.4313 42.6999 54.7753 43.2514 55.3538C43.8028 55.9323 44.1104 56.7008 44.1104 57.5H45Z" fill="black"/>
<path d="M44.7516 58.8876C45.1081 57.9237 45.08 56.8595 44.6729 55.9158C44.2659 54.9721 43.5112 54.2213 42.5654 53.819C41.6197 53.4168 40.5553 53.3941 39.5932 53.7555C38.6311 54.117 37.8451 54.8349 37.3981 55.7603C36.9511 56.6858 36.8775 57.7478 37.1925 58.7261C37.5076 59.7044 38.1871 60.5239 39.0901 61.0146C39.9931 61.5053 41.0504 61.6296 42.0426 61.3617C43.0349 61.0938 43.8859 60.4543 44.4192 59.5758L43.6588 59.1141C43.2441 59.7973 42.5823 60.2946 41.8108 60.5029C41.0392 60.7112 40.2171 60.6146 39.5148 60.233C38.8126 59.8514 38.2843 59.2141 38.0393 58.4534C37.7943 57.6927 37.8515 56.8669 38.1991 56.1472C38.5467 55.4276 39.158 54.8693 39.9061 54.5883C40.6542 54.3072 41.4818 54.3249 42.2173 54.6376C42.9527 54.9504 43.5396 55.5343 43.8561 56.2681C44.1726 57.002 44.1945 57.8295 43.9173 58.579L44.7516 58.8876Z" fill="black"/>
<path d="M37.7494 55.8125C37.6244 55.2292 37.8744 53.85 39.8744 53" stroke="black" stroke-width="0.625"/>
</svg>
