<svg width="275" height="98" viewBox="0 0 275 98" fill="none" xmlns="http://www.w3.org/2000/svg">
<path d="M78.1455 52.2134C78.494 57.07 76.5894 61.8979 74.8704 63.0655C59.8896 59.8658 50.9975 51.4998 48.1599 47.3856C46.2006 46.7665 43.9036 47.6435 43 48.1594C43.1871 45.7035 45.1704 41.1169 51.6069 42.4174C57.0576 40.6402 62.4907 40.5778 66.2011 40.9797C73.124 21.9024 93.0196 44.6669 78.1455 52.2134Z" fill="#C4C5C5"/>
<path d="M66.2011 40.9797C67.5633 41.1273 68.6932 41.3375 69.5067 41.5484C75.5832 43.2247 77.8239 47.7312 78.1455 52.2134M66.2011 40.9797C73.124 21.9024 93.0196 44.6669 78.1455 52.2134M66.2011 40.9797C62.4907 40.5778 57.0576 40.6402 51.6069 42.4174M78.1455 52.2134C78.494 57.07 76.5894 61.8979 74.8704 63.0655C59.8896 59.8658 50.9975 51.4998 48.1599 47.3856M48.1599 47.3856C48.0771 47.2656 47.9996 47.1493 47.9271 47.0368C47.9271 44.9911 48.7171 43.7313 49.1121 43.3571C49.9401 43.0008 50.7737 42.6891 51.6069 42.4174M48.1599 47.3856C46.2006 46.7665 43.9036 47.6435 43 48.1594C43.1871 45.7035 45.1704 41.1169 51.6069 42.4174" stroke="black" stroke-width="0.623686"/>
</svg>
