<svg width="275" height="98" viewBox="0 0 275 98" fill="none" xmlns="http://www.w3.org/2000/svg">
<path d="M84.1397 79.148L68.3863 73.6658L67 68.3095C70.3271 66.2931 70.0667 63.3945 69.5205 62.1972L75.1918 63.7726C77.9644 62.8148 78.5735 56.2319 78.5315 53.0602C85.4882 50.9934 84.5388 43.0411 83.1945 39.3233C85.9167 38.7184 103.737 38.7352 112.307 38.8192L114.323 38L128.186 38.189L128.375 38.4411H129.951C130.505 38.4411 130.182 38.6511 129.951 38.7562H127.745L130.203 40.4577C131.757 40.4787 135.017 40.5081 135.622 40.4577C136.227 40.4073 135.958 40.9408 135.748 41.2138L131.463 41.3399L132.786 42.159H139.214C139.869 42.159 139.487 42.6211 139.214 42.8522H133.92L135.874 44.0494C137.449 44.0704 140.776 44.1251 141.482 44.1755C142.188 44.2259 141.944 44.6166 141.734 44.8056H137.134L140.474 46.822C141.251 46.78 143.032 46.6708 143.94 46.57C144.847 46.4691 144.612 46.99 144.381 47.2631L141.482 47.4521L143.246 48.2083C143.772 48.0612 145.162 47.7042 146.523 47.4521C147.884 47.2 147.51 47.8512 147.153 48.2083L144.129 49.0275L144.822 49.9096C146.04 49.5316 148.729 48.725 149.737 48.5234C150.745 48.3217 150.451 48.7754 150.178 49.0275L145.578 50.3508L146.523 50.7917C148.204 50.8127 151.829 50.8421 152.888 50.7917C153.946 50.7413 153.329 51.4429 152.888 51.8C151.669 51.779 149.082 51.7495 148.477 51.8C147.872 51.8504 148.225 52.199 148.477 52.3671H156.101C157.059 52.3671 156.5 53.0392 156.101 53.3753H150.43C151.627 54.1945 152.761 54.0054 153.959 54.3205C154.917 54.5726 154.358 55.0557 153.959 55.2657C152.972 55.1607 150.884 54.9506 150.43 54.9506C149.976 54.9506 149.443 55.5389 149.233 55.833C150.304 55.854 152.698 55.8834 153.707 55.833C154.715 55.7826 154.127 56.7362 153.707 57.2193H146.838L146.019 57.9123C146.418 57.8703 147.468 57.8114 148.477 57.9123C149.485 58.0131 148.897 58.7104 148.477 59.0465H146.019L144.822 60.4328H143.246L140.978 61.5671C142.343 61.462 145.364 61.2394 146.523 61.189C147.683 61.1386 147.006 62.0502 146.523 62.5123C144.801 62.4913 141.079 62.4619 139.97 62.5123C138.861 62.5627 139.508 63.0794 139.97 63.3315C140.747 63.1425 142.49 62.7644 143.246 62.7644C144.003 62.7644 143.898 63.6046 143.751 64.0246H139.025H137.764L137.26 64.844C137.953 64.865 139.579 64.8944 140.537 64.844C141.495 64.7936 140.936 65.3691 140.537 65.6632H136.252L132.66 67.9947H135.181C135.735 67.9947 135.202 68.5828 134.866 68.8768H130.707C130.203 69.3179 131.463 69.822 132.66 70.2631C133.618 70.616 132.261 71.4604 131.463 71.8385L128.123 71.5234C127.417 72.0275 126.863 71.7335 126.674 71.5234C126.674 71.9267 126.17 71.9015 125.918 71.8385L124.657 72.6577L124.973 72.9097L125.666 72.6577L125.918 73.2877L125.162 73.3508L123.649 73.2877C122.792 72.8844 122.998 73.4137 123.208 73.7288L125.162 73.9178L124.973 74.2959H121.57L120.877 74.737H125.162V75.5562H119.868V76.5014H122.452V76.9425H115.71C115.407 76.9929 115.583 77.5936 115.71 77.8877H120.373V78.5178H113.756H112.685V79.9041H110.794C110.19 80.4082 110.542 80.9543 110.794 81.1644V81.4795H113.063V82.1096H108.652L108.022 83.1808L110.668 83.6219L110.479 84L93.6547 81.4164L84.1397 79.148Z" fill="#34658C"/>
<path d="M109.282 81.4795H110.794M110.794 81.4795H113.063V82.1096H108.652L108.022 83.1808L110.668 83.6219L110.479 84L93.6547 81.4164L84.1397 79.148L68.3863 73.6658L67 68.3095C70.3271 66.2931 70.0667 63.3945 69.5205 62.1972L75.1918 63.7726C77.9644 62.8148 78.5735 56.2319 78.5315 53.0602C85.4882 50.9934 84.5388 43.0411 83.1945 39.3233C85.9167 38.7184 103.737 38.7352 112.307 38.8192L114.323 38L128.186 38.189L128.375 38.4411C128.669 38.4411 129.396 38.4411 129.951 38.4411C130.505 38.4411 130.182 38.6511 129.951 38.7562H127.745L130.203 40.4577C131.757 40.4787 135.017 40.5081 135.622 40.4577C136.227 40.4073 135.958 40.9408 135.748 41.2138L131.463 41.3399L132.786 42.159C134.656 42.159 138.558 42.159 139.214 42.159C139.869 42.159 139.487 42.6211 139.214 42.8522H133.92L135.874 44.0494C137.449 44.0704 140.776 44.1251 141.482 44.1755C142.188 44.2259 141.944 44.6166 141.734 44.8056H137.134L140.474 46.822C141.251 46.78 143.032 46.6708 143.94 46.57C144.847 46.4691 144.612 46.99 144.381 47.2631L141.482 47.4521L143.246 48.2083C143.772 48.0612 145.162 47.7042 146.523 47.4521C147.884 47.2 147.51 47.8512 147.153 48.2083L144.129 49.0275L144.822 49.9096C146.04 49.5316 148.729 48.725 149.737 48.5234C150.745 48.3217 150.451 48.7754 150.178 49.0275L145.578 50.3508L146.523 50.7917C148.204 50.8127 151.829 50.8421 152.888 50.7917C153.946 50.7413 153.329 51.4429 152.888 51.8C151.669 51.779 149.082 51.7496 148.477 51.8C147.872 51.8504 148.225 52.199 148.477 52.3671C150.619 52.3671 155.143 52.3671 156.101 52.3671C157.059 52.3671 156.5 53.0392 156.101 53.3753H150.43C151.627 54.1945 152.761 54.0054 153.959 54.3205C154.917 54.5726 154.358 55.0557 153.959 55.2657C152.972 55.1607 150.884 54.9506 150.43 54.9506C149.976 54.9506 149.443 55.5389 149.233 55.833C150.304 55.854 152.698 55.8834 153.707 55.833C154.715 55.7826 154.127 56.7362 153.707 57.2193H146.838L146.019 57.9123C146.418 57.8703 147.468 57.8114 148.477 57.9123C149.485 58.0131 148.897 58.7104 148.477 59.0465H146.019L144.822 60.4328H143.246L140.978 61.5671C142.343 61.462 145.364 61.2394 146.523 61.189C147.683 61.1386 147.006 62.0502 146.523 62.5123C144.801 62.4913 141.079 62.4619 139.97 62.5123C138.861 62.5627 139.508 63.0794 139.97 63.3315C140.747 63.1425 142.49 62.7644 143.246 62.7644C144.003 62.7644 143.898 63.6046 143.751 64.0246H139.025H137.764L137.26 64.844C137.953 64.865 139.579 64.8944 140.537 64.844C141.495 64.7936 140.936 65.3691 140.537 65.6632H136.252L132.66 67.9947H135.181C135.735 67.9947 135.202 68.5828 134.866 68.8768H130.707C130.203 69.3179 131.463 69.822 132.66 70.2631C133.618 70.616 132.261 71.4604 131.463 71.8385L128.123 71.5234C127.417 72.0275 126.863 71.7335 126.674 71.5234C126.674 71.9267 126.17 71.9015 125.918 71.8385L124.657 72.6577L124.973 72.9097L125.666 72.6577L125.918 73.2877L125.162 73.3508L123.649 73.2877C122.792 72.8844 122.998 73.4137 123.208 73.7288L125.162 73.9178L124.973 74.2959H121.57L120.877 74.737H125.162V75.5562H119.868V76.5014H122.452V76.9425H115.71C115.407 76.9929 115.583 77.5936 115.71 77.8877H120.373V78.5178H113.756H112.685V79.9041M110.794 81.4795V81.1644M110.794 81.1644H115.142M110.794 81.1644C110.542 80.9543 110.19 80.4082 110.794 79.9041H112.685M117.096 79.9041H112.685" stroke="black" stroke-width="0.252054"/>
<path d="M68.3223 67.4913H72.4812M74.3716 67.4913H79.0976M80.925 69.4447H85.651M74.3716 69.4447H79.0976M69.5825 65.5379H72.8592M74.3716 65.6639H79.0976M74.5606 63.8995H79.2866M80.925 67.4913H85.651M80.862 71.3351H85.588M86.7852 73.1625H91.5113M86.7852 75.0529H91.5113M86.7852 67.9324H91.5113M86.6592 66.042H91.3852M86.7852 64.1516H91.5113M79.7907 62.0721H84.5168M79.9168 60.1817H84.6428M80.1688 58.2913H84.8948M78.1524 58.2913H79.5387M78.4044 56.4639H79.7907M78.5305 54.6995H79.9168M80.2948 56.4639H85.0209M80.2948 54.6995H84.7688M80.1688 52.6831H84.6428M92.7715 69.6338H97.4976M92.7715 71.5872H97.4976M92.7715 67.8064H97.4976M92.9606 66.042H97.6866M98.7578 71.7132H103.484M98.7578 73.6666H103.484M98.7578 69.8858H103.484M98.9469 68.1214H103.673M104.996 73.4146H109.722M104.996 75.368H109.722M104.996 71.5872H109.722M105.185 69.8228H109.911M111.298 71.5872H116.024M111.298 73.5406H116.024M111.298 69.7598H116.024M111.487 67.9954H116.213M117.725 69.6338H122.451M117.725 71.5872H122.451M117.725 67.8064H122.451M117.914 66.042H122.64M124.341 67.6173H129.067M124.341 65.7899H129.067M124.53 64.0255H129.256M86.7852 76.9433H91.5113M86.7852 78.8337H91.5113M93.3387 76.9433H98.0647M93.3387 78.8337H98.0647M98.7578 75.7461H103.484M92.9606 80.7241H97.6866M98.9469 80.7241H103.673M104.996 79.1488H109.722M104.996 77.4474H109.722M111.298 75.368H116.024M130.769 62.0721H135.495M130.58 54.5105H135.306M130.58 56.4639H135.306M130.58 52.6831H135.306M130.769 50.9187H135.495M130.58 60.2447H135.306M130.58 58.5434H135.306M130.391 49.2804H135.117M130.391 47.453H135.117M130.58 45.6886H135.306M136.377 52.6831H141.103M136.377 50.8557H141.103M136.566 49.0913H141.292M136.251 58.2913H140.977M136.251 56.4639H142.111M136.44 54.6995H141.166M142.93 52.4941H147.656M142.993 54.5105H147.719M122.64 52.6831H127.366M122.703 54.6995H127.429M93.3387 52.4941H98.0647M93.4017 54.5105H98.1277M86.7852 41.4037H91.5113M86.8483 43.4201H91.5743M117.977 39.6393H122.703M118.04 41.6557H122.766M123.963 41.7187H128.689M124.026 43.7352H128.752M124.026 39.6393H128.752M111.298 39.6393H116.024M98.9469 39.3242H103.673M103.043 49.2804H105.185M103.043 50.8557H105.185M99.8921 52.6831H102.035M99.8921 54.6995H102.035M103.043 52.6831H105.185M103.043 54.6995H105.185M106.004 52.6831H108.147M106.004 54.6995H108.147M109.155 52.6831H111.298M109.155 54.6995H111.298M112.243 52.6831H114.385M112.243 54.6995H114.385M106.004 49.0913H108.147M106.004 51.1078H108.147M109.155 49.0913H111.298M109.155 51.1078H111.298M108.777 56.2749H110.919M108.777 58.2913H110.919M105.752 56.2749H107.895M105.752 58.2913H107.895M102.854 56.2749H104.996M102.854 58.2913H104.996M115.267 52.6831H116.528M115.267 54.6995H116.528M93.1496 41.4037H97.8756M93.1496 39.6393H97.8756" stroke="black" stroke-width="0.252054"/>
<path d="M87.8571 40.9628V42.097M87.8571 42.9162V44.0504M118.545 39.0724V40.2066M118.545 40.9628V42.097M118.545 65.412V66.5463M118.545 67.2394V68.3737M118.545 69.0038V70.1381M118.545 70.9572V72.0915M112.054 67.4915V68.6257M112.054 69.3189V70.4531M112.054 70.9572V72.0915M112.054 72.9107V74.0449M112.054 74.8641V75.9983M105.69 69.4449V70.5792M105.69 71.2723V72.4066M105.69 72.9107V74.0449M105.69 74.8641V75.9983M105.69 76.8175V77.9518M99.5147 67.4915V68.6257M99.5147 69.3189V70.4531M99.5147 70.9572V72.0915M99.5147 72.9107V74.0449M99.5147 74.8641V75.9983M93.4023 65.5381V66.6723M93.4023 67.3655V68.4997M93.4023 69.0038V70.1381M93.4023 70.9572V72.0915M87.8571 63.7737V64.9079M87.8571 65.6011V66.7353M87.8571 67.2394V68.3737M87.8571 72.7216V73.8559M87.8571 74.549V75.6833M87.8571 76.1874V77.3216M87.8571 78.1408V79.275M94.0325 76.3134V77.4476M94.0325 78.1408V79.275M94.0325 79.7791V80.9134M81.7448 67.1134V68.2477M81.7448 68.9408V70.0751M81.7448 70.5792V71.7134M75.1914 65.412V66.5463M75.1914 67.2394V68.3737M75.1914 68.8778V70.012M80.8626 55.834V56.9682M80.8626 57.6614V58.7956M80.8626 59.2997V60.434M80.8626 61.2532V62.3874M80.8626 52.0532V53.1874M80.8626 53.8806V55.0148M99.7667 38.8203V39.9546M112.054 39.0724V40.2066M125.35 63.3956V64.5299M125.35 65.223V66.3573M125.35 66.9874V68.1216M105.69 78.6449V79.7791M99.7037 80.2202V81.3545M131.526 54.1956V55.3299M131.526 56.023V57.1573M131.526 57.6614V58.7956M131.526 59.6148V60.749M131.526 61.5682V62.7025M131.589 44.8696V46.0039M131.589 46.697V47.8313M131.589 48.3354V49.4696M131.589 50.2888V51.423M131.589 52.2422V53.3765M137.197 48.6504V49.7847M137.197 50.4778V51.6121M137.197 52.1162V53.2504M137.197 54.0696V55.2038M137.197 56.023V57.1573M137.197 57.6614V58.7956M143.561 52.1162V53.2504M143.561 53.7545V54.8888M87.416 52.0532V53.1874M88.0462 52.0532V53.1874M89.1174 52.0532V53.1874M89.6845 52.0532V53.1874M90.6927 52.0532V53.1874M91.4489 52.0532V53.1874M92.2681 52.0532V53.1874M87.4791 54.1326V55.2669M88.1092 54.1326V55.2669M89.1804 54.1326V55.2669M89.7475 54.1326V55.2669M90.7558 54.1326V55.2669M91.5119 54.1326V55.2669M92.3311 54.1326V55.2669M117.221 52.1162V53.2504M117.852 52.1162V53.2504M118.923 52.1162V53.2504M119.49 52.1162V53.2504M120.498 52.1162V53.2504M121.254 52.1162V53.2504M122.074 52.1162V53.2504M117.284 54.1956V55.3299M117.915 54.1956V55.3299M118.986 54.1956V55.3299M119.553 54.1956V55.3299M120.561 54.1956V55.3299M121.317 54.1956V55.3299M122.137 54.1956V55.3299M86.6599 52.6203H85.6517M86.6599 54.7628H85.6517" stroke="black" stroke-width="0.252054"/>
<path d="M124.404 70.1355C123.921 70.3456 123.159 71.3328 124.404 71.3328C125.601 71.3328 125.034 70.1355 124.404 70.1355ZM124.404 70.1355C124.026 69.6944 123.497 68.8122 124.404 68.8122C125.311 68.8122 124.782 69.6944 124.404 70.1355ZM131.146 64.9684C130.663 65.1784 129.901 66.1657 131.146 66.1657C132.344 66.1657 131.776 64.9684 131.146 64.9684ZM131.146 64.9684C130.768 64.5273 130.239 63.6451 131.146 63.6451C132.054 63.6451 131.524 64.5273 131.146 64.9684ZM137.133 60.8725C136.65 61.0826 135.888 62.0698 137.133 62.0698C138.33 62.0698 137.763 60.8725 137.133 60.8725ZM137.133 60.8725C136.755 60.4314 136.225 59.5492 137.133 59.5492C138.04 59.5492 137.511 60.4314 137.133 60.8725ZM142.678 57.1547C142.195 57.3648 141.433 58.352 142.678 58.352C143.875 58.352 143.308 57.1547 142.678 57.1547ZM142.678 57.1547C142.3 56.7136 141.771 55.8314 142.678 55.8314C143.585 55.8314 143.056 56.7136 142.678 57.1547ZM142.867 50.2862C142.384 50.4963 141.622 51.4835 142.867 51.4835C144.064 51.4835 143.497 50.2862 142.867 50.2862ZM142.867 50.2862C142.489 49.8451 141.96 48.9629 142.867 48.9629C143.774 48.9629 143.245 49.8451 142.867 50.2862ZM137.133 46.3794C136.65 46.5894 135.888 47.5766 137.133 47.5766C138.33 47.5766 137.763 46.3794 137.133 46.3794ZM137.133 46.3794C136.755 45.9383 136.225 45.0561 137.133 45.0561C138.04 45.0561 137.511 45.9383 137.133 46.3794ZM130.957 42.8506C130.474 43.0607 129.712 44.0479 130.957 44.0479C132.154 44.0479 131.587 42.8506 130.957 42.8506ZM130.957 42.8506C130.579 42.4095 130.05 41.5273 130.957 41.5273C131.865 41.5273 131.335 42.4095 130.957 42.8506ZM149.042 54.1931C148.559 54.4031 147.797 55.3903 149.042 55.3903C150.239 55.3903 149.672 54.1931 149.042 54.1931ZM149.042 54.1931C148.664 53.752 148.135 52.8698 149.042 52.8698C149.95 52.8698 149.42 53.752 149.042 54.1931ZM117.914 74.2314C117.431 74.4414 116.669 75.4287 117.914 75.4287C119.111 75.4287 118.544 74.2314 117.914 74.2314ZM117.914 74.2314C117.536 73.7903 117.006 72.9081 117.914 72.9081C118.821 72.9081 118.292 73.7903 117.914 74.2314ZM111.613 78.3273C111.13 78.5373 110.368 79.5245 111.613 79.5245C112.81 79.5245 112.243 78.3273 111.613 78.3273ZM111.613 78.3273C111.235 77.8862 110.705 77.004 111.613 77.004C112.52 77.004 111.991 77.8862 111.613 78.3273ZM105.248 81.541C104.765 81.751 104.003 82.7382 105.248 82.7382C106.445 82.7382 105.878 81.541 105.248 81.541ZM105.248 81.541C104.87 81.0999 104.341 80.2177 105.248 80.2177C106.155 80.2177 105.626 81.0999 105.248 81.541ZM99.5769 77.9492C99.0938 78.1592 98.3318 79.1465 99.5769 79.1465C100.774 79.1465 100.207 77.9492 99.5769 77.9492ZM99.5769 77.9492C99.1988 77.5081 98.6696 76.6259 99.5769 76.6259C100.484 76.6259 99.9549 77.5081 99.5769 77.9492ZM93.4016 74.2944C92.9185 74.5045 92.1565 75.4917 93.4016 75.4917C94.5987 75.4917 94.0317 74.2944 93.4016 74.2944ZM93.4016 74.2944C93.0235 73.8533 92.4943 72.9711 93.4016 72.9711C94.3089 72.9711 93.7796 73.8533 93.4016 74.2944ZM87.6671 70.4506C87.184 70.6606 86.422 71.6478 87.6671 71.6478C88.8642 71.6478 88.2972 70.4506 87.6671 70.4506ZM87.6671 70.4506C87.289 70.0095 86.7598 69.1273 87.6671 69.1273C88.5744 69.1273 88.0451 70.0095 87.6671 70.4506ZM80.9878 65.2835C80.5047 65.4935 79.7427 66.4807 80.9878 66.4807C82.1849 66.4807 81.6179 65.2835 80.9878 65.2835ZM80.9878 65.2835C80.6097 64.8424 80.0805 63.9602 80.9878 63.9602C81.8951 63.9602 81.3658 64.8424 80.9878 65.2835ZM68.259 69.5054C67.7759 69.7154 67.014 70.7026 68.259 70.7026C69.4562 70.7026 68.8891 69.5054 68.259 69.5054ZM68.259 69.5054C67.881 69.0643 67.3517 68.1821 68.259 68.1821C69.1664 68.1821 68.6371 69.0643 68.259 69.5054ZM86.6589 45.8123C86.1758 46.0223 84.7837 47.1986 86.0288 47.1986C87.2259 47.1986 87.289 45.8123 86.6589 45.8123ZM86.6589 45.8123C86.2809 45.3712 86.4447 44.678 87.3521 44.678C88.2594 44.678 87.0369 45.3712 86.6589 45.8123Z" stroke="black" stroke-width="0.252054"/>
<path d="M109.975 46.4431C109.219 46.3014 108.337 47.4009 109.597 47.7034C110.857 48.0058 110.983 46.6321 109.975 46.4431Z" stroke="black" stroke-width="0.252054"/>
<path d="M110.29 44.9939C109.534 44.8521 108.652 45.9517 109.912 46.2541C111.172 46.5566 111.298 45.1829 110.29 44.9939Z" stroke="black" stroke-width="0.252054"/>
<path d="M110.92 43.5446C110.164 43.4028 109.282 44.5024 110.542 44.8049C111.802 45.1073 111.929 43.7336 110.92 43.5446Z" stroke="black" stroke-width="0.252054"/>
<path d="M111.424 41.9061C110.668 41.7643 109.786 42.8639 111.046 43.1663C112.307 43.4688 112.433 42.0951 111.424 41.9061Z" stroke="black" stroke-width="0.252054"/>
<path d="M111.865 40.5829C111.109 40.4411 110.227 41.5407 111.487 41.8431C112.748 42.1456 112.874 40.7719 111.865 40.5829Z" stroke="black" stroke-width="0.252054"/>
<path d="M105.631 67.4279C104.875 67.2861 103.993 68.3857 105.253 68.6881C106.513 68.9906 106.64 67.6169 105.631 67.4279Z" stroke="black" stroke-width="0.252054"/>
<path d="M106.261 65.2854C105.505 65.1437 104.623 66.2432 105.883 66.5457C107.143 66.8481 107.269 65.4744 106.261 65.2854Z" stroke="black" stroke-width="0.252054"/>
<path d="M106.45 63.1429C105.694 63.0012 104.812 64.1007 106.072 64.4032C107.333 64.7057 107.459 63.332 106.45 63.1429Z" stroke="black" stroke-width="0.252054"/>
<path d="M106.639 60.5594C105.883 60.4177 105.001 61.5172 106.261 61.8197C107.521 62.1222 107.648 60.7485 106.639 60.5594Z" stroke="black" stroke-width="0.252054"/>
<path d="M87.0389 61.757C86.2828 61.6152 85.4005 62.7148 86.6608 63.0172C87.9211 63.3197 88.0472 61.946 87.0389 61.757Z" stroke="black" stroke-width="0.252054"/>
<path d="M86.2196 60.1816C85.4635 60.0399 84.5813 61.1394 85.8415 61.4419C87.1018 61.7444 87.228 60.3707 86.2196 60.1816Z" stroke="black" stroke-width="0.252054"/>
<path d="M86.1566 58.1652C85.4005 58.0235 84.5183 59.123 85.7785 59.4255C87.0388 59.7279 87.165 58.3542 86.1566 58.1652Z" stroke="black" stroke-width="0.252054"/>
<path d="M86.1566 56.2118C85.4005 56.07 84.5183 57.1696 85.7785 57.472C87.0388 57.7745 87.165 56.4008 86.1566 56.2118Z" stroke="black" stroke-width="0.252054"/>
<path d="M86.1605 50.048C85.4044 49.9063 84.5222 51.0058 85.7824 51.3083C87.0427 51.6107 87.1689 50.237 86.1605 50.048Z" stroke="black" stroke-width="0.252054"/>
<path d="M86.1605 48.0946C85.4044 47.9528 84.5222 49.0524 85.7824 49.3549C87.0427 49.6573 87.1689 48.2836 86.1605 48.0946Z" stroke="black" stroke-width="0.252054"/>
<path d="M106.363 45.7638C107.119 45.6221 108.001 46.7216 106.741 47.0241C105.481 47.3265 105.355 45.9528 106.363 45.7638Z" stroke="black" stroke-width="0.252054"/>
<path d="M105.733 43.6213C106.489 43.4796 107.371 44.5791 106.111 44.8816C104.851 45.1841 104.725 43.8104 105.733 43.6213Z" stroke="black" stroke-width="0.252054"/>
<path d="M105.544 41.4789C106.3 41.3371 107.182 42.4367 105.922 42.7391C104.662 43.0416 104.535 41.6679 105.544 41.4789Z" stroke="black" stroke-width="0.252054"/>
<path d="M105.355 38.8954C106.111 38.7536 106.993 39.8532 105.733 40.1556C104.473 40.4581 104.347 39.0844 105.355 38.8954Z" stroke="black" stroke-width="0.252054"/>
<path d="M113.063 48.5746C112.428 48.1413 111.178 48.7945 112.211 49.5772C113.244 50.36 113.911 49.1523 113.063 48.5746Z" stroke="black" stroke-width="0.252054"/>
<path d="M113.933 47.3736C113.298 46.9403 112.048 47.5935 113.081 48.3762C114.114 49.159 114.781 47.9513 113.933 47.3736Z" stroke="black" stroke-width="0.252054"/>
<path d="M115.679 45.7565C115.043 45.3232 113.794 45.9764 114.827 46.7591C115.86 47.5419 116.527 46.3342 115.679 45.7565Z" stroke="black" stroke-width="0.252054"/>
<path d="M117.065 44.3071C116.429 43.8739 115.18 44.527 116.213 45.3098C117.246 46.0925 117.913 44.8849 117.065 44.3071Z" stroke="black" stroke-width="0.252054"/>
<path d="M118.293 42.7261C117.657 42.2929 116.408 42.946 117.441 43.7287C118.474 44.5115 119.14 43.3038 118.293 42.7261Z" stroke="black" stroke-width="0.252054"/>
<path d="M116.249 50.3044C115.718 49.7476 114.36 50.1244 115.206 51.1062C116.052 52.0881 116.957 51.047 116.249 50.3044Z" stroke="black" stroke-width="0.252054"/>
<path d="M118.42 49.0897C117.889 48.5329 116.531 48.9097 117.377 49.8915C118.223 50.8734 119.128 49.8323 118.42 49.0897Z" stroke="black" stroke-width="0.252054"/>
<path d="M120.625 47.5774C120.095 47.0206 118.736 47.3974 119.582 48.3792C120.428 49.3611 121.333 48.32 120.625 47.5774Z" stroke="black" stroke-width="0.252054"/>
<path d="M122.551 46.2715C122.02 45.7147 120.662 46.0914 121.508 47.0733C122.354 48.0552 123.259 47.0141 122.551 46.2715Z" stroke="black" stroke-width="0.252054"/>
<path d="M124.325 44.5655C123.795 44.0087 122.436 44.3855 123.282 45.3673C124.128 46.3492 125.033 45.3081 124.325 44.5655Z" stroke="black" stroke-width="0.252054"/>
<path d="M116.23 57.1383C116.646 56.4909 115.958 55.2602 115.204 56.3146C114.451 57.3689 115.676 58.0018 116.23 57.1383Z" stroke="black" stroke-width="0.252054"/>
<path d="M118.616 58.1359C119.031 57.4884 118.344 56.2578 117.59 57.3121C116.836 58.3665 118.062 58.9994 118.616 58.1359Z" stroke="black" stroke-width="0.252054"/>
<path d="M120.607 59.9207C121.023 59.2732 120.335 58.0426 119.581 59.0969C118.828 60.1513 120.053 60.7842 120.607 59.9207Z" stroke="black" stroke-width="0.252054"/>
<path d="M122.332 61.4823C122.747 60.8348 122.06 59.6041 121.306 60.6585C120.552 61.7129 121.778 62.3458 122.332 61.4823Z" stroke="black" stroke-width="0.252054"/>
<path d="M124.41 62.8027C124.825 62.1552 124.137 60.9245 123.384 61.9789C122.63 63.0333 123.856 63.6662 124.41 62.8027Z" stroke="black" stroke-width="0.252054"/>
<path d="M112.926 58.7302C113.475 58.1911 113.078 56.8385 112.109 57.699C111.14 58.5596 112.194 59.449 112.926 58.7302Z" stroke="black" stroke-width="0.252054"/>
<path d="M114.447 60.2647C114.996 59.7257 114.599 58.373 113.629 59.2336C112.66 60.0942 113.715 60.9836 114.447 60.2647Z" stroke="black" stroke-width="0.252054"/>
<path d="M115.646 61.7542C116.195 61.2151 115.798 59.8625 114.829 60.723C113.859 61.5836 114.914 62.473 115.646 61.7542Z" stroke="black" stroke-width="0.252054"/>
<path d="M117.221 63.3295C117.77 62.7905 117.373 61.4378 116.404 62.2984C115.435 63.159 116.489 64.0483 117.221 63.3295Z" stroke="black" stroke-width="0.252054"/>
<path d="M118.669 65.0538C119.218 64.5148 118.821 63.1621 117.851 64.0227C116.882 64.8833 117.937 65.7727 118.669 65.0538Z" stroke="black" stroke-width="0.252054"/>
<path d="M100.238 41.8424C100.787 41.3033 100.39 39.9507 99.4209 40.8112C98.4518 41.6718 99.5063 42.5612 100.238 41.8424Z" stroke="black" stroke-width="0.252054"/>
<path d="M100.71 43.4406C101.258 42.9016 100.861 41.5489 99.8923 42.4095C98.9232 43.2701 99.9777 44.1595 100.71 43.4406Z" stroke="black" stroke-width="0.252054"/>
<path d="M101.909 45.0561C102.458 44.517 102.061 43.1644 101.091 44.0249C100.122 44.8855 101.177 45.7749 101.909 45.0561Z" stroke="black" stroke-width="0.252054"/>
<path d="M102.852 46.5913C103.401 46.0522 103.004 44.6996 102.035 45.5601C101.066 46.4207 102.12 47.3101 102.852 46.5913Z" stroke="black" stroke-width="0.252054"/>
<path d="M104.238 48.2925C104.787 47.7535 104.39 46.4008 103.421 47.2614C102.452 48.122 103.506 49.0113 104.238 48.2925Z" stroke="black" stroke-width="0.252054"/>
<path d="M109.996 60.7464C110.545 60.2074 110.148 58.8547 109.179 59.7153C108.209 60.5758 109.264 61.4652 109.996 60.7464Z" stroke="black" stroke-width="0.252054"/>
<path d="M110.54 62.281C111.089 61.742 110.692 60.3893 109.723 61.2499C108.754 62.1105 109.808 62.9999 110.54 62.281Z" stroke="black" stroke-width="0.252054"/>
<path d="M111.171 63.6673C111.719 63.1283 111.322 61.7756 110.353 62.6362C109.384 63.4968 110.439 64.3862 111.171 63.6673Z" stroke="black" stroke-width="0.252054"/>
<path d="M111.613 65.2198C112.162 64.6807 111.765 63.3281 110.796 64.1886C109.827 65.0492 110.882 65.9386 111.613 65.2198Z" stroke="black" stroke-width="0.252054"/>
<path d="M112.116 66.629C112.664 66.09 112.267 64.7373 111.298 65.5979C110.329 66.4585 111.384 67.3479 112.116 66.629Z" stroke="black" stroke-width="0.252054"/>
<path d="M94.4945 44.113C95.0434 43.5739 94.6463 42.2213 93.6772 43.0818C92.7081 43.9424 93.7626 44.8318 94.4945 44.113Z" stroke="black" stroke-width="0.252054"/>
<path d="M96.0151 45.6476C96.5639 45.1085 96.1669 43.7558 95.1978 44.6164C94.2287 45.477 95.2831 46.3664 96.0151 45.6476Z" stroke="black" stroke-width="0.252054"/>
<path d="M97.2142 47.137C97.763 46.5979 97.366 45.2453 96.3969 46.1058C95.4278 46.9664 96.4823 47.8558 97.2142 47.137Z" stroke="black" stroke-width="0.252054"/>
<path d="M98.7895 48.7123C99.3384 48.1733 98.9413 46.8206 97.9722 47.6812C97.0031 48.5418 98.0576 49.4312 98.7895 48.7123Z" stroke="black" stroke-width="0.252054"/>
<path d="M100.237 50.4367C100.786 49.8976 100.389 48.5449 99.4198 49.4055C98.4507 50.2661 99.5052 51.1555 100.237 50.4367Z" stroke="black" stroke-width="0.252054"/>
<path d="M99.3707 58.3552C98.8219 57.8161 99.2189 56.4635 100.188 57.324C101.157 58.1846 100.103 59.074 99.3707 58.3552Z" stroke="black" stroke-width="0.252054"/>
<path d="M97.8501 59.8897C97.3013 59.3507 97.6984 57.998 98.6675 58.8586C99.6366 59.7192 98.5821 60.6086 97.8501 59.8897Z" stroke="black" stroke-width="0.252054"/>
<path d="M96.651 61.3792C96.1022 60.8401 96.4992 59.4875 97.4683 60.348C98.4375 61.2086 97.383 62.098 96.651 61.3792Z" stroke="black" stroke-width="0.252054"/>
<path d="M95.0757 62.9545C94.5269 62.4155 94.9239 61.0628 95.893 61.9234C96.8621 62.784 95.8076 63.6733 95.0757 62.9545Z" stroke="black" stroke-width="0.252054"/>
<path d="M93.6281 64.6788C93.0793 64.1398 93.4763 62.7871 94.4454 63.6477C95.4145 64.5083 94.36 65.3977 93.6281 64.6788Z" stroke="black" stroke-width="0.252054"/>
<path d="M79.8923 73.3511C79.3434 72.8121 79.7405 71.4594 80.7096 72.32C81.6787 73.1805 80.6242 74.0699 79.8923 73.3511Z" stroke="black" stroke-width="0.252054"/>
<path d="M78.3169 74.9264C77.7681 74.3874 78.1651 73.0347 79.1342 73.8953C80.1033 74.7559 79.0489 75.6453 78.3169 74.9264Z" stroke="black" stroke-width="0.252054"/>
<path d="M76.2637 76.2497C75.7149 75.7107 76.1119 74.358 77.081 75.2186C78.0501 76.0792 76.9956 76.9686 76.2637 76.2497Z" stroke="black" stroke-width="0.252054"/>
<path d="M74.2887 71.3355C73.7399 70.7964 74.1369 69.4438 75.1061 70.3043C76.0752 71.1649 75.0207 72.0543 74.2887 71.3355Z" stroke="black" stroke-width="0.252054"/>
<path d="M72.7134 72.9108C72.1646 72.3718 72.5616 71.0191 73.5307 71.8797C74.4998 72.7403 73.4453 73.6297 72.7134 72.9108Z" stroke="black" stroke-width="0.252054"/>
<path d="M70.6602 74.2341C70.1114 73.6951 70.5084 72.3424 71.4775 73.203C72.4466 74.0636 71.3921 74.953 70.6602 74.2341Z" stroke="black" stroke-width="0.252054"/>
<path d="M103.234 60.3136C102.571 59.924 102.627 58.5154 103.776 59.1148C104.925 59.7142 104.119 60.8331 103.234 60.3136Z" stroke="black" stroke-width="0.252054"/>
<path d="M101.873 62.1315C101.209 61.7419 101.266 60.3333 102.415 60.9327C103.564 61.5322 102.757 62.651 101.873 62.1315Z" stroke="black" stroke-width="0.252054"/>
<path d="M100.788 63.6454C100.124 63.2558 100.181 61.8472 101.33 62.4466C102.479 63.046 101.672 64.1649 100.788 63.6454Z" stroke="black" stroke-width="0.252054"/>
<path d="M99.9803 65.2207C99.317 64.8311 99.3736 63.4225 100.523 64.0219C101.672 64.6213 100.865 65.7402 99.9803 65.2207Z" stroke="black" stroke-width="0.252054"/>
<path d="M99.438 66.8592C98.7746 66.4697 98.8312 65.0611 99.9803 65.6605C101.129 66.2599 100.323 67.3788 99.438 66.8592Z" stroke="black" stroke-width="0.252054"/>
</svg>
