<svg width="275" height="98" viewBox="0 0 275 98" fill="none" xmlns="http://www.w3.org/2000/svg">
<path d="M84.5057 88.7691C76.5364 101.75 58.1999 81.3025 71.4131 75L86.9033 80.0996L84.5057 81.1196C81.5677 80.2016 80.3327 86.2617 80.0825 89.4065L84.5057 88.7691Z" fill="#F24841" stroke="black" stroke-width="0.637456"/>
<path d="M84.3035 88.7474L84.0509 88.9439L84.4439 89.4491L84.6965 89.2526L84.3035 88.7474ZM93.5 82L93.6965 82.2526L94.2016 81.8597L93.5842 81.6913L93.5 82ZM86.6012 79.6964C86.4335 79.6405 86.2523 79.7311 86.1964 79.8988C86.1405 80.0665 86.2311 80.2477 86.3988 80.3036L86.6012 79.6964ZM88.1469 80.5L88.2363 80.1927L88.1469 80.5ZM84.6965 89.2526L93.6965 82.2526L93.3035 81.7474L84.3035 88.7474L84.6965 89.2526ZM93.5842 81.6913C92.2893 81.3381 89.9307 80.6858 88.2363 80.1927L88.0575 80.8073C89.7571 81.3018 92.1198 81.9553 93.4158 82.3087L93.5842 81.6913ZM88.2363 80.1927C87.5315 79.9876 86.9467 79.8116 86.6012 79.6964L86.3988 80.3036C86.7574 80.4231 87.3531 80.6023 88.0575 80.8073L88.2363 80.1927Z" fill="black"/>
<path d="M88.243 80.2917C88.1279 80.1576 87.9259 80.142 87.7917 80.257C87.6576 80.3721 87.642 80.5741 87.757 80.7083L88.243 80.2917ZM90.757 84.2083C90.8721 84.3424 91.0741 84.358 91.2083 84.243C91.3424 84.1279 91.358 83.9259 91.243 83.7917L90.757 84.2083ZM88.6696 81.2714C88.8195 81.1777 88.865 80.9803 88.7714 80.8304C88.6777 80.6805 88.4803 80.635 88.3304 80.7286L88.6696 81.2714ZM80.9121 84.1923C80.7422 84.2409 80.6438 84.418 80.6923 84.5879C80.7409 84.7578 80.918 84.8562 81.0879 84.8077L80.9121 84.1923ZM91.6738 81.7687C91.8222 81.6727 91.8647 81.4745 91.7687 81.3262C91.6727 81.1778 91.4745 81.1353 91.3262 81.2313L91.6738 81.7687ZM80.5 86.68C80.3233 86.68 80.18 86.8233 80.18 87C80.18 87.1767 80.3233 87.32 80.5 87.32V86.68ZM87.3119 81.7005L87.155 81.4216L87.155 81.4216L87.3119 81.7005ZM89.2333 85.1769C89.331 85.3241 89.5296 85.3644 89.6769 85.2667C89.8241 85.169 89.8644 84.9704 89.7667 84.8231L89.2333 85.1769ZM87.7019 86.1164C87.7662 86.2811 87.9518 86.3624 88.1164 86.2981C88.2811 86.2338 88.3624 86.0482 88.2981 85.8836L87.7019 86.1164ZM86.7161 87.1476C86.7976 87.3044 86.9908 87.3654 87.1476 87.2839C87.3044 87.2024 87.3654 87.0092 87.2839 86.8524L86.7161 87.1476ZM84.604 85.5L84.4602 85.2141L84.4602 85.2141L84.604 85.5ZM85.1988 88.108C85.2584 88.2743 85.4416 88.3609 85.608 88.3012C85.7743 88.2416 85.8609 88.0584 85.8012 87.892L85.1988 88.108ZM83.1805 89.0181C83.1905 89.1946 83.3417 89.3295 83.5181 89.3195C83.6946 89.3095 83.8295 89.1583 83.8195 88.9819L83.1805 89.0181ZM81.7803 86.7307L81.6794 86.427L81.7803 86.7307ZM81.6815 89.0308C81.6985 89.2067 81.8549 89.3355 82.0308 89.3185C82.2067 89.3015 82.3355 89.1451 82.3185 88.9692L81.6815 89.0308ZM84.1342 83.3142L84.0025 83.0226L84.1342 83.3142ZM84.7566 85.4229L84.9015 85.7082L84.7566 85.4229ZM86.0776 80.8104L86.3881 80.7328L86.2328 80.1119L85.9224 80.1896L86.0776 80.8104ZM86.7862 80.1431L86.9293 79.8569L86.3569 79.5707L86.2138 79.8569L86.7862 80.1431ZM87.757 80.7083L90.757 84.2083L91.243 83.7917L88.243 80.2917L87.757 80.7083ZM88.3304 80.7286C88.0333 80.9143 87.6315 81.1534 87.155 81.4216L87.4689 81.9794C87.9526 81.7072 88.3629 81.463 88.6696 81.2714L88.3304 80.7286ZM87.0452 81.8774L89.2333 85.1769L89.7667 84.8231L87.5786 81.5237L87.0452 81.8774ZM85.2083 82.7946L86.0694 84.7039L86.6528 84.4408L85.7917 82.5315L85.2083 82.7946ZM91.3262 81.2313C90.2565 81.9235 88.7083 82.8789 87.0904 83.798L87.4065 84.3544C89.0363 83.4287 90.595 82.4668 91.6738 81.7687L91.3262 81.2313ZM87.0904 83.798C86.7973 83.9645 86.502 84.1297 86.2069 84.2919L86.5153 84.8528C86.8132 84.689 87.1111 84.5223 87.4065 84.3544L87.0904 83.798ZM86.9504 84.1926L87.7019 86.1164L88.2981 85.8836L87.5465 83.9598L86.9504 84.1926ZM86.2069 84.2919C86.0456 84.3806 85.8844 84.4684 85.7236 84.555L86.0271 85.1185C86.1896 85.031 86.3524 84.9423 86.5153 84.8528L86.2069 84.2919ZM85.5914 84.9844L86.7161 87.1476L87.2839 86.8524L86.1593 84.6891L85.5914 84.9844ZM84.3028 85.608L85.1988 88.108L85.8012 87.892L84.9053 85.392L84.3028 85.608ZM84.4602 85.2141C84.0262 85.4325 83.6046 85.6351 83.2041 85.816L83.4675 86.3993C83.8777 86.2141 84.3074 86.0074 84.7478 85.7859L84.4602 85.2141ZM83.0164 86.1258L83.1805 89.0181L83.8195 88.9819L83.6553 86.0895L83.0164 86.1258ZM81.6794 86.427C81.1721 86.5956 80.774 86.68 80.5 86.68V87.32C80.8792 87.32 81.3563 87.2089 81.8813 87.0343L81.6794 86.427ZM81.4618 86.7615L81.6815 89.0308L82.3185 88.9692L82.0988 86.6998L81.4618 86.7615ZM82.5433 83.637C81.9886 83.852 81.4389 84.0418 80.9121 84.1923L81.0879 84.8077C81.6375 84.6507 82.2061 84.4541 82.7746 84.2337L82.5433 83.637ZM83.2041 85.816C83.1707 85.8311 83.1375 85.846 83.1044 85.8608L83.3653 86.4452C83.3992 86.43 83.4333 86.4147 83.4675 86.3993L83.2041 85.816ZM83.1044 85.8608C82.5828 86.0936 82.1017 86.2866 81.6794 86.427L81.8813 87.0343C82.33 86.8851 82.8317 86.6834 83.3653 86.4452L83.1044 85.8608ZM82.3492 84.0158L82.9251 86.2334L83.5446 86.0726L82.9687 83.8549L82.3492 84.0158ZM84.0025 83.0226C83.5216 83.2398 83.0311 83.4479 82.5433 83.637L82.7746 84.2337C83.2749 84.0398 83.7763 83.8271 84.266 83.6058L84.0025 83.0226ZM85.7236 84.555C85.3486 84.757 84.9763 84.9524 84.6117 85.1376L84.9015 85.7082C85.2713 85.5204 85.6482 85.3226 86.0271 85.1185L85.7236 84.555ZM84.6117 85.1376C84.5611 85.1633 84.5106 85.1888 84.4602 85.2141L84.7478 85.7859C84.7989 85.7602 84.8501 85.7343 84.9015 85.7082L84.6117 85.1376ZM83.8273 83.4048L84.4497 85.5135L85.0635 85.3323L84.4412 83.2236L83.8273 83.4048ZM85.3567 82.3769C85.0686 82.5212 84.7713 82.6658 84.4681 82.8081L84.74 83.3875C85.0484 83.2427 85.3506 83.0957 85.6433 82.9492L85.3567 82.3769ZM84.4681 82.8081C84.3142 82.8803 84.1589 82.9519 84.0025 83.0226L84.266 83.6058C84.4253 83.5338 84.5835 83.4609 84.74 83.3875L84.4681 82.8081ZM84.8291 82.8703C84.8567 82.8976 84.8479 82.9029 84.8246 82.8393C84.8062 82.7891 84.7865 82.7167 84.7718 82.6267C84.7424 82.4463 84.737 82.2161 84.789 81.9807C84.8405 81.7474 84.9474 81.5125 85.1411 81.3099C85.3342 81.108 85.6279 80.9229 86.0776 80.8104L85.9224 80.1896C85.3721 80.3271 84.9662 80.5668 84.6785 80.8677C84.3915 81.1679 84.2367 81.5139 84.164 81.8426C84.0919 82.1692 84.0999 82.4823 84.1401 82.7296C84.1603 82.8534 84.1894 82.9659 84.2237 83.0596C84.2532 83.1399 84.301 83.2481 84.3789 83.3252L84.8291 82.8703ZM87.155 81.4216C86.7649 81.6412 86.3254 81.8799 85.8529 82.1243L86.1471 82.6927C86.6265 82.4447 87.0726 82.2024 87.4689 81.9794L87.155 81.4216ZM85.8529 82.1243C85.6912 82.208 85.5255 82.2924 85.3567 82.3769L85.6433 82.9492C85.8147 82.8634 85.9828 82.7777 86.1471 82.6927L85.8529 82.1243ZM86.2138 79.8569C85.9807 80.323 85.7037 80.7918 85.568 81.2085C85.4204 81.6616 85.4111 82.1253 85.7379 82.592L86.2621 82.225C86.0817 81.9672 86.0724 81.7266 86.1766 81.4067C86.2927 81.0502 86.5193 80.677 86.7862 80.1431L86.2138 79.8569Z" fill="black"/>
<path d="M67.0772 83.2229C68.4302 82.782 70.3991 82.2178 72.5594 81.7238M83.5874 80.8643C82.3087 80.5328 80.602 80.5144 78.7427 80.6837M66.8223 81.9479C69.3083 80.333 76.6518 77.7152 86.1372 80.1631M67.0772 79.3982C68.7811 79.3982 69.6645 79.0222 70.3283 78.5268M74.918 76.2109C71.9683 76.4534 71.4774 77.669 70.3283 78.5268M70.3283 78.5268C71.6669 78.1871 74 77.4349 78.9977 77.4858M72.5594 81.7238C71.9007 82.5635 70.6088 85.3138 70.7107 89.5975M72.5594 81.7238C73.2458 81.5668 73.9515 81.417 74.663 81.2804M72.2406 91.0637C71.9219 89.1524 71.9602 84.5201 74.663 81.2804M74.663 81.2804C75.4989 81.12 76.3427 80.9779 77.1722 80.8643M77.1722 80.8643C75.6133 82.0542 72.8016 85.9768 74.0255 92.1473M77.1722 80.8643C77.7035 80.7915 78.2289 80.7304 78.7427 80.6837M78.7427 80.6837C78.7427 82.1456 77.6802 81.9257 76.8013 84.3704M75.6829 92.7211C75.6989 92.1349 75.721 91.5832 75.7485 91.0637M76.8013 84.3704C77.6184 84.4554 79.6861 84.4086 81.42 83.5417M76.8013 84.3704C76.5846 84.973 76.3791 85.7375 76.2034 86.729M76.2034 86.729C77.0074 86.8777 79.0359 86.8947 80.7188 85.7728M76.2034 86.729C76.0896 87.3714 75.9883 88.1092 75.9046 88.9601M75.9046 88.9601H80.2088M75.9046 88.9601C75.842 89.5957 75.7893 90.2945 75.7485 91.0637M75.7485 91.0637C77.3416 91.2549 81.0885 91.1019 83.3324 88.9601" stroke="black" stroke-width="0.254982"/>
<path d="M115 75L128.5 74.5L141.5 85.5L115 89V75Z" fill="white"/>
</svg>
