<svg width="1250" height="765" viewBox="0 0 1250 765" fill="none" xmlns="http://www.w3.org/2000/svg">
<g clip-path="url(#clip0_5078_4304)">
<rect width="1250" height="765" fill="white"/>
<path d="M359.476 493.652C359.476 496.233 360.075 498.79 361.239 501.175C362.404 503.56 364.11 505.727 366.262 507.553C368.413 509.378 370.968 510.826 373.779 511.814C376.59 512.802 379.602 513.311 382.645 513.311C385.688 513.311 388.701 512.802 391.512 511.814C394.323 510.826 396.877 509.378 399.028 507.553C401.18 505.727 402.886 503.56 404.051 501.175C405.215 498.79 405.814 496.233 405.814 493.652H403.476C403.476 495.973 402.937 498.271 401.89 500.416C400.843 502.56 399.309 504.508 397.375 506.15C395.44 507.791 393.144 509.093 390.617 509.981C388.089 510.869 385.381 511.326 382.645 511.326C379.91 511.326 377.201 510.869 374.673 509.981C372.146 509.093 369.85 507.791 367.915 506.15C365.981 504.508 364.447 502.56 363.4 500.416C362.353 498.271 361.814 495.973 361.814 493.652H359.476Z" fill="#353A53"/>
<path d="M314.538 493.652C314.538 496.233 315.138 498.79 316.302 501.175C317.466 503.56 319.173 505.727 321.324 507.553C323.476 509.378 326.03 510.826 328.841 511.814C331.652 512.802 334.665 513.311 337.708 513.311C340.75 513.311 343.763 512.802 346.574 511.814C349.385 510.826 351.939 509.378 354.091 507.553C356.242 505.727 357.949 503.56 359.113 501.175C360.278 498.79 360.877 496.233 360.877 493.652H358.538C358.538 495.973 358 498.271 356.953 500.416C355.906 502.56 354.372 504.508 352.437 506.15C350.503 507.791 348.207 509.093 345.679 509.981C343.152 510.869 340.443 511.326 337.708 511.326C334.972 511.326 332.263 510.869 329.736 509.981C327.209 509.093 324.912 507.791 322.978 506.15C321.044 504.508 319.509 502.56 318.462 500.416C317.416 498.271 316.877 495.973 316.877 493.652H314.538Z" fill="#353A53"/>
<path d="M449.032 493.652C449.032 496.233 449.632 498.79 450.796 501.175C451.96 503.56 453.667 505.727 455.819 507.553C457.97 509.378 460.524 510.826 463.335 511.814C466.146 512.802 469.159 513.311 472.202 513.311C475.244 513.311 478.257 512.802 481.068 511.814C483.879 510.826 486.433 509.378 488.585 507.553C490.736 505.727 492.443 503.56 493.607 501.175C494.772 498.79 495.371 496.233 495.371 493.652H493.033C493.033 495.973 492.494 498.271 491.447 500.416C490.4 502.56 488.866 504.508 486.931 506.15C484.997 507.791 482.701 509.093 480.173 509.981C477.646 510.869 474.937 511.326 472.202 511.326C469.466 511.326 466.757 510.869 464.23 509.981C461.703 509.093 459.406 507.791 457.472 506.15C455.538 504.508 454.003 502.56 452.957 500.416C451.91 498.271 451.371 495.973 451.371 493.652H449.032Z" fill="#353A53"/>
<path d="M404.095 493.652C404.095 496.233 404.694 498.79 405.859 501.175C407.023 503.56 408.73 505.727 410.881 507.553C413.033 509.378 415.587 510.826 418.398 511.814C421.209 512.802 424.222 513.311 427.264 513.311C430.307 513.311 433.32 512.802 436.131 511.814C438.942 510.826 441.496 509.378 443.647 507.553C445.799 505.727 447.506 503.56 448.67 501.175C449.834 498.79 450.434 496.233 450.434 493.652H448.095C448.095 495.973 447.556 498.271 446.509 500.416C445.463 502.56 443.928 504.508 441.994 506.15C440.06 507.791 437.763 509.093 435.236 509.981C432.709 510.869 430 511.326 427.264 511.326C424.529 511.326 421.82 510.869 419.293 509.981C416.765 509.093 414.469 507.791 412.535 506.15C410.6 504.508 409.066 502.56 408.019 500.416C406.972 498.271 406.433 495.973 406.433 493.652H404.095Z" fill="#353A53"/>
<path d="M776.681 292.691C776.681 295.272 777.28 297.829 778.444 300.214C779.609 302.599 781.316 304.766 783.467 306.592C785.618 308.417 788.173 309.865 790.984 310.853C793.795 311.841 796.808 312.35 799.85 312.35C802.893 312.35 805.906 311.841 808.717 310.853C811.528 309.865 814.082 308.417 816.233 306.592C818.385 304.766 820.092 302.599 821.256 300.214C822.42 297.829 823.02 295.272 823.02 292.691H820.681C820.681 295.012 820.142 297.31 819.095 299.455C818.049 301.599 816.514 303.547 814.58 305.189C812.646 306.83 810.349 308.132 807.822 309.02C805.295 309.908 802.586 310.365 799.85 310.365C797.115 310.365 794.406 309.908 791.879 309.02C789.351 308.132 787.055 306.83 785.121 305.189C783.186 303.547 781.652 301.599 780.605 299.455C779.558 297.31 779.019 295.012 779.019 292.691H776.681Z" fill="#353A53"/>
<path d="M731.743 292.691C731.743 295.272 732.343 297.829 733.507 300.214C734.671 302.599 736.378 304.766 738.529 306.592C740.681 308.417 743.235 309.865 746.046 310.853C748.857 311.841 751.87 312.35 754.913 312.35C757.955 312.35 760.968 311.841 763.779 310.853C766.59 309.865 769.144 308.417 771.296 306.592C773.447 304.766 775.154 302.599 776.318 300.214C777.483 297.829 778.082 295.272 778.082 292.691H775.744C775.744 295.012 775.205 297.31 774.158 299.455C773.111 301.599 771.577 303.547 769.642 305.189C767.708 306.83 765.412 308.132 762.884 309.02C760.357 309.908 757.648 310.365 754.913 310.365C752.177 310.365 749.468 309.908 746.941 309.02C744.414 308.132 742.117 306.83 740.183 305.189C738.249 303.547 736.714 301.599 735.667 299.455C734.621 297.31 734.082 295.012 734.082 292.691H731.743Z" fill="#353A53"/>
<path d="M866.239 292.691C866.239 295.272 866.839 297.829 868.003 300.214C869.167 302.599 870.874 304.766 873.026 306.592C875.177 308.417 877.731 309.865 880.542 310.853C883.353 311.841 886.366 312.35 889.409 312.35C892.451 312.35 895.464 311.841 898.275 310.853C901.086 309.865 903.641 308.417 905.792 306.592C907.943 304.766 909.65 302.599 910.814 300.214C911.979 297.829 912.578 295.272 912.578 292.691H910.24C910.24 295.012 909.701 297.31 908.654 299.455C907.607 301.599 906.073 303.547 904.138 305.189C902.204 306.83 899.908 308.132 897.38 309.02C894.853 309.908 892.144 310.365 889.409 310.365C886.673 310.365 883.964 309.908 881.437 309.02C878.91 308.132 876.613 306.83 874.679 305.189C872.745 303.547 871.21 301.599 870.164 299.455C869.117 297.31 868.578 295.012 868.578 292.691H866.239Z" fill="#353A53"/>
<path d="M821.302 292.691C821.302 295.272 821.901 297.829 823.066 300.214C824.23 302.599 825.937 304.766 828.088 306.592C830.24 308.417 832.794 309.865 835.605 310.853C838.416 311.841 841.429 312.35 844.471 312.35C847.514 312.35 850.527 311.841 853.338 310.853C856.149 309.865 858.703 308.417 860.854 306.592C863.006 304.766 864.713 302.599 865.877 300.214C867.041 297.829 867.641 295.272 867.641 292.691H865.302C865.302 295.012 864.763 297.31 863.717 299.455C862.67 301.599 861.135 303.547 859.201 305.189C857.267 306.83 854.97 308.132 852.443 309.02C849.916 309.908 847.207 310.365 844.471 310.365C841.736 310.365 839.027 309.908 836.5 309.02C833.972 308.132 831.676 306.83 829.742 305.189C827.807 303.547 826.273 301.599 825.226 299.455C824.179 297.31 823.64 295.012 823.64 292.691H821.302Z" fill="#353A53"/>
<path d="M427.193 253.382C427.193 255.964 427.792 258.52 428.956 260.905C430.121 263.29 431.827 265.458 433.979 267.283C436.13 269.109 438.684 270.557 441.495 271.545C444.306 272.533 447.319 273.041 450.362 273.041C453.405 273.041 456.417 272.533 459.228 271.545C462.039 270.557 464.594 269.109 466.745 267.283C468.897 265.458 470.603 263.29 471.768 260.905C472.932 258.52 473.531 255.964 473.531 253.382H471.193C471.193 255.703 470.654 258.002 469.607 260.146C468.56 262.29 467.026 264.239 465.092 265.88C463.157 267.521 460.861 268.823 458.334 269.711C455.806 270.6 453.097 271.057 450.362 271.057C447.626 271.057 444.918 270.6 442.39 269.711C439.863 268.823 437.567 267.521 435.632 265.88C433.698 264.239 432.164 262.29 431.117 260.146C430.07 258.002 429.531 255.703 429.531 253.382H427.193Z" fill="#353A53"/>
<path d="M382.255 253.382C382.255 255.964 382.854 258.52 384.019 260.905C385.183 263.29 386.89 265.458 389.041 267.283C391.193 269.109 393.747 270.557 396.558 271.545C399.369 272.533 402.382 273.041 405.424 273.041C408.467 273.041 411.48 272.533 414.291 271.545C417.102 270.557 419.656 269.109 421.808 267.283C423.959 265.458 425.666 263.29 426.83 260.905C427.994 258.52 428.594 255.964 428.594 253.382H426.255C426.255 255.703 425.716 258.002 424.67 260.146C423.623 262.29 422.088 264.239 420.154 265.88C418.22 267.521 415.923 268.823 413.396 269.711C410.869 270.6 408.16 271.057 405.424 271.057C402.689 271.057 399.98 270.6 397.453 269.711C394.925 268.823 392.629 267.521 390.695 265.88C388.76 264.239 387.226 262.29 386.179 260.146C385.132 258.002 384.594 255.703 384.594 253.382H382.255Z" fill="#353A53"/>
<path d="M516.749 253.382C516.749 255.964 517.348 258.52 518.513 260.905C519.677 263.29 521.384 265.458 523.535 267.283C525.687 269.109 528.241 270.557 531.052 271.545C533.863 272.533 536.876 273.041 539.919 273.041C542.961 273.041 545.974 272.533 548.785 271.545C551.596 270.557 554.15 269.109 556.302 267.283C558.453 265.458 560.16 263.29 561.324 260.905C562.489 258.52 563.088 255.964 563.088 253.382H560.749C560.749 255.703 560.211 258.002 559.164 260.146C558.117 262.29 556.583 264.239 554.648 265.88C552.714 267.521 550.418 268.823 547.89 269.711C545.363 270.6 542.654 271.057 539.919 271.057C537.183 271.057 534.474 270.6 531.947 269.711C529.42 268.823 527.123 267.521 525.189 265.88C523.255 264.239 521.72 262.29 520.673 260.146C519.626 258.002 519.088 255.703 519.088 253.382H516.749Z" fill="#353A53"/>
<path d="M471.812 253.382C471.812 255.964 472.411 258.52 473.575 260.905C474.74 263.29 476.446 265.458 478.598 267.283C480.749 269.109 483.303 270.557 486.115 271.545C488.926 272.533 491.938 273.041 494.981 273.041C498.024 273.041 501.037 272.533 503.848 271.545C506.659 270.557 509.213 269.109 511.364 267.283C513.516 265.458 515.222 263.29 516.387 260.905C517.551 258.52 518.15 255.964 518.15 253.382H515.812C515.812 255.703 515.273 258.002 514.226 260.146C513.179 262.29 511.645 264.239 509.711 265.88C507.776 267.521 505.48 268.823 502.953 269.711C500.425 270.6 497.717 271.057 494.981 271.057C492.245 271.057 489.537 270.6 487.009 269.711C484.482 268.823 482.186 267.521 480.251 265.88C478.317 264.239 476.783 262.29 475.736 260.146C474.689 258.002 474.15 255.703 474.15 253.382H471.812Z" fill="#353A53"/>
<path d="M1062.83 174.745C1062.83 177.327 1063.42 179.883 1064.59 182.269C1065.75 184.654 1067.46 186.821 1069.61 188.646C1071.76 190.472 1074.32 191.92 1077.13 192.908C1079.94 193.896 1082.95 194.404 1085.99 194.404C1089.04 194.404 1092.05 193.896 1094.86 192.908C1097.67 191.92 1100.23 190.472 1102.38 188.646C1104.53 186.821 1106.24 184.654 1107.4 182.269C1108.56 179.883 1109.16 177.327 1109.16 174.745H1106.83C1106.83 177.067 1106.29 179.365 1105.24 181.509C1104.19 183.654 1102.66 185.602 1100.72 187.243C1098.79 188.885 1096.49 190.187 1093.97 191.075C1091.44 191.963 1088.73 192.42 1085.99 192.42C1083.26 192.42 1080.55 191.963 1078.02 191.075C1075.5 190.187 1073.2 188.885 1071.27 187.243C1069.33 185.602 1067.8 183.654 1066.75 181.509C1065.7 179.365 1065.16 177.067 1065.16 174.745H1062.83Z" fill="#353A53"/>
<path d="M1017.89 174.745C1017.89 177.327 1018.49 179.883 1019.65 182.269C1020.82 184.654 1022.52 186.821 1024.67 188.646C1026.83 190.472 1029.38 191.92 1032.19 192.908C1035 193.896 1038.01 194.404 1041.06 194.404C1044.1 194.404 1047.11 193.896 1049.92 192.908C1052.73 191.92 1055.29 190.472 1057.44 188.646C1059.59 186.821 1061.3 184.654 1062.46 182.269C1063.63 179.883 1064.23 177.327 1064.23 174.745H1061.89C1061.89 177.067 1061.35 179.365 1060.3 181.509C1059.26 183.654 1057.72 185.602 1055.79 187.243C1053.85 188.885 1051.56 190.187 1049.03 191.075C1046.5 191.963 1043.79 192.42 1041.06 192.42C1038.32 192.42 1035.61 191.963 1033.09 191.075C1030.56 190.187 1028.26 188.885 1026.33 187.243C1024.39 185.602 1022.86 183.654 1021.81 181.509C1020.77 179.365 1020.23 177.067 1020.23 174.745H1017.89Z" fill="#353A53"/>
<path d="M1152.38 174.745C1152.38 177.327 1152.98 179.883 1154.15 182.269C1155.31 184.654 1157.02 186.821 1159.17 188.646C1161.32 190.472 1163.87 191.92 1166.68 192.908C1169.5 193.896 1172.51 194.404 1175.55 194.404C1178.59 194.404 1181.61 193.896 1184.42 192.908C1187.23 191.92 1189.78 190.472 1191.93 188.646C1194.09 186.821 1195.79 184.654 1196.96 182.269C1198.12 179.883 1198.72 177.327 1198.72 174.745H1196.38C1196.38 177.067 1195.84 179.365 1194.8 181.509C1193.75 183.654 1192.22 185.602 1190.28 187.243C1188.35 188.885 1186.05 190.187 1183.52 191.075C1181 191.963 1178.29 192.42 1175.55 192.42C1172.82 192.42 1170.11 191.963 1167.58 191.075C1165.05 190.187 1162.76 188.885 1160.82 187.243C1158.89 185.602 1157.35 183.654 1156.31 181.509C1155.26 179.365 1154.72 177.067 1154.72 174.745H1152.38Z" fill="#353A53"/>
<path d="M1107.44 174.745C1107.44 177.327 1108.04 179.883 1109.21 182.269C1110.37 184.654 1112.08 186.821 1114.23 188.646C1116.38 190.472 1118.94 191.92 1121.75 192.908C1124.56 193.896 1127.57 194.404 1130.61 194.404C1133.66 194.404 1136.67 193.896 1139.48 192.908C1142.29 191.92 1144.85 190.472 1147 188.646C1149.15 186.821 1150.86 184.654 1152.02 182.269C1153.18 179.883 1153.78 177.327 1153.78 174.745H1151.44C1151.44 177.067 1150.91 179.365 1149.86 181.509C1148.81 183.654 1147.28 185.602 1145.34 187.243C1143.41 188.885 1141.11 190.187 1138.59 191.075C1136.06 191.963 1133.35 192.42 1130.61 192.42C1127.88 192.42 1125.17 191.963 1122.64 191.075C1120.11 190.187 1117.82 188.885 1115.88 187.243C1113.95 185.602 1112.42 183.654 1111.37 181.509C1110.32 179.365 1109.78 177.067 1109.78 174.745H1107.44Z" fill="#353A53"/>
<path d="M536.407 375.701C536.407 378.282 537.007 380.839 538.171 383.224C539.335 385.609 541.042 387.776 543.194 389.601C545.345 391.427 547.899 392.875 550.71 393.863C553.521 394.851 556.534 395.359 559.577 395.359C562.619 395.359 565.632 394.851 568.443 393.863C571.254 392.875 573.808 391.427 575.96 389.601C578.111 387.776 579.818 385.609 580.982 383.224C582.147 380.839 582.746 378.282 582.746 375.701H580.408C580.408 378.022 579.869 380.32 578.822 382.464C577.775 384.609 576.241 386.557 574.306 388.198C572.372 389.84 570.076 391.142 567.548 392.03C565.021 392.918 562.312 393.375 559.577 393.375C556.841 393.375 554.132 392.918 551.605 392.03C549.078 391.142 546.781 389.84 544.847 388.198C542.913 386.557 541.378 384.609 540.332 382.464C539.285 380.32 538.746 378.022 538.746 375.701H536.407Z" fill="#353A53"/>
<path d="M491.47 375.701C491.47 378.282 492.069 380.839 493.234 383.224C494.398 385.609 496.105 387.776 498.256 389.601C500.408 391.427 502.962 392.875 505.773 393.863C508.584 394.851 511.597 395.359 514.639 395.359C517.682 395.359 520.695 394.851 523.506 393.863C526.317 392.875 528.871 391.427 531.022 389.601C533.174 387.776 534.881 385.609 536.045 383.224C537.209 380.839 537.809 378.282 537.809 375.701H535.47C535.47 378.022 534.931 380.32 533.884 382.464C532.838 384.609 531.303 386.557 529.369 388.198C527.435 389.84 525.138 391.142 522.611 392.03C520.084 392.918 517.375 393.375 514.639 393.375C511.904 393.375 509.195 392.918 506.668 392.03C504.14 391.142 501.844 389.84 499.91 388.198C497.975 386.557 496.441 384.609 495.394 382.464C494.347 380.32 493.808 378.022 493.808 375.701H491.47Z" fill="#353A53"/>
<path d="M625.964 375.701C625.964 378.282 626.563 380.839 627.728 383.224C628.892 385.609 630.599 387.776 632.75 389.601C634.902 391.427 637.456 392.875 640.267 393.863C643.078 394.851 646.091 395.359 649.133 395.359C652.176 395.359 655.189 394.851 658 393.863C660.811 392.875 663.365 391.427 665.517 389.601C667.668 387.776 669.375 385.609 670.539 383.224C671.703 380.839 672.303 378.282 672.303 375.701H669.964C669.964 378.022 669.425 380.32 668.379 382.464C667.332 384.609 665.797 386.557 663.863 388.198C661.929 389.84 659.632 391.142 657.105 392.03C654.578 392.918 651.869 393.375 649.133 393.375C646.398 393.375 643.689 392.918 641.162 392.03C638.634 391.142 636.338 389.84 634.404 388.198C632.469 386.557 630.935 384.609 629.888 382.464C628.841 380.32 628.302 378.022 628.302 375.701H625.964Z" fill="#353A53"/>
<path d="M581.027 375.701C581.027 378.282 581.626 380.839 582.79 383.224C583.955 385.609 585.661 387.776 587.813 389.601C589.964 391.427 592.518 392.875 595.329 393.863C598.14 394.851 601.153 395.359 604.196 395.359C607.239 395.359 610.251 394.851 613.062 393.863C615.873 392.875 618.428 391.427 620.579 389.601C622.731 387.776 624.437 385.609 625.602 383.224C626.766 380.839 627.365 378.282 627.365 375.701H625.027C625.027 378.022 624.488 380.32 623.441 382.464C622.394 384.609 620.86 386.557 618.926 388.198C616.991 389.84 614.695 391.142 612.168 392.03C609.64 392.918 606.931 393.375 604.196 393.375C601.46 393.375 598.752 392.918 596.224 392.03C593.697 391.142 591.401 389.84 589.466 388.198C587.532 386.557 585.998 384.609 584.951 382.464C583.904 380.32 583.365 378.022 583.365 375.701H581.027Z" fill="#353A53"/>
<path d="M1117.43 393.171C1117.43 395.753 1118.03 398.309 1119.2 400.694C1120.36 403.079 1122.07 405.247 1124.22 407.072C1126.37 408.898 1128.92 410.346 1131.74 411.334C1134.55 412.322 1137.56 412.83 1140.6 412.83C1143.64 412.83 1146.66 412.322 1149.47 411.334C1152.28 410.346 1154.83 408.898 1156.99 407.072C1159.14 405.247 1160.84 403.079 1162.01 400.694C1163.17 398.309 1163.77 395.753 1163.77 393.171H1161.43C1161.43 395.492 1160.89 397.791 1159.85 399.935C1158.8 402.079 1157.27 404.028 1155.33 405.669C1153.4 407.31 1151.1 408.612 1148.57 409.501C1146.05 410.389 1143.34 410.846 1140.6 410.846C1137.87 410.846 1135.16 410.389 1132.63 409.501C1130.1 408.612 1127.81 407.31 1125.87 405.669C1123.94 404.028 1122.4 402.079 1121.36 399.935C1120.31 397.791 1119.77 395.492 1119.77 393.171H1117.43Z" fill="#353A53"/>
<path d="M1072.5 393.171C1072.5 395.753 1073.09 398.309 1074.26 400.694C1075.42 403.079 1077.13 405.247 1079.28 407.072C1081.43 408.898 1083.99 410.346 1086.8 411.334C1089.61 412.322 1092.62 412.83 1095.66 412.83C1098.71 412.83 1101.72 412.322 1104.53 411.334C1107.34 410.346 1109.9 408.898 1112.05 407.072C1114.2 405.247 1115.91 403.079 1117.07 400.694C1118.23 398.309 1118.83 395.753 1118.83 393.171H1116.5C1116.5 395.492 1115.96 397.791 1114.91 399.935C1113.86 402.079 1112.33 404.028 1110.39 405.669C1108.46 407.31 1106.16 408.612 1103.64 409.501C1101.11 410.389 1098.4 410.846 1095.66 410.846C1092.93 410.846 1090.22 410.389 1087.69 409.501C1085.17 408.612 1082.87 407.31 1080.93 405.669C1079 404.028 1077.47 402.079 1076.42 399.935C1075.37 397.791 1074.83 395.492 1074.83 393.171H1072.5Z" fill="#353A53"/>
<path d="M1206.99 393.171C1206.99 395.753 1207.59 398.309 1208.75 400.694C1209.92 403.079 1211.62 405.247 1213.78 407.072C1215.93 408.898 1218.48 410.346 1221.29 411.334C1224.1 412.322 1227.12 412.83 1230.16 412.83C1233.2 412.83 1236.21 412.322 1239.03 411.334C1241.84 410.346 1244.39 408.898 1246.54 407.072C1248.69 405.247 1250.4 403.079 1251.56 400.694C1252.73 398.309 1253.33 395.753 1253.33 393.171H1250.99C1250.99 395.492 1250.45 397.791 1249.4 399.935C1248.36 402.079 1246.82 404.028 1244.89 405.669C1242.95 407.31 1240.66 408.612 1238.13 409.501C1235.6 410.389 1232.89 410.846 1230.16 410.846C1227.42 410.846 1224.71 410.389 1222.19 409.501C1219.66 408.612 1217.36 407.31 1215.43 405.669C1213.49 404.028 1211.96 402.079 1210.91 399.935C1209.87 397.791 1209.33 395.492 1209.33 393.171H1206.99Z" fill="#353A53"/>
<path d="M1162.05 393.171C1162.05 395.753 1162.65 398.309 1163.82 400.694C1164.98 403.079 1166.69 405.247 1168.84 407.072C1170.99 408.898 1173.54 410.346 1176.35 411.334C1179.17 412.322 1182.18 412.83 1185.22 412.83C1188.26 412.83 1191.28 412.322 1194.09 411.334C1196.9 410.346 1199.45 408.898 1201.6 407.072C1203.76 405.247 1205.46 403.079 1206.63 400.694C1207.79 398.309 1208.39 395.753 1208.39 393.171H1206.05C1206.05 395.492 1205.51 397.791 1204.47 399.935C1203.42 402.079 1201.89 404.028 1199.95 405.669C1198.02 407.31 1195.72 408.612 1193.19 409.501C1190.67 410.389 1187.96 410.846 1185.22 410.846C1182.49 410.846 1179.78 410.389 1177.25 409.501C1174.72 408.612 1172.43 407.31 1170.49 405.669C1168.56 404.028 1167.02 402.079 1165.98 399.935C1164.93 397.791 1164.39 395.492 1164.39 393.171H1162.05Z" fill="#353A53"/>
<path d="M44.9347 393.171C44.9347 395.753 45.534 398.309 46.6984 400.694C47.8628 403.079 49.5694 405.247 51.7209 407.072C53.8724 408.898 56.4265 410.346 59.2376 411.334C62.0486 412.322 65.0614 412.83 68.1041 412.83C71.1467 412.83 74.1596 412.322 76.9706 411.334C79.7817 410.346 82.3358 408.898 84.4873 407.072C86.6388 405.247 88.3454 403.079 89.5098 400.694C90.6741 398.309 91.2734 395.753 91.2734 393.171H88.935C88.935 395.492 88.3962 397.791 87.3493 399.935C86.3025 402.079 84.7681 404.028 82.8338 405.669C80.8994 407.31 78.603 408.612 76.0757 409.501C73.5484 410.389 70.8396 410.846 68.1041 410.846C65.3685 410.846 62.6598 410.389 60.1325 409.501C57.6051 408.612 55.3088 407.31 53.3744 405.669C51.4401 404.028 49.9057 402.079 48.8589 399.935C47.812 397.791 47.2732 395.492 47.2732 393.171H44.9347Z" fill="#353A53"/>
<path d="M-0.00275803 393.171C-0.00275803 395.753 0.596535 398.309 1.7609 400.694C2.92527 403.079 4.63192 405.247 6.78339 407.072C8.93486 408.898 11.489 410.346 14.3001 411.334C17.1111 412.322 20.1239 412.83 23.1666 412.83C26.2092 412.83 29.2221 412.322 32.0331 411.334C34.8442 410.346 37.3983 408.898 39.5498 407.072C41.7013 405.247 43.4079 403.079 44.5723 400.694C45.7366 398.309 46.3359 395.753 46.3359 393.171H43.9975C43.9975 395.492 43.4587 397.791 42.4118 399.935C41.365 402.079 39.8306 404.028 37.8963 405.669C35.9619 407.31 33.6655 408.612 31.1382 409.501C28.6109 410.389 25.9021 410.846 23.1666 410.846C20.431 410.846 17.7223 410.389 15.195 409.501C12.6676 408.612 10.3713 407.31 8.43692 405.669C6.5026 404.028 4.9682 402.079 3.92136 399.935C2.8745 397.791 2.3357 395.492 2.3357 393.171H-0.00275803Z" fill="#353A53"/>
<path d="M134.491 393.171C134.491 395.753 135.091 398.309 136.255 400.694C137.419 403.079 139.126 405.247 141.278 407.072C143.429 408.898 145.983 410.346 148.794 411.334C151.605 412.322 154.618 412.83 157.661 412.83C160.703 412.83 163.716 412.322 166.527 411.334C169.338 410.346 171.892 408.898 174.044 407.072C176.195 405.247 177.902 403.079 179.066 400.694C180.231 398.309 180.83 395.753 180.83 393.171H178.492C178.492 395.492 177.953 397.791 176.906 399.935C175.859 402.079 174.325 404.028 172.39 405.669C170.456 407.31 168.16 408.612 165.632 409.501C163.105 410.389 160.396 410.846 157.661 410.846C154.925 410.846 152.216 410.389 149.689 409.501C147.162 408.612 144.865 407.31 142.931 405.669C140.997 404.028 139.462 402.079 138.415 399.935C137.369 397.791 136.83 395.492 136.83 393.171H134.491Z" fill="#353A53"/>
<path d="M89.5539 393.171C89.5539 395.753 90.1532 398.309 91.3175 400.694C92.4819 403.079 94.1886 405.247 96.34 407.072C98.4915 408.898 101.046 410.346 103.857 411.334C106.668 412.322 109.681 412.83 112.723 412.83C115.766 412.83 118.779 412.322 121.59 411.334C124.401 410.346 126.955 408.898 129.106 407.072C131.258 405.247 132.965 403.079 134.129 400.694C135.293 398.309 135.893 395.753 135.893 393.171H133.554C133.554 395.492 133.015 397.791 131.968 399.935C130.922 402.079 129.387 404.028 127.453 405.669C125.519 407.31 123.222 408.612 120.695 409.501C118.168 410.389 115.459 410.846 112.723 410.846C109.988 410.846 107.279 410.389 104.752 409.501C102.224 408.612 99.9279 407.31 97.9936 405.669C96.0592 404.028 94.5248 402.079 93.478 399.935C92.4311 397.791 91.8923 395.492 91.8923 393.171H89.5539Z" fill="#353A53"/>
<path d="M44.9367 567.923C44.9367 570.505 45.536 573.061 46.7004 575.446C47.8647 577.831 49.5714 579.999 51.7228 581.824C53.8743 583.65 56.4285 585.098 59.2395 586.086C62.0506 587.074 65.0634 587.582 68.106 587.582C71.1487 587.582 74.1615 587.074 76.9726 586.086C79.7836 585.098 82.3378 583.65 84.4892 581.824C86.6407 579.999 88.3474 577.831 89.5117 575.446C90.6761 573.061 91.2754 570.505 91.2754 567.923H88.9369C88.9369 570.244 88.3981 572.543 87.3513 574.687C86.3044 576.831 84.77 578.78 82.8357 580.421C80.9014 582.062 78.605 583.364 76.0777 584.252C73.5504 585.141 70.8416 585.598 68.106 585.598C65.3705 585.598 62.6617 585.141 60.1344 584.252C57.6071 583.364 55.3107 582.062 53.3764 580.421C51.4421 578.78 49.9077 576.831 48.8608 574.687C47.814 572.543 47.2752 570.244 47.2752 567.923H44.9367Z" fill="#353A53"/>
<path d="M-0.000804901 567.923C-0.000804901 570.505 0.598488 573.061 1.76286 575.446C2.92723 577.831 4.63387 579.999 6.78534 581.824C8.93681 583.65 11.491 585.098 14.302 586.086C17.1131 587.074 20.1259 587.582 23.1685 587.582C26.2112 587.582 29.224 587.074 32.0351 586.086C34.8461 585.098 37.4003 583.65 39.5517 581.824C41.7032 579.999 43.4099 577.831 44.5742 575.446C45.7386 573.061 46.3379 570.505 46.3379 567.923H43.9994C43.9994 570.244 43.4606 572.543 42.4138 574.687C41.3669 576.831 39.8325 578.78 37.8982 580.421C35.9639 582.062 33.6675 583.364 31.1402 584.252C28.6129 585.141 25.9041 585.598 23.1685 585.598C20.433 585.598 17.7242 585.141 15.1969 584.252C12.6696 583.364 10.3732 582.062 8.43888 580.421C6.50455 578.78 4.97016 576.831 3.92331 574.687C2.87646 572.543 2.33765 570.244 2.33765 567.923H-0.000804901Z" fill="#353A53"/>
<path d="M134.493 567.923C134.493 570.505 135.093 573.061 136.257 575.446C137.421 577.831 139.128 579.999 141.279 581.824C143.431 583.65 145.985 585.098 148.796 586.086C151.607 587.074 154.62 587.582 157.663 587.582C160.705 587.582 163.718 587.074 166.529 586.086C169.34 585.098 171.894 583.65 174.046 581.824C176.197 579.999 177.904 577.831 179.068 575.446C180.233 573.061 180.832 570.505 180.832 567.923H178.494C178.494 570.244 177.955 572.543 176.908 574.687C175.861 576.831 174.327 578.78 172.392 580.421C170.458 582.062 168.162 583.364 165.634 584.252C163.107 585.141 160.398 585.598 157.663 585.598C154.927 585.598 152.218 585.141 149.691 584.252C147.164 583.364 144.867 582.062 142.933 580.421C140.999 578.78 139.464 576.831 138.417 574.687C137.371 572.543 136.832 570.244 136.832 567.923H134.493Z" fill="#353A53"/>
<path d="M89.5558 567.923C89.5558 570.505 90.1551 573.061 91.3195 575.446C92.4839 577.831 94.1905 579.999 96.342 581.824C98.4935 583.65 101.048 585.098 103.859 586.086C106.67 587.074 109.683 587.582 112.725 587.582C115.768 587.582 118.781 587.074 121.592 586.086C124.403 585.098 126.957 583.65 129.108 581.824C131.26 579.999 132.967 577.831 134.131 575.446C135.295 573.061 135.895 570.505 135.895 567.923H133.556C133.556 570.244 133.017 572.543 131.97 574.687C130.924 576.831 129.389 578.78 127.455 580.421C125.521 582.062 123.224 583.364 120.697 584.252C118.17 585.141 115.461 585.598 112.725 585.598C109.99 585.598 107.281 585.141 104.754 584.252C102.226 583.364 99.9298 582.062 97.9955 580.421C96.0612 578.78 94.5268 576.831 93.4799 574.687C92.4331 572.543 91.8943 570.244 91.8943 567.923H89.5558Z" fill="#353A53"/>
<path d="M1117.43 563.55C1117.43 566.132 1118.03 568.688 1119.2 571.073C1120.36 573.458 1122.07 575.626 1124.22 577.451C1126.37 579.277 1128.92 580.725 1131.74 581.713C1134.55 582.7 1137.56 583.209 1140.6 583.209C1143.64 583.209 1146.66 582.7 1149.47 581.713C1152.28 580.725 1154.83 579.277 1156.99 577.451C1159.14 575.626 1160.84 573.458 1162.01 571.073C1163.17 568.688 1163.77 566.132 1163.77 563.55H1161.43C1161.43 565.871 1160.89 568.17 1159.85 570.314C1158.8 572.458 1157.27 574.407 1155.33 576.048C1153.4 577.689 1151.1 578.991 1148.57 579.879C1146.05 580.768 1143.34 581.225 1140.6 581.225C1137.87 581.225 1135.16 580.768 1132.63 579.879C1130.1 578.991 1127.81 577.689 1125.87 576.048C1123.94 574.407 1122.4 572.458 1121.36 570.314C1120.31 568.17 1119.77 565.871 1119.77 563.55H1117.43Z" fill="#353A53"/>
<path d="M1072.5 563.55C1072.5 566.132 1073.09 568.688 1074.26 571.073C1075.42 573.458 1077.13 575.626 1079.28 577.451C1081.43 579.277 1083.99 580.725 1086.8 581.713C1089.61 582.7 1092.62 583.209 1095.66 583.209C1098.71 583.209 1101.72 582.7 1104.53 581.713C1107.34 580.725 1109.9 579.277 1112.05 577.451C1114.2 575.626 1115.91 573.458 1117.07 571.073C1118.23 568.688 1118.83 566.132 1118.83 563.55H1116.5C1116.5 565.871 1115.96 568.17 1114.91 570.314C1113.86 572.458 1112.33 574.407 1110.39 576.048C1108.46 577.689 1106.16 578.991 1103.64 579.879C1101.11 580.768 1098.4 581.225 1095.66 581.225C1092.93 581.225 1090.22 580.768 1087.69 579.879C1085.17 578.991 1082.87 577.689 1080.93 576.048C1079 574.407 1077.47 572.458 1076.42 570.314C1075.37 568.17 1074.83 565.871 1074.83 563.55H1072.5Z" fill="#353A53"/>
<path d="M1206.99 563.55C1206.99 566.132 1207.59 568.688 1208.75 571.073C1209.92 573.458 1211.62 575.626 1213.78 577.451C1215.93 579.277 1218.48 580.725 1221.29 581.713C1224.1 582.7 1227.12 583.209 1230.16 583.209C1233.2 583.209 1236.21 582.7 1239.03 581.713C1241.84 580.725 1244.39 579.277 1246.54 577.451C1248.69 575.626 1250.4 573.458 1251.56 571.073C1252.73 568.688 1253.33 566.132 1253.33 563.55H1250.99C1250.99 565.871 1250.45 568.17 1249.4 570.314C1248.36 572.458 1246.82 574.407 1244.89 576.048C1242.95 577.689 1240.66 578.991 1238.13 579.879C1235.6 580.768 1232.89 581.225 1230.16 581.225C1227.42 581.225 1224.71 580.768 1222.19 579.879C1219.66 578.991 1217.36 577.689 1215.43 576.048C1213.49 574.407 1211.96 572.458 1210.91 570.314C1209.87 568.17 1209.33 565.871 1209.33 563.55H1206.99Z" fill="#353A53"/>
<path d="M1162.05 563.55C1162.05 566.132 1162.65 568.688 1163.82 571.073C1164.98 573.458 1166.69 575.626 1168.84 577.451C1170.99 579.277 1173.54 580.725 1176.35 581.713C1179.17 582.7 1182.18 583.209 1185.22 583.209C1188.26 583.209 1191.28 582.7 1194.09 581.713C1196.9 580.725 1199.45 579.277 1201.6 577.451C1203.76 575.626 1205.46 573.458 1206.63 571.073C1207.79 568.688 1208.39 566.132 1208.39 563.55H1206.05C1206.05 565.871 1205.51 568.17 1204.47 570.314C1203.42 572.458 1201.89 574.407 1199.95 576.048C1198.02 577.689 1195.72 578.991 1193.19 579.879C1190.67 580.768 1187.96 581.225 1185.22 581.225C1182.49 581.225 1179.78 580.768 1177.25 579.879C1174.72 578.991 1172.43 577.689 1170.49 576.048C1168.56 574.407 1167.02 572.458 1165.98 570.314C1164.93 568.17 1164.39 565.871 1164.39 563.55H1162.05Z" fill="#353A53"/>
<path d="M0 293.787H68.8059L182.39 355.924M254.473 395.358L182.39 355.924M182.39 355.924V424.846" stroke="black" stroke-width="10.9216"/>
<path d="M0 456.52H68.806L182.39 518.657M254.473 558.09L182.39 518.657M182.39 518.657V587.578" stroke="black" stroke-width="10.9216"/>
<path d="M1250.43 456.52H1181.62L1068.04 518.657M995.955 558.09L1068.04 518.657M1068.04 518.657V587.578" stroke="black" stroke-width="10.9216"/>
<path d="M1249.68 294.879H1180.87L1067.29 357.016M995.207 396.45L1067.29 357.016M1067.29 357.016V425.938" stroke="black" stroke-width="10.9216"/>
</g>
<defs>
<clipPath id="clip0_5078_4304">
<rect width="1250" height="765" fill="white"/>
</clipPath>
</defs>
</svg>
