<svg width="1251" height="766" viewBox="0 0 1251 766" fill="none" xmlns="http://www.w3.org/2000/svg">
<g clip-path="url(#clip0_5078_4304)">
<rect width="1250" height="765" transform="translate(0.320312 0.488281)" fill="white"/>
<path d="M359.796 494.14C359.796 496.722 360.395 499.278 361.56 501.663C362.724 504.048 364.431 506.215 366.582 508.041C368.734 509.866 371.288 511.314 374.099 512.302C376.91 513.29 379.923 513.799 382.965 513.799C386.008 513.799 389.021 513.29 391.832 512.302C394.643 511.314 397.197 509.866 399.349 508.041C401.5 506.215 403.207 504.048 404.371 501.663C405.535 499.278 406.135 496.722 406.135 494.14H403.796C403.796 496.461 403.258 498.759 402.211 500.904C401.164 503.048 399.629 504.997 397.695 506.638C395.761 508.279 393.464 509.581 390.937 510.469C388.41 511.358 385.701 511.815 382.965 511.815C380.23 511.815 377.521 511.358 374.994 510.469C372.466 509.581 370.17 508.279 368.236 506.638C366.301 504.997 364.767 503.048 363.72 500.904C362.673 498.759 362.135 496.461 362.135 494.14H359.796Z" fill="#353A53"/>
<path d="M314.859 494.14C314.859 496.722 315.458 499.278 316.622 501.663C317.787 504.048 319.493 506.215 321.645 508.041C323.796 509.866 326.35 511.314 329.161 512.302C331.972 513.29 334.985 513.799 338.028 513.799C341.071 513.799 344.083 513.29 346.894 512.302C349.705 511.314 352.26 509.866 354.411 508.041C356.563 506.215 358.269 504.048 359.434 501.663C360.598 499.278 361.197 496.722 361.197 494.14H358.859C358.859 496.461 358.32 498.759 357.273 500.904C356.226 503.048 354.692 504.997 352.758 506.638C350.823 508.279 348.527 509.581 346 510.469C343.472 511.358 340.763 511.815 338.028 511.815C335.292 511.815 332.584 511.358 330.056 510.469C327.529 509.581 325.233 508.279 323.298 506.638C321.364 504.997 319.83 503.048 318.783 500.904C317.736 498.759 317.197 496.461 317.197 494.14H314.859Z" fill="#353A53"/>
<path d="M449.353 494.14C449.353 496.722 449.952 499.278 451.116 501.663C452.281 504.048 453.987 506.215 456.139 508.041C458.29 509.866 460.844 511.314 463.656 512.302C466.467 513.29 469.479 513.799 472.522 513.799C475.565 513.799 478.578 513.29 481.389 512.302C484.2 511.314 486.754 509.866 488.905 508.041C491.057 506.215 492.763 504.048 493.928 501.663C495.092 499.278 495.691 496.722 495.691 494.14H493.353C493.353 496.461 492.814 498.759 491.767 500.904C490.72 503.048 489.186 504.997 487.252 506.638C485.317 508.279 483.021 509.581 480.494 510.469C477.966 511.358 475.258 511.815 472.522 511.815C469.787 511.815 467.078 511.358 464.55 510.469C462.023 509.581 459.727 508.279 457.792 506.638C455.858 504.997 454.324 503.048 453.277 500.904C452.23 498.759 451.691 496.461 451.691 494.14H449.353Z" fill="#353A53"/>
<path d="M404.415 494.14C404.415 496.722 405.015 499.278 406.179 501.663C407.343 504.048 409.05 506.215 411.201 508.041C413.353 509.866 415.907 511.314 418.718 512.302C421.529 513.29 424.542 513.799 427.585 513.799C430.627 513.799 433.64 513.29 436.451 512.302C439.262 511.314 441.816 509.866 443.968 508.041C446.119 506.215 447.826 504.048 448.99 501.663C450.155 499.278 450.754 496.722 450.754 494.14H448.415C448.415 496.461 447.877 498.759 446.83 500.904C445.783 503.048 444.249 504.997 442.314 506.638C440.38 508.279 438.084 509.581 435.556 510.469C433.029 511.358 430.32 511.815 427.585 511.815C424.849 511.815 422.14 511.358 419.613 510.469C417.086 509.581 414.789 508.279 412.855 506.638C410.921 504.997 409.386 503.048 408.339 500.904C407.292 498.759 406.754 496.461 406.754 494.14H404.415Z" fill="#353A53"/>
<path d="M777.001 293.179C777.001 295.761 777.6 298.317 778.765 300.702C779.929 303.087 781.636 305.254 783.787 307.08C785.939 308.905 788.493 310.354 791.304 311.341C794.115 312.329 797.128 312.838 800.17 312.838C803.213 312.838 806.226 312.329 809.037 311.341C811.848 310.354 814.402 308.905 816.554 307.08C818.705 305.254 820.412 303.087 821.576 300.702C822.741 298.317 823.34 295.761 823.34 293.179H821.001C821.001 295.5 820.463 297.798 819.416 299.943C818.369 302.087 816.834 304.036 814.9 305.677C812.966 307.318 810.669 308.62 808.142 309.508C805.615 310.397 802.906 310.854 800.17 310.854C797.435 310.854 794.726 310.397 792.199 309.508C789.672 308.62 787.375 307.318 785.441 305.677C783.507 304.036 781.972 302.087 780.925 299.943C779.878 297.798 779.34 295.5 779.34 293.179H777.001Z" fill="#353A53"/>
<path d="M732.064 293.179C732.064 295.761 732.663 298.317 733.827 300.702C734.992 303.087 736.698 305.254 738.85 307.08C741.001 308.905 743.555 310.354 746.366 311.341C749.178 312.329 752.19 312.838 755.233 312.838C758.276 312.838 761.288 312.329 764.1 311.341C766.911 310.354 769.465 308.905 771.616 307.08C773.768 305.254 775.474 303.087 776.639 300.702C777.803 298.317 778.402 295.761 778.402 293.179H776.064C776.064 295.5 775.525 297.798 774.478 299.943C773.431 302.087 771.897 304.036 769.963 305.677C768.028 307.318 765.732 308.62 763.205 309.508C760.677 310.397 757.969 310.854 755.233 310.854C752.497 310.854 749.789 310.397 747.261 309.508C744.734 308.62 742.438 307.318 740.503 305.677C738.569 304.036 737.035 302.087 735.988 299.943C734.941 297.798 734.402 295.5 734.402 293.179H732.064Z" fill="#353A53"/>
<path d="M866.56 293.179C866.56 295.761 867.159 298.317 868.323 300.702C869.488 303.087 871.194 305.254 873.346 307.08C875.497 308.905 878.052 310.354 880.863 311.341C883.674 312.329 886.686 312.838 889.729 312.838C892.772 312.838 895.785 312.329 898.596 311.341C901.407 310.354 903.961 308.905 906.112 307.08C908.264 305.254 909.97 303.087 911.135 300.702C912.299 298.317 912.898 295.761 912.898 293.179H910.56C910.56 295.5 910.021 297.798 908.974 299.943C907.927 302.087 906.393 304.036 904.459 305.677C902.524 307.318 900.228 308.62 897.701 309.508C895.173 310.397 892.465 310.854 889.729 310.854C886.994 310.854 884.285 310.397 881.757 309.508C879.23 308.62 876.934 307.318 874.999 305.677C873.065 304.036 871.531 302.087 870.484 299.943C869.437 297.798 868.898 295.5 868.898 293.179H866.56Z" fill="#353A53"/>
<path d="M821.622 293.179C821.622 295.761 822.222 298.317 823.386 300.702C824.55 303.087 826.257 305.254 828.408 307.08C830.56 308.905 833.114 310.354 835.925 311.341C838.736 312.329 841.749 312.838 844.792 312.838C847.834 312.838 850.847 312.329 853.658 311.341C856.469 310.354 859.023 308.905 861.175 307.08C863.326 305.254 865.033 303.087 866.197 300.702C867.362 298.317 867.961 295.761 867.961 293.179H865.622C865.622 295.5 865.084 297.798 864.037 299.943C862.99 302.087 861.456 304.036 859.521 305.677C857.587 307.318 855.291 308.62 852.763 309.508C850.236 310.397 847.527 310.854 844.792 310.854C842.056 310.854 839.347 310.397 836.82 309.508C834.293 308.62 831.996 307.318 830.062 305.677C828.128 304.036 826.593 302.087 825.546 299.943C824.5 297.798 823.961 295.5 823.961 293.179H821.622Z" fill="#353A53"/>
<path d="M427.513 253.87C427.513 256.452 428.112 259.008 429.277 261.394C430.441 263.779 432.148 265.946 434.299 267.771C436.45 269.597 439.005 271.045 441.816 272.033C444.627 273.021 447.64 273.529 450.682 273.529C453.725 273.529 456.738 273.021 459.549 272.033C462.36 271.045 464.914 269.597 467.065 267.771C469.217 265.946 470.924 263.779 472.088 261.394C473.252 259.008 473.852 256.452 473.852 253.87H471.513C471.513 256.192 470.974 258.49 469.927 260.634C468.881 262.779 467.346 264.727 465.412 266.368C463.478 268.01 461.181 269.312 458.654 270.2C456.127 271.088 453.418 271.545 450.682 271.545C447.947 271.545 445.238 271.088 442.711 270.2C440.183 269.312 437.887 268.01 435.953 266.368C434.018 264.727 432.484 262.779 431.437 260.634C430.39 258.49 429.851 256.192 429.851 253.87H427.513Z" fill="#353A53"/>
<path d="M382.575 253.87C382.575 256.452 383.175 259.008 384.339 261.394C385.503 263.779 387.21 265.946 389.362 267.771C391.513 269.597 394.067 271.045 396.878 272.033C399.689 273.021 402.702 273.529 405.745 273.529C408.787 273.529 411.8 273.021 414.611 272.033C417.422 271.045 419.976 269.597 422.128 267.771C424.279 265.946 425.986 263.779 427.15 261.394C428.315 259.008 428.914 256.452 428.914 253.87H426.576C426.576 256.192 426.037 258.49 424.99 260.634C423.943 262.779 422.409 264.727 420.474 266.368C418.54 268.01 416.244 269.312 413.716 270.2C411.189 271.088 408.48 271.545 405.745 271.545C403.009 271.545 400.3 271.088 397.773 270.2C395.246 269.312 392.949 268.01 391.015 266.368C389.081 264.727 387.546 262.779 386.499 260.634C385.453 258.49 384.914 256.192 384.914 253.87H382.575Z" fill="#353A53"/>
<path d="M517.07 253.87C517.07 256.452 517.669 259.008 518.833 261.394C519.998 263.779 521.704 265.946 523.856 267.771C526.007 269.597 528.561 271.045 531.372 272.033C534.183 273.021 537.196 273.529 540.239 273.529C543.281 273.529 546.294 273.021 549.105 272.033C551.916 271.045 554.471 269.597 556.622 267.771C558.774 265.946 560.48 263.779 561.645 261.394C562.809 259.008 563.408 256.452 563.408 253.87H561.07C561.07 256.192 560.531 258.49 559.484 260.634C558.437 262.779 556.903 264.727 554.969 266.368C553.034 268.01 550.738 269.312 548.21 270.2C545.683 271.088 542.974 271.545 540.239 271.545C537.503 271.545 534.795 271.088 532.267 270.2C529.74 269.312 527.444 268.01 525.509 266.368C523.575 264.727 522.04 262.779 520.994 260.634C519.947 258.49 519.408 256.192 519.408 253.87H517.07Z" fill="#353A53"/>
<path d="M472.132 253.87C472.132 256.452 472.731 259.008 473.896 261.394C475.06 263.779 476.767 265.946 478.918 267.771C481.07 269.597 483.624 271.045 486.435 272.033C489.246 273.021 492.259 273.529 495.301 273.529C498.344 273.529 501.357 273.021 504.168 272.033C506.979 271.045 509.533 269.597 511.685 267.771C513.836 265.946 515.543 263.779 516.707 261.394C517.871 259.008 518.471 256.452 518.471 253.87H516.132C516.132 256.192 515.593 258.49 514.547 260.634C513.5 262.779 511.965 264.727 510.031 266.368C508.097 268.01 505.8 269.312 503.273 270.2C500.746 271.088 498.037 271.545 495.301 271.545C492.566 271.545 489.857 271.088 487.33 270.2C484.802 269.312 482.506 268.01 480.572 266.368C478.637 264.727 477.103 262.779 476.056 260.634C475.009 258.49 474.47 256.192 474.47 253.87H472.132Z" fill="#353A53"/>
<path d="M1063.15 175.234C1063.15 177.815 1063.74 180.372 1064.91 182.757C1066.07 185.142 1067.78 187.309 1069.93 189.135C1072.08 190.96 1074.64 192.408 1077.45 193.396C1080.26 194.384 1083.27 194.893 1086.32 194.893C1089.36 194.893 1092.37 194.384 1095.18 193.396C1097.99 192.408 1100.55 190.96 1102.7 189.135C1104.85 187.309 1106.56 185.142 1107.72 182.757C1108.89 180.372 1109.48 177.815 1109.48 175.234H1107.15C1107.15 177.555 1106.61 179.853 1105.56 181.998C1104.51 184.142 1102.98 186.09 1101.04 187.732C1099.11 189.373 1096.81 190.675 1094.29 191.563C1091.76 192.451 1089.05 192.908 1086.32 192.908C1083.58 192.908 1080.87 192.451 1078.34 191.563C1075.82 190.675 1073.52 189.373 1071.59 187.732C1069.65 186.09 1068.12 184.142 1067.07 181.998C1066.02 179.853 1065.48 177.555 1065.48 175.234H1063.15Z" fill="#353A53"/>
<path d="M1018.21 175.234C1018.21 177.815 1018.81 180.372 1019.97 182.757C1021.14 185.142 1022.84 187.309 1024.99 189.135C1027.15 190.96 1029.7 192.408 1032.51 193.396C1035.32 194.384 1038.33 194.893 1041.38 194.893C1044.42 194.893 1047.43 194.384 1050.24 193.396C1053.06 192.408 1055.61 190.96 1057.76 189.135C1059.91 187.309 1061.62 185.142 1062.78 182.757C1063.95 180.372 1064.55 177.815 1064.55 175.234H1062.21C1062.21 177.555 1061.67 179.853 1060.62 181.998C1059.58 184.142 1058.04 186.09 1056.11 187.732C1054.17 189.373 1051.88 190.675 1049.35 191.563C1046.82 192.451 1044.11 192.908 1041.38 192.908C1038.64 192.908 1035.93 192.451 1033.41 191.563C1030.88 190.675 1028.58 189.373 1026.65 187.732C1024.71 186.09 1023.18 184.142 1022.13 181.998C1021.09 179.853 1020.55 177.555 1020.55 175.234H1018.21Z" fill="#353A53"/>
<path d="M1152.7 175.234C1152.7 177.815 1153.3 180.372 1154.47 182.757C1155.63 185.142 1157.34 187.309 1159.49 189.135C1161.64 190.96 1164.19 192.408 1167.01 193.396C1169.82 194.384 1172.83 194.893 1175.87 194.893C1178.91 194.893 1181.93 194.384 1184.74 193.396C1187.55 192.408 1190.1 190.96 1192.25 189.135C1194.41 187.309 1196.11 185.142 1197.28 182.757C1198.44 180.372 1199.04 177.815 1199.04 175.234H1196.7C1196.7 177.555 1196.16 179.853 1195.12 181.998C1194.07 184.142 1192.54 186.09 1190.6 187.732C1188.67 189.373 1186.37 190.675 1183.84 191.563C1181.32 192.451 1178.61 192.908 1175.87 192.908C1173.14 192.908 1170.43 192.451 1167.9 191.563C1165.37 190.675 1163.08 189.373 1161.14 187.732C1159.21 186.09 1157.67 184.142 1156.63 181.998C1155.58 179.853 1155.04 177.555 1155.04 175.234H1152.7Z" fill="#353A53"/>
<path d="M1107.76 175.234C1107.76 177.815 1108.36 180.372 1109.53 182.757C1110.69 185.142 1112.4 187.309 1114.55 189.135C1116.7 190.96 1119.26 192.408 1122.07 193.396C1124.88 194.384 1127.89 194.893 1130.93 194.893C1133.98 194.893 1136.99 194.384 1139.8 193.396C1142.61 192.408 1145.17 190.96 1147.32 189.135C1149.47 187.309 1151.18 185.142 1152.34 182.757C1153.5 180.372 1154.1 177.815 1154.1 175.234H1151.77C1151.77 177.555 1151.23 179.853 1150.18 181.998C1149.13 184.142 1147.6 186.09 1145.66 187.732C1143.73 189.373 1141.43 190.675 1138.91 191.563C1136.38 192.451 1133.67 192.908 1130.93 192.908C1128.2 192.908 1125.49 192.451 1122.96 191.563C1120.44 190.675 1118.14 189.373 1116.2 187.732C1114.27 186.09 1112.74 184.142 1111.69 181.998C1110.64 179.853 1110.1 177.555 1110.1 175.234H1107.76Z" fill="#353A53"/>
<path d="M536.728 376.189C536.728 378.77 537.327 381.327 538.491 383.712C539.656 386.097 541.362 388.264 543.514 390.09C545.665 391.915 548.219 393.363 551.031 394.351C553.842 395.339 556.854 395.848 559.897 395.848C562.94 395.848 565.953 395.339 568.764 394.351C571.575 393.363 574.129 391.915 576.28 390.09C578.432 388.264 580.138 386.097 581.303 383.712C582.467 381.327 583.066 378.77 583.066 376.189H580.728C580.728 378.51 580.189 380.808 579.142 382.953C578.095 385.097 576.561 387.045 574.627 388.687C572.692 390.328 570.396 391.63 567.869 392.518C565.341 393.406 562.633 393.864 559.897 393.864C557.162 393.864 554.453 393.406 551.925 392.518C549.398 391.63 547.102 390.328 545.167 388.687C543.233 387.045 541.699 385.097 540.652 382.953C539.605 380.808 539.066 378.51 539.066 376.189H536.728Z" fill="#353A53"/>
<path d="M491.79 376.189C491.79 378.77 492.39 381.327 493.554 383.712C494.718 386.097 496.425 388.264 498.576 390.09C500.728 391.915 503.282 393.363 506.093 394.351C508.904 395.339 511.917 395.848 514.96 395.848C518.002 395.848 521.015 395.339 523.826 394.351C526.637 393.363 529.191 391.915 531.343 390.09C533.494 388.264 535.201 386.097 536.365 383.712C537.53 381.327 538.129 378.77 538.129 376.189H535.79C535.79 378.51 535.252 380.808 534.205 382.953C533.158 385.097 531.624 387.045 529.689 388.687C527.755 390.328 525.459 391.63 522.931 392.518C520.404 393.406 517.695 393.864 514.96 393.864C512.224 393.864 509.515 393.406 506.988 392.518C504.461 391.63 502.164 390.328 500.23 388.687C498.296 387.045 496.761 385.097 495.714 382.953C494.667 380.808 494.129 378.51 494.129 376.189H491.79Z" fill="#353A53"/>
<path d="M626.284 376.189C626.284 378.77 626.884 381.327 628.048 383.712C629.212 386.097 630.919 388.264 633.07 390.09C635.222 391.915 637.776 393.363 640.587 394.351C643.398 395.339 646.411 395.848 649.454 395.848C652.496 395.848 655.509 395.339 658.32 394.351C661.131 393.363 663.685 391.915 665.837 390.09C667.988 388.264 669.695 386.097 670.859 383.712C672.024 381.327 672.623 378.77 672.623 376.189H670.285C670.285 378.51 669.746 380.808 668.699 382.953C667.652 385.097 666.118 387.045 664.183 388.687C662.249 390.328 659.953 391.63 657.425 392.518C654.898 393.406 652.189 393.864 649.454 393.864C646.718 393.864 644.009 393.406 641.482 392.518C638.955 391.63 636.658 390.328 634.724 388.687C632.79 387.045 631.255 385.097 630.208 382.953C629.162 380.808 628.623 378.51 628.623 376.189H626.284Z" fill="#353A53"/>
<path d="M581.347 376.189C581.347 378.77 581.946 381.327 583.111 383.712C584.275 386.097 585.982 388.264 588.133 390.09C590.284 391.915 592.839 393.363 595.65 394.351C598.461 395.339 601.474 395.848 604.516 395.848C607.559 395.848 610.572 395.339 613.383 394.351C616.194 393.363 618.748 391.915 620.899 390.09C623.051 388.264 624.758 386.097 625.922 383.712C627.086 381.327 627.686 378.77 627.686 376.189H625.347C625.347 378.51 624.808 380.808 623.761 382.953C622.715 385.097 621.18 387.045 619.246 388.687C617.312 390.328 615.015 391.63 612.488 392.518C609.961 393.406 607.252 393.864 604.516 393.864C601.781 393.864 599.072 393.406 596.545 392.518C594.017 391.63 591.721 390.328 589.787 388.687C587.852 387.045 586.318 385.097 585.271 382.953C584.224 380.808 583.685 378.51 583.685 376.189H581.347Z" fill="#353A53"/>
<path d="M1117.75 393.66C1117.75 396.241 1118.35 398.798 1119.52 401.183C1120.68 403.568 1122.39 405.735 1124.54 407.56C1126.69 409.386 1129.24 410.834 1132.06 411.822C1134.87 412.81 1137.88 413.318 1140.92 413.318C1143.97 413.318 1146.98 412.81 1149.79 411.822C1152.6 410.834 1155.15 409.386 1157.31 407.56C1159.46 405.735 1161.16 403.568 1162.33 401.183C1163.49 398.798 1164.09 396.241 1164.09 393.66H1161.75C1161.75 395.981 1161.21 398.279 1160.17 400.423C1159.12 402.568 1157.59 404.516 1155.65 406.157C1153.72 407.799 1151.42 409.101 1148.89 409.989C1146.37 410.877 1143.66 411.334 1140.92 411.334C1138.19 411.334 1135.48 410.877 1132.95 409.989C1130.42 409.101 1128.13 407.799 1126.19 406.157C1124.26 404.516 1122.72 402.568 1121.68 400.423C1120.63 398.279 1120.09 395.981 1120.09 393.66H1117.75Z" fill="#353A53"/>
<path d="M1072.82 393.66C1072.82 396.241 1073.41 398.798 1074.58 401.183C1075.74 403.568 1077.45 405.735 1079.6 407.56C1081.75 409.386 1084.31 410.834 1087.12 411.822C1089.93 412.81 1092.94 413.318 1095.98 413.318C1099.03 413.318 1102.04 412.81 1104.85 411.822C1107.66 410.834 1110.22 409.386 1112.37 407.56C1114.52 405.735 1116.23 403.568 1117.39 401.183C1118.56 398.798 1119.15 396.241 1119.15 393.66H1116.82C1116.82 395.981 1116.28 398.279 1115.23 400.423C1114.18 402.568 1112.65 404.516 1110.71 406.157C1108.78 407.799 1106.48 409.101 1103.96 409.989C1101.43 410.877 1098.72 411.334 1095.98 411.334C1093.25 411.334 1090.54 410.877 1088.01 409.989C1085.49 409.101 1083.19 407.799 1081.26 406.157C1079.32 404.516 1077.79 402.568 1076.74 400.423C1075.69 398.279 1075.15 395.981 1075.15 393.66H1072.82Z" fill="#353A53"/>
<path d="M1207.31 393.66C1207.31 396.241 1207.91 398.798 1209.07 401.183C1210.24 403.568 1211.94 405.735 1214.1 407.56C1216.25 409.386 1218.8 410.834 1221.61 411.822C1224.42 412.81 1227.44 413.318 1230.48 413.318C1233.52 413.318 1236.53 412.81 1239.35 411.822C1242.16 410.834 1244.71 409.386 1246.86 407.56C1249.01 405.735 1250.72 403.568 1251.88 401.183C1253.05 398.798 1253.65 396.241 1253.65 393.66H1251.31C1251.31 395.981 1250.77 398.279 1249.72 400.423C1248.68 402.568 1247.14 404.516 1245.21 406.157C1243.27 407.799 1240.98 409.101 1238.45 409.989C1235.92 410.877 1233.21 411.334 1230.48 411.334C1227.74 411.334 1225.03 410.877 1222.51 409.989C1219.98 409.101 1217.68 407.799 1215.75 406.157C1213.82 404.516 1212.28 402.568 1211.23 400.423C1210.19 398.279 1209.65 395.981 1209.65 393.66H1207.31Z" fill="#353A53"/>
<path d="M1162.37 393.66C1162.37 396.241 1162.97 398.798 1164.14 401.183C1165.3 403.568 1167.01 405.735 1169.16 407.56C1171.31 409.386 1173.86 410.834 1176.68 411.822C1179.49 412.81 1182.5 413.318 1185.54 413.318C1188.58 413.318 1191.6 412.81 1194.41 411.822C1197.22 410.834 1199.77 409.386 1201.92 407.56C1204.08 405.735 1205.78 403.568 1206.95 401.183C1208.11 398.798 1208.71 396.241 1208.71 393.66H1206.37C1206.37 395.981 1205.83 398.279 1204.79 400.423C1203.74 402.568 1202.21 404.516 1200.27 406.157C1198.34 407.799 1196.04 409.101 1193.51 409.989C1190.99 410.877 1188.28 411.334 1185.54 411.334C1182.81 411.334 1180.1 410.877 1177.57 409.989C1175.04 409.101 1172.75 407.799 1170.81 406.157C1168.88 404.516 1167.34 402.568 1166.3 400.423C1165.25 398.279 1164.71 395.981 1164.71 393.66H1162.37Z" fill="#353A53"/>
<path d="M45.2551 393.66C45.2551 396.241 45.8543 398.798 47.0187 401.183C48.1831 403.568 49.8897 405.735 52.0412 407.56C54.1927 409.386 56.7468 410.834 59.5579 411.822C62.3689 412.81 65.3818 413.318 68.4244 413.318C71.467 413.318 74.4799 412.81 77.2909 411.822C80.102 410.834 82.6561 409.386 84.8076 407.56C86.9591 405.735 88.6657 403.568 89.8301 401.183C90.9945 398.798 91.5938 396.241 91.5937 393.66H89.2553C89.2553 395.981 88.7165 398.279 87.6696 400.423C86.6228 402.568 85.0884 404.516 83.1541 406.157C81.2197 407.799 78.9234 409.101 76.396 409.989C73.8687 410.877 71.16 411.334 68.4244 411.334C65.6889 411.334 62.9801 410.877 60.4528 409.989C57.9254 409.101 55.6291 407.799 53.6947 406.157C51.7604 404.516 50.226 402.568 49.1792 400.423C48.1323 398.279 47.5935 395.981 47.5935 393.66H45.2551Z" fill="#353A53"/>
<path d="M0.317554 393.66C0.317554 396.241 0.916847 398.798 2.08121 401.183C3.24559 403.568 4.95223 405.735 7.1037 407.56C9.25517 409.386 11.8093 410.834 14.6204 411.822C17.4314 412.81 20.4443 413.318 23.4869 413.318C26.5295 413.318 29.5424 412.81 32.3534 411.822C35.1645 410.834 37.7186 409.386 39.8701 407.56C42.0216 405.735 43.7282 403.568 44.8926 401.183C46.057 398.798 46.6563 396.241 46.6562 393.66H44.3178C44.3178 395.981 43.779 398.279 42.7321 400.423C41.6853 402.568 40.1509 404.516 38.2166 406.157C36.2822 407.799 33.9859 409.101 31.4585 409.989C28.9312 410.877 26.2225 411.334 23.4869 411.334C20.7514 411.334 18.0426 410.877 15.5153 409.989C12.9879 409.101 10.6916 407.799 8.75724 406.157C6.82291 404.516 5.28852 402.568 4.24167 400.423C3.19482 398.279 2.65601 395.981 2.65601 393.66H0.317554Z" fill="#353A53"/>
<path d="M134.812 393.66C134.812 396.241 135.411 398.798 136.575 401.183C137.74 403.568 139.446 405.735 141.598 407.56C143.749 409.386 146.303 410.834 149.115 411.822C151.926 412.81 154.938 413.318 157.981 413.318C161.024 413.318 164.037 412.81 166.848 411.822C169.659 410.834 172.213 409.386 174.364 407.56C176.516 405.735 178.222 403.568 179.387 401.183C180.551 398.798 181.15 396.241 181.15 393.66H178.812C178.812 395.981 178.273 398.279 177.226 400.423C176.179 402.568 174.645 404.516 172.711 406.157C170.776 407.799 168.48 409.101 165.953 409.989C163.425 410.877 160.717 411.334 157.981 411.334C155.245 411.334 152.537 410.877 150.009 409.989C147.482 409.101 145.186 407.799 143.251 406.157C141.317 404.516 139.783 402.568 138.736 400.423C137.689 398.279 137.15 395.981 137.15 393.66H134.812Z" fill="#353A53"/>
<path d="M89.8742 393.66C89.8742 396.241 90.4735 398.798 91.6379 401.183C92.8022 403.568 94.5089 405.735 96.6603 407.56C98.8118 409.386 101.366 410.834 104.177 411.822C106.988 412.81 110.001 413.318 113.044 413.318C116.086 413.318 119.099 412.81 121.91 411.822C124.721 410.834 127.275 409.386 129.427 407.56C131.578 405.735 133.285 403.568 134.449 401.183C135.614 398.798 136.213 396.241 136.213 393.66H133.874C133.874 395.981 133.336 398.279 132.289 400.423C131.242 402.568 129.708 404.516 127.773 406.157C125.839 407.799 123.543 409.101 121.015 409.989C118.488 410.877 115.779 411.334 113.044 411.334C110.308 411.334 107.599 410.877 105.072 409.989C102.545 409.101 100.248 407.799 98.3139 406.157C96.3796 404.516 94.8452 402.568 93.7983 400.423C92.7515 398.279 92.2127 395.981 92.2127 393.66H89.8742Z" fill="#353A53"/>
<path d="M45.257 568.411C45.257 570.993 45.8563 573.549 47.0207 575.935C48.185 578.32 49.8917 580.487 52.0432 582.312C54.1946 584.138 56.7488 585.586 59.5598 586.574C62.3709 587.562 65.3837 588.07 68.4264 588.07C71.469 588.07 74.4818 587.562 77.2929 586.574C80.1039 585.586 82.6581 584.138 84.8096 582.312C86.961 580.487 88.6677 578.32 89.832 575.935C90.9964 573.549 91.5957 570.993 91.5957 568.411H89.2572C89.2572 570.733 88.7184 573.031 87.6716 575.175C86.6247 577.32 85.0903 579.268 83.156 580.909C81.2217 582.551 78.9253 583.853 76.398 584.741C73.8707 585.629 71.1619 586.086 68.4264 586.086C65.6908 586.086 62.982 585.629 60.4547 584.741C57.9274 583.853 55.631 582.551 53.6967 580.909C51.7624 579.268 50.228 577.32 49.1811 575.175C48.1343 573.031 47.5955 570.733 47.5955 568.411H45.257Z" fill="#353A53"/>
<path d="M0.319508 568.411C0.319508 570.993 0.9188 573.549 2.08317 575.935C3.24754 578.32 4.95418 580.487 7.10565 582.312C9.25713 584.138 11.8113 585.586 14.6223 586.574C17.4334 587.562 20.4462 588.07 23.4889 588.07C26.5315 588.07 29.5443 587.562 32.3554 586.574C35.1664 585.586 37.7206 584.138 39.8721 582.312C42.0235 580.487 43.7302 578.32 44.8945 575.935C46.0589 573.549 46.6582 570.993 46.6582 568.411H44.3197C44.3197 570.733 43.7809 573.031 42.7341 575.175C41.6872 577.32 40.1528 579.268 38.2185 580.909C36.2842 582.551 33.9878 583.853 31.4605 584.741C28.9332 585.629 26.2244 586.086 23.4889 586.086C20.7533 586.086 18.0445 585.629 15.5172 584.741C12.9899 583.853 10.6935 582.551 8.75919 580.909C6.82486 579.268 5.29047 577.32 4.24362 575.175C3.19677 573.031 2.65796 570.733 2.65796 568.411H0.319508Z" fill="#353A53"/>
<path d="M134.814 568.411C134.814 570.993 135.413 573.549 136.577 575.935C137.742 578.32 139.448 580.487 141.6 582.312C143.751 584.138 146.305 585.586 149.116 586.574C151.928 587.562 154.94 588.07 157.983 588.07C161.026 588.07 164.038 587.562 166.85 586.574C169.661 585.586 172.215 584.138 174.366 582.312C176.518 580.487 178.224 578.32 179.389 575.935C180.553 573.549 181.152 570.993 181.152 568.411H178.814C178.814 570.733 178.275 573.031 177.228 575.175C176.181 577.32 174.647 579.268 172.713 580.909C170.778 582.551 168.482 583.853 165.955 584.741C163.427 585.629 160.719 586.086 157.983 586.086C155.247 586.086 152.539 585.629 150.011 584.741C147.484 583.853 145.188 582.551 143.253 580.909C141.319 579.268 139.785 577.32 138.738 575.175C137.691 573.031 137.152 570.733 137.152 568.411H134.814Z" fill="#353A53"/>
<path d="M89.8761 568.411C89.8761 570.993 90.4754 573.549 91.6398 575.935C92.8042 578.32 94.5108 580.487 96.6623 582.312C98.8138 584.138 101.368 585.586 104.179 586.574C106.99 587.562 110.003 588.07 113.045 588.07C116.088 588.07 119.101 587.562 121.912 586.574C124.723 585.586 127.277 584.138 129.429 582.312C131.58 580.487 133.287 578.32 134.451 575.935C135.616 573.549 136.215 570.993 136.215 568.411H133.876C133.876 570.733 133.338 573.031 132.291 575.175C131.244 577.32 129.709 579.268 127.775 580.909C125.841 582.551 123.544 583.853 121.017 584.741C118.49 585.629 115.781 586.086 113.045 586.086C110.31 586.086 107.601 585.629 105.074 584.741C102.547 583.853 100.25 582.551 98.3158 580.909C96.3815 579.268 94.8471 577.32 93.8003 575.175C92.7534 573.031 92.2146 570.733 92.2146 568.411H89.8761Z" fill="#353A53"/>
<path d="M1117.75 564.038C1117.75 566.62 1118.35 569.176 1119.52 571.562C1120.68 573.947 1122.39 576.114 1124.54 577.939C1126.69 579.765 1129.24 581.213 1132.06 582.201C1134.87 583.189 1137.88 583.697 1140.92 583.697C1143.97 583.697 1146.98 583.189 1149.79 582.201C1152.6 581.213 1155.15 579.765 1157.31 577.939C1159.46 576.114 1161.16 573.947 1162.33 571.562C1163.49 569.176 1164.09 566.62 1164.09 564.038H1161.75C1161.75 566.359 1161.21 568.658 1160.17 570.802C1159.12 572.947 1157.59 574.895 1155.65 576.536C1153.72 578.178 1151.42 579.479 1148.89 580.368C1146.37 581.256 1143.66 581.713 1140.92 581.713C1138.19 581.713 1135.48 581.256 1132.95 580.368C1130.42 579.479 1128.13 578.178 1126.19 576.536C1124.26 574.895 1122.72 572.947 1121.68 570.802C1120.63 568.658 1120.09 566.359 1120.09 564.038H1117.75Z" fill="#353A53"/>
<path d="M1072.82 564.038C1072.82 566.62 1073.41 569.176 1074.58 571.562C1075.74 573.947 1077.45 576.114 1079.6 577.939C1081.75 579.765 1084.31 581.213 1087.12 582.201C1089.93 583.189 1092.94 583.697 1095.98 583.697C1099.03 583.697 1102.04 583.189 1104.85 582.201C1107.66 581.213 1110.22 579.765 1112.37 577.939C1114.52 576.114 1116.23 573.947 1117.39 571.562C1118.56 569.176 1119.15 566.62 1119.15 564.038H1116.82C1116.82 566.359 1116.28 568.658 1115.23 570.802C1114.18 572.947 1112.65 574.895 1110.71 576.536C1108.78 578.178 1106.48 579.479 1103.96 580.368C1101.43 581.256 1098.72 581.713 1095.98 581.713C1093.25 581.713 1090.54 581.256 1088.01 580.368C1085.49 579.479 1083.19 578.178 1081.26 576.536C1079.32 574.895 1077.79 572.947 1076.74 570.802C1075.69 568.658 1075.15 566.359 1075.15 564.038H1072.82Z" fill="#353A53"/>
<path d="M1207.31 564.038C1207.31 566.62 1207.91 569.176 1209.07 571.562C1210.24 573.947 1211.94 576.114 1214.1 577.939C1216.25 579.765 1218.8 581.213 1221.61 582.201C1224.42 583.189 1227.44 583.697 1230.48 583.697C1233.52 583.697 1236.53 583.189 1239.35 582.201C1242.16 581.213 1244.71 579.765 1246.86 577.939C1249.01 576.114 1250.72 573.947 1251.88 571.562C1253.05 569.176 1253.65 566.62 1253.65 564.038H1251.31C1251.31 566.359 1250.77 568.658 1249.72 570.802C1248.68 572.947 1247.14 574.895 1245.21 576.536C1243.27 578.178 1240.98 579.479 1238.45 580.368C1235.92 581.256 1233.21 581.713 1230.48 581.713C1227.74 581.713 1225.03 581.256 1222.51 580.368C1219.98 579.479 1217.68 578.178 1215.75 576.536C1213.82 574.895 1212.28 572.947 1211.23 570.802C1210.19 568.658 1209.65 566.359 1209.65 564.038H1207.31Z" fill="#353A53"/>
<path d="M1162.37 564.038C1162.37 566.62 1162.97 569.176 1164.14 571.562C1165.3 573.947 1167.01 576.114 1169.16 577.939C1171.31 579.765 1173.86 581.213 1176.68 582.201C1179.49 583.189 1182.5 583.697 1185.54 583.697C1188.58 583.697 1191.6 583.189 1194.41 582.201C1197.22 581.213 1199.77 579.765 1201.92 577.939C1204.08 576.114 1205.78 573.947 1206.95 571.562C1208.11 569.176 1208.71 566.62 1208.71 564.038H1206.37C1206.37 566.359 1205.83 568.658 1204.79 570.802C1203.74 572.947 1202.21 574.895 1200.27 576.536C1198.34 578.178 1196.04 579.479 1193.51 580.368C1190.99 581.256 1188.28 581.713 1185.54 581.713C1182.81 581.713 1180.1 581.256 1177.57 580.368C1175.04 579.479 1172.75 578.178 1170.81 576.536C1168.88 574.895 1167.34 572.947 1166.3 570.802C1165.25 568.658 1164.71 566.359 1164.71 564.038H1162.37Z" fill="#353A53"/>
<path d="M0.320312 294.275H69.1263L182.711 356.413M254.793 395.846L182.711 356.413M182.711 356.413V425.334" stroke="black" stroke-width="10.9216"/>
<path d="M0.320312 457.008H69.1263L182.711 519.145M254.793 558.578L182.711 519.145M182.711 519.145V588.067" stroke="black" stroke-width="10.9216"/>
<path d="M1250.75 457.008H1181.94L1068.36 519.145M996.275 558.578L1068.36 519.145M1068.36 519.145V588.067" stroke="black" stroke-width="10.9216"/>
<path d="M1250 295.367H1181.19L1067.61 357.505M995.527 396.938L1067.61 357.505M1067.61 357.505V426.426" stroke="black" stroke-width="10.9216"/>
<rect y="699" width="1250" height="68" fill="#353A53"/>
<circle cx="69.1245" cy="713.66" r="75.3589" fill="#353A53"/>
<circle cx="219.841" cy="713.66" r="75.3589" fill="#353A53"/>
<circle cx="370.56" cy="713.66" r="75.3589" fill="#353A53"/>
<circle cx="521.277" cy="713.66" r="75.3589" fill="#353A53"/>
<circle cx="671.996" cy="713.66" r="75.3589" fill="#353A53"/>
<circle cx="822.712" cy="713.66" r="75.3589" fill="#353A53"/>
<circle cx="973.431" cy="713.66" r="75.3589" fill="#353A53"/>
<circle cx="1124.15" cy="713.66" r="75.3589" fill="#353A53"/>
<path d="M1274.87 638.301C1254.88 638.301 1235.71 646.24 1221.58 660.373C1207.45 674.505 1199.51 693.673 1199.51 713.66C1199.51 733.646 1207.45 752.814 1221.58 766.946C1235.71 781.079 1254.88 789.019 1274.87 789.019L1274.87 713.66V638.301Z" fill="#353A53"/>
</g>
<defs>
<clipPath id="clip0_5078_4304">
<rect width="1250" height="765" fill="white" transform="translate(0.320312 0.488281)"/>
</clipPath>
</defs>
</svg>
