<svg width="104" height="195" viewBox="0 0 104 195" fill="none" xmlns="http://www.w3.org/2000/svg">
<rect width="104" height="195" transform="matrix(-1 0 0 1 104 0)" fill="white"/>
<path d="M38.9994 84.9584C38.9994 84.4061 39.4471 83.9584 39.9994 83.9584L48.9994 83.9584C49.5517 83.9584 49.9994 84.4061 49.9994 84.9584C49.9994 85.5107 49.5517 85.9584 48.9994 85.9584L40.9994 85.9584L40.9994 93.9584C40.9994 94.5107 40.5517 94.9584 39.9994 94.9584C39.4471 94.9584 38.9994 94.5107 38.9994 93.9584L38.9994 84.9584ZM63.3339 109.707L39.2923 85.6655L40.7065 84.2513L64.7481 108.293L63.3339 109.707Z" fill="#353A53"/>
</svg>
