<svg width="1250" height="765" viewBox="0 0 1250 765" fill="none" xmlns="http://www.w3.org/2000/svg">
<g clip-path="url(#clip0_5087_13117)">
<rect x="-0.320312" y="698.512" width="1250" height="68" fill="#353A53"/>
<circle cx="68.8042" cy="713.171" r="75.3589" fill="#353A53"/>
<circle cx="219.521" cy="713.171" r="75.3589" fill="#353A53"/>
<circle cx="370.24" cy="713.171" r="75.3589" fill="#353A53"/>
<circle cx="520.957" cy="713.171" r="75.3589" fill="#353A53"/>
<circle cx="671.675" cy="713.171" r="75.3589" fill="#353A53"/>
<circle cx="822.392" cy="713.171" r="75.3589" fill="#353A53"/>
<circle cx="973.111" cy="713.171" r="75.3589" fill="#353A53"/>
<circle cx="1123.83" cy="713.171" r="75.3589" fill="#353A53"/>
<path d="M1274.55 637.812C1254.56 637.812 1235.39 645.752 1221.26 659.885C1207.13 674.017 1199.19 693.185 1199.19 713.171C1199.19 733.158 1207.13 752.326 1221.26 766.458C1235.39 780.591 1254.56 788.53 1274.55 788.53L1274.55 713.171V637.812Z" fill="#353A53"/>
</g>
<defs>
<clipPath id="clip0_5087_13117">
<rect width="1250" height="765" fill="white"/>
</clipPath>
</defs>
</svg>
