<svg width="275" height="98" viewBox="0 0 275 98" fill="none" xmlns="http://www.w3.org/2000/svg">
<path d="M226.496 63L220 45.0248L238.543 38.1501C245.165 35.8164 245.985 22.3193 248.571 14.5616C253.301 32.9783 246.111 42.565 248.319 53.1609C247.259 53.2114 233.329 59.7413 226.496 63Z" fill="#F24A41"/>
<path d="M229.713 50.8933C228.83 50.2626 231.858 43.4635 232.236 43.3878C233.182 43.1986 237.471 48.2443 237.219 49.1273C237.021 49.8211 230.407 51.3348 229.713 50.8933Z" fill="white"/>
<path d="M232.49 44.9008C232.3 44.9008 230.976 49.3158 231.102 49.4419C231.354 49.6312 234.823 48.6851 235.076 48.4328C235.265 48.2436 232.679 44.9008 232.49 44.9008Z" fill="#F24A41"/>
<path d="M240.919 52.1713C240.095 51.4657 243.705 44.9578 244.089 44.9155C245.048 44.8098 248.879 50.2115 248.55 51.069C248.292 51.7428 241.571 52.6719 240.919 52.1713Z" fill="white"/>
<path d="M244.208 46.4448C244.02 46.4283 242.314 50.7104 242.429 50.8471C242.663 51.0577 246.202 50.4188 246.475 50.1896C246.68 50.0177 244.397 46.4614 244.208 46.4448Z" fill="#F24A41"/>
<path d="M245.458 41.0708C244.634 40.3652 248.245 33.8572 248.628 33.815C249.587 33.7093 251.031 36.6358 250.463 39.4109C250.157 40.9055 246.111 41.5714 245.458 41.0708Z" fill="white"/>
<path d="M248.749 35.3451C248.56 35.3285 246.854 39.6107 246.969 39.7474C247.204 39.958 250.37 39.7474 250.528 38.9065C250.717 37.8974 248.937 35.3617 248.749 35.3451Z" fill="#F24A41"/>
<path d="M250.082 24.1477C249.274 25.0054 248.274 27.6586 247.874 28.878C247.269 30.3412 249.094 30.3287 250.082 30.1395C250.523 29.5508 251.167 28.4996 250.208 29.0041C249.249 29.5087 249.808 28.3734 250.208 27.7427C250.502 26.187 250.889 23.2899 250.082 24.1477Z" fill="white"/>
<path d="M229.838 54.4214C228.45 54.5475 226.406 62.0987 226.621 62.2422C226.81 62.3683 228.64 61.99 228.892 61.8638L233.307 59.7824C231.377 60.2906 228.387 60.9181 228.198 60.7285C227.946 60.4761 229.586 55.4305 229.964 55.3675C230.216 55.3255 231.604 58.6471 233.748 59.5932L234.946 59.0256C235.01 58.584 230.532 54.4214 229.838 54.4214Z" fill="white"/>
<path d="M223.596 44.7085C222.637 44.759 223.049 44.0989 223.407 43.7625L221.704 44.3932C221.199 45.5537 222.44 45.7597 223.091 45.7177C226.623 45.5915 228.074 45.087 229.335 44.8978C230.344 44.7464 229.966 43.9517 229.651 43.5733L228.137 41.9965L226.812 42.5011C226.96 42.7113 227.405 43.2705 227.759 43.5733C228.112 43.876 227.906 44.0778 227.759 44.1409C226.77 44.3091 224.555 44.6581 223.596 44.7085Z" fill="white"/>
<path d="M250.339 15.7585C249.263 13.1958 248.846 13.9715 248.573 14.7494C253.24 34.3014 245.987 41.4915 248.257 53.2227L261.502 47.2309L259.61 43.3836L249.266 46.9156C250.717 41.3653 253.303 22.8225 250.339 15.7585Z" fill="black"/>
</svg>
