<svg width="275" height="98" viewBox="0 0 275 98" fill="none" xmlns="http://www.w3.org/2000/svg">
<g clip-path="url(#clip0_5110_3)">
<path d="M227.496 49L221 66.9751L239.543 73.8498C246.165 76.1834 246.985 89.6805 249.571 97.4381C254.301 79.0215 247.111 69.4348 249.319 58.839C248.259 58.7885 234.329 52.2586 227.496 49Z" fill="#F24A41"/>
<path d="M230.713 61.1067C229.83 61.7374 232.858 68.5364 233.236 68.6121C234.182 68.8013 238.471 63.7557 238.219 62.8727C238.021 62.1789 231.407 60.6652 230.713 61.1067Z" fill="white"/>
<path d="M233.49 67.0991C233.3 67.0991 231.976 62.6842 232.102 62.5581C232.354 62.3688 235.823 63.3149 236.076 63.5672C236.265 63.7564 233.679 67.0991 233.49 67.0991Z" fill="#F24A41"/>
<path d="M241.917 59.8287C241.093 60.5342 244.703 67.0422 245.087 67.0844C246.046 67.1901 249.877 61.7885 249.548 60.931C249.29 60.2572 242.569 59.3281 241.917 59.8287Z" fill="white"/>
<path d="M245.206 65.5551C245.018 65.5717 243.312 61.2896 243.427 61.1529C243.661 60.9423 247.2 61.5812 247.473 61.8104C247.678 61.9823 245.395 65.5386 245.206 65.5551Z" fill="#F24A41"/>
<path d="M246.458 70.9273C245.634 71.6328 249.245 78.1408 249.628 78.183C250.587 78.2887 252.031 75.3622 251.463 72.5871C251.157 71.0925 247.111 70.4267 246.458 70.9273Z" fill="white"/>
<path d="M249.749 76.6548C249.56 76.6714 247.854 72.3893 247.969 72.2526C248.204 72.042 251.37 72.2526 251.528 73.0935C251.717 74.1026 249.937 76.6383 249.749 76.6548Z" fill="#F24A41"/>
<path d="M251.082 87.8523C250.274 86.9945 249.274 84.3414 248.874 83.122C248.269 81.6588 250.094 81.6713 251.082 81.8605C251.523 82.4492 252.167 83.5004 251.208 82.9959C250.249 82.4913 250.808 83.6266 251.208 84.2573C251.502 85.813 251.889 88.71 251.082 87.8523Z" fill="white"/>
<path d="M230.836 57.5785C229.448 57.4525 227.404 49.9013 227.619 49.7578C227.808 49.6317 229.638 50.01 229.89 50.1362L234.305 52.2175C232.375 51.7094 229.385 51.0818 229.196 51.2715C228.944 51.5238 230.584 56.5695 230.962 56.6325C231.214 56.6745 232.602 53.3529 234.746 52.4067L235.944 52.9744C236.008 53.416 231.53 57.5785 230.836 57.5785Z" fill="white"/>
<path d="M224.596 67.2915C223.637 67.241 224.049 67.9011 224.406 68.2375L222.704 67.6068C222.199 66.4463 223.44 66.2403 224.091 66.2823C227.623 66.4085 229.074 66.913 230.335 67.1022C231.344 67.2536 230.966 68.0483 230.651 68.4267L229.137 70.0034L227.812 69.4989C227.959 69.2886 228.405 68.7295 228.759 68.4267C229.112 68.124 228.906 67.9222 228.759 67.8591C227.77 67.6909 225.554 67.3419 224.596 67.2915Z" fill="white"/>
<path d="M251.339 96.2412C250.263 98.8039 249.846 98.0282 249.573 97.2503C254.24 77.6985 246.987 70.5085 249.257 58.7773L262.502 64.769L260.61 68.6163L250.266 65.0844C251.717 70.6346 254.303 89.1773 251.339 96.2412Z" fill="black"/>
</g>
<defs>
<clipPath id="clip0_5110_3">
<rect width="275" height="98" fill="white"/>
</clipPath>
</defs>
</svg>
